<svg xmlns="http://www.w3.org/2000/svg" xmlns:xlink="http://www.w3.org/1999/xlink" width="38.068" height="34.184" viewBox="0 0 38.068 34.184">
  <defs>
    <clipPath id="clip-path">
      <rect id="長方形_6" data-name="長方形 6" width="38.068" height="34.184" fill="none"/>
    </clipPath>
  </defs>
  <g id="グループ_2" data-name="グループ 2" clip-path="url(#clip-path)">
    <path id="パス_1" data-name="パス 1" d="M98.6,179.086a19.987,19.987,0,0,1,2.019.253,3.012,3.012,0,0,1,2.162,1.681c.6,1.25,1.178,2.522,1.879,3.717a30.053,30.053,0,0,0,4.387,5.623A4.541,4.541,0,0,1,110.3,193a3.465,3.465,0,0,1-1.852,3.512,5.042,5.042,0,0,1-4.475.442,25.369,25.369,0,0,0-2.794-.858,10.5,10.5,0,0,0-5.855.387c-.758.287-1.544.508-2.327.721a4.04,4.04,0,0,1-3.991-1.14c-1.846-1.722-1.858-3.947-.226-5.876,1.441-1.7,2.786-3.494,4.1-5.3a13.958,13.958,0,0,0,1.14-2.245c.217-.453.418-.915.593-1.385a3.182,3.182,0,0,1,3-2.046c.324-.032.649-.045.974-.067l.006-.06" transform="translate(-79.802 -163.168)" fill="#353535"/>
    <path id="パス_2" data-name="パス 2" d="M242.08,7.816a7.83,7.83,0,0,1-1.339,4.608,4.789,4.789,0,0,1-6.752.486,3.834,3.834,0,0,1-1.151-2.8,20.43,20.43,0,0,1,1.025-7.3,6.892,6.892,0,0,1,.709-1.424,2.622,2.622,0,0,1,3.842-.9,5.664,5.664,0,0,1,1.5,1.292,10.309,10.309,0,0,1,2.167,6.04" transform="translate(-212.139 0)" fill="#353535"/>
    <path id="パス_3" data-name="パス 3" d="M100.833,9.476a19.506,19.506,0,0,1-.2,2A3.924,3.924,0,0,1,96.8,14.516c-2.814.07-4.579-1.464-5.106-4.436a9.937,9.937,0,0,1,1.877-7.754A4.243,4.243,0,0,1,96.092.552a2.474,2.474,0,0,1,2.7.991,8.263,8.263,0,0,1,1.48,3.715c.256,1.468.4,2.956.56,4.218" transform="translate(-83.397 -0.428)" fill="#353535"/>
    <path id="パス_4" data-name="パス 4" d="M329.539,131.321a9.6,9.6,0,0,1-1.931,6.449,6.174,6.174,0,0,1-1.981,1.813,3.141,3.141,0,0,1-2.659.164,4.607,4.607,0,0,1-2.89-5.674,14.175,14.175,0,0,1,3.16-5.686,7.159,7.159,0,0,1,2.4-2.012,2.165,2.165,0,0,1,2.926.743,6.157,6.157,0,0,1,.977,3.272c.024.309,0,.621,0,.932" transform="translate(-291.48 -114.884)" fill="#353535"/>
    <path id="パス_5" data-name="パス 5" d="M9.674,135.961a4.555,4.555,0,0,1-2.91,4.288,3.543,3.543,0,0,1-4.154-1.128A10.007,10.007,0,0,1,.022,131.4a17.724,17.724,0,0,1,.441-2.656A2.837,2.837,0,0,1,.9,127.83a2.2,2.2,0,0,1,3.15-.816A7.932,7.932,0,0,1,6.5,129.171a13.687,13.687,0,0,1,2.966,5.4,13.92,13.92,0,0,1,.205,1.393" transform="translate(0 -115.406)" fill="#353535"/>
  </g>
</svg>
