<svg xmlns="http://www.w3.org/2000/svg" xmlns:xlink="http://www.w3.org/1999/xlink" width="79.92" height="412.698" viewBox="0 0 79.92 412.698">
  <defs>
    <filter id="パス_256">
      <feOffset dy="3" input="SourceAlpha"/>
      <feGaussianBlur stdDeviation="5" result="blur"/>
      <feFlood flood-opacity="0.161" result="color"/>
      <feComposite operator="out" in="SourceGraphic" in2="blur"/>
      <feComposite operator="in" in="color"/>
      <feComposite operator="in" in2="SourceGraphic"/>
    </filter>
  </defs>
  <g data-type="innerShadowGroup">
    <path id="パス_256-2" data-name="パス 256" d="M23.2-78.81c-11.433,0-18.093,6.882-18.093,18.648v42.624C5.106-5.772,11.766,1.11,23.2,1.11c11.544,0,18.315-6.882,18.315-18.648v-9.324l-11.322-.555v8.658c0,6.216-2.331,8.991-6.66,8.991s-6.66-2.775-6.66-7.881v-42.4c0-5.106,2.331-7.881,6.66-7.881s6.66,2.775,6.66,8.991v6.327l11.322-.555v-6.993C41.514-71.928,34.743-78.81,23.2-78.81Zm46.287,0C57.72-78.81,50.5-71.373,50.5-59.163v40.626C50.5-6.327,57.72,1.11,69.486,1.11S88.467-6.327,88.467-18.537V-59.163C88.467-71.373,81.252-78.81,69.486-78.81Zm0,10.878c4.662,0,7.215,3.108,7.215,8.88v40.4c0,5.772-2.553,8.88-7.215,8.88s-7.215-3.108-7.215-8.88v-40.4C62.271-64.824,64.824-67.932,69.486-67.932ZM138.2,0V-77.7H127.1v46.287h-.222L113-77.7H99.9V0H111V-51.5h.222L126.651,0Zm12.654-77.7V0h16.872c12.654,0,19.536-6.882,19.536-19.647V-58.053c0-12.765-6.882-19.647-19.536-19.647Zm11.766,10.878h4.662c5.661,0,8.214,3,8.214,9.546v36.852c0,6.549-2.553,9.546-8.214,9.546h-4.662ZM210.456,0V-77.7H198.69V0Zm44.289-66.6V-77.7H217.893v11.1h12.543V0H242.2V-66.6ZM273.948,0V-77.7H262.182V0Zm30.414-78.81c-11.766,0-18.981,7.437-18.981,19.647v40.626c0,12.21,7.215,19.647,18.981,19.647s18.981-7.437,18.981-19.647V-59.163C323.343-71.373,316.128-78.81,304.362-78.81Zm0,10.878c4.662,0,7.215,3.108,7.215,8.88v40.4c0,5.772-2.553,8.88-7.215,8.88s-7.215-3.108-7.215-8.88v-40.4C297.147-64.824,299.7-67.932,304.362-67.932ZM373.071,0V-77.7h-11.1v46.287h-.222L347.874-77.7h-13.1V0h11.1V-51.5h.222L361.527,0Zm26.64-78.81c-10.878,0-17.538,5.994-17.538,17.427V-59.5c0,8.436,3.552,14.763,13.986,24.42,7.659,6.993,9.879,10.545,9.879,15.429V-17.2c0,5.55-2.886,7.437-6.438,7.437-4.218,0-6.66-2.553-6.66-7.77v-5.328l-11.322,1.11v5.106c0,11.433,7.326,17.76,18.2,17.76,10.767,0,17.982-5.994,17.982-17.427v-3.774c0-8.991-3.552-15.318-13.986-24.975-7.659-6.993-9.879-10.545-9.879-14.874V-61.6c0-4.44,2.442-6.327,5.883-6.327,4.107,0,6.1,2.442,6.1,7.77v2.442l11.322-1.11v-2.22C417.249-72.483,410.589-78.81,399.711-78.81Z" transform="translate(1.11 -5.106) rotate(90)" fill="#fff"/>
    <g transform="matrix(1, 0, 0, 1, 0, 0)" filter="url(#パス_256)">
      <path id="パス_256-3" data-name="パス 256" d="M23.2-78.81c-11.433,0-18.093,6.882-18.093,18.648v42.624C5.106-5.772,11.766,1.11,23.2,1.11c11.544,0,18.315-6.882,18.315-18.648v-9.324l-11.322-.555v8.658c0,6.216-2.331,8.991-6.66,8.991s-6.66-2.775-6.66-7.881v-42.4c0-5.106,2.331-7.881,6.66-7.881s6.66,2.775,6.66,8.991v6.327l11.322-.555v-6.993C41.514-71.928,34.743-78.81,23.2-78.81Zm46.287,0C57.72-78.81,50.5-71.373,50.5-59.163v40.626C50.5-6.327,57.72,1.11,69.486,1.11S88.467-6.327,88.467-18.537V-59.163C88.467-71.373,81.252-78.81,69.486-78.81Zm0,10.878c4.662,0,7.215,3.108,7.215,8.88v40.4c0,5.772-2.553,8.88-7.215,8.88s-7.215-3.108-7.215-8.88v-40.4C62.271-64.824,64.824-67.932,69.486-67.932ZM138.2,0V-77.7H127.1v46.287h-.222L113-77.7H99.9V0H111V-51.5h.222L126.651,0Zm12.654-77.7V0h16.872c12.654,0,19.536-6.882,19.536-19.647V-58.053c0-12.765-6.882-19.647-19.536-19.647Zm11.766,10.878h4.662c5.661,0,8.214,3,8.214,9.546v36.852c0,6.549-2.553,9.546-8.214,9.546h-4.662ZM210.456,0V-77.7H198.69V0Zm44.289-66.6V-77.7H217.893v11.1h12.543V0H242.2V-66.6ZM273.948,0V-77.7H262.182V0Zm30.414-78.81c-11.766,0-18.981,7.437-18.981,19.647v40.626c0,12.21,7.215,19.647,18.981,19.647s18.981-7.437,18.981-19.647V-59.163C323.343-71.373,316.128-78.81,304.362-78.81Zm0,10.878c4.662,0,7.215,3.108,7.215,8.88v40.4c0,5.772-2.553,8.88-7.215,8.88s-7.215-3.108-7.215-8.88v-40.4C297.147-64.824,299.7-67.932,304.362-67.932ZM373.071,0V-77.7h-11.1v46.287h-.222L347.874-77.7h-13.1V0h11.1V-51.5h.222L361.527,0Zm26.64-78.81c-10.878,0-17.538,5.994-17.538,17.427V-59.5c0,8.436,3.552,14.763,13.986,24.42,7.659,6.993,9.879,10.545,9.879,15.429V-17.2c0,5.55-2.886,7.437-6.438,7.437-4.218,0-6.66-2.553-6.66-7.77v-5.328l-11.322,1.11v5.106c0,11.433,7.326,17.76,18.2,17.76,10.767,0,17.982-5.994,17.982-17.427v-3.774c0-8.991-3.552-15.318-13.986-24.975-7.659-6.993-9.879-10.545-9.879-14.874V-61.6c0-4.44,2.442-6.327,5.883-6.327,4.107,0,6.1,2.442,6.1,7.77v2.442l11.322-1.11v-2.22C417.249-72.483,410.589-78.81,399.711-78.81Z" transform="translate(1.11 -5.11) rotate(90)" fill="#fff"/>
    </g>
  </g>
</svg>
