<svg xmlns="http://www.w3.org/2000/svg" width="743.263" height="366.681" viewBox="0 0 743.263 366.681">
  <g id="グループ_1659" data-name="グループ 1659" transform="translate(-656.555 -2155.554)">
    <path id="パス_257" data-name="パス 257" d="M17.6-10.8V-75.6H6.156V0H36.72V-10.8ZM61.128-76.68c-11.448,0-18.468,7.236-18.468,19.116v39.528c0,11.88,7.02,19.116,18.468,19.116S79.6-6.156,79.6-18.036V-57.564C79.6-69.444,72.576-76.68,61.128-76.68Zm0,10.584c4.536,0,7.02,3.024,7.02,8.64v39.312c0,5.616-2.484,8.64-7.02,8.64s-7.02-3.024-7.02-8.64V-57.456C54.108-63.072,56.592-66.1,61.128-66.1ZM113.616,0,126.36-75.6H114.912l-8.424,57.672h-.216L97.74-75.6H86.076L98.82,0Zm53.136-65.016V-75.6H134.568V0h32.184V-10.584H146.016V-33.048h16.74V-43.632h-16.74V-65.016ZM220.644,0l11.664-75.6H220.86l-6.588,50.112h-.216L207.576-75.6H197.424l-6.48,50.112h-.216L184.14-75.6H172.368L184.032,0H195.7l6.588-45.036h.216L208.98,0ZM272.7-65.016V-75.6H240.516V0H272.7V-10.584H251.964V-33.048H268.7V-43.632h-16.74V-65.016ZM319.032,0,305.964-75.6h-14.58L278.316,0h11.448l2.484-17.172h12.636L307.368,0ZM298.4-59.4h.324l4.644,31.86H293.76ZM351.972,0h12.1L353.592-34.452c5.292-3.024,8.1-8.64,8.1-16.632v-5.4c0-12.42-6.7-19.116-19.008-19.116H326.16V0h11.448V-31.968H342.9ZM337.608-65.016h4.644c5.508,0,7.992,2.916,7.992,9.288v3.888c0,6.372-2.484,9.288-7.992,9.288h-4.644Z" transform="translate(657.635 2153.33) rotate(90)" fill="#cdcdcd"/>
    <path id="パス_260" data-name="パス 260" d="M63.842,0l14.8-95.9H64.116L55.759-32.332h-.274L47.265-95.9H34.387l-8.22,63.568h-.274L17.536-95.9H2.6L17.4,0h14.8l8.357-57.129h.274L49.046,0Zm66.034-82.474V-95.9H89.05V0h40.826V-13.426h-26.3v-28.5h21.235V-55.348H103.572V-82.474ZM188.649,0,172.072-95.9h-18.5L137,0h14.522l3.151-21.783H170.7L173.853,0ZM162.482-75.35h.411l5.891,40.415H156.591ZM230.434,0h15.344L232.489-43.7c6.713-3.836,10.275-10.96,10.275-21.1v-6.85c0-15.755-8.494-24.249-24.112-24.249H197.691V0h14.522V-40.552h6.713ZM212.213-82.474H218.1c6.987,0,10.138,3.7,10.138,11.782v4.932c0,8.083-3.151,11.782-10.138,11.782h-5.891ZM270.849-13.7V-95.9H256.327V0H295.1V-13.7ZM326.06-97.27c-14.522,0-23.427,9.179-23.427,24.249v50.142c0,15.07,8.9,24.249,23.427,24.249s23.427-9.179,23.427-24.249V-73.021C349.487-88.091,340.582-97.27,326.06-97.27Zm0,13.426c5.754,0,8.9,3.836,8.9,10.96v49.868c0,7.124-3.151,10.96-8.9,10.96s-8.9-3.836-8.9-10.96V-72.884C317.155-80.008,320.306-83.844,326.06-83.844ZM392.642,0l16.166-95.9H394.286L383.6-22.742h-.274L372.5-95.9h-14.8L373.873,0Zm67.4-82.474V-95.9H419.22V0h40.826V-13.426h-26.3v-28.5h21.235V-55.348H433.742V-82.474Z" transform="translate(741.706 2520.865)" fill="#cdcdcd"/>
    <path id="パス_258" data-name="パス 258" d="M41.173-139.87c-20.291,0-32.111,12.214-32.111,33.1v75.648c0,20.882,11.82,33.1,32.111,33.1,20.488,0,32.505-12.214,32.505-33.1V-47.674l-20.094-.985v15.366c0,11.032-4.137,15.957-11.82,15.957s-11.82-4.925-11.82-13.987v-75.254c0-9.062,4.137-13.987,11.82-13.987s11.82,4.925,11.82,15.957v11.229l20.094-.985v-12.411C73.678-127.656,61.661-139.87,41.173-139.87Zm113.669,1.97H133.96V-31.52c0,10.047-4.531,13.79-11.82,13.79s-11.82-3.743-11.82-13.79V-137.9H90.226V-30.929c0,21.67,12.411,32.9,32.111,32.9,20.094,0,32.505-11.229,32.505-32.9Zm77.421,19.7v-19.7h-65.4v19.7H189.12V0H210V-118.2Zm71.9-.394V-137.9H245.462V0h58.706V-19.306H266.344V-60.282h30.535V-79.588H266.344v-39.006Zm55.16-19.306V0h29.944c22.458,0,34.672-12.214,34.672-34.869v-68.162c0-22.655-12.214-34.869-34.672-34.869Zm20.882,19.306h8.274c10.047,0,14.578,5.319,14.578,16.942v65.4c0,11.623-4.531,16.942-14.578,16.942H380.21Zm95.545-21.276c-20.882,0-33.687,13.2-33.687,34.869v72.1c0,21.67,12.8,34.869,33.687,34.869s33.687-13.2,33.687-34.869V-105C509.442-126.671,496.637-139.87,475.755-139.87Zm0,19.306c8.274,0,12.8,5.516,12.8,15.76V-33.1c0,10.244-4.531,15.76-12.8,15.76s-12.8-5.516-12.8-15.76V-104.8C462.95-115.048,467.481-120.564,475.755-120.564Zm84.316-19.306c-20.685,0-32.505,12.214-32.505,33.1v75.648c0,20.882,11.82,33.1,32.505,33.1,20.882,0,32.9-12.214,32.9-33.1V-76.239H560.662v19.306h11.82v23.64c0,11.032-3.94,15.957-12.017,15.957s-12.017-4.925-12.017-13.987v-75.254c0-9.062,4.137-13.987,12.214-13.987s12.214,4.925,12.214,15.957v8.274l20.094-.985v-9.456C592.97-127.656,580.953-139.87,560.071-139.87Z" transform="translate(743.013 2295.424)" fill="#cdcdcd"/>
    <path id="パス_259" data-name="パス 259" d="M20.5-79.52C9.52-79.52,2.8-73.472,2.8-61.936v1.9c0,8.512,3.584,14.9,14.112,24.64,7.728,7.056,9.968,10.64,9.968,15.568v2.464c0,5.6-2.912,7.5-6.5,7.5-4.256,0-6.72-2.576-6.72-7.84v-5.376L2.24-21.952V-16.8C2.24-5.264,9.632,1.12,20.608,1.12c10.864,0,18.144-6.048,18.144-17.584v-3.808c0-9.072-3.584-15.456-14.112-25.2-7.728-7.056-9.968-10.64-9.968-15.008v-1.68c0-4.48,2.464-6.384,5.936-6.384,4.144,0,6.16,2.464,6.16,7.84v2.464l11.424-1.12V-61.6C38.192-73.136,31.472-79.52,20.5-79.52Zm59.248,12.1V-78.4H46.368V0H79.744V-10.976H58.24v-23.3H75.6V-45.248H58.24V-67.424ZM101.7-11.2V-78.4H89.824V0h31.7V-11.2Zm60.256-56.224V-78.4H129.136V0h11.872V-34.272h16.8V-45.248h-16.8V-67.424ZM181.664,0V-78.4H169.792V0Zm26.88-79.52c-10.976,0-17.7,6.048-17.7,17.584v1.9c0,8.512,3.584,14.9,14.112,24.64,7.728,7.056,9.968,10.64,9.968,15.568v2.464c0,5.6-2.912,7.5-6.5,7.5-4.256,0-6.72-2.576-6.72-7.84v-5.376l-11.424,1.12V-16.8c0,11.536,7.392,17.92,18.368,17.92,10.864,0,18.144-6.048,18.144-17.584v-3.808c0-9.072-3.584-15.456-14.112-25.2-7.728-7.056-9.968-10.64-9.968-15.008v-1.68c0-4.48,2.464-6.384,5.936-6.384,4.144,0,6.16,2.464,6.16,7.84v2.464l11.424-1.12V-61.6C226.24-73.136,219.52-79.52,208.544-79.52ZM272.272,0V-78.4H260.4v33.04H246.288V-78.4H234.416V0h11.872V-34.16H260.4V0Zm51.072-79.52c-11.536,0-18.256,6.944-18.256,18.816V-17.7c0,11.872,6.72,18.816,18.256,18.816,11.648,0,18.48-6.944,18.48-18.816V-27.1l-11.424-.56v8.736c0,6.272-2.352,9.072-6.72,9.072s-6.72-2.8-6.72-7.952V-60.592c0-5.152,2.352-7.952,6.72-7.952s6.72,2.8,6.72,9.072v6.384l11.424-.56V-60.7C341.824-72.576,334.992-79.52,323.344-79.52Zm46.7,0c-11.872,0-19.152,7.5-19.152,19.824V-18.7c0,12.32,7.28,19.824,19.152,19.824S389.2-6.384,389.2-18.7V-59.7C389.2-72.016,381.92-79.52,370.048-79.52Zm0,10.976c4.7,0,7.28,3.136,7.28,8.96v40.768c0,5.824-2.576,8.96-7.28,8.96s-7.28-3.136-7.28-8.96V-59.584C362.768-65.408,365.344-68.544,370.048-68.544ZM439.376,0V-78.4h-11.2v46.7h-.224l-14-46.7H400.736V0h11.2V-51.968h.224L427.728,0Zm44.688-67.2V-78.4H446.88v11.2h12.656V0h11.872V-67.2Zm40.88-.224V-78.4H491.568V0h33.376V-10.976h-21.5v-23.3H520.8V-45.248H503.44V-67.424ZM573.664,0V-78.4h-11.2v46.7h-.224l-14-46.7H535.024V0h11.2V-51.968h.224L562.016,0Zm44.688-67.2V-78.4H581.168v11.2h12.656V0H605.7V-67.2Zm21.5-12.32c-10.976,0-17.7,6.048-17.7,17.584v1.9c0,8.512,3.584,14.9,14.112,24.64,7.728,7.056,9.968,10.64,9.968,15.568v2.464c0,5.6-2.912,7.5-6.5,7.5-4.256,0-6.72-2.576-6.72-7.84v-5.376L621.6-21.952V-16.8c0,11.536,7.392,17.92,18.368,17.92,10.864,0,18.144-6.048,18.144-17.584v-3.808c0-9.072-3.584-15.456-14.112-25.2-7.728-7.056-9.968-10.64-9.968-15.008v-1.68c0-4.48,2.464-6.384,5.936-6.384,4.144,0,6.16,2.464,6.16,7.84v2.464l11.424-1.12V-61.6C657.552-73.136,650.832-79.52,639.856-79.52Z" transform="translate(741.706 2398.625)" fill="#cdcdcd"/>
  </g>
</svg>
