<svg xmlns="http://www.w3.org/2000/svg" width="1192.1" height="468.44" viewBox="0 0 1192.1 468.44">
  <g id="グループ_1667" data-name="グループ 1667" transform="translate(-1299.1 -1272.5)">
    <path id="パス_258" data-name="パス 258" d="M80.4,0V-140h-20v83.4H60L35-140H11.4V0h20V-92.8h.4L59.6,0Zm44,0V-140H103.2V0Zm48-142c-19.6,0-31.6,10.8-31.6,31.4v3.4c0,15.2,6.4,26.6,25.2,44,13.8,12.6,17.8,19,17.8,27.8V-31c0,10-5.2,13.4-11.6,13.4-7.6,0-12-4.6-12-14v-9.6l-20.4,2V-30c0,20.6,13.2,32,32.8,32C192,2,205-8.8,205-29.4v-6.8c0-16.2-6.4-27.6-25.2-45C166-93.8,162-100.2,162-108v-3c0-8,4.4-11.4,10.6-11.4,7.4,0,11,4.4,11,14v4.4l20.4-2v-4C204-130.6,192-142,172.4-142Zm105.8,21.6V-140H218.6V0h59.6V-19.6H239.8V-61.2h31V-80.8h-31v-39.6Zm110,.4v-20H321.8v20h22.6V0h21.2V-120ZM433-142c-21.2,0-34.2,13.4-34.2,35.4v73.2c0,22,13,35.4,34.2,35.4s34.2-13.4,34.2-35.4v-73.2C467.2-128.6,454.2-142,433-142Zm0,19.6c8.4,0,13,5.6,13,16v72.8c0,10.4-4.6,16-13,16s-13-5.6-13-16v-72.8C420-116.8,424.6-122.4,433-122.4ZM577.6,0V-140H549L532.6-64.8h-.4L515.6-140H487.8V0h20V-97.2h.4L525.8-20h12.6L556-97.2h.4V0ZM660-120.4V-140H600.4V0H660V-19.6H621.6V-61.2h31V-80.8h-31v-39.6Zm77.6,0V-140H678V0h59.6V-19.6H699.2V-61.2h31V-80.8h-31v-39.6Zm75,.4v-20H746.2v20h22.6V0H790V-120ZM894-63.2,923-140H901L884-90.4h-.4L865.8-140H843.4l29.4,76.6V0H894ZM962-142c-21.2,0-34.2,13.4-34.2,35.4v73.2c0,22,13,35.4,34.2,35.4s34.2-13.4,34.2-35.4v-73.2C996.2-128.6,983.2-142,962-142Zm0,19.6c8.4,0,13,5.6,13,16v72.8c0,10.4-4.6,16-13,16s-13-5.6-13-16v-72.8C949-116.8,953.6-122.4,962-122.4ZM1081.2-140H1060V-32c0,10.2-4.6,14-12,14s-12-3.8-12-14V-140h-20.4V-31.4c0,22,12.6,33.4,32.6,33.4,20.4,0,33-11.4,33-33.4Z" transform="translate(1410 1414.5)" fill="#bebebe"/>
    <path id="パス_259" data-name="パス 259" d="M28.635-80.5H16.445v61.41c0,6.21-2.415,8.97-8.05,8.97a20.415,20.415,0,0,1-5.98-.92L1.725.115A31.14,31.14,0,0,0,9.89,1.15c12.65,0,18.745-7.015,18.745-19.9ZM79.695,0,65.78-80.5H50.255L36.34,0H48.53l2.645-18.285H64.63L67.275,0ZM57.73-63.25h.345L63.02-29.325H52.785ZM88.435-80.5V0h12.19V-33.35h5.4c13.11,0,20.24-7.13,20.24-20.355v-6.44c0-13.225-7.13-20.355-20.24-20.355Zm12.19,11.27h4.945c5.865,0,8.51,3.105,8.51,9.89v4.83c0,6.785-2.645,9.89-8.51,9.89h-4.945ZM170.545,0,156.63-80.5H141.1L127.19,0h12.19l2.645-18.285H155.48L158.125,0ZM148.58-63.25h.345l4.945,33.925H143.635ZM218.96,0V-80.5h-11.5v47.955h-.23L192.855-80.5h-13.57V0h11.5V-53.36h.23L207,0Zm47.38-69.23V-80.5H232.07V0h34.27V-11.27H244.26V-35.19h17.825V-46.46H244.26V-69.23Zm24.725-12.42c-11.27,0-18.17,6.21-18.17,18.055v1.955c0,8.74,3.68,15.3,14.49,25.3,7.935,7.245,10.235,10.925,10.235,15.985v2.53c0,5.75-2.99,7.705-6.67,7.705-4.37,0-6.9-2.645-6.9-8.05v-5.52l-11.73,1.15v5.29c0,11.845,7.59,18.4,18.86,18.4,11.155,0,18.63-6.21,18.63-18.055v-3.91c0-9.315-3.68-15.87-14.49-25.875-7.935-7.245-10.235-10.925-10.235-15.41v-1.725c0-4.6,2.53-6.555,6.1-6.555,4.255,0,6.325,2.53,6.325,8.05v2.53l11.73-1.15v-2.3C309.235-75.1,302.335-81.65,291.065-81.65ZM351.9-69.23V-80.5H317.63V0H351.9V-11.27H329.82V-35.19h17.825V-46.46H329.82V-69.23Zm49.68-12.42c-11.845,0-18.745,7.13-18.745,19.32v44.16c0,12.19,6.9,19.32,18.745,19.32,11.96,0,18.975-7.13,18.975-19.32v-9.66l-11.73-.575v8.97c0,6.44-2.415,9.315-6.9,9.315s-6.9-2.875-6.9-8.165v-43.93c0-5.29,2.415-8.165,6.9-8.165s6.9,2.875,6.9,9.315v6.555l11.73-.575V-62.33C420.555-74.52,413.54-81.65,401.58-81.65Zm63.595,12.42V-80.5H430.9V0h34.27V-11.27H443.1V-35.19H460.92V-46.46H443.1V-69.23ZM515.2,0V-80.5H503.7v47.955h-.23L489.1-80.5h-13.57V0h11.5V-53.36h.23L503.24,0Zm45.885-69V-80.5h-38.18V-69H535.9V0h12.19V-69Zm41.975-.23V-80.5H568.79V0h34.27V-11.27H580.98V-35.19H598.8V-46.46H580.98V-69.23ZM653.085,0V-80.5h-11.5v47.955h-.23L626.98-80.5H613.41V0h11.5V-53.36h.23L641.125,0Zm30.59-81.65c-11.845,0-18.745,7.13-18.745,19.32v44.16c0,12.19,6.9,19.32,18.745,19.32,11.96,0,18.975-7.13,18.975-19.32v-9.66L690.92-28.4v8.97c0,6.44-2.415,9.315-6.9,9.315s-6.9-2.875-6.9-8.165v-43.93c0-5.29,2.415-8.165,6.9-8.165s6.9,2.875,6.9,9.315v6.555l11.73-.575V-62.33C702.65-74.52,695.635-81.65,683.675-81.65Zm63.6,12.42V-80.5H713V0h34.27V-11.27H725.19V-35.19h17.825V-46.46H725.19V-69.23Z" transform="translate(1410 1515.5)" fill="#bebebe"/>
    <path id="パス_260" data-name="パス 260" d="M22.82-14V-98H7.98V0H47.6V-14ZM79.24-99.4C64.4-99.4,55.3-90.02,55.3-74.62v51.24C55.3-7.98,64.4,1.4,79.24,1.4s23.94-9.38,23.94-24.78V-74.62C103.18-90.02,94.08-99.4,79.24-99.4Zm0,13.72c5.88,0,9.1,3.92,9.1,11.2v50.96c0,7.28-3.22,11.2-9.1,11.2s-9.1-3.92-9.1-11.2V-74.48C70.14-81.76,73.36-85.68,79.24-85.68ZM147.28,0,163.8-98H148.96L138.04-23.24h-.28L126.7-98H111.58L128.1,0Zm68.88-84.28V-98H174.44V0h41.72V-13.72H189.28V-42.84h21.7V-56.56h-21.7V-84.28ZM318.22,0V-98H298.2L286.72-45.36h-.28L274.82-98H255.36V0h14V-68.04h.28L281.96-14h8.82L303.1-68.04h.28V0ZM375.9-84.28V-98H334.18V0H375.9V-13.72H349.02V-42.84h21.7V-56.56h-21.7V-84.28ZM477.96,0V-98H457.94L446.46-45.36h-.28L434.56-98H415.1V0h14V-68.04h.28L441.7-14h8.82l12.32-54.04h.28V0Zm38.36-99.4c-14.84,0-23.94,9.38-23.94,24.78v51.24c0,15.4,9.1,24.78,23.94,24.78s23.94-9.38,23.94-24.78V-74.62C540.26-90.02,531.16-99.4,516.32-99.4Zm0,13.72c5.88,0,9.1,3.92,9.1,11.2v50.96c0,7.28-3.22,11.2-9.1,11.2s-9.1-3.92-9.1-11.2V-74.48C507.22-81.76,510.44-85.68,516.32-85.68ZM586.74,0h15.68L588.84-44.66c6.86-3.92,10.5-11.2,10.5-21.56v-7c0-16.1-8.68-24.78-24.64-24.78H553.28V0h14.84V-41.44h6.86ZM568.12-84.28h6.02c7.14,0,10.36,3.78,10.36,12.04v5.04c0,8.26-3.22,12.04-10.36,12.04h-6.02Zm86.8,0V-98H613.2V0h41.72V-13.72H628.04V-42.84h21.7V-56.56h-21.7V-84.28Z" transform="translate(1410 1639.5)" fill="#bebebe"/>
    <path id="パス_257" data-name="パス 257" d="M22.82-14V-98H7.98V0H47.6V-14ZM79.24-99.4C64.4-99.4,55.3-90.02,55.3-74.62v51.24C55.3-7.98,64.4,1.4,79.24,1.4s23.94-9.38,23.94-24.78V-74.62C103.18-90.02,94.08-99.4,79.24-99.4Zm0,13.72c5.88,0,9.1,3.92,9.1,11.2v50.96c0,7.28-3.22,11.2-9.1,11.2s-9.1-3.92-9.1-11.2V-74.48C70.14-81.76,73.36-85.68,79.24-85.68ZM147.28,0,163.8-98H148.96L138.04-23.24h-.28L126.7-98H111.58L128.1,0Zm68.88-84.28V-98H174.44V0h41.72V-13.72H189.28V-42.84h21.7V-56.56h-21.7V-84.28ZM286.02,0l15.12-98H286.3l-8.54,64.96h-.28L269.08-98H255.92l-8.4,64.96h-.28L238.7-98H223.44L238.56,0h15.12l8.54-58.38h.28L270.9,0ZM353.5-84.28V-98H311.78V0H353.5V-13.72H326.62V-42.84h21.7V-56.56h-21.7V-84.28ZM413.56,0,396.62-98h-18.9L360.78,0h14.84l3.22-22.26h16.38L398.44,0ZM386.82-77h.42l6.02,41.3H380.8ZM456.26,0h15.68L458.36-44.66c6.86-3.92,10.5-11.2,10.5-21.56v-7c0-16.1-8.68-24.78-24.64-24.78H422.8V0h14.84V-41.44h6.86ZM437.64-84.28h6.02c7.14,0,10.36,3.78,10.36,12.04v5.04c0,8.26-3.22,12.04-10.36,12.04h-6.02Z" transform="translate(1300.5 1269) rotate(90)" fill="#bebebe"/>
  </g>
</svg>
