<svg xmlns="http://www.w3.org/2000/svg" width="263.52" height="146.285" viewBox="0 0 263.52 146.285">
  <g id="グループ_1678" data-name="グループ 1678" transform="translate(49.6 -1295.91)">
    <path id="パス_256" data-name="パス 256" d="M16.511-56.09c-8.137,0-12.877,4.9-12.877,13.272v30.336C3.634-4.108,8.374.79,16.511.79c8.216,0,13.035-4.9,13.035-13.272v-6.636l-8.058-.395v6.162c0,4.424-1.659,6.4-4.74,6.4s-4.74-1.975-4.74-5.609V-42.739c0-3.634,1.659-5.609,4.74-5.609s4.74,1.975,4.74,6.4v4.5l8.058-.4v-4.977C29.546-51.192,24.727-56.09,16.511-56.09Zm45.583.79H53.72v42.66c0,4.029-1.817,5.53-4.74,5.53s-4.74-1.5-4.74-5.53V-55.3H36.182v42.9C36.182-3.713,41.159.79,49.059.79c8.058,0,13.035-4.5,13.035-13.193Zm31.047,7.9v-7.9H66.913v7.9H75.84V0h8.374V-47.4Zm28.835-.158V-55.3H98.434V0h23.542V-7.742H106.808V-24.174h12.245v-7.742H106.808V-47.558ZM144.1-55.3V0H156.1c9.006,0,13.9-4.9,13.9-13.983V-41.317c0-9.085-4.9-13.983-13.9-13.983Zm8.374,7.742h3.318c4.029,0,5.846,2.133,5.846,6.794v26.228c0,4.661-1.817,6.794-5.846,6.794H152.47Zm38.315-8.532c-8.374,0-13.509,5.293-13.509,13.983v28.914C177.276-4.5,182.411.79,190.785.79S204.294-4.5,204.294-13.193V-42.107C204.294-50.8,199.159-56.09,190.785-56.09Zm0,7.742c3.318,0,5.135,2.212,5.135,6.32v28.756c0,4.108-1.817,6.32-5.135,6.32s-5.135-2.212-5.135-6.32V-42.028C185.65-46.136,187.467-48.348,190.785-48.348ZM224.6-56.09c-8.295,0-13.035,4.9-13.035,13.272v30.336C211.562-4.108,216.3.79,224.6.79c8.374,0,13.193-4.9,13.193-13.272V-30.573H224.834v7.742h4.74v9.48c0,4.424-1.58,6.4-4.819,6.4s-4.819-1.975-4.819-5.609V-42.739c0-3.634,1.659-5.609,4.9-5.609s4.9,1.975,4.9,6.4v3.318l8.058-.395v-3.792C237.79-51.192,232.971-56.09,224.6-56.09Z" transform="translate(-26.5 1352)" fill="#fff"/>
    <path id="パス_257" data-name="パス 257" d="M8.235-31.95c-4.41,0-7.11,2.43-7.11,7.065v.765c0,3.42,1.44,5.985,5.67,9.9C9.9-11.385,10.8-9.945,10.8-7.965v.99c0,2.25-1.17,3.015-2.61,3.015-1.71,0-2.7-1.035-2.7-3.15V-9.27L.9-8.82v2.07C.9-2.115,3.87.45,8.28.45c4.365,0,7.29-2.43,7.29-7.065v-1.53c0-3.645-1.44-6.21-5.67-10.125-3.105-2.835-4-4.275-4-6.03v-.675c0-1.8.99-2.565,2.385-2.565,1.665,0,2.475.99,2.475,3.15v.99l4.59-.45v-.9C15.345-29.385,12.645-31.95,8.235-31.95ZM32.04-27.09V-31.5H18.63V0H32.04V-4.41H23.4v-9.36h6.975v-4.41H23.4v-8.91ZM40.86-4.5v-27H36.09V0H48.825V-4.5ZM65.07-27.09V-31.5H51.885V0h4.77V-13.77H63.4v-4.41h-6.75v-8.91ZM72.99,0V-31.5H68.22V0Zm10.8-31.95c-4.41,0-7.11,2.43-7.11,7.065v.765c0,3.42,1.44,5.985,5.67,9.9,3.105,2.835,4.005,4.275,4.005,6.255v.99c0,2.25-1.17,3.015-2.61,3.015-1.71,0-2.7-1.035-2.7-3.15V-9.27l-4.59.45v2.07c0,4.635,2.97,7.2,7.38,7.2,4.365,0,7.29-2.43,7.29-7.065v-1.53c0-3.645-1.44-6.21-5.67-10.125-3.105-2.835-4.005-4.275-4.005-6.03v-.675c0-1.8.99-2.565,2.385-2.565,1.665,0,2.475.99,2.475,3.15v.99l4.59-.45v-.9C90.9-29.385,88.2-31.95,83.79-31.95ZM109.4,0V-31.5h-4.77v13.275h-5.67V-31.5h-4.77V0h4.77V-13.725h5.67V0Zm20.52-31.95c-4.635,0-7.335,2.79-7.335,7.56V-7.11c0,4.77,2.7,7.56,7.335,7.56,4.68,0,7.425-2.79,7.425-7.56v-3.78l-4.59-.225v3.51c0,2.52-.945,3.645-2.7,3.645s-2.7-1.125-2.7-3.195v-17.19c0-2.07.945-3.195,2.7-3.195s2.7,1.125,2.7,3.645v2.565l4.59-.225V-24.39C137.34-29.16,134.6-31.95,129.915-31.95Zm18.765,0c-4.77,0-7.695,3.015-7.695,7.965v16.47c0,4.95,2.925,7.965,7.695,7.965s7.7-3.015,7.7-7.965v-16.47C156.375-28.935,153.45-31.95,148.68-31.95Zm0,4.41c1.89,0,2.925,1.26,2.925,3.6V-7.56c0,2.34-1.035,3.6-2.925,3.6s-2.925-1.26-2.925-3.6V-23.94C145.755-26.28,146.79-27.54,148.68-27.54ZM176.535,0V-31.5h-4.5v18.765h-.09L166.32-31.5h-5.31V0h4.5V-20.88h.09L171.855,0ZM194.49-27v-4.5H179.55V-27h5.085V0h4.77V-27Zm16.425-.09V-31.5h-13.41V0h13.41V-4.41h-8.64v-9.36h6.975v-4.41h-6.975v-8.91ZM230.49,0V-31.5h-4.5v18.765h-.09L220.275-31.5h-5.31V0h4.5V-20.88h.09L225.81,0Zm17.955-27v-4.5H233.5V-27h5.085V0h4.77V-27Zm8.64-4.95c-4.41,0-7.11,2.43-7.11,7.065v.765c0,3.42,1.44,5.985,5.67,9.9,3.1,2.835,4,4.275,4,6.255v.99c0,2.25-1.17,3.015-2.61,3.015-1.71,0-2.7-1.035-2.7-3.15V-9.27l-4.59.45v2.07c0,4.635,2.97,7.2,7.38,7.2,4.365,0,7.29-2.43,7.29-7.065v-1.53c0-3.645-1.44-6.21-5.67-10.125-3.1-2.835-4-4.275-4-6.03v-.675c0-1.8.99-2.565,2.385-2.565,1.665,0,2.475.99,2.475,3.15v.99l4.59-.45v-.9C264.2-29.385,261.495-31.95,257.085-31.95Z" transform="translate(-50.5 1393.464)" fill="#fff"/>
    <path id="パス_258" data-name="パス 258" d="M8.965-5.5v-33H3.135V0H18.7V-5.5ZM31.13-39.05c-5.83,0-9.4,3.685-9.4,9.735v20.13c0,6.05,3.575,9.735,9.4,9.735s9.405-3.685,9.405-9.735v-20.13C40.535-35.365,36.96-39.05,31.13-39.05Zm0,5.39c2.31,0,3.575,1.54,3.575,4.4V-9.24c0,2.86-1.265,4.4-3.575,4.4s-3.575-1.54-3.575-4.4V-29.26C27.555-32.12,28.82-33.66,31.13-33.66ZM57.86,0l6.49-38.5H58.52L54.23-9.13h-.11L49.775-38.5h-5.94L50.325,0ZM84.92-33.11V-38.5H68.53V0H84.92V-5.39H74.36V-16.83h8.525v-5.39H74.36V-33.11ZM112.365,0l5.94-38.5h-5.83L109.12-12.98h-.11l-3.3-25.52h-5.17l-3.3,25.52h-.11L93.775-38.5h-6L93.72,0h5.94l3.355-22.935h.11L106.425,0Zm26.51-33.11V-38.5h-16.39V0h16.39V-5.39h-10.56V-16.83h8.525v-5.39h-8.525V-33.11ZM162.47,0l-6.655-38.5H148.39L141.735,0h5.83l1.265-8.745h6.435L156.53,0ZM151.965-30.25h.165l2.365,16.225H149.6ZM179.245,0h6.16L180.07-17.545c2.695-1.54,4.125-4.4,4.125-8.47v-2.75c0-6.325-3.41-9.735-9.68-9.735H166.1V0h5.83V-16.28h2.7ZM171.93-33.11h2.365c2.805,0,4.07,1.485,4.07,4.73v1.98c0,3.245-1.265,4.73-4.07,4.73H171.93Z" transform="translate(-24.311 1441.645)" fill="#fff"/>
  </g>
</svg>
