<svg xmlns="http://www.w3.org/2000/svg" width="89.868" height="66.3" viewBox="0 0 89.868 66.3">
  <g id="グループ_1661" data-name="グループ 1661" transform="translate(-1554.4 -635.201)">
    <g id="グループ_1660" data-name="グループ 1660">
      <g id="楕円形_5" data-name="楕円形 5" transform="matrix(0.961, 0.276, -0.276, 0.961, 1580.769, 656.986)" fill="none" stroke="#fff" stroke-width="3">
        <ellipse cx="23" cy="16.5" rx="23" ry="16.5" stroke="none"/>
        <ellipse cx="23" cy="16.5" rx="21.5" ry="15" fill="none"/>
      </g>
      <path id="パス_252" data-name="パス 252" d="M4463.917,665.9c-7.626-22.53,13.178-31.206,23.565-28.787s26.582,18.2,9.851,36.494" transform="translate(-2880)" fill="none" stroke="#fff" stroke-width="3"/>
    </g>
    <path id="パス_253" data-name="パス 253" d="M4458.3,680.813c-4.036,2.358-8.487,6.413-15.17,2.04-4.988-4.062-2.586-10.527-2.586-10.527s-7.771-4.421-3.126-12.327,11.8-3.816,11.8-3.816.083-15.048,15.021-8.712" transform="translate(-2880)" fill="none" stroke="#fff" stroke-width="3"/>
    <path id="パス_254" data-name="パス 254" d="M1624.987,658.772s7.587.267,10.116,3.847,0,10.472,0,10.472,9.079,1.681,7.463,11.789-9.863,7.347-9.863,7.347.125,7.546-5.666,7.762-9.138-1.525-12.019-7.762" fill="none" stroke="#fff" stroke-width="3"/>
  </g>
</svg>
