<svg xmlns="http://www.w3.org/2000/svg" width="341.163" height="251.545" viewBox="0 0 341.163 251.545">
  <g id="グループ_1668" data-name="グループ 1668" transform="translate(-1550.807 -631.797)">
    <g id="グループ_1660" data-name="グループ 1660" transform="translate(1615.72 636.719)">
      <g id="パス_255" data-name="パス 255" transform="matrix(0.961, 0.276, -0.276, 0.961, 34.754, 77.436)" fill="none">
        <path d="M87.856-.075c48.522-.041,87.832,28.066,87.8,62.78s-39.389,62.889-87.91,62.93S-.084,97.569-.054,62.855,39.335-.034,87.856-.075Z" stroke="none"/>
        <path d="M 87.96371459960938 -0.07509613037109375 L 87.86502075195312 9.924934387207031 C 44.92538452148438 9.961631774902344 9.971115112304688 33.70986938476562 9.946151733398438 62.86370086669922 C 9.934616088867188 76.32173156738281 17.56301879882812 89.19847106933594 31.42611694335938 99.12193298339844 C 46.302490234375 109.7706985473633 66.26688385009766 115.6352310180664 87.74028015136719 115.6352005004883 C 130.6799163818359 115.598503112793 165.6341857910156 91.85026550292969 165.6591491699219 62.69643402099609 C 165.6706848144531 49.2384033203125 158.0422821044922 36.36163330078125 144.1792144775391 26.43820190429688 C 129.3028869628906 15.78943634033203 109.3385162353516 9.924903869628906 87.96371459960938 9.924903869628906 L 87.96371459960938 -0.07509613037109375 M 87.96371459960938 -0.07511138916015625 C 136.4364776611328 -0.07511138916015625 175.6888580322266 28.01649475097656 175.6591491699219 62.70500183105469 C 175.6294097900391 97.41893005371094 136.2705841064453 125.5937347412109 87.74881744384766 125.6352005004883 C 39.22587585449219 125.6766357421875 -0.083587646484375 97.56906890869141 -0.0538482666015625 62.85513305664062 C -0.02410888671875 28.14119720458984 39.33468627929688 -0.033599853515625 87.85648345947266 -0.07506561279296875 C 87.89202117919922 -0.07509613037109375 87.92818450927734 -0.07511138916015625 87.96371459960938 -0.07511138916015625 Z" stroke="none" fill="#353535"/>
      </g>
      <path id="パス_252" data-name="パス 252" d="M4468.554,748.207c-29.14-86.083,41.374-118.732,90.038-109.99s101.563,69.544,37.637,139.435" transform="translate(-4421.773 -636.719)" fill="none" stroke="#353535" stroke-width="10"/>
    </g>
    <path id="パス_253" data-name="パス 253" d="M4521.377,779.257c-15.419,9.01-32.426,24.5-57.96,7.793-19.06-15.52-9.88-40.221-9.88-40.221s-29.691-16.893-11.947-47.1,45.087-14.582,45.087-14.582.315-57.5,57.391-33.285" transform="translate(-2880 25.933)" fill="none" stroke="#353535" stroke-width="10"/>
    <path id="パス_254" data-name="パス 254" d="M1653.1,658.772s25.678-.606,38.652,17.677,0,37.032,0,37.032,34.689,6.424,28.514,45.045-37.684,28.071-37.684,28.071.477,28.833-21.647,29.658-34.913-5.826-45.92-29.658" transform="translate(165.929 61.658)" fill="none" stroke="#353535" stroke-width="10"/>
  </g>
</svg>
