<?xml version="1.0" encoding="utf-8"?>
<!-- Generator: Adobe Illustrator 26.3.1, SVG Export Plug-In . SVG Version: 6.00 Build 0)  -->
<svg version="1.1" id="レイヤー_1" xmlns="http://www.w3.org/2000/svg" xmlns:xlink="http://www.w3.org/1999/xlink" x="0px"
	 y="0px" viewBox="0 0 826.1 154.8" style="enable-background:new 0 0 826.1 154.8;" xml:space="preserve">
<style type="text/css">
	.st0{fill:#FFFFFF;}
</style>
<g id="グループ_1673" transform="translate(-5278.535 -4336.375)">
	<g>
		<g id="グループ_287" transform="translate(5773 4368.481)">
			<path id="パス_201" class="st0" d="M51.8,45.6c-2.4,1.7-9.6,2.6-17.5,1.4c-3.5-0.5-12.4-1.9-18.7,2.4S2.5,61.4,1.1,66.7
				S0.6,82.2,2.5,85.9s0.9,6.3,0.5,8.7c-0.6,3.3,0.2,7.1,2.7,8.1c1.5,0.5,3.2,0.6,4.7,0.2c1.6,0.5,3.2,0.5,4.8-0.1
				c1.7,0.8,3.6,0.6,5.1-0.4c3.5,2.1,13.4,4.3,14.8,3.8c2.4,2.7,8.7,3.6,10.3,3.2c0.3,1.9,1.5,3.6,3.3,4.5c1.8,0.7,7.5,3.6,11.8,4.4
				s12.7,0.8,16,0.8c3.1-0.1,6.3,0.1,9.3,0.6c1.9,0.5,7,1.9,9.3,1.1c2.9,0.7,5.2,0.7,6.8,0c1.4,0.3,2.9,0.1,4.2-0.6
				c0.9-0.5,1.5-2.2,1.5-3.3c1.6,1.2,5.7,1.3,7,0.8c2.1,0.7,4.4,0.7,6.4-0.1c2.4,0.2,3.6-0.2,4.3-1.5s0.4-3.5-0.7-5.2
				s-5.2-3.6-8.2-4.9c-3-1.4-5.8-3.4-8.1-5.7c-2.5-2.5-2.7-5.3-3.6-7.3c2.2-2,3.7-4.7,4.1-7.7c0.4-1.9,0.4-3.9,0.2-5.8
				c1.7-0.9,3.3-2.1,4.7-3.6c-1.2,0.2-2.4,0-3.4-0.6c1.5-0.3,3.1-1.3,4.4-1.1c-1.5-4-1.8-4.4-2.7-5.8c1.3-0.1,2.6,0.5,3.4,1.6
				c0.3-1.8,0.1-3.6-0.7-5.3c2.1-0.7,3.5-2.4,4.2-3c-0.6-0.8-1.4-1.5-2.2-2c1.6-0.6,1.4-1.4,0.8-3.4c0.5,0.8,0.9,1.5,1.1,2
				c0.3-3.3,0-6.7-1-9.8c-0.7-1.9-2.4-3.7-3.1-6.2c1,1.1,2.5,1.6,3.9,1.3c-1.8-1.3-3.3-3-4.2-5.1c0.9,0.4,1.5,0.3,2.1-0.7
				s0-4.4-1.2-7.6c1.5,1.4,2.9,2.8,4.3,4.4c0.2-3.1-0.7-6.1-3.2-7.5c1.2,0.1,1.6,0.3,3.2,1.5c0-1-1.5-2.9-2.9-4.3
				c2.4,0.2,3.6-0.6,4.9-3c-0.7,0.3-1.5,0.5-2.3,0.7c1.7-1.6,3-3.6,3.7-5.8c1.1-4.5,1.5-9.1,1.2-13.6c-0.2-1.7-0.9-2.3-2.8-1.9
				c-3.5,0.7-12.4,4.3-15,5.7s-3.7,2.7-4.4,4.2c-0.6,1.2-1.9,1.2-3.1,1.1c-1.6-0.2-3.2-1.1-6.1-2.2c-3.7-1.4-7.6-1.8-11.5-1.1
				c-5.1,0.7-8.2,2.4-9.9,3.8c-1.8,1.5-4.4,4-6,4.5c-1.8,0.6-3.7,0.2-5.1-0.9c-2.2-1.5-7.6-3.2-10.6-3.7c-2.4-0.3-4.9-0.4-7.3-0.3
				c-1.5,0.1-2.8,0.7-2.5,2.4c0.8,4,2.1,7.9,3.8,11.6c1.3,2.7,3.1,5.3,4.4,6.3c1,0.7,3.3,2.2,5.7,1.5c-0.9,1.5-2.1,3.1-1.2,4.7
				c-1,1.5-1.3,4.3-0.3,5.7c0.4-1.3,1.3-2.3,2.5-2.8c-0.6,1.1-1,2.3-1.1,3.6C52.7,44.9,52.3,45.3,51.8,45.6"/>
			<path id="パス_202" class="st0" d="M77.3,101.8c1.4,0.3,2.8,0.7,4.2,1.3c2,0.9,5.8,2.6,8.3,3.8c2.1-1.6,2.6-3.5,2.8-7.2
				c1.1-0.5,1.6-1.1,4-3.6c1.3-0.1,6.7-1.8,8.2-3.2c2.2-2,3.7-4.7,4.1-7.7c0.4-1.9,0.4-3.9,0.2-5.8c1.7-0.9,3.3-2.1,4.7-3.6
				c-1.2,0.2-2.4,0-3.4-0.6c1.5-0.3,3.1-1.3,4.4-1.1c-1.5-4-1.8-4.4-2.7-5.8c1.3-0.1,2.6,0.5,3.4,1.6c0.3-1.8,0.1-3.6-0.7-5.3
				c2.1-0.7,3.5-2.4,4.2-3c-0.6-0.8-1.4-1.5-2.2-2c1.6-0.6,1.4-1.4,0.8-3.4c-0.9-1.8-2.6-3.1-4.7-3.4c-0.4,1.1-2.2,1.1-4.9-0.3
				c-0.6,1.1-1.9,1.6-4.2,1.5s-5.4-2.4-7.4-3c0.1-1.4,2-3.6,2.9-4.3c1.6-1.4,3-3,4.1-4.8c0.8-1.8,0.2-3.2-1.5-4
				c-1.4-0.7-4.7-1.2-6.2-1.6c-2.4-0.7-4.1-2.7-4.4-5.2c-0.2-2,0.5-7.6,0.4-9.7c-0.1-2.7-0.8-5.3-2.2-7.6c-1.6-2.2-4.1-3.2-8-2.7
				c-2.9,0.4-5,1.4-6.2,3.1c-1.4,2-1.9,4.5-1.5,6.8c0.3,3.1,2.8,9.1,2.7,11.4s-1.8,4.3-4.5,5.5c-1.8,0.8-5.2,1.5-4.9,3.4
				c0.6,2.7,2.3,5.1,4.6,6.7c1.5,1,2.7,2.3,3.8,3.8c-2.3,0.2-5.1,2.9-7.3,1.3s-4.1-1.2-5.6,0.1s-2.5,4.2-3.5,5.8
				c-1.6,3.8-3.7,7.4-6.1,10.7c1,0.2,1.9,0.3,2.9,0.2c-0.5,1-2.4,2.9-5.5,4.6c1.1,0.4,4.2,0.1,6.4-0.2c-2,2-4.6,3.4-7.4,4
				c1.5,0.5,3,0.5,6.3,0.2c-0.7,1.3,1.2,5.5,3.6,6.7c-0.8,0.7-1.8,1.2-2.9,1.2c1.4,2,3.7,3.2,6.2,3.2c-0.7,1-1.6,1.8-2.7,2.4
				c1.9,0.8,5.7,0.8,7.5,1.1c2.9,0.4,8.1,2.3,9.2,3.6C77.5,98.2,77.8,100.1,77.3,101.8"/>
			<path id="パス_203" class="st0" d="M84.5,104.5c2.8,1.3,6.1,2.8,7,3.4c1.8,1,3.6,1.8,5.6,2.3c-0.9-3.7,2.4-7,4.9-8.2
				c1-1.5,4-1.3,5.3-1.1c0.8,0,1.7,0.2,2.4,0.6c2,1.8,4.2,3.2,6.7,4.4c3,1.2,7.2,3.2,8.2,4.9s1.4,3.9,0.7,5.2s-1.9,1.8-4.3,1.5
				c-2.1,0.8-4.3,0.8-6.4,0.1c-1.4,0.5-5.5,0.4-7-0.8c0,1.1-0.5,2.8-1.5,3.3c-1.3,0.6-2.8,0.8-4.2,0.6c-1.6,0.7-3.8,0.8-6.8,0
				c-2.3,0.8-7.4-0.6-9.3-1.1c-3.1-0.5-6.2-0.7-9.3-0.6c-2.4-0.7-4-2.9-4.1-5.4c-0.1-1.5,1.3-4,3.7-6.1
				C76.5,105.9,81.7,103.7,84.5,104.5"/>
			<path id="パス_204" class="st0" d="M3,94.5c-0.6,3.3,0.2,7.1,2.7,8.1c1.5,0.5,3.2,0.6,4.7,0.2c1.6,0.5,3.2,0.5,4.8-0.1
				c1.7,0.8,3.6,0.6,5.1-0.4c1.1-1.1,1-2.6,0.8-3.9s-1.2-4.4-2.5-5.3s-4.8-0.4-6.7-0.6c-2-0.3-3.8-1.3-5.2-2.8
				C5.7,88.5,3.8,91.4,3,94.5"/>
			<path id="パス_205" class="st0" d="M109.1,22.1c2.2,1,4.7,0.9,6.8-0.3c2.8-1.8,4.5-5.3,5.2-8.8c0.7-3.5,1.2-7.7,0.4-8.8
				c-0.8-1-2.5-0.6-5.5,0.3c-3.2,1-9.6,4.2-11,6.1c-1.4,1.7-1.8,4-1.2,6.1C104.2,18.5,106.3,20.6,109.1,22.1"/>
			<path id="パス_206" class="st0" d="M58.3,22.4c-0.1-2.2-1.5-3.3-3.4-4.6c-3.8-2.1-7.9-3.5-12.2-4c-1.2-0.1-1.8,0.6-1.4,2
				c0.9,3.5,2.2,6.8,3.9,10c1.3,2.3,3.1,4.4,4.9,5c2.2,0.8,3.7,0.8,5.2-0.7C56.5,28.7,58.4,24.3,58.3,22.4"/>
			<path id="パス_207" class="st0" d="M70.1,30.2c-2,0.1-2.4,2.1-2.3,3.2s0.9,2.9,2.4,2.8c1.5-0.1,2.6-1.3,2.6-2.8
				c0-0.1,0-0.1,0-0.2C72.7,31.7,71.6,30.2,70.1,30.2"/>
			<path id="パス_208" class="st0" d="M96.2,26.9c-2,0.1-2.4,2.1-2.3,3.2s0.9,2.9,2.4,2.8c1.5-0.1,2.6-1.3,2.6-2.8
				c0-0.1,0-0.1,0-0.2C98.7,28.3,97.6,26.8,96.2,26.9"/>
			<path id="パス_209" class="st0" d="M83.8,30.7c-2.3,0.3-5,1.6-4.8,3.3c0.6,2.3,2.8,4,5.2,4c2.8,0,5.3-2.3,5.2-4.5
				S86.3,30.3,83.8,30.7"/>
			<path id="パス_210" class="st0" d="M77.2,101.9c0,0-0.1,0-0.1,0c-0.2-0.1-0.3-0.3-0.2-0.5c0.4-1.5,0.1-3.2-0.8-4.5
				c-1-1.2-6.1-3.1-9-3.5c-0.5-0.1-1.3-0.1-2-0.2c-1.9,0-3.8-0.4-5.6-0.9c-0.2-0.1-0.3-0.3-0.2-0.5c0-0.1,0.1-0.1,0.2-0.2
				c0.8-0.4,1.5-1,2.1-1.8c-2.3-0.2-4.5-1.4-5.8-3.3c-0.1-0.1-0.1-0.2,0-0.3c0.1-0.1,0.2-0.2,0.3-0.2c0.8,0,1.6-0.3,2.3-0.8
				c-1.5-1.1-2.7-2.7-3.2-4.6c-0.2-0.6-0.3-1.2-0.2-1.8c-3,0.2-4.5,0.3-5.9-0.3c-0.2-0.1-0.3-0.3-0.2-0.4c0-0.1,0.1-0.2,0.3-0.2
				c0.9-0.2,1.7-0.5,2.5-0.8c0.2-0.1,0.4,0,0.4,0.2c0.1,0.2,0,0.4-0.2,0.4c-0.4,0.2-0.8,0.3-1.3,0.5c1.6,0.1,3.2,0.1,4.9-0.1
				c0.1,0,0.3,0,0.3,0.2c0.1,0.1,0.1,0.2,0,0.4c-0.2,0.6-0.1,1.3,0.1,1.8c0.5,1.8,1.7,3.4,3.3,4.4c0.2,0.1,0.2,0.3,0.2,0.5
				c0,0,0,0.1-0.1,0.1c-0.7,0.7-1.6,1.1-2.5,1.2c1.4,1.7,3.4,2.6,5.6,2.5c0.1,0,0.3,0.1,0.3,0.2c0.1,0.1,0.1,0.3,0,0.4
				c-0.6,0.8-1.3,1.6-2.1,2.1c1.5,0.4,3.1,0.6,4.7,0.6c0.8,0.1,1.5,0.1,2.1,0.2c2.8,0.4,8.2,2.3,9.4,3.8c1.1,1.5,1.4,3.4,0.9,5.2
				C77.5,101.8,77.4,101.9,77.2,101.9"/>
			<path id="パス_211" class="st0" d="M53.3,77c-0.2,0-0.4-0.2-0.4-0.4c0-0.1,0.1-0.2,0.2-0.3c0.8-0.5,1.6-1,2.3-1.6
				c-1.9,0.2-4.5,0.4-5.5,0.1c-0.2-0.1-0.3-0.3-0.2-0.4c0-0.1,0.1-0.2,0.2-0.2c1.9-1,3.6-2.3,5-4c-0.8,0-1.6-0.1-2.4-0.2
				c-0.2-0.1-0.3-0.2-0.2-0.4c0,0,0-0.1,0.1-0.1c0.4-0.5,0.9-1.2,1.4-2c0.1-0.2,0.3-0.2,0.5-0.1c0.2,0.1,0.2,0.3,0.1,0.5
				c0,0,0,0,0,0c-0.4,0.6-0.8,1.1-1.1,1.6c0.8,0.1,1.5,0.1,2.3,0.1c0.2,0,0.4,0.2,0.4,0.3c0,0.1,0,0.1,0,0.2
				c-1.2,1.8-2.9,3.2-4.8,4.3c1.8,0,3.6-0.1,5.4-0.4c0.1,0,0.3,0,0.4,0.2c0.1,0.1,0,0.3-0.1,0.4c-1,1-2.1,1.8-3.3,2.5
				C53.4,77,53.4,77,53.3,77"/>
			<path id="パス_212" class="st0" d="M55.2,66.2c-0.2,0-0.4-0.2-0.4-0.3c0-0.1,0-0.1,0.1-0.2c0.7-1.1,1.6-2.8,2.6-4.8
				c-1.3,0.9-2.8,1.5-4.4,1.6c-0.2,0-0.4-0.1-0.4-0.3c0-0.1,0-0.2,0.1-0.2c1.1-1.9,1.9-4,2.2-6.2c-0.4,0.7-1,1.4-1.7,1.9
				c-0.2,0.1-0.4,0.1-0.5-0.1c-0.1-0.1-0.1-0.2-0.1-0.3c0.5-2.9,0.6-5.8,0.1-8.7c-0.2-1.4-0.3-2.8-0.1-4.2c0-0.2,0.2-0.3,0.4-0.3
				c0,0,0,0,0,0c0.2,0,0.3,0.2,0.3,0.4c-0.2,1.3-0.1,2.6,0.1,4c0.4,2.6,0.4,5.3,0.1,8c0.7-0.8,1.2-1.7,1.5-2.8
				c0.1-0.1,0.2-0.2,0.4-0.2c0.2,0,0.3,0.1,0.3,0.3c0.3,1.5-0.7,5.7-2,8c1.9-0.2,3.7-1.3,4.7-3c0.1-0.2,0.3-0.2,0.5-0.1
				c0.1,0.1,0.2,0.3,0.1,0.4c-1,2.4-2.2,4.7-3.6,6.9C55.4,66.1,55.3,66.2,55.2,66.2"/>
			<path id="パス_213" class="st0" d="M107.5,117.1c-0.2,0-0.3-0.1-0.3-0.3c-0.3-2.5-1.9-4.5-4.2-5.4c-1.4-0.3-2.7-0.5-4.1-0.6
				c-0.7-0.1-1.3-0.1-1.8-0.2c-2-0.5-3.9-1.3-5.7-2.4c-1.2-0.8-6.6-3.2-9.5-4.5l-0.6-0.3c-1.6-0.7-3.3-1.2-5.1-1.4
				c-0.8-0.2-1.6-0.3-2.4-0.5c-0.2,0-0.3-0.2-0.3-0.4c0-0.2,0.2-0.3,0.4-0.3c0,0,0,0,0,0c0.8,0.2,1.5,0.3,2.3,0.5
				c1.8,0.3,3.6,0.8,5.2,1.5l0.6,0.3c2.9,1.3,8.3,3.8,9.6,4.6c1.7,1,3.6,1.7,5.5,2.3c0.4,0.1,1,0.1,1.7,0.2c1.4,0.1,2.8,0.3,4.2,0.7
				c2.3,0.6,4.4,3.2,4.7,6C107.9,116.9,107.8,117.1,107.5,117.1C107.6,117.1,107.6,117.1,107.5,117.1L107.5,117.1"/>
			<path id="パス_214" class="st0" d="M90.7,106.3c-0.1,0-0.2,0-0.2-0.1c-0.1-0.1-0.1-0.4,0-0.5c0,0,0,0,0,0
				c1.2-1.3,1.5-2.5,1.6-6.1c0-0.1,0.1-0.3,0.2-0.3c0.9-0.4,1.4-0.9,3.1-2.7l0.8-0.9c0.1-0.1,0.1-0.1,0.2-0.1c2.1-0.4,4.1-1.1,5.9-2
				c0.2-0.1,0.4,0,0.5,0.2c0.1,0.2,0,0.4-0.2,0.5c-1.9,0.9-4,1.6-6.1,2l-0.7,0.8c-1.6,1.7-2.2,2.3-3.1,2.8c-0.1,3.3-0.3,4.8-1.8,6.3
				C90.9,106.3,90.8,106.3,90.7,106.3"/>
			<path id="パス_215" class="st0" d="M17.2,90.1c-0.1,0-0.2,0-0.2-0.1c-0.1-0.1-0.1-0.4,0-0.5c0,0,0,0,0,0
				c1.2-1.2,3.3-8.2,4.3-12.3c0.9-3.9,0.9-8-0.2-11.9c-0.1-0.2,0-0.4,0.2-0.4c0.2-0.1,0.4,0,0.4,0.2c1.1,4,1.2,8.3,0.3,12.3
				c-0.9,3.7-3,11.2-4.5,12.7C17.4,90.1,17.3,90.1,17.2,90.1"/>
			<path id="パス_216" class="st0" d="M50.4,89.5C50.4,89.5,50.4,89.5,50.4,89.5c-0.3-0.1-0.4-0.2-0.3-0.4
				c0.3-1.2,0.5-2.5,0.6-3.7c0-0.2,0.2-0.3,0.4-0.3c0.2,0,0.3,0.2,0.3,0.3c-0.1,1.3-0.3,2.6-0.6,3.9C50.7,89.4,50.6,89.5,50.4,89.5"
				/>
			<path id="パス_217" class="st0" d="M45.4,108.6c-0.2,0-0.3-0.1-0.3-0.3c-0.5-2.7,0.3-6.4,2.2-10.5c0.8-1.9,1.4-3.8,2-5.7
				c0.1-0.2,0.3-0.3,0.4-0.2c0.2,0.1,0.3,0.3,0.2,0.4c-0.5,2-1.2,3.9-2,5.8c-1.9,4-2.6,7.4-2.2,10C45.8,108.4,45.7,108.6,45.4,108.6
				C45.5,108.6,45.5,108.6,45.4,108.6"/>
			<path id="パス_218" class="st0" d="M109.9,22.7c-1.2,0-2.4-0.2-3.6-0.5c-0.1,0-0.2-0.2-0.2-0.3c0-0.1,0.2-0.2,0.3-0.2
				c1.9,0.6,5,0.7,6.6-0.1c0.1-0.1,0.3,0,0.3,0.1c0.1,0.1,0,0.2-0.1,0.3C112.2,22.5,111,22.7,109.9,22.7"/>
			<path id="パス_219" class="st0" d="M104.8,21.5c0,0-0.1,0-0.1,0c-0.1-0.1-0.1-0.2-0.1-0.3c0,0,0,0,0,0c0.2-0.3,0.4-0.6,0.6-0.9
				c1-1.4,2-2.8,3.2-4c0.1-0.1,0.2-0.1,0.3,0c0.1,0.1,0.1,0.2,0,0.3c0,0,0,0,0,0c-1.2,1.2-2.2,2.6-3.1,4c-0.2,0.3-0.4,0.6-0.6,0.9
				C105,21.4,104.9,21.5,104.8,21.5"/>
			<path id="パス_220" class="st0" d="M104,19.2C104,19.2,104,19.2,104,19.2c-0.2,0-0.3-0.2-0.2-0.3c0.2-0.8,0.3-1.6,0.4-2.4
				c0.1-0.8,0.2-1.6,0.4-2.4c0-0.1,0.2-0.2,0.3-0.2c0.1,0,0.2,0.2,0.2,0.3c0,0,0,0,0,0c-0.2,0.8-0.3,1.6-0.4,2.4
				c-0.1,0.8-0.2,1.6-0.4,2.4C104.3,19.1,104.2,19.2,104,19.2"/>
			<path id="パス_221" class="st0" d="M59.1,25c-0.1,0-0.2,0-0.2-0.1c-1.1-1.3-2.5-2.3-4-2.9c-0.1-0.1-0.2-0.2-0.1-0.3
				s0.2-0.2,0.3-0.1c0.1,0.1,3.1,1.4,4.2,3.1c0.1,0.1,0,0.3-0.1,0.3C59.2,25,59.1,25,59.1,25"/>
			<path id="パス_222" class="st0" d="M55,27.5c-0.5,0-1,0-1.5-0.1c-0.1,0-0.2-0.2-0.2-0.3c0-0.1,0.1-0.2,0.2-0.2
				c1.6,0.1,3.2,0.1,4.8-0.2c0.1,0,0.3,0,0.3,0.2c0,0.1,0,0.3-0.2,0.3c0,0,0,0,0,0C57.3,27.5,56.2,27.6,55,27.5"/>
			<path id="パス_223" class="st0" d="M53,29.7c-0.2,0-0.3,0-0.4,0c-0.1,0-0.2-0.1-0.2-0.2c0,0,0,0,0,0c0-0.1,0.1-0.2,0.2-0.2
				c0,0,0,0,0,0c1.6,0.1,3.1-0.2,4.6-0.9c0.1-0.1,0.3,0,0.3,0.1s0,0.3-0.1,0.3l0,0C56,29.4,54.5,29.7,53,29.7"/>
			<path id="パス_224" class="st0" d="M97.7,43.4c-3.3,1.1-8,0.1-10.4-0.9c-1.1-0.3-2.1-1.1-2.6-2.2c-0.4,1.2-1.2,2.2-2.1,2.9
				c-1.4,1-2.9,1.8-4.5,2.3c-1.5,0.4-3.1,0.6-4.7,0.4c0,0.1,0,0.2,0,0.2c0.2,1.5,2.1,3.4,4.5,5.3c1.9,1.5,4.9,2.3,8.9,1.7
				c4.2-0.6,6.1-2,7.8-3.7c1.3-1.5,2.3-3.3,2.9-5.2C97.6,43.9,97.7,43.7,97.7,43.4"/>
			<path id="パス_225" class="st0" d="M78.7,45.2c1.4-0.5,2.7-1.2,3.8-2.1c1-0.7,1.7-1.7,2.1-2.9c0.5,1.1,1.4,1.9,2.6,2.2
				c1.4,0.6,2.9,1,4.4,1.2c0.1,0.1,0.1,0.3,0.2,0.5c1.2,2.4,2.3,6.7,1.1,10c-1,2.8-4.1,4.2-7.3,4.3c-2.9,0.1-5.3-2-6.6-4.1
				c-1.1-2-0.8-6.6-0.5-8.3C78.7,45.7,78.7,45.4,78.7,45.2"/>
			<path id="パス_226" class="st0" d="M74.7,46.3c-0.8,0-1.6-0.1-2.4-0.3c-1.5-0.4-2.7-1.3-3.5-2.6c-0.1-0.2,0-0.4,0.2-0.5
				s0.4,0,0.5,0.2c0,0,0,0,0,0c0.7,1.1,1.7,1.9,3,2.2c1.8,0.4,3.7,0.4,5.4-0.2c1.6-0.5,3.1-1.2,4.4-2.2c0.9-0.7,1.6-1.6,2-2.7
				c0-0.1,0.2-0.2,0.3-0.2c0.2,0,0.3,0.1,0.3,0.2c0.4,1,1.2,1.5,2.4,2c2.4,1,7.1,2.1,10.3,0.9c1.6-0.6,2.9-1.9,3.1-3.2
				c0-0.2,0.2-0.3,0.4-0.3c0.2,0,0.3,0.2,0.3,0.4c-0.2,1.5-1.6,3-3.5,3.7c-3.4,1.3-8.3,0.2-10.8-0.9c-1-0.3-1.8-0.9-2.4-1.7
				c-0.5,0.9-1.1,1.7-1.9,2.3c-1.4,1-3,1.8-4.6,2.3C77,46.1,75.9,46.3,74.7,46.3"/>
			<path id="パス_227" class="st0" d="M78.4,52c0,0-0.1,0-0.1,0c-0.2-0.1-0.3-0.2-0.5-0.3c-2.9-2.2-4.4-4-4.6-5.5
				c0-0.1,0.1-0.2,0.2-0.3c0,0,0,0,0,0c0.1,0,0.2,0.1,0.3,0.2c0.2,1.3,1.7,3.1,4.5,5.2c0.1,0.1,0.3,0.2,0.4,0.3
				c0.1,0.1,0.1,0.2,0.1,0.3C78.5,51.9,78.5,52,78.4,52"/>
			<path id="パス_228" class="st0" d="M93.5,50.7c-0.1,0-0.1,0-0.2-0.1c-0.1-0.1-0.1-0.2,0-0.3c0,0,0,0,0,0
				c0.4-0.3,0.7-0.7,1.1-1.1c1.3-1.5,2.2-3.3,2.9-5.1c0-0.1,0.2-0.2,0.3-0.2c0.1,0,0.2,0.2,0.2,0.3c-0.7,1.9-1.7,3.7-3,5.3
				c-0.4,0.4-0.7,0.8-1.1,1.1C93.6,50.7,93.5,50.7,93.5,50.7"/>
			<path id="パス_229" class="st0" d="M85.5,58.8c-3.1,0-5.5-2.2-6.7-4.3c-1.2-2.1-0.8-6.9-0.6-8.5c0-0.2,0.2-0.3,0.4-0.3
				c0.2,0,0.3,0.2,0.3,0.4c-0.3,1.9-0.6,6.3,0.5,8.1c1.1,1.9,3.3,4,6.2,3.9c3.5-0.1,6.1-1.7,7-4.1c1.2-3.3,0-7.6-1.1-9.7
				c-0.1-0.2,0-0.4,0.2-0.5c0.2-0.1,0.4,0,0.5,0.1c1.2,2.2,2.4,6.8,1.2,10.3c-1,2.7-3.9,4.4-7.7,4.6C85.7,58.8,85.6,58.8,85.5,58.8"
				/>
			<path id="パス_230" class="st0" d="M98.9,121.5c-1.3,0-2.5-0.2-3.8-0.5c-2.2,0.7-6.5-0.4-8.8-1l-0.6-0.2
				c-0.9-0.2-1.9-0.3-2.8-0.4c-0.2,0-0.3-0.2-0.3-0.4c0-0.2,0.2-0.3,0.4-0.3c0,0,0,0,0,0c1,0.1,2,0.2,2.9,0.4l0.6,0.2
				c2.1,0.5,6.5,1.7,8.5,0.9c0.1,0,0.1,0,0.2,0c2.8,0.7,5,0.7,6.5,0c0.1,0,0.1,0,0.2,0c1.3,0.3,2.7,0.1,3.9-0.5
				c0.7-0.4,1.3-1.9,1.3-3c0-0.2,0.2-0.3,0.4-0.3c0.2,0,0.3,0.2,0.3,0.3c0,1.1-0.5,3-1.6,3.6c-1.3,0.7-2.8,0.9-4.3,0.6
				C101,121.4,100,121.6,98.9,121.5"/>
			<path id="パス_231" class="st0" d="M81.2,119.4L81.2,119.4c-1.4-0.1-3-0.1-4.7-0.1c-1.1,0-11.2,0-16.1-0.9
				c-3.4-0.6-7.6-2.5-10.1-3.6c-0.7-0.3-1.3-0.6-1.7-0.7c-1.7-0.9-3-2.5-3.4-4.4c-2,0.3-7.7-0.7-10.2-3.2c-1.7,0.3-8.1-1.1-12.3-2.7
				c-0.2-0.1-0.3-0.3-0.2-0.4c0.1-0.2,0.3-0.3,0.4-0.2c0,0,0,0,0,0c4.4,1.7,11,3,12.1,2.7c0.1,0,0.3,0,0.4,0.1
				c2.4,2.6,8.6,3.5,9.9,3.1c0.1,0,0.2,0,0.3,0c0.1,0.1,0.1,0.1,0.2,0.2c0.3,1.8,1.4,3.4,3.1,4.2c0.4,0.2,1,0.4,1.7,0.8
				c2.5,1.1,6.7,3,10,3.6c4.8,0.8,14.8,0.8,15.9,0.8c1.7,0,3.3,0,4.7,0.1c0.2,0,0.3,0.2,0.3,0.4C81.5,119.3,81.4,119.4,81.2,119.4"
				/>
			<path id="パス_232" class="st0" d="M17.5,103.6c-0.8,0-1.6-0.2-2.3-0.5c-1.5,0.6-3.2,0.6-4.8,0.1c-1.6,0.3-3.3,0.2-4.8-0.3
				c-2.7-1-3.5-5.1-2.9-8.5c0.1-0.3,0.1-0.6,0.2-1c0.5-2.1,1-4.4-0.7-7.5c-1.9-3.6-3-13.9-1.5-19.4C2.2,61,9.4,53.4,15.4,49.2
				c6.3-4.4,15-3.1,18.7-2.5l0.2,0c7.6,1.1,13.9,0.3,16.6-1c0.2-0.1,0.4,0,0.5,0.2c0.1,0.2,0,0.4-0.2,0.4c-2.7,1.3-9.2,2.2-17,1.1
				l-0.2,0c-3.6-0.5-12.1-1.8-18.2,2.4c-5.9,4.1-12.9,11.6-14.4,17S1,82.2,2.8,85.7c1.7,3.3,1.2,5.8,0.7,8c-0.1,0.3-0.1,0.6-0.2,0.9
				c-0.6,3.1,0.2,6.8,2.4,7.7c1.5,0.4,3,0.5,4.5,0.2c0.1,0,0.2,0,0.3,0c1.5,0.5,3,0.4,4.5-0.1c0.1-0.1,0.2-0.1,0.3,0
				c1.6,0.8,3.4,0.6,4.8-0.4c0.2-0.1,0.4-0.1,0.5,0.1s0.1,0.4-0.1,0.5l0,0C19.6,103.2,18.6,103.6,17.5,103.6"/>
			<path id="パス_233" class="st0" d="M109.1,82.1L109.1,82.1c-0.2,0-0.4-0.2-0.4-0.4c0-0.7,0-1.5-0.2-2.2c0-0.2,0-0.3,0.2-0.4
				c1.4-0.7,2.7-1.7,3.9-2.8c-0.8,0-1.5-0.2-2.2-0.6c-0.1-0.1-0.3-0.1-0.4-0.2c-0.2-0.1-0.3-0.3-0.2-0.5c0-0.1,0.1-0.2,0.3-0.2
				c0.5-0.1,1.1-0.3,1.6-0.5c0.7-0.3,1.5-0.5,2.3-0.6c-0.5-1.8-1.3-3.4-2.3-4.9l-0.2-0.3c-0.1-0.2-0.1-0.4,0.1-0.5
				c0.1,0,0.1-0.1,0.2-0.1c1.1-0.1,2.3,0.3,3.1,1.1c0.1-1.5-0.1-2.9-0.7-4.3c0-0.1,0-0.2,0-0.3c0-0.1,0.1-0.2,0.2-0.2
				c1.4-0.5,2.6-1.4,3.6-2.5l0.2-0.2c-0.5-0.7-1.2-1.2-1.9-1.7c-0.2-0.1-0.2-0.3-0.1-0.5c0-0.1,0.1-0.1,0.2-0.2
				c1.3-0.5,1.2-0.9,0.6-3c0-0.2,0-0.4,0.2-0.4c0.2-0.1,0.3,0,0.4,0.1c0.2,0.3,0.4,0.7,0.5,0.9c0.2-2.9-0.2-5.7-1.1-8.4
				c-0.3-0.8-0.8-1.6-1.2-2.4c-0.8-1.2-1.4-2.5-1.8-3.8c-0.1-0.2,0.1-0.4,0.2-0.4c0.1,0,0.3,0,0.4,0.1c0.7,0.8,1.6,1.2,2.7,1.2
				c-1.5-1.3-2.7-2.9-3.6-4.7c-0.1-0.2,0-0.4,0.2-0.5c0.1,0,0.2,0,0.3,0c0.7,0.3,1.1,0.3,1.6-0.6c0.4-0.8,0.1-3.7-1.2-7.3
				c-0.1-0.2,0-0.4,0.2-0.5c0.1,0,0.2,0,0.3,0c1.3,1.1,2.4,2.3,3.5,3.5l0.3,0.3c0-2.9-1.1-5.2-3.1-6.3c-0.1-0.1-0.2-0.3-0.2-0.4
				c0.1-0.2,0.2-0.3,0.4-0.2c0.9,0.1,1.8,0.4,2.6,1c-0.7-1.2-1.5-2.2-2.6-3.1c-0.1-0.1-0.2-0.4,0-0.5c0.1-0.1,0.2-0.1,0.3-0.1
				c1.7,0.3,3.3-0.5,4.1-2c-0.5,0.1-1,0.3-1.4,0.4c-0.2,0-0.3,0-0.4-0.2c-0.1-0.1,0-0.3,0.1-0.4c1.7-1.5,2.9-3.5,3.6-5.6
				c1.1-4.4,1.5-9,1.1-13.5c0-0.6-0.2-1.1-0.6-1.5c-0.6-0.3-1.2-0.3-1.8-0.1c-3.5,0.7-12.4,4.3-14.9,5.6c-2.8,1.5-3.7,2.9-4.2,4
				c-0.8,1.6-2.7,1.4-3.4,1.3c-1.4-0.3-2.7-0.7-4-1.4c-0.6-0.3-1.3-0.6-2.1-0.9c-3.6-1.4-7.5-1.8-11.3-1.1c-5.6,0.8-8.5,2.7-9.8,3.7
				c-0.4,0.3-0.9,0.7-1.3,1.1c-1.6,1.4-3.5,3-4.8,3.4c-1.8,0.6-3.9,0.3-5.4-0.9c-2.1-1.4-7.5-3.2-10.4-3.6c-2.4-0.3-4.8-0.4-7.3-0.3
				c-0.7,0-1.4,0.2-1.9,0.7c-0.3,0.3-0.4,0.8-0.3,1.2c0.8,4,2.1,7.8,3.7,11.5c1.3,2.7,3.1,5.3,4.3,6.1c2,1.5,3.8,1.9,5.4,1.4
				c0.2-0.1,0.4,0,0.4,0.2c0,0.1,0,0.2,0,0.3l-0.3,0.4c-0.8,1.3-1.6,2.7-0.9,3.9c0.1,0.1,0.1,0.3,0,0.4c-0.9,1.4-1.1,3.1-0.6,4.7
				c0.5-1.1,1.3-1.9,2.4-2.3c0.1,0,0.3,0,0.4,0.1c0.1,0.1,0.1,0.3,0,0.4c-0.6,1.1-0.9,2.2-1.1,3.4c0,0.2-0.2,0.3-0.4,0.3
				s-0.3-0.2-0.3-0.4c0.1-0.9,0.3-1.8,0.7-2.7c-0.6,0.6-1.1,1.3-1.4,2.1c-0.1,0.2-0.3,0.3-0.5,0.2c-0.1,0-0.1-0.1-0.2-0.1
				c-1.1-1.6-0.8-4.4,0.2-5.9c-0.7-1.5,0.1-2.9,0.9-4.2c-1.9,0.1-3.7-0.5-5.1-1.7c-1.3-0.9-3.1-3.6-4.5-6.4c-1.7-3.8-3-7.7-3.8-11.7
				c-0.1-0.6,0-1.3,0.4-1.8c0.6-0.6,1.5-1,2.4-1c2.5-0.1,4.9,0,7.4,0.3c3,0.4,8.4,2.2,10.7,3.7c1.4,1.1,3.2,1.4,4.8,0.8
				c1.2-0.3,3-1.9,4.5-3.3c0.5-0.4,0.9-0.8,1.3-1.1c1.6-1.3,4.7-3.1,10.1-3.9c3.9-0.7,8-0.3,11.7,1.1c0.8,0.3,1.5,0.6,2.1,0.9
				c1.2,0.6,2.5,1,3.8,1.3c1.5,0.2,2.3-0.1,2.7-0.9c1-1.9,2.6-3.5,4.5-4.4c2.5-1.4,11.4-5,15.1-5.7c0.8-0.3,1.7-0.2,2.4,0.3
				c0.6,0.5,0.9,1.2,0.9,2c0.4,4.6,0,9.3-1.2,13.8c-0.6,1.9-1.5,3.6-2.8,5.1c0.3-0.1,0.6-0.2,1-0.4c0.2-0.1,0.4,0,0.5,0.2
				c0,0.1,0,0.2,0,0.3c-1.3,2.3-2.4,3.2-4.3,3.2c1.3,1.3,2.4,2.9,2.4,3.9c0,0.1-0.1,0.3-0.2,0.3c-0.1,0.1-0.3,0-0.4,0
				c-0.5-0.3-0.9-0.7-1.4-0.9c1.6,1.9,2.3,4.3,2,6.7c0,0.1-0.1,0.3-0.2,0.3c-0.1,0-0.3,0-0.4-0.1l-0.8-0.9c-0.8-0.9-1.7-1.9-2.4-2.6
				c0.8,2.7,1.4,5.6,0.7,6.7c-0.5,0.8-1,1.2-1.7,1.1c0.9,1.7,2.2,3.1,3.7,4.2c0.2,0.1,0.2,0.3,0.1,0.5c0,0.1-0.1,0.1-0.2,0.2
				c-1.1,0.3-2.2,0.1-3.2-0.5c0.4,0.8,0.8,1.7,1.3,2.4c0.5,0.8,0.9,1.6,1.3,2.5c1,3.2,1.4,6.6,1.1,10c0,0.2-0.1,0.3-0.3,0.3
				c-0.2,0-0.3,0-0.4-0.2l0-0.1c0,0.6-0.3,1.1-0.9,1.3c0.7,0.5,1.2,1.1,1.8,1.7c0.1,0.1,0.1,0.4,0,0.5c-0.1,0.1-0.3,0.3-0.5,0.4
				c-1,1.1-2.2,1.9-3.5,2.5c0.6,1.6,0.8,3.4,0.6,5.1c0,0.2-0.2,0.3-0.4,0.3c-0.1,0-0.2-0.1-0.2-0.1c-0.5-0.8-1.4-1.4-2.4-1.5
				c0.7,1.1,1.1,1.8,2.4,5.3c0,0.1,0,0.2-0.1,0.3c-0.1,0.1-0.2,0.1-0.3,0.1c-0.9,0-1.8,0.2-2.6,0.6c-0.2,0.1-0.5,0.2-0.7,0.3
				c0.7,0.3,1.5,0.4,2.3,0.2c0.2,0,0.4,0.1,0.4,0.3c0,0.1,0,0.2-0.1,0.3c-1.3,1.4-2.9,2.6-4.5,3.5c0.1,0.7,0.1,1.4,0.1,2.1
				C109.4,81.9,109.3,82.1,109.1,82.1"/>
			<path id="パス_234" class="st0" d="M117.6,118.4c-1,0-2.1-0.2-3-0.5c-1.8,0.4-3.7,0.3-5.6-0.1c-0.2,0-0.3-0.2-0.3-0.4
				c0-0.2,0.2-0.3,0.4-0.3c0,0,0,0,0,0c1.7,0.4,3.5,0.5,5.3,0.1c0.1,0,0.2,0,0.2,0c2,0.7,4.2,0.6,6.2-0.1c0.1,0,0.1,0,0.2,0
				c2.6,0.3,3.5-0.4,4-1.4c0.6-1.2,0.3-3.3-0.7-4.9c-0.8-1.3-3.8-3-8.1-4.7c-3.1-1.4-5.8-3.4-8.2-5.8c-1.4-1.5-2.5-3.4-3-5.4
				c-0.2-0.7-0.4-1.3-0.7-2c-0.1-0.1,0-0.3,0.1-0.4c2.2-2,3.6-4.6,4-7.5c0.1-0.3,0.1-0.7,0.2-1.1c0-0.2,0.2-0.3,0.4-0.3
				s0.3,0.2,0.3,0.4c0,0.4-0.1,0.8-0.2,1.1c-0.5,2.9-1.9,5.6-4,7.7c0.3,0.6,0.5,1.2,0.7,1.8c0.5,1.9,1.4,3.7,2.8,5.1
				c2.3,2.3,5,4.2,8,5.6c2.6,1,7.2,3.1,8.4,5c1.2,1.8,1.5,4.1,0.7,5.6c-0.8,1.4-2.1,2-4.6,1.7C120,118.2,118.8,118.5,117.6,118.4"/>
			<path id="パス_235" class="st0" d="M97.4,29c0.1,0.3-0.1,0.6-0.4,0.7c-0.3,0-0.5-0.2-0.5-0.6c-0.1-0.3,0.1-0.6,0.4-0.7
				C97.1,28.5,97.3,28.7,97.4,29"/>
			<path id="パス_236" class="st0" d="M71.5,32.1c0.1,0.3-0.1,0.6-0.4,0.7c-0.3,0-0.5-0.2-0.5-0.6c-0.1-0.3,0.1-0.6,0.4-0.7
				C71.2,31.6,71.4,31.8,71.5,32.1"/>
			<path id="パス_237" class="st0" d="M55.2,49.5C55.1,49.5,55.1,49.5,55.2,49.5c-0.2,0-0.3-0.1-0.2-0.3c0,0,0,0,0,0
				c0.3-2.3,1.3-5.5,2.3-6.8c0.1-0.1,0.2-0.1,0.3,0s0.1,0.2,0,0.3c-1,1.3-1.9,4.4-2.2,6.6C55.4,49.4,55.3,49.5,55.2,49.5"/>
			<path id="パス_238" class="st0" d="M39.5,106.1c-0.1,0-0.2-0.1-0.2-0.1c-0.7-1.6-1.5-5.1-0.9-6.9c0-0.1,0.2-0.2,0.3-0.2
				c0,0,0,0,0,0c0.1,0,0.2,0.2,0.2,0.3c-0.5,1.6,0.2,5,0.9,6.6C39.8,105.9,39.8,106,39.5,106.1C39.6,106.1,39.6,106.1,39.5,106.1"/>
			<path id="パス_239" class="st0" d="M34.9,98.6L34.9,98.6c-0.1,0-0.2-0.1-0.2-0.2c0.1-2.1,1.4-5.8,2.8-7c0.1-0.1,0.2-0.1,0.3,0
				c0.1,0.1,0.1,0.2,0,0.3c-1.2,1.1-2.5,4.7-2.6,6.7C35.1,98.5,35,98.6,34.9,98.6"/>
			<path id="パス_240" class="st0" d="M29.4,104.1c-0.1,0-0.2-0.1-0.2-0.2c-0.7-1.7-0.8-3.5-0.4-5.2c0-0.1,0.2-0.2,0.3-0.2
				c0,0,0,0,0,0c0.1,0,0.2,0.2,0.2,0.3c-0.4,1.6-0.2,3.4,0.4,4.9C29.7,103.9,29.6,104,29.4,104.1C29.5,104.1,29.5,104.1,29.4,104.1
				C29.5,104.1,29.4,104.1,29.4,104.1"/>
			<path id="パス_241" class="st0" d="M58,52.3L58,52.3c-0.2,0-0.2-0.1-0.2-0.3c0.5-2.4,1.6-4.5,3.3-6.3c0.1-0.1,0.2-0.1,0.3,0
				c0.1,0.1,0.1,0.2,0,0.3c0,0,0,0,0,0c-1.6,1.6-2.7,3.7-3.1,6C58.2,52.2,58.1,52.3,58,52.3"/>
			<path id="パス_242" class="st0" d="M112.3,39.7c-0.1,0-0.2-0.1-0.2-0.1c-0.6-1.5-1.6-2.9-2.8-3.9c-0.1-0.1-0.1-0.2-0.1-0.3
				c0.1-0.1,0.2-0.1,0.3-0.1c1.3,1.1,2.3,2.5,3,4.1C112.5,39.4,112.5,39.6,112.3,39.7C112.3,39.6,112.3,39.6,112.3,39.7"/>
			<path id="パス_243" class="st0" d="M113.7,46.6c-0.1,0-0.1,0-0.2-0.1c-1.4-1.3-2.5-2.8-3.5-4.5c-0.1-0.1,0-0.3,0.1-0.3
				c0.1,0,0.2,0,0.3,0.1c0.9,1.6,2,3.1,3.4,4.4c0.1,0.1,0.1,0.2,0,0.3C113.9,46.6,113.8,46.6,113.7,46.6"/>
			<path id="パス_244" class="st0" d="M43.3,108.6c-0.1,0-0.1,0-0.2-0.1c-0.9-1.3-1.6-2.8-2.1-4.4c0-0.1,0-0.3,0.2-0.3
				c0.1,0,0.3,0,0.3,0.2c0.4,1.5,1.1,2.9,2,4.2c0.1,0.1,0.1,0.2,0,0.3C43.4,108.6,43.4,108.6,43.3,108.6"/>
			<path id="パス_245" class="st0" d="M20.3,102.6c-0.2,0-0.3-0.2-0.3-0.4c0-0.1,0-0.2,0.1-0.2c1-0.9,0.8-2.4,0.7-3.6
				c-0.1-1.2-1.2-4.2-2.3-5c-0.8-0.6-2.8-0.5-4.4-0.5c-0.8,0-1.5,0-2.1,0c-0.2,0-0.3-0.2-0.3-0.4s0.2-0.3,0.4-0.3c0.5,0,1.3,0,2,0
				c1.8,0,3.8-0.1,4.8,0.6c1.4,1,2.5,4.2,2.6,5.5c0.1,1.3,0.3,3-0.9,4.2C20.5,102.6,20.4,102.6,20.3,102.6"/>
			<path id="パス_246" class="st0" d="M14.9,92.8c-0.2,0-0.4-0.2-0.4-0.4c0-0.1,0-0.2,0.1-0.3c0.4-0.4,0.8-0.8,1.1-1.3
				c0.1-0.2,0.3-0.2,0.5-0.1c0.2,0.1,0.2,0.3,0.1,0.5c0,0,0,0,0,0c-0.4,0.5-0.8,1-1.3,1.4C15.1,92.8,15,92.8,14.9,92.8"/>
			<path id="パス_247" class="st0" d="M76.2,63.4c0,0-0.1,0-0.1,0c-3.2-1.6-5.4-5.6-6.2-7l-0.1-0.1c-0.1-0.1,0-0.3,0.1-0.3
				c0.1-0.1,0.3,0,0.3,0.1c0,0,0,0,0,0l0.1,0.1c0.8,1.4,2.9,5.3,6,6.8c0.1,0.1,0.2,0.2,0.1,0.3C76.4,63.3,76.3,63.4,76.2,63.4"/>
			<path id="パス_248" class="st0" d="M80.7,65.9c-0.1,0-0.2-0.1-0.2-0.2c-0.3-1.5-0.8-2.9-1.4-4.3c0-0.1,0-0.3,0.1-0.3
				c0.1,0,0.2,0,0.3,0.1c0.6,1.4,1.1,2.9,1.4,4.4C81,65.7,80.9,65.9,80.7,65.9C80.7,65.9,80.7,65.9,80.7,65.9L80.7,65.9"/>
			<path id="パス_249" class="st0" d="M87.9,65.9c0,0-0.1,0-0.1,0c-1.1-0.8-2-1.8-2.6-3c-0.1-0.1,0-0.3,0.1-0.3
				c0.1-0.1,0.2,0,0.3,0.1c0.5,1.2,1.4,2.2,2.4,2.9c0.1,0.1,0.1,0.2,0.1,0.3C88,65.8,87.9,65.9,87.9,65.9"/>
			<path id="パス_250" class="st0" d="M93.8,64.6c0,0-0.1,0-0.1,0c-0.1-0.1-0.1-0.2-0.1-0.3c1.6-2.2,2.6-4.7,2.9-7.4
				c0-0.1,0.1-0.2,0.3-0.2c0.1,0,0.2,0.1,0.2,0.3c-0.3,2.8-1.4,5.4-3,7.6C93.9,64.5,93.8,64.6,93.8,64.6"/>
			<path id="パス_251" class="st0" d="M99.5,59.2c-0.1,0-0.2-0.1-0.2-0.2c0-0.1,0-0.1,0.1-0.2c1-1.1,1.7-2.4,2.1-3.8
				c0-0.1,0.2-0.2,0.3-0.2c0.1,0,0.2,0.2,0.2,0.3c0,0,0,0,0,0c-0.4,1.5-1.2,2.8-2.2,4C99.6,59.2,99.6,59.2,99.5,59.2"/>
		</g>
	</g>
	<g>
		<g id="グループ_283" transform="translate(5605.159 4362.104)">
			<path id="パス_96" class="st0" d="M10.9,22.6c-2.4,1.5-5.2,6.9-6.3,9.1c1.5-0.5,1.5-0.7,3-0.3c-2.1,2.9-3.8,6.1-5.1,9.5
				c1.2-0.3,1.5-0.7,2.5-0.5c-2.2,3-4.4,11.2-4.7,13c1.5-0.5,2-1.2,3-1.2c-1.2,3.7-2,7.5-2.4,11.3c0,1.5-0.5,4.7,0.7,5.4
				c0,4.1-1,10,1,11c0.5,4.1,7.1,11.2,7.6,14.7c0.3,2.3,1.7,8.7,2.9,10.8c1,1.7,1.8,3.6,2.3,5.6c0.3,1.5,1.2,2.8,2.6,3.6
				c1.2,0.6,3.1,2.4,5,4.2c0.2,0.7,0.3,1.5,0.3,2.3c-0.1,1.5,0.3,3.1,1.2,4.3c0.9,1.2,3.3,1.7,4.2,1.3c1.7,0.9,2.7,0.6,3.6,0.2
				c1.1,0.4,2.3,0.3,3.4-0.2c0.1,0.2,0.3,0.3,0.4,0.5c0.8,0.8,1.8,1.1,2.9,1c1.3,0.9,4.8,0.6,5.6,0.1c2.4,0.3,4.7-0.5,6.3-2.3
				c0.9-1,1.5-2.1,1.8-3.4c5-2.5,10.6-0.1,12.2-3.1c2.3-0.1,3.8-1.7,5.3-3.4c3.6-1,6.1-4.3,8.3-8c1.4-2.4,3.6-12.7,4.3-16.7
				c1-5.5-0.3-15.2-1-20.1c1.5-1.5,0.7-9.3-0.3-13.9c1.5-1.5-3-8.6-6.3-12.5c1.2,0,2.3,0.2,3.4,0.7c-0.3-1.4-1.6-5.2-2.5-6.4
				c-2-2.5-4.6-5.1-6.9-5.8c1-0.5,2.2-0.8,3.3-1c-1.4-1.4-4.5-4-6.7-4.2c1.1-0.8,2.5-1,3.9-0.7c-2-3.1-4.5-5.8-7.4-8.1
				c0.7-1.2,1.1-2.7,1.1-4.1c-0.2-3.2-0.6-6.4-1.3-9.5C61.7,4,60.8,3,59,3.3c-1.7,0.3-7.3,2.6-10.3,5.8C46,7.9,37.3,6.7,34.9,7.8
				c-2.2-2.9-5-5.4-8.2-7.2c-1.4-0.7-2.6,0.1-3.3,1.5c-1.5,3.7-2.6,7.6-3.4,11.5c-2.5,0.7-4.6,1-5.9,0.5c0.2,1.2,0,1.4,0.8,2.2
				c-3.2,0.2-7.1,2.5-7.6,3.9C8.7,20.6,9.9,21.4,10.9,22.6"/>
			<path id="パス_97" class="st0" d="M53.4,100.6c2.1-1.8,6.5-4.8,7-7.9c1.8,0.5,6.1-1.8,8.1-2.9c-1-1-1.2-2.6-0.9-4.5
				c2.1,0.5,3.3-1.5,5-1.9c-1.2-0.6-2.1-2.3-2.9-4.7c1.9,0.7,4.6,0.6,6.5,1.2c-0.7-0.6-1.2-2.4-2.4-4.7s-0.7-7.1-2-11.2
				c1,0.5,1.8,1.1,2.6,1.9c0-1.1-1.4-3.8-2.8-5.9c1.3-0.1,2.5,0,3.7,0.5c-1.6-3.1-3.8-5.9-6.3-8.3c1.1-0.7,2.4-0.9,3.6-0.6
				c-1.6-3.3-4.3-6-7.6-7.6c-3.1-1.5-6.4-2.6-9.8-3.2c-1.8-0.3-3.6-0.8-5.2-1.7c-2.2-1.6-4.8-2.6-7.6-2.9c-2.6-0.1-5.2,0.4-7.6,1.5
				c-2.1,0.7-4.2,1.2-6.4,1.3c-2.9,0.2-5.7,0.7-8.4,1.5c-2.9,0.9-5.7,2.3-8.1,4.1c-1.6,1.2-3.4,3.1-3.9,4.9c1-0.3,2-0.4,3.1-0.3
				c-1.5,0.9-2.7,2.2-3.6,3.7c1.2-0.1,2.3,0.6,3.6,0.5c-1.8,1.9-2.3,3.6-3,4.9c1-0.4,2.1-0.5,3.2-0.3c-1.7,2.3-3.6,6.5-4.5,7.8
				c0.8-0.3,1.6-0.5,2.4-0.7c-1.2,2.8-2.3,5.6-3.2,8.5c1.1-0.4,2.2-0.6,3.3-0.8c-0.3,2.5-0.7,5.2-1.6,6.3c1.3,0,2.5-0.5,3.4-1.4
				c-0.5,2-0.1,5.3-0.7,6.7c1.7-0.3,2.4,0,3-0.8c-0.9,2.7,0.2,7.1,0.9,9c0.8,2,2.5,3.5,3.4,2.6c1.2,2.5,3,4.7,5.2,6.4
				c-0.8-1-1.3-2.1-1.6-3.3c2.2,2.6,4.6,4.9,7.2,7.1c-0.3-1.2-0.9-3-0.8-3.7c1.2,2.2,3.2,4,5.6,4.9c-0.2-1.2,2.6-3.6,3.2-5
				c0.8,1.7,1.1,3.5,0.8,5.3c1.8-0.8,5.2-4,5.8-5.4c0.2,1.1-0.1,2.3-0.7,3.3c3.6-0.9,11.2-6.3,11.9-7.5
				C54.2,98.4,53.9,99.6,53.4,100.6"/>
			<path id="パス_98" class="st0" d="M47.1,47.9c-0.7,0-1.5,0-2.2-0.1c-1-0.1-1.9-0.5-2.7-1.1c-1.2,0.5-2.5,0.8-3.8,0.6
				c-0.6,0-1.3,0-1.9-0.1c0,0,0,0.1,0,0.2c0.6,1.6,1.9,3,3.5,3.7c1.3,0.5,2.8,0.4,4.1-0.1c1.3-0.6,2.4-1.6,2.9-3L47.1,47.9"/>
			<path id="パス_99" class="st0" d="M37.8,27.9c-0.2-1.8-1.3-3.3-3-3.9c-2.3-0.6-6.8,0.9-8.8,3.3c-1.2,1.4-0.3,3.3,1.6,2.5
				c1.7-0.7,4.4-2.5,6.4-1S37.9,30.1,37.8,27.9"/>
			<path id="パス_100" class="st0" d="M46.8,27.9c0.5-1.3,1.7-2.3,3.1-2.5c2.3-0.2,5.8,1.6,6.9,2.5s1.9,1.6,1.9,2.9
				s-1.4,1.4-2.9,0.8c-1.2-0.7-2.5-1.2-3.9-1.6c-1.1-0.2-2.2-0.1-3.3,0.2c-0.8,0.3-1.7-0.2-2-1C46.6,28.7,46.6,28.2,46.8,27.9"/>
			<path id="パス_101" class="st0" d="M23.1,119.1c-0.2,0-0.3-0.1-0.4-0.3c-0.3-0.9-0.6-1.8-1.1-2.7c-1.1-2.4-2.2-4.8-3.1-7.3
				c-1-2.8-1.8-5.8-2.3-8.7c0-0.2,0.1-0.4,0.3-0.4c0,0,0,0,0,0c0.2,0,0.4,0.1,0.4,0.3c0,0,0,0,0,0c0.5,2.9,1.3,5.8,2.3,8.6
				c0.9,2.4,1.9,4.8,3,7.2c0.5,0.9,0.9,1.9,1.2,2.9c0.1,0.2-0.1,0.4-0.3,0.5c0,0,0,0,0,0C23.2,119.1,23.2,119.1,23.1,119.1"/>
			<path id="パス_102" class="st0" d="M52.8,122.9C52.8,122.9,52.8,122.9,52.8,122.9c-0.3-0.1-0.4-0.3-0.4-0.5
				c0.2-0.7,0.2-1.4,0.2-2.1c0-2.8,0.3-5.6,0.9-8.3c0.6-2.2,1.3-4.3,2.2-6.4c0.4-1,0.8-2,1.1-2.8c0.8-2.1,1.4-4.2,1.9-6.3
				c0-0.2,0.2-0.3,0.4-0.3c0,0,0,0,0,0c0.2,0,0.3,0.2,0.3,0.4c0,0,0,0,0,0c-0.5,2.2-1.1,4.3-1.9,6.4c-0.3,0.8-0.7,1.8-1.1,2.8
				c-0.9,2-1.6,4.1-2.2,6.2c-0.6,2.7-0.9,5.4-0.9,8.1c0,0.8,0,1.6-0.2,2.4C53.2,122.8,53,122.9,52.8,122.9"/>
			<path id="パス_103" class="st0" d="M35.7,127c-0.1,0-0.2-0.1-0.3-0.2c-0.5-0.9-0.7-1.9-0.7-2.9c0.1-1.5,0.3-3,0.6-4.5l0.2-1
				c0.2-1.2-0.3-5.6-0.6-8.4c-0.1-1.3-0.3-2.3-0.3-2.9c0-0.2,0.1-0.4,0.3-0.4c0.2,0,0.4,0.1,0.4,0.3c0,0,0,0,0,0
				c0,0.6,0.2,1.6,0.3,2.9c0.4,3.3,0.8,7.4,0.6,8.7l-0.2,1c-0.3,1.4-0.5,2.9-0.6,4.4c-0.1,0.8,0.1,1.7,0.5,2.4
				c0.1,0.2,0.1,0.4-0.1,0.5c0,0,0,0,0,0C35.9,127,35.8,127,35.7,127"/>
			<path id="パス_104" class="st0" d="M32,32.5c-1,0-1.8,0.6-2,1.6c-0.2,0.8,0,2.5,1.1,2.7c1.3,0.2,2.4-0.7,2.6-2
				c0.2-1.1-0.5-2.1-1.6-2.3C32,32.5,32,32.5,32,32.5"/>
			<path id="パス_105" class="st0" d="M51.3,34.4c-0.9,0.3-1.5,1.2-1.3,2.1c0.1,0.9,0.8,2.3,2,2.2c1.2-0.3,2-1.5,1.8-2.7
				c-0.2-1.1-1.2-1.8-2.3-1.6C51.3,34.4,51.3,34.4,51.3,34.4"/>
			<path id="パス_106" class="st0" d="M43.7,39c-1.5-0.2-3.2,0-4.1,1.1c-0.8,1.2-0.6,2.7,0.4,3.7c0.9,0.9,2.1,1.4,3.4,1.4
				c1.3,0.1,2.6-0.5,3.3-1.6c0.7-1.2,0.9-2.1,0.4-3S45.2,39.2,43.7,39"/>
			<path id="パス_107" class="st0" d="M46.4,48.2c-0.5,0-1.1,0-1.6-0.1c-1-0.1-1.9-0.5-2.7-1c-1.2,0.5-2.5,0.7-3.7,0.6
				c-1.7,0-3.4-0.3-4.9-0.9c-1.9-0.6-3.5-2-4.3-3.9c-0.1-0.2,0-0.4,0.2-0.5c0.2-0.1,0.4,0,0.5,0.2c0.8,1.6,2.2,2.9,3.9,3.5
				c1.5,0.6,3.1,0.9,4.7,0.9c1.2,0.1,2.4-0.1,3.6-0.6c0.1-0.1,0.3-0.1,0.4,0c0.8,0.5,1.6,0.9,2.6,1c1.5,0.2,2.9,0.1,4.3-0.3
				c1.2-0.4,1.9-1.6,1.9-2.8c0-0.2,0.2-0.4,0.4-0.4c0,0,0,0,0,0c0.2,0,0.4,0.2,0.4,0.4c0.1,1.6-0.9,3-2.4,3.5
				C48.5,48.1,47.5,48.3,46.4,48.2"/>
			<path id="パス_108" class="st0" d="M42,51.8c-0.7,0-1.4-0.1-2.1-0.4c-1.7-0.8-3-2.2-3.7-3.9c-0.1-0.2,0-0.4,0.2-0.5
				c0.2-0.1,0.4,0,0.5,0.2c0.6,1.5,1.8,2.8,3.2,3.5c1.2,0.4,2.6,0.4,3.8-0.1c1.2-0.5,2.2-1.5,2.7-2.8c0.1-0.2,0.3-0.3,0.5-0.2
				c0.2,0.1,0.3,0.3,0.2,0.5c-0.6,1.4-1.7,2.6-3.1,3.2C43.6,51.6,42.8,51.8,42,51.8"/>
			<path id="パス_109" class="st0" d="M34.3,25.9c-0.1,0-0.2,0-0.2-0.1c-1.2-1.6-6-4.1-8-4.5c-0.1,0-0.2-0.2-0.2-0.3
				c0-0.1,0.2-0.2,0.3-0.2c2.1,0.5,7,3,8.3,4.7c0.1,0.1,0.1,0.3,0,0.4C34.4,25.9,34.4,25.9,34.3,25.9"/>
			<path id="パス_110" class="st0" d="M30.2,27.3C30.1,27.3,30.1,27.3,30.2,27.3c-2-0.5-4-0.8-6-0.7c-0.1,0-0.2-0.1-0.3-0.2
				c0,0,0,0,0,0c0-0.1,0.1-0.3,0.2-0.3c2-0.1,4.1,0.1,6.1,0.7c0.1,0,0.2,0.2,0.2,0.3C30.4,27.2,30.3,27.3,30.2,27.3"/>
			<path id="パス_111" class="st0" d="M48.5,27.6c-0.1,0-0.1,0-0.2-0.1c-0.1-0.1-0.1-0.3,0-0.4c1.4-1.4,6.1-3.1,8.1-3
				c0.1,0,0.2,0.1,0.2,0.3s-0.1,0.2-0.3,0.2c-1.9-0.1-6.4,1.6-7.7,2.9C48.7,27.6,48.6,27.6,48.5,27.6"/>
			<path id="パス_112" class="st0" d="M60,29.6C60,29.6,60,29.6,60,29.6c-2.3-0.8-4.5-1.1-6.8-1.1c-0.1,0-0.3-0.1-0.3-0.2
				c0,0,0,0,0,0c0-0.1,0.1-0.3,0.2-0.3c0,0,0,0,0,0c2.4,0,4.8,0.3,7,1.1c0.1,0.1,0.2,0.2,0.1,0.3C60.2,29.6,60.1,29.6,60,29.6"/>
			<path id="パス_113" class="st0" d="M40.4,55.5c-2.8,0-5.5-0.9-7.8-2.6c-0.1-0.1-0.1-0.3,0-0.4c0.1-0.1,0.2-0.1,0.3,0
				c2.4,1.8,5.3,2.6,8.3,2.4c2.4-0.3,4.5-1.5,6.1-3.3c0.1-0.1,0.2-0.1,0.4,0s0.1,0.2,0,0.4l0,0c-1.7,1.9-4,3.1-6.5,3.5
				C41,55.5,40.7,55.5,40.4,55.5"/>
			<path id="パス_114" class="st0" d="M63.8,76.6c0,0-0.1,0-0.1,0c-2.6-1.4-5-3.3-7-5.5c-0.1-0.1-0.1-0.3,0-0.4
				c0.1-0.1,0.3-0.1,0.4,0l0,0c2,2.1,4.3,3.9,6.9,5.3c0.1,0.1,0.2,0.2,0.1,0.3C64,76.6,63.9,76.6,63.8,76.6"/>
			<path id="パス_115" class="st0" d="M54.5,87.1c-0.1,0-0.2-0.1-0.2-0.1c-1-2.2-1.8-4.5-2.4-6.8c0-0.1,0.1-0.3,0.2-0.3
				c0.1,0,0.3,0.1,0.3,0.2c0,0,0,0,0,0c0.6,2.3,1.4,4.5,2.3,6.7c0.1,0.1,0,0.3-0.1,0.3C54.6,87.1,54.6,87.1,54.5,87.1"/>
			<path id="パス_116" class="st0" d="M51.5,104.4c-0.1,0-0.2-0.1-0.2-0.2c0-2.1-2.2-9-3.2-10.5c-0.1-0.1,0-0.3,0.1-0.3
				s0.3,0,0.3,0.1c1.1,1.6,3.3,8.5,3.3,10.8C51.7,104.2,51.6,104.4,51.5,104.4"/>
			<path id="パス_117" class="st0" d="M45.9,99.8c-0.1,0-0.2,0-0.2-0.1c-1.5-2.8-2.5-5.8-2.7-8.9c0-0.1,0.1-0.2,0.2-0.2
				s0.2,0.1,0.2,0.2c0.3,3,1.2,6,2.7,8.7c0.1,0.1,0,0.3-0.1,0.3c0,0,0,0,0,0C46,99.8,45.9,99.8,45.9,99.8"/>
			<path id="パス_118" class="st0" d="M13.4,69.5c-0.1,0-0.2-0.1-0.2-0.3c0-0.1,0.1-0.2,0.1-0.2c1.1-0.5,2.3-2,3.8-3.8l0.3-0.4
				c0.1-0.1,0.3-0.1,0.4,0c0.1,0.1,0.1,0.2,0,0.3l-0.3,0.4C15.9,67.5,14.7,69,13.4,69.5C13.5,69.5,13.4,69.5,13.4,69.5"/>
			<path id="パス_119" class="st0" d="M14.6,80C14.6,80,14.5,80,14.6,80c-0.2-0.1-0.3-0.2-0.2-0.3c0.7-1.8,1.7-3.5,2.9-5
				c0.1-0.1,0.3-0.1,0.4,0c0.1,0.1,0.1,0.3,0,0.4l0,0c-1.2,1.5-2.1,3.1-2.8,4.8C14.8,79.9,14.7,80,14.6,80"/>
			<path id="パス_120" class="st0" d="M15.1,88.1L15.1,88.1c-0.2,0-0.3-0.1-0.2-0.3c0.2-1.7,1.5-6.7,2.4-7.8
				c0.1-0.1,0.3-0.1,0.4,0c0.1,0.1,0.1,0.2,0,0.3c-0.8,0.9-2.1,5.8-2.3,7.5C15.3,88,15.2,88.1,15.1,88.1"/>
			<path id="パス_121" class="st0" d="M28.6,99.1c-0.1,0-0.1,0-0.2-0.1c-1.6-1.9-2.4-7.3-2.4-8.8c0-0.1,0.1-0.2,0.2-0.2
				s0.2,0.1,0.2,0.2c0,1.4,0.8,6.7,2.3,8.5c0.1,0.1,0.1,0.3,0,0.4C28.7,99.1,28.7,99.1,28.6,99.1"/>
			<path id="パス_122" class="st0" d="M66,62.7c-0.1,0-0.1,0-0.2-0.1c-1.3-1.6-6-4-8.2-4.5c-0.1,0-0.2-0.2-0.2-0.3
				s0.2-0.2,0.3-0.2c2.2,0.5,7,2.9,8.4,4.7c0.1,0.1,0.1,0.3,0,0.4C66.1,62.7,66.1,62.7,66,62.7"/>
			<path id="パス_123" class="st0" d="M36.4,11c-0.2,0-0.3-0.1-0.4-0.3c-0.3-1-0.8-1.9-1.4-2.7c-0.1-0.2-0.1-0.4,0.1-0.5
				s0.4-0.1,0.5,0.1c0,0,0,0,0,0c0.6,0.9,1.2,1.9,1.5,2.9c0.1,0.2,0,0.4-0.2,0.5c0,0,0,0,0,0C36.5,11,36.4,11,36.4,11"/>
			<path id="パス_124" class="st0" d="M46.9,11.8c-0.2,0-0.4-0.2-0.4-0.4c0-0.1,0-0.1,0.1-0.2c0.5-0.8,1.1-1.6,1.8-2.3
				c0.1-0.2,0.4-0.2,0.5,0c0.2,0.1,0.2,0.4,0,0.5l0,0c-0.6,0.7-1.2,1.4-1.7,2.2C47.2,11.7,47,11.8,46.9,11.8"/>
			<path id="パス_125" class="st0" d="M32.8,9.8c-0.5-1.3-4.4-5-5.6-6s-2-0.3-2.4,0.9c-0.8,2.5-1.5,5.2-1.9,7.8
				c-0.1,0.6,0.3,1.3,0.9,1.4c0.3,0.1,0.6,0,0.9-0.2c1.1-0.5,2.3-0.9,3.5-1.2c1.2-0.3,2.3-0.5,3.5-0.7c0.8-0.2,1.3-1,1.1-1.9
				C32.9,9.9,32.9,9.9,32.8,9.8"/>
			<path id="パス_126" class="st0" d="M51.3,11.9c0.7-1.2,5-4.4,6.4-5.1s2,0,2.3,1.2c0.5,2.6,0.7,5.3,0.8,8c0,0.7-0.5,1.2-1.1,1.2
				c-0.3,0-0.6-0.1-0.9-0.3c-1-0.7-2.2-1.2-3.3-1.7c-1.1-0.4-2.2-0.8-3.4-1.2c-0.8-0.3-1.1-1.2-0.8-2C51.2,12,51.3,12,51.3,11.9"/>
			<path id="パス_127" class="st0" d="M41.9,129.1c-1,0-2-0.1-2.9-0.6c-1.1,0.1-2.2-0.3-3-1.1c-0.2-0.2-0.4-0.3-0.5-0.5
				c-0.1-0.2-0.1-0.4,0.1-0.5c0.2-0.1,0.4-0.1,0.5,0.1c0,0,0,0,0,0c0.1,0.1,0.2,0.3,0.4,0.4c0.7,0.7,1.6,1,2.6,0.9
				c0.1,0,0.2,0,0.3,0.1c1.2,0.8,4.5,0.6,5.2,0.1c0.1-0.1,0.2-0.1,0.3-0.1c2.2,0.3,4.5-0.5,6-2.2c0.8-0.9,1.4-2,1.7-3.2
				c0-0.2,0.3-0.3,0.5-0.3c0.2,0,0.3,0.3,0.3,0.5l0,0c-0.3,1.3-1,2.5-1.9,3.5c-1.7,1.8-4.1,2.7-6.6,2.5
				C43.8,129,42.8,129.1,41.9,129.1"/>
			<path id="パス_128" class="st0" d="M30.9,127.6c-0.7,0-1.5-0.2-2.1-0.6c-1.6,0.3-3.3-0.3-4.5-1.5c-0.9-1.3-1.4-3-1.2-4.6
				c0-0.7-0.1-1.4-0.3-2.1c0-0.2,0.1-0.4,0.3-0.5c0.2,0,0.4,0.1,0.4,0.2c0.3,0.8,0.4,1.6,0.3,2.4c-0.1,1.4,0.3,2.9,1.1,4.1
				c1,1,2.4,1.4,3.7,1.2c0.1-0.1,0.2-0.1,0.3,0c1.7,0.8,2.5,0.6,3.2,0.2c0.1-0.1,0.2-0.1,0.3,0c0.6,0.2,1.3,0.3,2,0.2
				c0.2,0,0.4,0.1,0.4,0.3c0,0.2-0.1,0.4-0.3,0.4l0,0c-0.8,0.1-1.5,0.1-2.3-0.2C31.9,127.5,31.4,127.6,30.9,127.6"/>
			<path id="パス_129" class="st0" d="M21.5,117.6c-0.1,0-0.2,0-0.3-0.1c-1-1-2.1-1.9-3.3-2.6c-1.5-0.8-2.5-2.2-2.8-3.8
				c-0.5-1.9-1.3-3.8-2.3-5.5c-1.2-2.3-2.6-8.7-2.9-10.9c-0.4-1.4-1-2.8-1.9-4c-0.1-0.2-0.1-0.4,0.1-0.5c0.2-0.1,0.4-0.1,0.5,0.1
				l0,0c0.9,1.3,1.6,2.7,2,4.3c0.3,2.1,1.7,8.5,2.8,10.7c1,1.8,1.8,3.7,2.3,5.6c0.3,1.4,1.2,2.6,2.4,3.3c1.2,0.8,2.4,1.7,3.4,2.7
				c0.2,0.1,0.2,0.4,0,0.5C21.7,117.5,21.6,117.6,21.5,117.6"/>
			<path id="パス_130" class="st0" d="M6.8,88.2c-0.1,0-0.2-0.1-0.3-0.2c-1.8-2.8-3.7-5.7-4.1-7.9c-1.6-1-1.4-4.4-1.2-8
				c0.1-1.1,0.1-2.1,0.1-3c-0.9-0.8-0.8-2.8-0.7-4.5c0-0.4,0-0.8,0-1.1c0.3-3.2,0.9-6.3,1.7-9.4c0.1-0.2,0.3-0.3,0.5-0.2
				c0.2,0.1,0.3,0.3,0.2,0.4c-0.9,3-1.4,6.1-1.7,9.2c0,0.3,0,0.7,0,1.2c-0.1,1.4-0.2,3.5,0.5,3.9c0.1,0.1,0.2,0.2,0.2,0.3
				c0,1-0.1,2.2-0.1,3.3c-0.2,3.2-0.4,6.7,0.9,7.4c0.1,0.1,0.2,0.2,0.2,0.3c0.3,2.1,2.2,5.1,4,7.8C7.2,87.8,7.2,88,7,88.2
				C6.9,88.2,6.8,88.2,6.8,88.2"/>
			<path id="パス_131" class="st0" d="M0.4,53.7c-0.2,0-0.4-0.2-0.4-0.4c0,0,0,0,0-0.1c0.3-1.9,2.3-9.2,4.4-12.6
				c-0.3,0-0.6,0.1-0.9,0.2C3.3,41,3,41.1,2.7,41.2c-0.2,0.1-0.4-0.1-0.5-0.3c0-0.1,0-0.1,0-0.2C3.4,37.5,5,34.4,7,31.6
				c-0.6-0.1-1.1,0-1.6,0.2C5.2,31.9,5,32,4.7,32c-0.1,0-0.3,0-0.4-0.1c-0.1-0.1-0.1-0.3-0.1-0.4c1.2-2.6,2.7-5.1,4.5-7.5
				c0.1-0.2,0.4-0.2,0.5-0.1s0.2,0.4,0.1,0.5c0,0,0,0,0,0c-1.5,2-2.9,4.2-4,6.5C6.1,30.7,7,30.7,7.7,31c0.2,0,0.3,0.2,0.3,0.4
				c0,0.1,0,0.1-0.1,0.2c-1.9,2.7-3.5,5.6-4.8,8.6l0.1,0c0.6-0.3,1.2-0.4,1.9-0.2c0.2,0,0.3,0.2,0.3,0.4c0,0.1,0,0.1-0.1,0.2
				c-1.9,2.7-3.9,9.6-4.5,12.2c0.3-0.1,0.6-0.3,0.8-0.4c0.5-0.3,1.1-0.5,1.7-0.5c0.2,0,0.4,0.2,0.4,0.4s-0.2,0.4-0.4,0.4
				c-0.5,0-0.9,0.2-1.3,0.5c-0.5,0.3-1,0.5-1.6,0.7C0.5,53.7,0.4,53.7,0.4,53.7"/>
			<path id="パス_132" class="st0" d="M10.9,22.9c-0.1,0-0.2,0-0.3-0.1c-0.9-1.1-2-1.8-3.4-2.2c-0.2,0-0.3-0.3-0.3-0.5
				c0,0,0,0,0,0c0.6-1.5,4.1-3.6,7.2-4.1c-0.3-0.4-0.4-0.8-0.4-1.3c0-0.2,0-0.4-0.1-0.6c0-0.2,0.1-0.4,0.3-0.4c0.1,0,0.1,0,0.2,0
				c1.3,0.5,3.5,0.1,5.5-0.5c0.8-3.9,1.9-7.7,3.4-11.4c0.9-1.7,2.3-2.3,3.8-1.6c3.3,1.9,6.1,4.4,8.4,7.3c0.1,0.2,0.1,0.4-0.1,0.5
				s-0.4,0.1-0.5-0.1c0,0,0,0,0,0c-2.2-2.9-4.9-5.3-8.1-7.1c-1.6-0.7-2.5,0.7-2.8,1.3c-1.5,3.7-2.6,7.5-3.3,11.4
				c0,0.2-0.1,0.3-0.3,0.3c-1.8,0.6-3.7,0.8-5.6,0.7c0,0,0,0,0,0c0,0.5,0.2,1.1,0.7,1.4c0.1,0.1,0.1,0.3,0.1,0.4
				c-0.1,0.1-0.2,0.2-0.3,0.2c-2.7,0.2-5.2,1.4-7.1,3.3c1.3,0.5,2.4,1.3,3.3,2.4c0.1,0.2,0.1,0.4,0,0.5C11,22.9,11,22.9,10.9,22.9"
				/>
			<path id="パス_133" class="st0" d="M47.1,9C47,9,47,9,47.1,9c-3.5-0.9-7-1.3-10.5-1.1c-0.2,0-0.4-0.1-0.4-0.3c0,0,0,0,0,0
				c0-0.2,0.1-0.4,0.3-0.4c0,0,0,0,0,0c3.6-0.2,7.2,0.2,10.7,1.2c0.2,0.1,0.3,0.3,0.3,0.5C47.4,8.8,47.2,9,47.1,9"/>
			<path id="パス_134" class="st0" d="M69.2,33.8c-0.2,0-0.4-0.2-0.4-0.4c0-0.1,0.1-0.3,0.2-0.3c0.8-0.4,1.8-0.7,2.7-0.9
				c-1.5-1.4-4.1-3.4-5.9-3.5c-0.2,0-0.3-0.1-0.3-0.3c0-0.2,0-0.3,0.1-0.4c1-0.7,2.2-1,3.4-0.9c-1.9-2.8-4.2-5.2-6.9-7.3
				c-0.2-0.1-0.2-0.3-0.1-0.5c0.7-1.2,1.1-2.6,1-3.9c-0.2-3.2-0.6-6.3-1.3-9.5c-0.4-1.8-1.2-2.5-2.7-2.2C57.4,4,51.8,6.3,48.9,9.4
				c-0.1,0.1-0.4,0.1-0.5,0c-0.1-0.1-0.1-0.4,0-0.5c3.1-3.3,8.8-5.6,10.5-5.9c1.3-0.3,3,0,3.6,2.8c0.7,3.2,1.1,6.4,1.3,9.6
				c0,1.4-0.3,2.8-1,4c2.8,2.3,5.2,5,7.2,8c0.1,0.1,0.1,0.3,0,0.4c-0.1,0.1-0.2,0.2-0.4,0.2c-0.9-0.2-1.9-0.1-2.8,0.2
				c2.2,0.9,4.2,2.3,5.9,4.1c0.1,0.1,0.1,0.4,0,0.5c-0.1,0.1-0.1,0.1-0.2,0.1c-1.1,0.1-2.2,0.4-3.2,0.9
				C69.3,33.7,69.3,33.8,69.2,33.8"/>
			<path id="パス_135" class="st0" d="M78.7,45.9c0,0-0.1,0-0.1,0c-1-0.4-2.1-0.6-3.2-0.7C75.2,45.3,75,45.2,75,45
				c-0.1-0.2,0.1-0.4,0.3-0.5c0,0,0,0,0,0c1-0.1,2,0.1,2.9,0.5c-0.5-2-1.3-3.8-2.3-5.6c-1.2-1.5-2.5-2.9-4-4.1
				c-0.2-0.1-0.2-0.4-0.1-0.5c0.1-0.2,0.4-0.2,0.5-0.1c1.6,1.2,2.9,2.7,4.1,4.3c1.1,1.4,2.3,5.4,2.6,6.6
				C79.1,45.7,79,45.9,78.7,45.9C78.8,45.9,78.7,45.9,78.7,45.9"/>
			<path id="パス_136" class="st0" d="M81.9,71.7c-0.2,0-0.4-0.2-0.4-0.4c0-0.1,0-0.2,0.1-0.3c1.2-1.2,0.8-8.1-0.4-13.5
				c0-0.1,0-0.3,0.1-0.3c0.8-0.8-1-4.8-4.2-9.4c-0.1-0.2-0.1-0.4,0.1-0.5s0.4-0.1,0.5,0.1c0,0,0,0,0,0c1.8,2.5,5.6,8.3,4.3,10.2
				c0.9,3.9,2,12.3,0.2,14C82.1,71.6,82,71.7,81.9,71.7"/>
			<path id="パス_137" class="st0" d="M55,122.1c-0.2,0-0.4-0.2-0.4-0.4c0-0.2,0.1-0.3,0.3-0.4c1.6-0.4,3.2-0.5,4.9-0.5
				c2.3-0.1,4.2-0.2,4.9-1.5c0.1-0.1,0.2-0.2,0.3-0.2c2.1-0.1,3.6-1.5,5.1-3.3c0-0.1,0.1-0.1,0.2-0.1c3.5-1,6-4.3,8.1-7.8
				c1.3-2.1,3.3-11.3,4.3-16.5C83.2,88,83,82.5,82,74.7c0-0.2,0.1-0.4,0.3-0.4c0,0,0,0,0,0c0.2,0,0.4,0.1,0.4,0.3c0,0,0,0,0,0
				c1,7.9,1.2,13.4,0.6,16.9c-0.7,3.8-2.9,14.3-4.4,16.8c-2.2,3.6-4.7,7-8.4,8.1c-1.5,1.7-3,3.3-5.3,3.4c-1,1.6-3,1.7-5.4,1.8
				C58.2,121.6,56.6,121.8,55,122.1C55.1,122.1,55,122.1,55,122.1"/>
			<path id="パス_138" class="st0" d="M52.9,36.3c0,0.2-0.2,0.4-0.5,0.4c-0.2,0-0.4-0.2-0.4-0.5c0-0.2,0.2-0.4,0.4-0.4
				C52.7,35.9,52.9,36.1,52.9,36.3C52.9,36.3,52.9,36.3,52.9,36.3"/>
			<path id="パス_139" class="st0" d="M32.8,34.2c0,0.2-0.2,0.4-0.5,0.4c-0.2,0-0.4-0.2-0.4-0.5c0-0.2,0.2-0.4,0.4-0.4
				C32.6,33.8,32.8,34,32.8,34.2C32.8,34.2,32.8,34.2,32.8,34.2"/>
		</g>
	</g>
	<g>
		<g id="グループ_285" transform="translate(5472.55 4375.028)">
			<path id="パス_140" class="st0" d="M41.3,3.2c2.6-1.7,5.9-2.2,8.9-1.3c2.4,0.8,4.2,2.7,4.9,5.1c0.3,0.8,0.4,1.5,0.5,2
				c2,0.4,3.7,1.4,5,3c1.1,1.6,2.1,4.3,1.9,6c-0.1,0.8-0.3,1.7-0.6,2.5c0.8,0.5,1.6,0.9,2.5,1.2c3.2,1.1,4.6,2.6,5.2,5
				c0.2,1,0.4,2,0.4,3.1c1.4,1.7,2.5,3.5,3.4,5.4c1.4,3,2.8,7.2,2,9.5c-0.1,0.5-0.4,1-0.6,1.4c0.4,0.9,0.7,1.7,1,2.7
				c0.8,2.2,0.7,4.6-0.3,6.7c-0.9,1.7-3.2,3.6-5.5,2.8c-0.7-0.4-1.4-0.9-2-1.5c-0.9,1-2.2,1.7-3.5,1.9c-0.2,0-0.5,0.1-0.7,0.1
				c0.1,0.2,0.4,0.7,0.7,1.2c0.8,1.7,1.4,3.5,1.6,5.3c0.4,0.3,0.6,0.6,1.1,1c2.8,2.9,5.8,10.4,5.8,13.9c0,0.7,0,1.6,0,1.9
				c1.8,3.4,3.8,8.5,2.3,10.6c-0.3,0.4-0.6,0.7-1,1c0.2,1.8-0.4,3.6-1.7,5c-1.3,1.2-3,2-4.8,2.1c-0.5,0.1-0.7,0.1-0.9,0.1
				c0.1,0.7,0,1.4-0.1,2.1c0.4,0.3,0.7,0.6,1,0.9c1.8,2.3,1.1,5.9-0.3,6.8c0.1,2-2.4,3.5-4.6,4.2c-0.6,0.2-1.2,0.3-1.8,0.4
				c-2,0.6-7.1,0.7-9.8-0.6c-0.5,0-1-0.1-1.5-0.2c-2.6-0.7-4.1-4-4.3-7c-0.4-0.3-0.8-0.6-1.1-1c-1.8-2-2.5-6.5-2.8-9.3
				c-0.6-0.8-1.1-1.7-1.6-2.6c0.1,0.8,0,1.6-0.1,2.4c-0.2,0.8-0.4,1.6-0.8,2.4c0.6,1.7,0.5,3.6-0.2,5.2c-0.3,0.5-0.6,1-1,1.4
				c0,0.1,0,0.1,0,0.3c0,2.1-0.9,3.6-2.5,5.1c-2.4,2.5-5.7,3.8-9.1,3.7c-2.9,1.1-6.1,1-8.9-0.3c-2.2-0.5-3.9-2.3-4.2-4.6
				c-0.1-1.4,0.4-2.8,1.3-3.8c-0.5-0.3-0.8-0.7-1.1-1.2c-0.7-1-0.4-3.4,1.3-5.6c-0.3-1.5,0.5-3.5,1.6-5.2c-0.2-1-0.4-2.1-0.4-3.1
				c-0.1-1.8,0.5-3.7,1.5-5.2c-0.5-0.2-0.9-0.5-1.3-0.8c-1.1-0.9-1.9-2.2-2.1-3.6c0-2.7,0.7-5.4,2.1-7.7c-0.1-0.4-0.2-1-0.4-1.8
				c-0.3-1.5-0.3-3-0.1-4.5c-0.3-0.4-0.5-0.7-0.7-1.1c-1.9-3.8,1.2-7,2.6-8.6c0.3-0.4,0.7-0.8,1.1-1.2c-0.8,0.1-1.6,0.1-2.3-0.2
				c-1.2,0.7-2.5,1.2-3.9,1.4c-2.5,0.4-5-0.9-5.9-3.3c-0.6-1.2-0.9-2.6-0.9-3.9c-0.5-0.1-1-0.2-1.4-0.3c-1.7-0.5-3.3-2.9-3.7-5.8
				c-0.4-3.1,1.3-5.2,3.1-8.7s3.5-8,6.3-9.5c0.5-0.3,1.1-0.6,1.7-0.8c-0.1-0.2-0.2-0.4-0.3-0.6c-1-3.3,2.1-6.3,5.9-8.4
				c0.7-0.3,1.1-0.5,2-1c-0.7,0-1.4-0.3-2-0.7c3.1,0,6.3-3.5,6.6-5.8c-1.2,0.1-2.4,0.7-3.2,1.6c-0.2-0.9,0-1.7,0.3-2.5
				c1.4-2.8,5.9-3.2,8.8-2.8c0.2-0.6,0.5-1.2,0.9-1.7c2.7-4.6,9.6-3.2,10.3-1.5C41.1,2.4,41.2,2.8,41.3,3.2"/>
			<path id="パス_141" class="st0" d="M35.1,39.1c2.1-1.5,4.3-1.9,5.5-0.4c0.3,0.4,0.6,0.8,0.8,1.3c0.9,0,1.8,0.4,2.6,0.9
				c-0.5,0.2-1.1,0.3-1.6,0.6c4.7-0.9,7.8,0.6,9.1,1.7c1.2,0.9,1.9,2.3,1.8,3.8c-0.1,0.9-0.4,1.8-0.9,2.6c-0.7-0.2-1.4-0.3-2.2-0.3
				c2.9,0.6,4,2.4,4.3,4.1c0.3,1.9-0.1,4.8-2.2,5.5c-1,0.2-2,0.3-2.9,0.2c0.2-0.4,0.3-0.8,0.2-1.2c-0.1,0.2-0.2,0.2-0.4,0.5
				c-1.5,1.7-8,2.5-11.2,1.5c0.3,0.3,0.6,0.5,1,0.7c-0.7,0.2-1.4,0.4-2.2,0.3c-2.6,0.1-7.7-0.4-10.8-3.4c0.3,0.5,0.7,1,1.1,1.4
				c-0.4,0.1-0.8,0.3-1.2,0.3c-1.2,0.2-3-0.1-5-1.8c-1.7-1.3-2.4-3.6-1.7-5.6c-0.6,0.7-0.9,1.6-0.9,2.5c-0.7,0-1.4-0.4-1.8-1
				c-0.3-0.6-0.4-1.2-0.3-1.8c-0.5-0.8-0.9-1.7-1.1-2.6c-0.3-1.8,0.9-4.4,2.7-6.1s4.9-2.2,8.2-1.7c1-0.8,2.4-1.1,3.7-0.7
				c1.3-1.8,3.6-3,4.5-2.2C34.5,38.4,34.8,38.8,35.1,39.1"/>
			<path id="パス_142" class="st0" d="M30.6,3.8c-0.2,0-0.4-0.2-0.4-0.4c0-0.1,0-0.1,0.1-0.2c1.5-2.3,4.2-3.6,6.9-3.3
				c2,0.2,3.7,0.9,4,1.9c0.1,0.2,0,0.4-0.2,0.5c-0.2,0.1-0.4,0-0.5-0.2c-0.2-0.6-1.6-1.2-3.4-1.4c-1.3-0.1-4.5,0-6.2,2.9
				C30.8,3.8,30.7,3.8,30.6,3.8"/>
			<path id="パス_143" class="st0" d="M20.9,8.3c-0.1,0-0.1,0-0.2,0c-0.2-0.1-0.3-0.3-0.2-0.5c0,0,0,0,0,0c1.8-3.5,8-3.5,10.7-2.6
				c0.2,0.1,0.3,0.3,0.2,0.5C31.4,5.9,31.2,6,31,5.9c-2.2-0.8-8.1-0.9-9.7,2.2C21.2,8.3,21.1,8.3,20.9,8.3"/>
			<path id="パス_144" class="st0" d="M17.7,15.2c-0.2,0-0.4,0-0.6,0c-0.2,0-0.3-0.2-0.3-0.4s0.2-0.3,0.4-0.3c1.1,0.1,2.2-0.3,3-1
				c1.6-1.1,2.7-2.7,3.2-4.6c0-0.2,0.2-0.3,0.4-0.3c0.2,0,0.3,0.2,0.3,0.4c-0.5,2-1.8,3.8-3.5,5.1C19.9,14.7,18.8,15.1,17.7,15.2"/>
			<path id="パス_145" class="st0" d="M11.3,25.2c-0.2,0-0.3-0.1-0.4-0.3c-0.9-3,1.3-6.2,6.1-8.8c0.2-0.1,0.4,0,0.5,0.2
				c0.1,0.2,0,0.4-0.2,0.5l0,0c-2.1,1.1-6.9,4.2-5.8,7.9c0.1,0.2,0,0.4-0.2,0.5c0,0,0,0,0,0C11.4,25.2,11.3,25.2,11.3,25.2"/>
			<path id="パス_146" class="st0" d="M14.3,40.8c-0.1,0-0.2,0-0.3-0.1c-2.2-2.4-2.5-9.5,0.2-13.3c0.1-0.2,0.4-0.2,0.5-0.1
				c0.2,0.1,0.2,0.4,0.1,0.5c-2.5,3.5-2.2,10.2-0.3,12.4c0.1,0.2,0.1,0.4,0,0.5C14.5,40.7,14.4,40.8,14.3,40.8"/>
			<path id="パス_147" class="st0" d="M4.1,50.7C4.1,50.7,4.1,50.7,4.1,50.7c-2-0.6-3.7-3.1-4.1-6.2c-0.3-2.6,0.7-4.5,2-6.9
				c0.4-0.7,0.7-1.3,1.1-2.1c0.3-0.6,0.6-1.3,0.9-1.9c1.5-3.2,3.1-6.4,5.5-7.8c0.2-0.1,0.4,0,0.5,0.1s0,0.4-0.1,0.5l0,0
				C7.8,27.8,6.3,31,4.9,34c-0.3,0.7-0.6,1.3-0.9,1.9c-0.4,0.8-0.8,1.5-1.1,2.1c-1.3,2.4-2.3,4.1-2,6.4c0.4,2.7,1.8,5.1,3.4,5.5
				c0.2,0.1,0.3,0.3,0.3,0.5C4.4,50.6,4.3,50.7,4.1,50.7"/>
			<path id="パス_148" class="st0" d="M11.5,58.3c-2.3,0-4.4-1.4-5.4-3.6c-1.5-3-0.9-6.5-0.4-8.9c0.1-0.2,0.3-0.3,0.5-0.3
				c0.2,0.1,0.3,0.2,0.3,0.4c-0.5,2.3-1.1,5.6,0.3,8.4c0.9,2.2,3.2,3.5,5.6,3.1c0.2,0,0.4,0.1,0.4,0.3c0,0,0,0,0,0
				c0,0.2-0.1,0.4-0.3,0.4c0,0,0,0,0,0C12.2,58.3,11.8,58.3,11.5,58.3"/>
			<path id="パス_149" class="st0" d="M18,57.1c-1.8,0-3.8-1.1-5.7-3.1c-0.1-0.2-0.1-0.4,0-0.5c0.1-0.1,0.4-0.1,0.5,0
				c2.4,2.6,5.1,3.5,6.9,2.4c0.2-0.1,0.4,0,0.5,0.1c0.1,0.2,0,0.4-0.1,0.5C19.5,56.9,18.7,57.1,18,57.1"/>
			<path id="パス_150" class="st0" d="M55.1,7.4c-0.2,0-0.3-0.1-0.4-0.3c-0.7-2.3-2.4-4.1-4.7-4.8c-3.2-1-7.5-0.1-9.2,1.9
				c-0.1,0.2-0.4,0.2-0.5,0.1c-0.2-0.1-0.2-0.4-0.1-0.5c2.1-2.6,6.9-3.2,10-2.2c2.5,0.8,4.4,2.8,5.2,5.4c0.1,0.2-0.1,0.4-0.3,0.5
				c0,0,0,0,0,0C55.2,7.4,55.1,7.4,55.1,7.4"/>
			<path id="パス_151" class="st0" d="M62.5,18.3C62.5,18.3,62.5,18.3,62.5,18.3c-0.3,0-0.4-0.2-0.4-0.4c0,0,0,0,0,0
				c0.2-1.6-0.8-4.2-1.8-5.7c-2-2.3-5-3.4-8-2.9c-0.2,0-0.4-0.1-0.5-0.3s0.1-0.4,0.3-0.5c0,0,0,0,0,0c3.3-0.6,6.6,0.6,8.8,3.2
				c1.2,1.6,2.2,4.4,2,6.2C62.9,18.2,62.7,18.3,62.5,18.3"/>
			<path id="パス_152" class="st0" d="M69.7,27.1c-0.2,0-0.3-0.1-0.4-0.3c-0.7-2.5-2.1-3.8-5-4.8c-3-1-5.2-3.2-5.4-5.5
				c0-0.2,0.1-0.4,0.3-0.4c0.2,0,0.4,0.1,0.4,0.3c0.2,2,2.1,3.9,4.9,4.9c3.2,1.1,4.8,2.6,5.5,5.3c0.1,0.2-0.1,0.4-0.3,0.5
				C69.7,27,69.7,27.1,69.7,27.1"/>
			<path id="パス_153" class="st0" d="M75.5,45c0,0-0.1,0-0.1,0c-0.2-0.1-0.3-0.3-0.2-0.5c0,0,0,0,0,0c0.7-2.1-0.6-6.1-2-9.2
				c-1.4-3-3.5-5.8-6-8c-0.2-0.1-0.2-0.4,0-0.5c0.1-0.2,0.4-0.2,0.5,0c0,0,0,0,0,0c2.6,2.3,4.7,5.1,6.1,8.3c0.7,1.5,3,6.8,2,9.8
				C75.8,44.9,75.7,45,75.5,45"/>
			<path id="パス_154" class="st0" d="M71.2,58.8c-0.4,0-0.9-0.1-1.3-0.2c-0.2-0.1-0.3-0.3-0.3-0.5c0.1-0.2,0.3-0.3,0.5-0.3
				c0,0,0,0,0.1,0c2.1,0.8,4.2-1.1,5-2.6c0.9-2,1.1-4.3,0.3-6.4c-0.4-1.4-1-2.7-1.6-4c-0.6-1.3-1.2-2.7-1.7-4
				c-0.1-0.2,0-0.4,0.2-0.5s0.4,0,0.5,0.2c0.5,1.3,1,2.7,1.6,3.9c0.6,1.3,1.2,2.7,1.6,4.1c0.8,2.3,0.7,4.8-0.4,7
				C75.1,57.1,73.2,58.8,71.2,58.8"/>
			<path id="パス_155" class="st0" d="M62.6,59.2c-1.2,0-2.4-0.2-3.4-0.7c-0.2-0.1-0.3-0.3-0.2-0.5c0,0,0,0,0,0
				c0.1-0.2,0.3-0.3,0.5-0.2c1.6,0.6,3.4,0.8,5.1,0.5c2.3-0.4,4.5-2.5,5.6-5.7c0.1-0.2,0.3-0.3,0.5-0.2c0.2,0.1,0.2,0.3,0.2,0.4
				c-1.3,3.5-3.6,5.8-6.2,6.2C63.9,59.1,63.2,59.2,62.6,59.2"/>
			<path id="パス_156" class="st0" d="M56.4,56.6c-0.2,0-0.4,0-0.5-0.1c-0.1,0-0.2-0.2-0.2-0.3s0.2-0.2,0.3-0.2
				c0.5,0.1,1.1,0,1.6-0.3c1.6-1,3.3-4.1,3.9-7.4c0-0.1,0.1-0.2,0.3-0.2c0,0,0,0,0,0c0.1,0,0.2,0.2,0.2,0.3
				c-0.6,3.4-2.3,6.6-4.1,7.7C57.4,56.4,56.9,56.6,56.4,56.6"/>
			<path id="パス_157" class="st0" d="M15.1,49c-0.1,0-0.2-0.1-0.2-0.2c-0.3-1.8,0.8-4.5,2.8-6.3c1.7-1.7,4.8-2.3,8.4-1.8
				c0.1,0,0.2,0.1,0.2,0.3c0,0.1-0.1,0.2-0.3,0.2c-3.4-0.5-6.3,0.1-8,1.6c-1.8,1.7-2.9,4.2-2.6,5.8C15.4,48.9,15.3,49,15.1,49
				C15.1,49,15.1,49,15.1,49"/>
			<path id="パス_158" class="st0" d="M16.6,53.4c-0.1,0-0.2,0-0.2-0.1c-0.8-1.4-0.2-4.1,1.6-7.1c0.1-0.1,0.2-0.2,0.3-0.1
				c0.1,0.1,0.2,0.2,0.1,0.3l0,0c-1.7,2.8-2.3,5.3-1.6,6.5c0.1,0.1,0,0.3-0.1,0.3C16.7,53.4,16.6,53.4,16.6,53.4"/>
			<path id="パス_159" class="st0" d="M25.3,59.4c-1.7-0.1-3.3-0.8-4.5-1.9c-2.3-1.9-2.7-4.6-1.1-7.5c0.1-0.1,0.2-0.2,0.3-0.1
				s0.2,0.2,0.1,0.3l0,0c-1.5,2.7-1.2,5.1,1,6.9c1.7,1.4,3.4,2,4.8,1.8c0.1,0,0.3,0.1,0.3,0.2c0,0.1-0.1,0.3-0.2,0.3c0,0,0,0,0,0
				C25.8,59.4,25.5,59.4,25.3,59.4"/>
			<path id="パス_160" class="st0" d="M36.1,61.2c-3.3,0-7.6-0.9-10.3-3.5c-0.1-0.1-0.1-0.4,0-0.5c0.1-0.1,0.4-0.1,0.5,0
				c2.7,2.7,7.3,3.4,10.5,3.3c0.2,0,0.4,0.2,0.4,0.4c0,0.2-0.2,0.4-0.4,0.4C36.6,61.2,36.4,61.2,36.1,61.2"/>
			<path id="パス_161" class="st0" d="M41.5,60.6c-1.4,0.1-2.9-0.2-4.2-0.6c-0.2-0.1-0.3-0.3-0.2-0.5c0.1-0.2,0.3-0.3,0.5-0.2
				c0,0,0,0,0,0c2.8,1.2,9.9,0.4,11.3-1.2c0.1-0.2,0.4-0.2,0.5,0c0.1,0.1,0.2,0.4,0,0.5C48.3,59.8,44.7,60.6,41.5,60.6"/>
			<path id="パス_162" class="st0" d="M52.3,59c-0.1,0-0.2-0.1-0.2-0.3c0-0.1,0.1-0.2,0.2-0.2c2.2-0.7,2.3-3.6,2.1-5.2
				c-0.2-1.5-1.3-3.9-5.7-4c-0.1,0-0.2-0.1-0.2-0.3c0-0.1,0.1-0.2,0.3-0.2c5,0.1,6,3.2,6.2,4.5C55.2,55.6,54.5,58.3,52.3,59
				C52.4,59,52.3,59,52.3,59"/>
			<path id="パス_163" class="st0" d="M53.3,47.2L53.3,47.2c-0.2,0-0.3-0.1-0.2-0.3c0.1-1.4-0.5-2.7-1.7-3.5
				c-0.8-0.6-3.7-2.6-8.9-1.6c-0.1,0-0.3-0.1-0.3-0.2c0,0,0,0,0,0c0-0.1,0.1-0.3,0.2-0.3c5.4-1,8.5,1.1,9.3,1.7c1.3,0.9,2,2.4,1.9,4
				C53.5,47.1,53.4,47.2,53.3,47.2"/>
			<path id="パス_164" class="st0" d="M29.7,40.5c-0.1,0-0.1,0-0.1,0c-0.1-0.1-0.1-0.2-0.1-0.3c0,0,0,0,0,0
				c0.9-1.3,2.2-2.2,3.7-2.6c0.4-0.1,0.8,0.1,1.1,0.3c0.1,0.1,0.1,0.3,0,0.4c-0.1,0.1-0.2,0.1-0.3,0c-0.2-0.2-0.5-0.2-0.7-0.2
				c-1.4,0.3-2.6,1.2-3.4,2.4C29.8,40.5,29.8,40.5,29.7,40.5"/>
			<path id="パス_165" class="st0" d="M34.7,39.7c-0.1,0-0.2-0.1-0.2-0.3c0-0.1,0-0.2,0.1-0.2c2.6-2,5-2.2,6.3-0.7
				c0.1,0.1,0.1,0.3,0,0.4c-0.1,0.1-0.3,0.1-0.4,0c-1.1-1.3-3.2-1-5.6,0.8C34.8,39.7,34.8,39.7,34.7,39.7"/>
			<path id="パス_166" class="st0" d="M56.1,44.5c-0.1,0-0.1,0-0.2,0c-1.8-1-3-2.7-3.4-4.7c-0.4-2.5,0.5-4.4,1.5-6.5
				c0.2-0.4,0.4-0.8,0.6-1.2c1.1-2.4,1.1-3.2,0.8-7.2c0-0.2,0.1-0.4,0.3-0.4s0.4,0.1,0.4,0.3c0,0,0,0,0,0c0.3,4,0.4,4.9-0.8,7.6
				c-0.2,0.4-0.4,0.8-0.6,1.2c-1,2.1-1.8,3.9-1.4,6.1c0.3,1.8,1.4,3.3,3,4.1c0.2,0.1,0.3,0.3,0.2,0.5C56.4,44.4,56.3,44.5,56.1,44.5
				"/>
			<path id="パス_167" class="st0" d="M55.9,50.8c-0.2,0-0.3-0.1-0.4-0.3c-0.8-3.5,1.3-6.5,2.3-7.7c0.1-0.2,0.4-0.2,0.5,0
				c0.2,0.1,0.2,0.4,0,0.5l0,0c-0.9,1.1-2.9,3.9-2.1,7C56.3,50.5,56.2,50.7,55.9,50.8C56,50.8,56,50.8,55.9,50.8
				C56,50.8,55.9,50.8,55.9,50.8"/>
			<path id="パス_168" class="st0" d="M15.5,44c0,0-0.1,0-0.1,0c-0.2-0.1-0.3-0.3-0.2-0.5c0,0,0,0,0,0c0.7-1.6,0.2-3.1-0.3-5.1
				l-0.2-0.7c-0.1-0.2,0.1-0.4,0.3-0.5c0.2-0.1,0.4,0.1,0.5,0.3c0,0,0,0,0,0l0.2,0.7c0.6,2.1,1.1,3.7,0.3,5.6
				C15.8,43.9,15.7,44,15.5,44"/>
			<path id="パス_169" class="st0" d="M27,35.3c-1.1,0-2.4,1-2.2,2.1s1,2.3,1.9,2.3s2.2-0.5,2.2-1.6S27.9,35.3,27,35.3"/>
			<path id="パス_170" class="st0" d="M46.8,35.7c-0.8-0.3-2.4,1.2-2.1,2.4c0.1,1,1,1.8,2,1.8c1,0.1,1.8-0.6,1.9-1.6
				C48.5,37.2,47.8,36.2,46.8,35.7"/>
			<path id="パス_171" class="st0" d="M34.3,45.9c2.1-0.1,4,1.1,4,2.7s-1.8,3.8-3.6,3.8s-3.9-1.2-3.9-3S31.4,46,34.3,45.9"/>
			<path id="パス_172" class="st0" d="M27,21.8c-0.1,0-0.2-0.1-0.2-0.2c0-1.9,2.3-4.1,4.6-5.2c0.1-0.1,0.3,0,0.3,0.1
				c0.1,0.1,0,0.3-0.1,0.3c0,0,0,0,0,0c-2.1,1-4.3,3-4.3,4.7C27.3,21.7,27.1,21.8,27,21.8"/>
			<path id="パス_173" class="st0" d="M39.2,27.5C39.2,27.5,39.2,27.5,39.2,27.5c-2.1-0.7-4-3.9-4.2-6.7c0-0.1,0.1-0.3,0.2-0.3
				c0,0,0,0,0,0c0.1,0,0.3,0.1,0.3,0.2c0.2,2.8,2.1,5.6,3.8,6.2c0.1,0,0.2,0.2,0.1,0.3C39.4,27.5,39.3,27.5,39.2,27.5"/>
			<path id="パス_174" class="st0" d="M15,66.9c-0.1,0-0.3-0.1-0.3-0.2c-2-3.9,1-7.1,2.5-8.9l0.2-0.2c0.1-0.1,0.4-0.1,0.5,0
				c0.1,0.1,0.1,0.3,0,0.5l-0.2,0.2c-1.6,1.7-4.2,4.6-2.4,8c0.1,0.2,0,0.4-0.2,0.5C15.1,66.8,15,66.9,15,66.9"/>
			<path id="パス_175" class="st0" d="M15.8,72.5c-0.2,0-0.3-0.1-0.4-0.3c-0.6-2.7-0.3-5.5,0.9-7.9c0.1-0.2,0.3-0.3,0.5-0.2
				c0.2,0.1,0.3,0.3,0.2,0.5c0,0,0,0,0,0c-1.1,2.3-1.4,5-0.8,7.5C16.2,72.3,16.1,72.5,15.8,72.5C15.9,72.5,15.9,72.5,15.8,72.5
				C15.9,72.5,15.9,72.5,15.8,72.5"/>
			<path id="パス_176" class="st0" d="M16.2,85.6c-0.1,0-0.2,0-0.2-0.1c-1.2-0.9-2-2.3-2.2-3.8c-0.3-3.7,1.9-8.2,4.2-10.7
				c0.1-0.2,0.4-0.2,0.5,0c0.2,0.1,0.2,0.4,0,0.5l0,0c-2.1,2.4-4.3,6.6-4,10.1c0.2,1.3,0.9,2.5,1.9,3.3c0.2,0.1,0.2,0.4,0.1,0.5
				C16.4,85.5,16.3,85.6,16.2,85.6"/>
			<path id="パス_177" class="st0" d="M16,91.5c-0.2,0-0.4-0.2-0.4-0.4c-0.2-3.4,1.8-6.1,3.5-7.8c0.1-0.1,0.4-0.1,0.5,0
				c0.1,0.1,0.1,0.4,0,0.5l0,0c-1.6,1.6-3.5,4.2-3.3,7.3C16.4,91.3,16.2,91.5,16,91.5C16,91.5,16,91.5,16,91.5L16,91.5"/>
			<path id="パス_178" class="st0" d="M13.5,105.4c-0.1,0-0.2-0.1-0.3-0.2c-0.7-1.1-0.5-3.6,1.2-5.9c-0.5-2.7,2.4-6.3,3.3-7.4
				c0.1-0.2,0.4-0.2,0.5,0c0.2,0.1,0.2,0.4,0,0.5c-1.8,2.1-3.5,5.1-3.1,6.9c0,0.1,0,0.2-0.1,0.3c-1.7,2.2-1.8,4.4-1.3,5.2
				c0.1,0.2,0.1,0.4-0.1,0.5c0,0,0,0,0,0C13.6,105.4,13.5,105.4,13.5,105.4"/>
			<path id="パス_179" class="st0" d="M22.4,116.1c-1.8,0-3.5-0.3-5.1-1.1c-2.4-0.5-4.2-2.5-4.4-5c-0.1-2.1,0.9-4.1,2.7-5.1
				c0.2-0.1,0.4-0.1,0.5,0.1c0.1,0.2,0.1,0.4-0.1,0.5c-1.6,0.9-2.5,2.6-2.4,4.5c0.2,2.1,1.8,3.8,3.8,4.3c0,0,0.1,0,0.1,0
				c2.7,1.3,5.8,1.4,8.6,0.3c0.1,0,0.1,0,0.2,0c3.3,0.1,6.5-1.2,8.8-3.6c1.5-1.4,2.4-2.7,2.4-4.8c0-0.2,0.2-0.4,0.4-0.4
				s0.4,0.2,0.4,0.4c0,2.1-1,4-2.6,5.3c-2.4,2.5-5.8,3.9-9.3,3.8C25.1,115.9,23.8,116.2,22.4,116.1"/>
			<path id="パス_180" class="st0" d="M38.9,105c-0.2,0-0.4-0.2-0.4-0.4c0-0.1,0-0.1,0.1-0.2c0.9-1.6,0.6-4.1,0-5.4
				c-0.1-0.2,0-0.4,0.2-0.5c0.2-0.1,0.4,0,0.5,0.2c0.8,1.7,1,4.4,0,6.1C39.2,104.9,39,105,38.9,105"/>
			<path id="パス_181" class="st0" d="M39.9,97.4c-0.2,0-0.4-0.2-0.4-0.4c0,0,0-0.1,0-0.1c0.3-2,0-4.1-0.8-6
				c-0.1-0.2-0.1-0.4,0.1-0.5c0.2-0.1,0.4-0.1,0.5,0.1c0.9,1.4,1.2,4.8,0.9,6.5C40.2,97.2,40.1,97.4,39.9,97.4"/>
			<path id="パス_182" class="st0" d="M37.8,85.9c-0.1,0-0.1,0-0.2-0.1c-0.1-0.1-0.1-0.2,0-0.3c0,0,0,0,0,0c1.6-2.2,2.1-5,1.3-7.6
				c0-0.1,0-0.3,0.2-0.3s0.3,0,0.3,0.2l0,0c0.8,2.8,0.3,5.8-1.4,8.1C37.9,85.9,37.9,85.9,37.8,85.9"/>
			<path id="パス_183" class="st0" d="M36.4,92.1c-0.1,0-0.2,0-0.2-0.1c-1.3-1-1.6-3.4-1-7.1c0-0.2,0.2-0.3,0.4-0.3
				c0.2,0,0.3,0.2,0.3,0.4c-0.8,4.2,0,5.8,0.7,6.4c0.2,0.1,0.2,0.4,0.1,0.5C36.6,92,36.5,92.1,36.4,92.1"/>
			<path id="パス_184" class="st0" d="M47.5,89.1C47.5,89.1,47.4,89.1,47.5,89.1c-2.5-1.1-4.4-3.1-5.4-5.6c0-0.1,0-0.3,0.1-0.3
				c0.1,0,0.3,0,0.3,0.1c0.9,2.4,2.7,4.3,5,5.3c0.1,0.1,0.2,0.2,0.1,0.3C47.7,89.1,47.6,89.1,47.5,89.1"/>
			<path id="パス_185" class="st0" d="M44.3,106.8c-0.1,0-0.2,0-0.3-0.1c-1.8-2-2.5-6.4-2.9-9.5c0-0.2,0.1-0.4,0.3-0.4
				c0.2,0,0.4,0.1,0.4,0.3c0.4,3,1,7.2,2.7,9.1c0.1,0.2,0.1,0.4,0,0.5c0,0,0,0,0,0C44.5,106.8,44.4,106.8,44.3,106.8"/>
			<path id="パス_186" class="st0" d="M49.8,114.9C49.8,114.9,49.7,114.9,49.8,114.9c-3.5-0.9-5-5.9-4.7-9c0-0.2,0.2-0.4,0.4-0.3
				c0.2,0,0.4,0.2,0.3,0.4c0,0,0,0,0,0c-0.3,3.3,1.3,7.5,4.1,8.2c0.2,0.1,0.3,0.3,0.3,0.5C50.1,114.7,50,114.9,49.8,114.9"/>
			<path id="パス_187" class="st0" d="M57.3,116.2c-2.7,0-5.9-0.5-7.3-2c-0.1-0.2-0.1-0.4,0-0.5c0.1-0.1,0.4-0.1,0.5,0
				c1.8,1.9,8,2.1,10.5,1.3c0.2-0.1,0.4,0,0.5,0.2s0,0.4-0.2,0.5c0,0,0,0,0,0C59.9,116,58.6,116.2,57.3,116.2"/>
			<path id="パス_188" class="st0" d="M62.9,115.3c-0.2,0-0.4-0.2-0.4-0.4c0-0.2,0.1-0.3,0.3-0.4c2-0.6,4.4-2,4.3-3.8
				c0-0.1,0.1-0.3,0.2-0.3c0.6-0.6,1-1.3,1.1-2.2c0.3-1.4-0.1-2.9-0.9-4.1c-0.1-0.2-0.1-0.4,0.1-0.5c0.2-0.1,0.4-0.1,0.5,0.1
				c0,0,0,0,0,0c1,1.3,1.4,3,1.1,4.7c-0.1,1-0.6,1.9-1.3,2.6c-0.1,2.1-2.5,3.6-4.8,4.3C63,115.3,62.9,115.3,62.9,115.3"/>
			<path id="パス_189" class="st0" d="M66.7,103.4C66.7,103.4,66.7,103.4,66.7,103.4c-0.3-0.1-0.4-0.3-0.4-0.5c0,0,0,0,0,0
				c0.5-1.9-0.4-7.2-1.9-9.9c-0.1-0.2,0-0.4,0.1-0.5c0.2-0.1,0.4,0,0.5,0.1c0,0,0,0,0,0c1.6,2.9,2.5,8.4,2,10.5
				C67.1,103.2,66.9,103.4,66.7,103.4"/>
			<path id="パス_190" class="st0" d="M66.3,93.7c-0.2,0-0.4-0.2-0.4-0.4c0,0,0-0.1,0-0.1c0.6-2.7-0.3-10.2-2.8-14.4
				c-0.1-0.2-0.1-0.4,0.1-0.5c0.2-0.1,0.4-0.1,0.5,0.1c0,0,0,0,0,0c2.6,4.5,3.6,12.1,2.9,15C66.6,93.6,66.4,93.7,66.3,93.7"/>
			<path id="パス_191" class="st0" d="M65.6,79.9c0,0-0.1,0-0.1,0c-0.2-0.1-0.3-0.3-0.2-0.5c0.6-1.6,0.3-6.1-2.3-10.5
				c-0.1-0.2,0-0.4,0.2-0.5c0.2-0.1,0.4,0,0.5,0.1c2.5,4.2,3.1,9,2.4,11.1C65.9,79.8,65.8,79.9,65.6,79.9"/>
			<path id="パス_192" class="st0" d="M65.8,72.5C65.8,72.5,65.7,72.5,65.8,72.5c-0.3-0.1-0.4-0.3-0.4-0.5c0,0,0,0,0,0
				c0.8-2.9,0.4-8.9-1.3-11.9c-0.1-0.2,0-0.4,0.1-0.5c0.2-0.1,0.4,0,0.5,0.1c1.9,3.2,2.3,9.4,1.4,12.5C66.1,72.4,66,72.5,65.8,72.5"
				/>
			<path id="パス_193" class="st0" d="M73,80.5c-0.2,0-0.4-0.2-0.4-0.4c0-3.5-3.1-10.9-5.7-13.6c-0.1-0.1-0.1-0.4,0-0.5
				c0.1-0.1,0.4-0.1,0.5,0c2.7,2.8,5.9,10.5,5.9,14.1C73.3,80.3,73.2,80.5,73,80.5C73,80.5,73,80.5,73,80.5L73,80.5z"/>
			<path id="パス_194" class="st0" d="M75.3,93c-0.2,0-0.4-0.2-0.4-0.4c0-0.1,0-0.1,0.1-0.2c1.7-2.6-1.9-10.1-3.9-12.7
				c-0.1-0.2-0.1-0.4,0.1-0.5c0.2-0.1,0.4-0.1,0.5,0.1c1.7,2.2,6.1,10.4,4,13.6C75.5,93,75.4,93,75.3,93"/>
			<path id="パス_195" class="st0" d="M67.8,101.2c-0.2,0-0.4-0.2-0.4-0.4c0-0.2,0.1-0.3,0.3-0.4c1.7-0.2,3.3-0.9,4.6-2
				c1.6-1.8,2.1-4.4,1.2-6.7c-0.1-0.2,0-0.4,0.2-0.5c0.2-0.1,0.4,0,0.5,0.2c1,2.5,0.5,5.4-1.3,7.5C71.5,100.2,69.7,101,67.8,101.2
				C67.8,101.2,67.8,101.2,67.8,101.2"/>
			<path id="パス_196" class="st0" d="M52.8,71.5L52.8,71.5c-0.2,0-0.3-0.1-0.2-0.3c0,0,0,0,0,0c0.4-2.5-2.2-5.2-3.4-6.2
				c-0.1-0.1-0.1-0.3,0-0.4c0.1-0.1,0.3-0.1,0.4,0c1.2,1.1,4,4,3.5,6.7C53,71.4,52.9,71.5,52.8,71.5"/>
			<path id="パス_197" class="st0" d="M24,72.5c-0.1,0-0.2-0.1-0.2-0.2c0.3-2.5,1.7-4.7,3.8-6c0.1-0.1,0.3,0,0.3,0.1
				c0.1,0.1,0,0.3-0.1,0.3c-1.9,1.2-3.2,3.3-3.5,5.6C24.3,72.4,24.2,72.5,24,72.5"/>
			<path id="パス_198" class="st0" d="M38,54.6c-0.4,0-0.7,0-1.1-0.1c-0.9-0.1-1.7-0.6-2.2-1.3c-0.6,0.7-1.4,1.2-2.3,1.3
				c-1.4,0.3-2.9-0.2-3.9-1.2c-0.1-0.2-0.1-0.4,0.1-0.5c0.2-0.1,0.4-0.1,0.5,0.1l0,0c0.9,0.8,2,1.2,3.2,0.9c0.9-0.1,1.7-0.7,2.1-1.5
				c0.1-0.1,0.2-0.2,0.4-0.2l0,0c0.2,0,0.3,0.1,0.4,0.2c0.3,0.8,1.1,1.4,2,1.5c1.5,0.3,3-0.1,4.2-1.1c0.1-0.2,0.4-0.2,0.5,0
				c0.2,0.1,0.2,0.4,0,0.5C40.8,54.1,39.4,54.6,38,54.6"/>
			<path id="パス_199" class="st0" d="M47.6,37.7c0,0.3-0.3,0.5-0.6,0.5c-0.3,0-0.5-0.3-0.5-0.6c0-0.3,0.2-0.5,0.5-0.5
				C47.4,37.1,47.6,37.4,47.6,37.7"/>
			<path id="パス_200" class="st0" d="M27.8,37.1c0,0.3-0.3,0.5-0.6,0.5c-0.3,0-0.5-0.3-0.5-0.6c0-0.3,0.2-0.5,0.5-0.5
				C27.6,36.6,27.8,36.8,27.8,37.1"/>
		</g>
	</g>
	<g>
		<g id="グループ_281" transform="translate(5278.535 4368.481)">
			<path id="パス_52" class="st0" d="M0.7,114.7c0.9,3.6,2.4,4.8,5.6,5.7c2.3,0.5,4.7,0.6,7.1,0.5c6.4,0,14.3,0.6,18.3,0.8
				c4.2,0.2,10.6,0.8,10.6-2.1c3.7,0.9,7.5,1.4,11.3,1.4c0.6,0,1.3,0,1.7,0c0.8,0.5,1.8,0.9,2.8,0.9c2.4,0.3,11.4,0.6,14.5,0
				c2.3-0.5,3.3-3.2,2.7-5.4c0.4,0.4,0.8,0.7,1.2,0.9c0.1,0.3,0.2,0.7,0.3,1c0.9,1.8,2,2.5,5.1,2.8c3,0.3,6,0.5,9,0.4
				c3.5-0.1,5.9-0.1,6.9-2s-0.1-4.5-3-5.7c-2.6-1-2.5-2.6-2.2-4c0.1-0.6,0.3-1.3,0.4-1.8c0.2-0.9,0.3-1.8,0.4-2.4
				c0.4-0.6,0.8-1.3,1.2-2c1.2-2.2,2.1-4.5,2.6-6.9c0.7-0.5,1.4-1,2.1-1.6c1.3-1.2,2.3-2.7,2.9-4.3c0.1-0.4,0.2-0.6,0.3-0.9
				c0.4-1.3,0.7-2.7,0.7-4c0.3,0,0.5-0.1,0.8-0.2c1.5-0.6,2.4-2.2,2.8-4.3c0.6-3.5-0.6-8.7-1.6-12.8c-0.8-3.5-1.4-7-1.8-10.6
				c-0.1-0.5-0.1-1-0.1-1.4l0,0c1.5,0.7,2.7,1.1,3.6-0.1c1-1.5-1.5-5.8-2.9-7.8c0.9,0.6,1.8,1.2,2.8,1.8c1.6,0.8,3.1,0,2.8-1.5
				c-0.9-2.5-2-4.8-3.5-7c0.8-0.1,1.6-0.2,2.3-0.5c1.3-0.6,0.6-2.6-2.3-4.2c-1.4-1-2.7-2.2-3.7-3.5c0.3-0.4,0.8-1,1.2-1.6
				c1.9-3.1,3.2-6.5,4.1-10.1c1.1-5.8,0.9-11.8-0.7-17.5c-1.4-4.8-3.9-5.2-7.6-3.6C95.1,3.1,83,11.9,78.8,16.8
				c-0.3,0.3-0.4,0.5-0.6,0.7c-6.4-1.5-15.8-0.6-20.6,2.7c-0.7-0.3-1.6-0.6-3-1.1c-5.3-1.9-10.8-3.3-16.4-4.2
				c-3.9-0.5-9.2-0.5-10.4,1.6s-0.8,4.9,0,8.1s6.3,14.1,13,16.9c0.4,0.2,0.7,0.3,0.9,0.4c-0.5,0.9-0.8,1.9-1.1,2.8
				c-0.5,2.1,0.8,2.9,2.3,2.1c0.7-0.4,1.6-0.8,2.1-1.1c-1.8,2.8-3.4,7.5-3.2,9.2c0.2,1.8,1.6,2.4,3.2,1.3c0.9-0.6,1.9-1.3,2.5-1.6
				c-1.4,2.5-2.4,5.2-2.9,8c-5.2,3.5-6.4,4.1-9.2,5.3c-2.8,1.3-11,2.3-16,4.4c-6.7,2.8-11.1,5.9-14.6,11.3c-4,6-3.4,16.7-3.7,21.5
				c-0.3,3.8-0.9,6.2-0.7,8.2C0.5,113.7,0.6,114.3,0.7,114.7"/>
			<path id="パス_53" class="st0" d="M102.5,90.1c0.4-1.3,0.7-2.7,0.7-4c0.3,0,0.5-0.1,0.8-0.2c1.5-0.6,2.4-2.2,2.8-4.4
				c0.6-3.5-0.6-8.7-1.6-12.8c-0.8-3.5-1.4-7-1.8-10.6c-0.1-0.5-0.1-1-0.1-1.4l0,0c1.5,0.7,2.7,1.1,3.6-0.1c1-1.5-1.5-5.8-2.9-7.8
				c0.9,0.6,1.8,1.2,2.8,1.8c1.6,0.8,3.1,0,2.8-1.5c-0.9-2.5-2-4.8-3.5-7c0.8-0.1,1.6-0.2,2.3-0.5c1.3-0.6,0.6-2.6-2.3-4.2
				c-1.4-1-2.7-2.2-3.7-3.5c0.3-0.4,0.8-1,1.2-1.6c1.9-3.1,3.2-6.5,4.1-10.1c1.1-5.8,0.9-11.8-0.7-17.5c-1.4-4.8-3.9-5.2-7.6-3.6
				C95.1,3.1,83,11.9,78.8,16.8c-0.3,0.3-0.4,0.5-0.6,0.7c-6.4-1.5-15.8-0.6-20.6,2.7c-0.7-0.3-1.6-0.6-3-1.1
				c-5.3-1.9-10.8-3.3-16.4-4.2c-3.9-0.5-9.2-0.5-10.4,1.6s-0.8,4.9,0,8.1s6.3,14.1,13,16.9c0.4,0.2,0.7,0.3,0.9,0.4
				c-0.5,0.9-0.8,1.9-1.1,2.8c-0.5,2.1,0.8,2.9,2.3,2.1c0.7-0.4,1.6-0.8,2.1-1.1c-1.8,2.8-3.4,7.5-3.2,9.2c0.2,1.8,1.6,2.4,3.2,1.3
				c0.9-0.6,1.9-1.3,2.5-1.6c-1.4,2.5-2.4,5.2-3,8c-5.2,3.5-6.4,4.1-9.1,5.3c-2.8,1.3-11,2.3-16,4.4c-6.7,2.8-11.1,5.9-14.6,11.3
				c-3.9,6-3.7,16.7-4,21.5c-0.3,2.7-0.4,5.5-0.4,8.2c3.5-5.6,21.8-4.5,22.9-3.7c-0.7-0.9,0.3-1.6,1.5-2.4
				c4.6,1.5,15.7,0.6,17.9-5.4c1.8-4.9,9.8-8.1,17.1-6.8c2.4,0.5,5,0,2.7-5.7c-3-7.1-4.6-14.8-4.7-22.5c0-2.1-0.8-3.7-0.3-5.4
				c0.5-1.4,0.6-2.9,0.3-4.3c-0.3-1.6-0.4-2.8,1.4-5.1c1.6-2,4.4-3.9,5.8-5.5c1.5-1.6,2.3-3.7,2.3-5.8c-0.1-2.6-0.6-5.2-1.3-7.8
				c-1-2.8-2.1-5.6-3.4-8.3c-0.3-0.7,0.2-1.6,0.7-2c1.7-1.5,3.9-2.2,6.1-1.9c2.1,0.2,5.4,1.1,4.8,2.9c-1.1,3.6-1.8,7.3-1.9,11.1
				c0,3.1,2.3,9.4,3.9,10.4s6.1,2.8,8.1,4.7c1.2,1,1.8,2.5,1.9,4c0.2,1.9,2,3.7,4.6,4.9c2.6,1.3,3.2,1.2,4.5,3.6
				c1.9,3.4-0.7,7.2,1,12.3c1,3,2.2,4.3,3.3,6.4C100.6,83.2,101.5,87.7,102.5,90.1"/>
			<path id="パス_54" class="st0" d="M40.4,38.5c-2.2-0.7-5.1-4.2-6.6-6.3c-1.8-2.7-3.3-5.7-4.2-8.9c-0.6-2.5-0.3-3.5,0.3-3.9
				c1-0.6,5.1,1,7.9,2.4c3.1,1.6,6.9,4.9,8.3,7.1c0.6,1,0.9,2.4-0.1,2.7c-1.1,0.2-2,0.9-2.5,1.8c-0.2,0.8-0.4,1.6-0.4,2.4
				c-0.1,0.8-0.5,1.6-0.9,2.2C41.8,38.6,41.1,38.7,40.4,38.5"/>
			<path id="パス_55" class="st0" d="M93.5,21.5c0.7-3.2,2.2-6.2,4.4-8.6c1.6-1.8,3.9-4.2,5.3-5s2.7-0.5,3,1.9
				c0.4,4.1,0.2,8.2-0.5,12.2c-0.6,2.4-1.5,4.7-2.7,6.9c-0.4,0.9-1.5,1.3-2.4,1c-0.6-0.3-1.1-0.8-1.5-1.4c-0.4-0.9-0.4-1.9-0.2-2.9
				c0.2-0.8-0.2-1.6-1-1.9c-0.8-0.3-1.7-0.5-2.5-0.5C93.7,23.2,93.3,22.6,93.5,21.5"/>
			<path id="パス_56" class="st0" d="M77.7,51.9c-2.7,6-10.6,5.3-12.7,1c2.3,0.3,4.8,0,5.8-1.3C72.6,53.1,75.5,52.9,77.7,51.9"/>
			<path id="パス_57" class="st0" d="M57.6,20.6c-0.2,0-0.4-0.2-0.4-0.4c0-0.1,0.1-0.2,0.2-0.3c5.1-3.6,14.7-4.2,20.9-2.8
				c0.2,0,0.3,0.2,0.3,0.4s-0.2,0.3-0.4,0.3c0,0,0,0,0,0c-5.9-1.4-15.4-0.8-20.3,2.7C57.8,20.5,57.7,20.6,57.6,20.6"/>
			<path id="パス_58" class="st0" d="M40,41.4c-0.1,0-0.1,0-0.2,0c-6.5-3.4-11.6-13.8-12.3-16.7c-0.7-2.9-1.2-6,0-8.4
				c1.5-2.8,8.6-2.1,10.7-1.8c5.6,0.9,11.1,2.3,16.5,4.2c0.2,0.1,0.3,0.3,0.2,0.5c-0.1,0.2-0.3,0.3-0.4,0.2
				c-5.3-1.9-10.7-3.3-16.3-4.2c-4.3-0.5-9.1-0.3-10,1.4c-1.2,2.1-0.7,5,0,7.8c0.7,2.8,5.6,12.9,11.9,16.2c0.2,0.1,0.3,0.3,0.2,0.5
				C40.3,41.3,40.1,41.4,40,41.4"/>
			<path id="パス_59" class="st0" d="M41.9,47.5c-0.4,0-0.7-0.1-1-0.3c-0.7-0.7-0.9-1.7-0.6-2.6c0.3-1,0.6-2,1.1-2.9
				c0.9-1.8,1.9-3.5,3-5.1c0.1-0.2,0.4-0.2,0.5-0.1c0.2,0.1,0.2,0.4,0.1,0.5c-1.1,1.6-2.1,3.2-2.9,5c-0.4,0.9-0.8,1.8-1.1,2.8
				c-0.2,0.8-0.1,1.5,0.3,1.8c0.5,0.2,1,0.2,1.4-0.1c0.2-0.1,0.4-0.1,0.5,0.1s0.1,0.4-0.1,0.5c0,0,0,0,0,0
				C42.8,47.3,42.4,47.4,41.9,47.5"/>
			<path id="パス_60" class="st0" d="M43.5,57.1c-0.3,0-0.6-0.1-0.8-0.2c-0.7-0.4-1.2-1.2-1.2-2c-0.2-1.8,1.5-6.6,3.3-9.4
				c0.1-0.2,0.3-0.2,0.5-0.1c0.2,0.1,0.2,0.3,0.1,0.5c0,0,0,0,0,0c-1.8,2.8-3.3,7.4-3.2,9c0,0.6,0.3,1.1,0.8,1.4
				c0.6,0.2,1.3,0.1,1.9-0.4c0.2-0.1,0.4-0.1,0.5,0.1c0.1,0.2,0.1,0.4-0.1,0.5l0,0C44.8,56.9,44.2,57.1,43.5,57.1"/>
			<path id="パス_61" class="st0" d="M44.2,65C44.2,65,44.2,65,44.2,65c-0.3,0-0.4-0.2-0.4-0.4L44,64c0.5-3.4,1.6-6.7,3.3-9.6
				c0.4-0.6,0.7-1.2,0.9-1.8c0.1-0.2,0.3-0.3,0.5-0.2c0.2,0.1,0.3,0.3,0.2,0.5l0,0c-0.3,0.7-0.6,1.3-1,1.9c-1.6,2.9-2.7,6.1-3.2,9.4
				l-0.1,0.6C44.6,64.9,44.4,65,44.2,65"/>
			<path id="パス_62" class="st0" d="M105.4,57.8c-0.4,0-0.8-0.1-1.1-0.2c-0.2-0.1-0.3-0.3-0.3-0.5c0.1-0.2,0.3-0.3,0.5-0.3
				c1,0.3,1.6,0.2,2-0.5c0.7-1.1-1.2-5.1-2.9-7.3c-0.1-0.2-0.1-0.4,0.1-0.5c0.2-0.1,0.4-0.1,0.5,0.1l0,0c0.9,1.2,4.2,6.3,2.9,8.2
				C106.8,57.5,106.2,57.8,105.4,57.8"/>
			<path id="パス_63" class="st0" d="M107.9,51.4c-0.5,0-1-0.1-1.4-0.4c-0.2-0.1-0.3-0.3-0.2-0.5c0.1-0.2,0.3-0.3,0.5-0.2
				c0.6,0.4,1.3,0.4,1.9,0c0.3-0.3,0.4-0.7,0.3-1.1c-0.3-1.2-1.5-3.6-3.4-6.8c-0.1-0.2-0.1-0.4,0.1-0.5s0.4-0.1,0.5,0.1
				c2,3.4,3.2,5.7,3.5,7.1c0.2,0.7,0,1.4-0.6,1.8C108.8,51.2,108.4,51.4,107.9,51.4"/>
			<path id="パス_64" class="st0" d="M108.3,42.1c-0.2,0-0.4-0.2-0.4-0.4c0-0.1,0.1-0.3,0.2-0.3c0.3-0.1,0.4-0.4,0.4-0.6
				c0-0.6-0.7-1.8-2.7-2.9c-1.5-1-2.7-2.2-3.8-3.6l-0.7-0.9c-0.7-1-1.5-1.9-2.3-2.8c-0.2-0.1-0.2-0.4-0.1-0.5
				c0.1-0.2,0.4-0.2,0.5-0.1c0,0,0,0,0.1,0.1c0.9,0.9,1.7,1.8,2.4,2.9l0.7,0.9c1,1.3,2.2,2.5,3.6,3.4c2,1.1,3.1,2.4,3.1,3.6
				c0,0.6-0.3,1.1-0.8,1.3C108.4,42.1,108.4,42.1,108.3,42.1"/>
			<path id="パス_65" class="st0" d="M103.6,32.7c-0.1,0-0.1,0-0.2-0.1c-0.2-0.1-0.2-0.3-0.1-0.5c0,0,0,0,0,0
				c1.8-3.1,3.2-6.4,4-9.9c1.1-5.7,0.9-11.7-0.6-17.3c-0.6-2.1-1.4-3.3-2.5-3.9s-2.5-0.4-4.5,0.5c-4,1.7-14.9,9.6-19.7,14.6
				c-0.1,0.1-0.4,0.2-0.5,0c-0.1-0.1-0.2-0.4,0-0.5l0,0c4.9-5.1,15.9-13,19.9-14.8c2.2-1,3.8-1.1,5.2-0.5s2.3,2,2.9,4.3
				c1.6,5.8,1.8,11.8,0.7,17.7c-0.8,3.6-2.2,7-4.1,10.2C103.8,32.7,103.7,32.7,103.6,32.7"/>
			<path id="パス_66" class="st0" d="M41,38.8c-0.1,0-0.2-0.1-0.2-0.2s0.1-0.2,0.2-0.2c1,0,1.5-0.7,2-2.5c0-0.2,0.1-0.4,0.1-0.7
				c0.2-1.2,0.6-2.8,1.9-3.2c0.6-0.1,1.1-0.5,1.4-1.1c0.1-0.6,0-1.3-0.4-1.8c-1.6-2.3-3.7-4.3-6.2-5.8c-2.4-1.6-5.1-2.8-8-3.5
				c-1-0.2-1.7-0.1-2,0.2c-0.4,0.4-0.4,1.2-0.1,2.5c1,3.3,2.4,6.4,4.2,9.3c1.6,2.3,3.5,4.3,5.8,5.9c0.1,0.1,0.2,0.2,0.1,0.3
				c-0.1,0.1-0.2,0.2-0.3,0.1c-2.3-1.6-4.3-3.7-6-6c-1.8-3-3.3-6.2-4.3-9.5c-0.3-1.5-0.3-2.5,0.3-3c0.5-0.5,1.3-0.6,2.5-0.4
				c2.9,0.7,5.7,1.9,8.1,3.6c2.5,1.5,4.6,3.6,6.3,6c0.5,0.6,0.7,1.5,0.5,2.2c-0.3,0.7-0.9,1.2-1.7,1.4c-1.1,0.4-1.4,1.6-1.6,2.9
				c0,0.2-0.1,0.5-0.1,0.7C43,37.7,42.5,38.8,41,38.8"/>
			<path id="パス_67" class="st0" d="M101.2,30.2c-0.5,0-1-0.2-1.5-0.4c-0.8-0.7-1.3-1.7-1.2-2.8c0-0.3,0-0.5,0-0.8
				c0-1.1,0-1.9-0.8-2.1c-0.7-0.2-1.3-0.3-2-0.3c-0.2,0-0.5,0-0.7,0c-1-0.1-1.7-0.6-1.7-1.4c0-0.1,0.1-0.3,0.2-0.3c0,0,0,0,0,0
				c0.1,0,0.2,0.1,0.3,0.2c0,0.5,0.5,0.8,1.3,0.9c0.2,0,0.5,0,0.7,0c0.7,0,1.5,0.1,2.2,0.3c1.2,0.4,1.2,1.6,1.2,2.6
				c0,0.3,0,0.5,0,0.8c0.1,1.2,0.3,1.9,1,2.4c0.5,0.3,1,0.4,1.6,0.3c0.5-0.1,0.9-0.4,1.2-0.9c1.6-3.2,2.7-6.7,3.3-10.2
				c0.2-2.8,0.1-5.7-0.2-8.5l0-0.4c0-0.7-0.3-1.3-0.9-1.7c-0.6-0.2-1.3-0.1-1.8,0.2c-1.7,1-4.5,4.3-5.9,6.1c-1.4,1.8-2.4,3.9-3,6.1
				c0,0.1-0.2,0.2-0.3,0.2c-0.1,0-0.2-0.2-0.2-0.3c0,0,0,0,0,0c0.6-2.3,1.7-4.4,3.1-6.3c1.5-1.9,4.3-5.2,6-6.2
				c0.7-0.5,1.5-0.6,2.3-0.3c0.7,0.4,1.2,1.2,1.2,2.1l0,0.4c0.3,2.9,0.4,5.7,0.2,8.6c-0.6,3.6-1.7,7.1-3.3,10.4
				C102.7,29.7,102,30.2,101.2,30.2"/>
			<path id="パス_68" class="st0" d="M46.7,33c0,0-0.1,0-0.1,0c-0.1-0.1-0.3-0.2-0.5-0.3c-0.9-0.6-2-1-3.1-0.9
				c-0.1,0-0.3-0.1-0.3-0.2c0-0.1,0.1-0.3,0.2-0.3c1.2,0,2.4,0.3,3.4,1c0.2,0.1,0.3,0.2,0.5,0.3c0.1,0.1,0.2,0.2,0.1,0.3
				C46.9,33,46.8,33,46.7,33"/>
			<path id="パス_69" class="st0" d="M95.8,26.7c-0.1,0-0.2-0.1-0.2-0.3c0-0.1,0-0.1,0.1-0.2c1.7-1.1,3.6-1.7,5.6-1.8
				c0.1,0,0.2,0.1,0.3,0.2c0,0,0,0,0,0c0,0.1-0.1,0.3-0.2,0.3c-1.9,0-3.7,0.6-5.3,1.6C96,26.7,95.9,26.7,95.8,26.7"/>
			<path id="パス_70" class="st0" d="M84.1,72.4c-0.1,0-0.2-0.1-0.2-0.3c0-0.1,0.1-0.2,0.2-0.2c3.5-1.4,6.3-4.1,7.8-7.6
				c0.1-0.1,0.2-0.2,0.3-0.1s0.2,0.2,0.1,0.3C90.8,68.1,87.9,71,84.1,72.4C84.2,72.4,84.1,72.4,84.1,72.4"/>
			<path id="パス_71" class="st0" d="M75.7,77.5c-0.1,0-0.2-0.1-0.2-0.3c0-0.1,0-0.2,0.1-0.2c2-1.5,3.7-3.4,4.8-5.6
				c0.1-0.1,0.2-0.2,0.3-0.1s0.2,0.2,0.1,0.3c-1.2,2.3-2.9,4.3-5,5.8C75.8,77.5,75.8,77.5,75.7,77.5"/>
			<path id="パス_72" class="st0" d="M66.8,77.1c-0.1,0-0.1,0-0.2-0.1c-1.6-1.4-2.9-3.1-3.7-5.1c-0.1-0.1,0-0.3,0.1-0.3
				c0.1-0.1,0.3,0,0.3,0.1c0,0,0,0,0,0c0.8,1.9,2,3.6,3.6,4.9c0.1,0.1,0.1,0.2,0,0.4C67,77.1,66.9,77.1,66.8,77.1"/>
			<path id="パス_73" class="st0" d="M60.2,72.5C60.2,72.5,60.2,72.5,60.2,72.5c-3.5-1.3-6.2-3.9-7.6-7.2c-0.1-0.1,0-0.3,0.1-0.3
				c0.1-0.1,0.3,0,0.3,0.1c0,0,0,0,0,0c1.4,3.2,4,5.7,7.2,7c0.1,0,0.2,0.2,0.1,0.3C60.4,72.5,60.3,72.5,60.2,72.5"/>
			<path id="パス_74" class="st0" d="M61.3,41.5c-1.2-0.2-2,1.2-1.8,2.3s1,2.4,2.1,2.4s1.4-0.9,1.6-2.3
				C63.3,42.8,62.5,41.7,61.3,41.5"/>
			<path id="パス_75" class="st0" d="M82.1,39.6c-0.9-0.1-1.7,0.5-1.8,1.4c0,0.2,0,0.4,0,0.5c0.1,1.1,0.5,2.8,1.6,2.8
				c1.2-0.1,2.1-1.1,2.1-2.3C84.1,40.8,83.3,39.8,82.1,39.6"/>
			<path id="パス_76" class="st0" d="M70.4,45.2c-1.9,0.4-3.6,1.5-3.1,2.8c0.8,1.5,2.5,2.2,4.1,1.9c1.8-0.3,3.7-1,3.4-2.6
				S72.4,44.7,70.4,45.2"/>
			<path id="パス_77" class="st0" d="M66.6,53.4c-1.8,0-3.6-0.4-5.2-1.2c-0.2-0.1-0.2-0.3-0.1-0.5s0.3-0.2,0.5-0.1
				c2.4,1.4,7.3,1.6,8.7-0.1c0.1-0.2,0.4-0.2,0.5-0.1c2.3,1.8,6.6,0.8,8.5-1.1c0.1-0.1,0.4-0.1,0.5,0c0.1,0.1,0.1,0.4,0,0.5
				c-2,2.2-6.5,3.2-9.2,1.4C69.6,53.1,68.1,53.5,66.6,53.4"/>
			<path id="パス_78" class="st0" d="M71,56.5c-2.6,0.1-5-1.2-6.2-3.5c-0.1-0.1,0-0.3,0.1-0.3c0,0,0,0,0,0c0.1-0.1,0.3,0,0.3,0.1
				c1.2,2.1,3.5,3.4,5.9,3.2c2.8,0,5.3-1.7,6.4-4.2c0.1-0.1,0.2-0.2,0.3-0.1c0,0,0,0,0,0c0.1,0.1,0.2,0.2,0.1,0.3
				c-1.2,2.7-3.9,4.5-6.8,4.5H71"/>
			<path id="パス_79" class="st0" d="M36.4,122.2c-1.3,0-2.6-0.1-3.8-0.1l-1,0c-1.1-0.1-2.4-0.1-3.9-0.2
				c-4.1-0.2-9.7-0.6-14.4-0.6c-2.4,0.1-4.8,0-7.2-0.5c-3.6-1-5-2.5-5.9-6c-0.5-1.9-0.3-3.8-0.1-6.8c0.1-0.9,0.2-1.9,0.2-3
				c0-0.7,0.1-1.6,0.1-2.6l0.1-1.2c0-0.2,0.2-0.4,0.4-0.4c0.2,0,0.4,0.2,0.4,0.4c0,0,0,0,0,0l0,1.2c0,1-0.1,1.9-0.1,2.6
				c-0.1,1.1-0.2,2.1-0.2,3c-0.2,2.9-0.4,4.8,0,6.6c0.8,3.2,2,4.5,5.4,5.5c2.3,0.4,4.6,0.6,7,0.5c4.7,0,10.3,0.3,14.4,0.6
				c1.5,0.1,2.8,0.2,3.9,0.2l1,0c3.2,0.2,7.5,0.4,8.8-0.9c0.2-0.2,0.4-0.6,0.4-0.9c0-0.2,0.2-0.4,0.4-0.4c0,0,0.1,0,0.1,0
				c3.8,1.2,9.5,1.4,11.2,1.4c0.2,0,0.4,0.2,0.4,0.4c0,0,0,0,0,0c0,0.2-0.2,0.4-0.4,0.4c-3.7,0-7.4-0.5-11-1.3
				c-0.1,0.4-0.3,0.7-0.5,1C41,122,38.8,122.2,36.4,122.2"/>
			<path id="パス_80" class="st0" d="M1.2,98.4L1.2,98.4c-0.2,0-0.4-0.2-0.4-0.4c0.4-5.2,1.1-9.1,2.4-12.1
				c0.1-0.2,0.3-0.3,0.5-0.2C3.9,85.7,4,86,3.9,86.2c0,0,0,0,0,0c-1.2,2.9-2,6.7-2.3,11.8C1.5,98.2,1.4,98.4,1.2,98.4"/>
			<path id="パス_81" class="st0" d="M4.8,84c-0.2,0-0.4-0.2-0.4-0.4c0-0.1,0-0.1,0.1-0.2c3.4-5.2,7.7-8.5,14.7-11.4
				c3.2-1.2,6.5-2.1,9.8-2.7c2.1-0.4,4.2-0.9,6.2-1.7c2.6-1.1,5.1-2.5,7.4-4.2c0.2-0.1,0.4-0.1,0.5,0.1s0.1,0.4-0.1,0.5l0,0
				c-2.3,1.7-4.8,3.1-7.5,4.2c-2.1,0.7-4.2,1.3-6.3,1.7c-3.3,0.6-6.5,1.5-9.7,2.7c-6.9,2.9-11.1,6.1-14.4,11.1C5.1,83.9,5,84,4.8,84
				"/>
			<path id="パス_82" class="st0" d="M66.3,122.7c-3.4,0-6.9-0.2-8.4-0.4c-1.8-0.2-3.7-0.7-4.6-3.4l0-0.1
				c-0.8-2.2-1.4-4.1-2.9-5.6c-1.3-1.3-2.5-2.6-3.6-4.1c-0.1-0.2-0.1-0.4,0.1-0.5c0.2-0.1,0.4-0.1,0.5,0.1c1.1,1.4,2.3,2.8,3.6,4
				c1.7,1.6,2.4,3.6,3.1,5.9l0,0.1c0.8,2.3,2.3,2.7,4,2.9c2.4,0.3,11.4,0.6,14.3,0c1.2-0.3,2.2-1.3,2.4-2.5c0.4-1.6,0-3.3-1.2-4.4
				c-1.6-1.3-3.4-2.4-5.4-3l-0.7-0.3c-2.8-1.1-4.2-2.2-3.9-5.2c0-0.4,0.1-0.7,0.1-1.2c0.4-4.1,1.1-10.8-1.6-15.6
				C62,89.3,62,89,62.2,88.9c0.2-0.1,0.4-0.1,0.5,0.1c0,0,0,0,0,0c2.9,4.9,2.2,11.9,1.7,16c0,0.4-0.1,0.8-0.1,1.2
				c-0.2,2.5,0.9,3.4,3.4,4.4l0.7,0.3c2.1,0.6,4,1.7,5.6,3.1c1.4,1.3,1.9,3.3,1.4,5.2c-0.3,1.5-1.5,2.7-3,3
				C70.5,122.6,68.4,122.7,66.3,122.7"/>
			<path id="パス_83" class="st0" d="M45.8,107.7c-0.1,0-0.2-0.1-0.3-0.2c-0.5-0.8-1-1.5-1.6-2.3l-0.2-0.3
				c-1.8-2.7-4.1-8.6-3.1-13.9c0-0.2,0.2-0.3,0.4-0.3s0.3,0.2,0.3,0.4c-0.9,5,1.3,10.7,3,13.3l0.2,0.3c0.5,0.8,1,1.5,1.5,2.3
				c0.1,0.2,0.1,0.4-0.1,0.5C46,107.7,45.9,107.7,45.8,107.7"/>
			<path id="パス_84" class="st0" d="M75.6,113.8c-0.2,0-0.4-0.2-0.4-0.4c0-0.2,0.1-0.4,0.3-0.4l0.2,0c4-0.4,9.5-1,12.7-3
				c2.5-1.5,4.5-3.8,5.7-6.4c1.3-2.4,2.3-5,2.8-7.7c0-0.2,0.2-0.3,0.4-0.3c0.2,0,0.3,0.2,0.3,0.4c-0.5,2.8-1.5,5.4-2.8,7.9
				c-1.3,2.8-3.4,5.1-6,6.7c-3.3,2.1-9,2.7-13.1,3.1L75.6,113.8L75.6,113.8"/>
			<path id="パス_85" class="st0" d="M99.2,95.7c-0.2,0-0.4-0.2-0.4-0.4c0-0.1,0.1-0.2,0.1-0.3c1.3-1.1,2.2-2.6,2.8-4.1
				c0.6-1.5,0.9-3.2,1-4.8c0-0.2,0.2-0.3,0.3-0.4c0.3,0,0.5-0.1,0.7-0.1c1.3-0.5,2.1-1.8,2.5-4.1c0.6-3.3-0.5-8.3-1.6-12.6
				c-0.8-3.5-1.4-7-1.8-10.6c-0.1-0.5-0.1-1-0.1-1.4c0-0.2,0.1-0.4,0.3-0.4c0.2,0,0.4,0.1,0.4,0.3c0,0.4,0.1,0.9,0.1,1.4
				c0.3,3.5,0.9,7.1,1.8,10.5c1.1,4.4,2.2,9.5,1.6,13c-0.4,2.5-1.4,4.1-3,4.6c-0.2,0.1-0.4,0.1-0.6,0.1c-0.1,1.6-0.4,3.2-1,4.7
				c-0.7,1.7-1.7,3.2-3.1,4.5C99.4,95.6,99.3,95.6,99.2,95.7"/>
			<path id="パス_86" class="st0" d="M89.1,122.1c-2.4,0-4.8-0.2-7.2-0.4c-3.2-0.3-4.5-1-5.4-3.1c-0.1-0.2,0-0.4,0.2-0.5
				c0.2-0.1,0.4,0,0.5,0.2c0,0,0,0,0,0c0.7,1.6,1.6,2.3,4.8,2.6c3,0.3,6,0.5,8.9,0.4l0.4,0c3.2-0.1,5.3-0.2,6.1-1.8
				c0.4-0.8,0.4-1.7,0.1-2.5c-0.5-1.2-1.6-2.2-2.9-2.7c-2.8-1.1-2.8-2.9-2.4-4.4l0.1-0.4c0.1-0.5,0.2-1,0.3-1.4
				c0-0.2,0.2-0.3,0.4-0.3c0.2,0,0.3,0.2,0.3,0.4c-0.1,0.4-0.2,0.9-0.3,1.4l-0.1,0.4c-0.3,1.2-0.4,2.6,2,3.6
				c1.5,0.5,2.7,1.6,3.3,3.1c0.4,1,0.4,2.1-0.1,3.1c-1,2-3.4,2.1-6.7,2.2l-0.4,0C90.3,122.1,89.7,122.1,89.1,122.1"/>
			<path id="パス_87" class="st0" d="M42.3,118.8c-0.2,0-0.3-0.1-0.4-0.3c-0.5-3.5-3-6.3-6.4-7.2c-2.3-0.7-4.6-1.1-7-1.2
				c-1.9-0.1-2.9-0.1-3.9-0.1l-0.7,0c-0.9,0-1.2-0.5-1.2-0.7c-0.1-0.7,0.3-1.4,1-1.8c2.4-1.5,6.4-7.6,5.4-12c0-0.2,0.1-0.4,0.3-0.4
				c0.2,0,0.4,0.1,0.4,0.3c1.1,4.8-3,11.2-5.7,12.8c-0.5,0.3-0.7,0.7-0.6,0.9s0.4,0.2,0.5,0.2l0.7,0c1,0,2,0,3.9,0.1
				c2.4,0.1,4.8,0.5,7.2,1.2c3.6,1,6.4,4.1,6.9,7.8C42.7,118.6,42.5,118.8,42.3,118.8C42.3,118.8,42.3,118.8,42.3,118.8L42.3,118.8"
				/>
			<path id="パス_88" class="st0" d="M61.4,43.3c0,0.2,0.2,0.4,0.4,0.4c0.2,0,0.4-0.2,0.4-0.4c0-0.2-0.2-0.4-0.4-0.4
				C61.6,42.9,61.4,43.1,61.4,43.3"/>
			<path id="パス_89" class="st0" d="M82.1,41.4c0,0.2,0.2,0.4,0.4,0.4c0.2,0,0.4-0.2,0.4-0.4c0-0.2-0.2-0.4-0.4-0.4
				C82.3,41,82.1,41.2,82.1,41.4"/>
			<path id="パス_90" class="st0" d="M44.9,35.3c0,0-0.1,0-0.1,0c-1.9-1.2-4.2-1.8-6.5-1.8c-0.1,0-0.3-0.1-0.3-0.2
				c0-0.1,0.1-0.3,0.2-0.3c2.4-0.1,4.8,0.6,6.8,1.9c0.1,0.1,0.2,0.2,0.1,0.3C45.1,35.2,45,35.3,44.9,35.3"/>
			<path id="パス_91" class="st0" d="M44.6,43c-0.1,0-0.3-0.1-0.3-0.2c0-0.1,0-0.1,0.1-0.2c1.4-1.2,3.5-2.8,5.1-3.1
				c0.1,0,0.3,0.1,0.3,0.2c0,0.1-0.1,0.3-0.2,0.3c-1.6,0.3-3.8,2-4.9,3C44.7,42.9,44.6,43,44.6,43"/>
			<path id="パス_92" class="st0" d="M45,52.7c0,0-0.1,0-0.1,0c-0.1-0.1-0.2-0.2-0.1-0.3c0,0,0,0,0,0c0.8-1.6,1.9-3,3.4-4
				c0.1-0.1,0.3-0.1,0.4,0c0.1,0.1,0.1,0.3-0.1,0.4c-1.4,1-2.5,2.3-3.3,3.9C45.2,52.6,45.1,52.7,45,52.7"/>
			<path id="パス_93" class="st0" d="M103,54c-0.1,0-0.2,0-0.2-0.1c-1.6-2-3.6-3.6-5.8-4.9c-0.1-0.1-0.2-0.2-0.1-0.3c0,0,0,0,0,0
				c0.1-0.1,0.2-0.2,0.3-0.1c2.3,1.3,4.3,3.1,6,5.1c0.1,0.1,0,0.3-0.1,0.3C103.1,54,103.1,54,103,54"/>
			<path id="パス_94" class="st0" d="M105.4,46.6c0,0-0.1,0-0.1,0c-0.3-0.2-0.6-0.4-0.8-0.6c-1.1-0.8-2.4-1.5-3.7-2
				c-0.1,0-0.2-0.2-0.2-0.3c0-0.1,0.2-0.2,0.3-0.2c0,0,0,0,0,0c1.3,0.5,2.6,1.2,3.8,2.1c0.3,0.2,0.6,0.4,0.8,0.5
				c0.1,0.1,0.2,0.2,0.1,0.3C105.6,46.6,105.5,46.6,105.4,46.6"/>
			<path id="パス_95" class="st0" d="M95.1,33.2c0,0-0.1,0-0.1,0c-2.2-1.3-6.2-1.4-8.2-1c-0.1,0-0.3-0.1-0.3-0.2
				c0-0.1,0.1-0.3,0.2-0.3c0,0,0,0,0,0c1.7-0.3,5.9-0.4,8.5,1.1c0.1,0.1,0.2,0.2,0.1,0.3C95.3,33.2,95.2,33.3,95.1,33.2"/>
		</g>
	</g>
	<g>
		<g id="グループ_279" transform="translate(5954.938 4336.375)">
			<path id="パス_32" class="st0" d="M77,55.1c-5,0.4-9.9-0.7-14.2-3.2c-0.4-0.2-0.9-0.5-1.2-0.7c-0.1-0.3-0.2-0.5-0.4-0.8
				c2.3,0.2,3.3-0.6,3.5-2.1c0.4-2.7,0-5.5-1.2-8c1.5-2.2-0.6-7.4-1.7-10.7c2.4-4.9,6-14.5,6.2-17s-1.1-3.8-3.2-3.5
				c-4.9,1.2-9.7,3.1-14.1,5.5c-2-1.9-8.2-5-12.9-5.7c-4.8-0.6-9.6-0.1-14.2,1.4c-3.4-3.7-7.4-7-11.7-9.6c-1.9-0.9-3.5-0.2-4.1,2.4
				S7.8,15.9,8.6,21.3c-1.7,2.2-3.4,5.4-2.7,7.6c-2.6,1.9-4.4,6.1-5.3,8.9c-0.3,1.1-0.7,4.3,2.1,3.8c-2,1.6-2.3,3-2,4.7
				C1,47.6,2.3,47.9,4,48c-1.2,0.8-1.6,2.4-0.8,3.6c0,0,0,0.1,0.1,0.1c1.1,1.6,2.5,3.1,4,4.4c0.7,0.6,1.4,1.4,1.9,2.2
				c2.5,4.1,4.1,9.4,3.1,14.6c-1.1,5.8-2.3,11,1.2,17c0.4,0.8,0.7,1.1,1,1.6c1.4,5.8,3.4,10.8,6.6,13.6c-0.2,5.1,0.8,14,1.2,18.1
				c0.3,3.5,0.5,7,0.4,10.5c-0.1,2.4-1.4,3.6-3.6,5.3c-2.5,2-2.9,7.6,1.3,9.3s9.2,0.6,12.3-1.2c3.6-2.1,5.5-6.1,4.9-10.2
				c-0.5-3.7-1.1-9-0.7-11.8c0.6-4.1,2.5-7.9,4-10.7c0.2-0.5,0.4-0.7,0.6-1.1c0.6,1.4,1,2.7,1.7,4.1c1.4,2.8,3,12.5,3.2,16.7
				s-0.3,6-2.7,8.2c-2.7,2.4-4.7,5.1-2.8,9c1.5,3.1,7.7,3.6,11.4,2.9c3.3-0.6,7.1-2.9,8.1-5.7s0.7-8.4,1.2-12.5s1.4-11.4,2.1-15.5
				c0.7-4.2,0-6,3.5-7c1.9-0.5,5.9-1.7,10.1-3.2l0.1,0.2c1.4,3.5,3.5,8.8,7.2,12.8s4.7,4.8,5.5,7.3c0.7,2,0.1,4.1-1.5,5.5
				c-1.7,1.7-2,6.9,2.2,7.4c3.1,0.4,8.8,0.1,11.4-1.8c2.6-1.9,2.9-5.6,1.6-11.7c-0.6-2.8-0.9-5.7-0.9-8.6c0-0.4-0.1-0.5-0.1-0.7
				c2.2,2.7,4.4,5.3,5.7,6.8c2.8,3.2,4.6,7.5,4.6,10.5c0,1.3-1.6,2.6-2.7,4.1c-1.2,1.4-1.6,3.3-1,5.1c0.7,3,5.5,4.1,9.4,3.8
				c4.3-0.3,7.7-2.9,8.1-5.6c0.3-2.3,0-5.8,0.5-9.1c0.6-4-0.9-8.3-3.2-11.8s-1.4-6.5-0.5-10.2s1.2-16.7,0.7-22.5
				c-0.3-4-2.5-12.2-4.6-18.2c0.2,0.1,0.4,0.3,0.6,0.4c3.9,3,8.9,3.1,14.5,2.9c5.1-0.2,11.1-3.5,13.9-7.9c1.4-2.2,0.9-4-0.4-5
				c-1.5-1.1-3.5-1.1-5,0c-3.4,2.1-7.4,3.2-11.4,3.2c-4.4,0-13.2-4.9-16.2-7.4c-0.7-0.6-1.6-1-2.5-1.2c-2.7-2.8-7-4-11.4-4.3
				S82.4,54.6,77,55.1"/>
			<path id="パス_33" class="st0" d="M41.8,40c-1.8-2.2-3.8-5.5-8.3-6.4c-3.1-0.6-6.5,1.6-8.9,2.5s-4.3,1.4-7.6,2.3
				c-3.7,0.9-6.7,3.6-8.1,7.1c-1.3,3.6-0.3,10.2,2.2,16.9l0,0c1.3,3.3,1.7,7,1.1,10.5c-1.1,5.8-2.3,11,1.2,17c0.4,0.8,0.7,1.1,1,1.6
				c1.4,5.8,3.4,10.8,6.6,13.6c8.5,7.6,15.8,8.3,20.3,8.2c-1.2-2.6-2.2-5.2-3.1-7.9c-2.2-7.2-2.4-14.9-0.7-22.2
				c1.5-6.7,2.8-12.4,6-16.9c2.5-3.4,4.7-7,6.7-10.7c1.7-3.2,1.3-7.1-1.1-9.8C47,43,43.6,42.3,41.8,40"/>
			<path id="パス_34" class="st0" d="M86.9,106.9c-2.3,1-6.3,2.3-9.7,3.4c-4.3,1.5-8.3,2.7-10.1,3.2c-1,0.2-2,0.8-2.5,1.7
				c1.3-5.7,7.7-10.3,12.9-11.9c4.8-1.5,8.6-2.3,10.6-1.7c1.6,0.4,1.9,1.2,1.9,2.2C89.9,105.7,87.9,106.5,86.9,106.9"/>
			<path id="パス_35" class="st0" d="M64.5,115.5C64.5,115.5,64.5,115.5,64.5,115.5c-0.3-0.1-0.4-0.3-0.4-0.5
				c0.5-1.8,1.3-3.5,2.5-5c0.1-0.2,0.4-0.2,0.5-0.1s0.2,0.4,0.1,0.5c0,0,0,0,0,0c-1.1,1.4-1.9,3-2.4,4.7
				C64.9,115.4,64.7,115.5,64.5,115.5"/>
			<path id="パス_36" class="st0" d="M119.5,73.9c-0.2,0-0.3-0.1-0.4-0.2l-0.3-0.9c-0.6-1.8-1.3-3.6-2.2-5.3
				c-0.1-0.2,0-0.4,0.1-0.5c0.2-0.1,0.4,0,0.5,0.1c0.9,1.7,1.7,3.5,2.3,5.4l0.3,0.9c0.1,0.2,0,0.4-0.2,0.5c0,0,0,0,0,0
				C119.6,73.8,119.5,73.9,119.5,73.9"/>
			<path id="パス_37" class="st0" d="M102.7,121c-0.1,0-0.2,0-0.3-0.1c-2.4-2.4-4.6-5-6.6-7.8l-0.8-1.1c-2.3-3-4.2-6.5-4.6-8.8
				c0-0.2,0.1-0.4,0.3-0.4c0.2,0,0.4,0.1,0.4,0.3l0,0c0.4,2.1,2.2,5.6,4.4,8.4l0.8,1.1c2,2.7,4.2,5.3,6.6,7.7c0.1,0.1,0.1,0.4,0,0.5
				C102.9,120.9,102.8,121,102.7,121"/>
			<path id="パス_38" class="st0" d="M77.2,110.6c-0.2,0-0.4-0.2-0.4-0.4c0-0.2,0.1-0.3,0.3-0.4c3.6-1.1,7.5-2.5,9.7-3.4
				c0.2-0.1,0.4,0,0.5,0.2c0.1,0.2,0,0.4-0.2,0.5c0,0,0,0,0,0c-2.2,0.9-6,2.2-9.7,3.4C77.3,110.6,77.2,110.6,77.2,110.6"/>
			<path id="パス_39" class="st0" d="M41.5,113.6c-0.2,0-0.3-0.1-0.4-0.3l-0.1-0.2c-0.4-1.3-0.9-2.6-1.7-3.8
				c-0.1-0.2-0.1-0.4,0.1-0.5c0.2-0.1,0.4-0.1,0.5,0.1c0.8,1.2,1.5,2.6,1.8,4l0.1,0.2c0.1,0.2,0,0.4-0.2,0.5c0,0,0,0,0,0
				C41.6,113.6,41.5,113.6,41.5,113.6"/>
			<path id="パス_40" class="st0" d="M36.9,113.8C36.9,113.8,36.8,113.8,36.9,113.8c-5.9-1.7-11.3-4.5-16-8.4
				c-3-2.6-5.2-7.2-6.8-13.8c0-0.2,0.1-0.4,0.3-0.5c0.2,0,0.4,0.1,0.5,0.3c0,0,0,0,0,0c1.5,6.5,3.7,10.9,6.5,13.4
				c4.6,3.8,9.9,6.6,15.6,8.2c0.2,0,0.3,0.2,0.3,0.5C37.2,113.7,37.1,113.8,36.9,113.8"/>
			<path id="パス_41" class="st0" d="M54.6,19c-1.1-1.2-1-3,0.2-4c0.2-0.2,0.4-0.3,0.6-0.4c2.6-1.4,5.5-2.5,8.4-3.2
				c2-0.3,2.7,0.9,2.2,3c-0.4,1.7-2.9,8.3-4.4,10.3c-0.9,1.2-2.4,1.7-3.2,0.6C57.6,23.7,55.9,20.6,54.6,19"/>
			<path id="パス_42" class="st0" d="M18.4,13.9c1.4-0.7,2-2.4,1.3-3.8c-0.1-0.2-0.3-0.4-0.4-0.6c-1.9-2.3-4.2-4.3-6.7-6
				c-1.7-1-2.9-0.1-3.2,2C9.1,7.2,9,14.2,9.8,16.6c0.4,1.5,1.6,2.5,2.7,1.7C13.9,17.2,16.6,14.9,18.4,13.9"/>
			<path id="パス_43" class="st0" d="M45.3,32.2c1.2,0.2,1.6,2.2,1.2,3.3s-1.2,1.7-2.1,1.3c-1-0.3-1.7-1.4-1.5-2.4
				C43.1,33.1,43.6,31.9,45.3,32.2"/>
			<path id="パス_44" class="st0" d="M23.6,29.8c1.2,0.2,1.6,2.2,1.2,3.3s-1.2,1.7-2.1,1.3c-1-0.3-1.7-1.4-1.5-2.4
				C21.4,30.7,22,29.5,23.6,29.8"/>
			<path id="パス_45" class="st0" d="M33.1,34.9c2,0.3,3.9,1.5,3.7,3s-1.7,2.6-3.9,2.2s-3.6-1.2-3.6-2.6S31,34.6,33.1,34.9"/>
			<path id="パス_46" class="st0" d="M37.9,46.8c-2.4,0-5-0.8-6.3-3.1c-1.2,1.2-2.8,1.9-4.4,1.8h-0.1c-2,0-3.9-0.9-5.2-2.5
				c-0.1-0.2-0.1-0.4,0-0.5c0.2-0.1,0.4-0.1,0.5,0c0,0,0,0,0,0c1.2,1.4,2.8,2.2,4.6,2.2c1.7,0,3.3-0.7,4.3-2
				c0.1-0.1,0.2-0.1,0.3-0.1c0.1,0,0.2,0.1,0.3,0.2c1.4,3.2,6,3.6,8.9,2.6c0.2-0.1,0.4,0,0.5,0.2c0.1,0.2,0,0.4-0.2,0.5
				C40.1,46.6,39,46.8,37.9,46.8"/>
			<path id="パス_47" class="st0" d="M43.8,25c1.2-0.1,2.3,0.6,2.8,1.6c0.3,0.9-0.6,2.4-1.9,2.6s-3.3-0.6-3.6-1.7
				C40.7,25.9,41.4,24.9,43.8,25"/>
			<path id="パス_48" class="st0" d="M26.9,22c1.5,0.1,2.5,0.8,2.8,1.6s-0.9,2.2-2.3,2.4s-3.4-0.6-3.6-1.7
				C23.5,22.8,24.3,21.9,26.9,22"/>
			<path id="パス_49" class="st0" d="M45.8,34.2c0,0.4-0.2,0.7-0.5,0.7s-0.5-0.3-0.5-0.7s0.2-0.7,0.5-0.7S45.8,33.8,45.8,34.2"/>
			<path id="パス_50" class="st0" d="M24.2,31.8c0,0.4-0.2,0.7-0.5,0.7s-0.5-0.3-0.5-0.7s0.2-0.7,0.5-0.7S24.2,31.4,24.2,31.8"/>
			<path id="パス_51" class="st0" d="M48.9,154.8c-3.5,0-7.3-0.9-8.4-3.4c-2-4.3,0.3-7.2,2.9-9.4c2.3-2,2.8-3.7,2.6-7.9
				c-0.2-4.3-1.9-13.9-3.2-16.6c-0.4-0.9-0.8-1.8-1.2-2.8c-0.1-0.2-0.2-0.4-0.2-0.6c-0.1,0.1-0.1,0.2-0.2,0.4
				c-1.6,3.1-3.4,6.7-4,10.6c-0.4,3,0.4,9.1,0.7,11.7c0.6,4.2-1.4,8.4-5.1,10.6c-3.8,2.2-8.4,2.6-12.6,1.2c-1.8-0.7-3.1-2.3-3.3-4.2
				c-0.4-2.1,0.4-4.2,1.9-5.7c2.1-1.7,3.4-2.8,3.5-5c0-3.5-0.1-7-0.4-10.4l-0.2-1.8c-0.6-5.4-1-10.8-1-16.2
				c-2.9-2.6-5.1-7.1-6.6-13.7c-0.3-0.4-0.5-0.8-0.8-1.3L13.2,90c-3.4-5.9-2.4-11.1-1.4-16.6l0.1-0.6c1.2-6.2-1.4-11.6-3-14.3
				c-0.4-0.7-1-1.4-1.6-2L7,56.4c-1.5-1.3-2.9-2.8-4.1-4.5c-0.8-1.1-0.7-2.6,0.1-3.6c-1.3-0.1-2.5-0.6-2.8-2C0,44.7,0.5,43.1,1.7,42
				c-0.4-0.1-0.8-0.3-1.1-0.6c-0.9-1.1-0.6-3.1-0.4-3.7c0.6-2,2.3-6.7,5.2-8.9c-0.5-2.3,1-5.4,2.7-7.6C7.4,15.6,6.9,5.6,7.6,3
				c0.2-1.2,0.9-2.2,1.9-2.8c0.9-0.4,1.9-0.3,2.7,0.2c4.3,2.6,8.2,5.8,11.6,9.5c4.6-1.4,9.4-1.9,14.1-1.3c4.6,0.9,9,2.8,12.8,5.6
				c4.4-2.4,9.1-4.3,14-5.5c0.9-0.2,1.9,0,2.6,0.6c0.8,0.9,1.2,2.1,1,3.3c-0.2,2.6-3.7,12.1-6.2,17l0.3,0.9c1.2,3.4,2.7,7.6,1.4,9.8
				c1.2,2.5,1.5,5.3,1.1,8c-0.2,1.6-1.3,2.4-3.2,2.5c0,0,0,0.1,0,0.1c0.2,0.1,0.4,0.2,0.6,0.4c0.2,0.1,0.3,0.2,0.5,0.3
				c4.2,2.5,9.1,3.6,14,3.1c5.5-0.5,20.4-1.1,24.7-0.9c3.5,0.2,8.4,1.1,11.6,4.3c0.9,0.2,1.8,0.6,2.5,1.2c3,2.5,11.8,7.3,16,7.3
				c4,0,7.8-1.1,11.2-3.2c1.6-1.1,3.8-1.1,5.4,0.1c1.3,1,2.1,3,0.4,5.5c-2.8,4.4-8.9,7.8-14.2,8.1c-5.2,0.2-10.3,0.2-14.3-2.7
				c1.9,5.7,4,13.2,4.3,17.1c0.4,5.5,0.3,18.8-0.7,22.6l-0.1,0.5c-0.9,3.5-1.6,6.2,0.6,9.4c2.6,3.9,3.8,8.3,3.3,12
				c-0.2,1.8-0.3,3.5-0.3,5.3c0,1.3-0.1,2.5-0.2,3.8c-0.4,3-4.1,5.6-8.4,5.9c-4.2,0.3-9-0.9-9.8-4.1c-0.5-1.9-0.1-3.9,1.1-5.4
				c0.3-0.4,0.6-0.8,1-1.1c0.9-1,1.7-1.9,1.7-2.7c0-3-1.8-7.2-4.5-10.2c-1.2-1.4-3.3-3.9-5.7-6.8l0.6-0.5c2.3,2.8,4.5,5.4,5.7,6.8
				c2.7,3.2,4.7,7.6,4.7,10.7c0,1.1-0.9,2.1-1.9,3.2c-0.3,0.4-0.6,0.7-0.9,1.1c-1.1,1.3-1.5,3.1-1,4.8c0.6,2.7,5,3.8,9,3.5
				c4.4-0.3,7.4-2.9,7.7-5.2c0.1-1.2,0.2-2.5,0.2-3.7c0-1.8,0.1-3.6,0.3-5.4c0.5-3.6-0.6-7.8-3.2-11.5c-2.3-3.4-1.5-6.5-0.7-10
				l0.1-0.5c0.9-3.6,1.2-16.4,0.7-22.4c-0.3-4.1-2.6-12.4-4.6-18.1l-0.4-1l0.9,0.6c0.1,0.1,0.2,0.1,0.3,0.2c0.1,0.1,0.2,0.1,0.3,0.2
				c3.9,3,9,3.1,14.3,2.8c5.1-0.2,11-3.5,13.6-7.7c1.1-1.8,1-3.5-0.3-4.5c-1.4-1-3.2-1-4.5,0c-3.5,2.2-7.5,3.3-11.6,3.3
				c-4.5,0-13.4-4.9-16.5-7.5c-0.7-0.5-1.5-0.9-2.3-1.1l-0.1,0l-0.1-0.1c-3-3.1-7.7-4-11.1-4.1C97.3,54.4,82.5,55,77,55.5
				c-5,0.4-10.1-0.7-14.5-3.2c-0.1-0.1-0.3-0.2-0.4-0.3c-0.3-0.2-0.6-0.3-0.8-0.5l-0.1-0.1l0-0.1c-0.1-0.2-0.2-0.5-0.4-0.7L60.4,50
				l0.8,0.1c2.5,0.2,3-0.9,3.1-1.8c0.4-2.6,0-5.3-1.2-7.8L63,40.3l0.1-0.2c1.2-1.8-0.3-6.1-1.4-9.3l-0.4-1.2l0.1-0.1
				c2.4-4.8,6-14.4,6.2-16.9c0.2-1-0.1-1.9-0.7-2.7c-0.6-0.5-1.3-0.6-2-0.5c-4.9,1.2-9.6,3-13.9,5.5l-0.2,0.2l-0.2-0.2
				c-1.9-1.8-8-4.9-12.7-5.6s-11.1,0.2-14,1.4l-0.3,0.1l-0.2-0.2C20,6.9,16.1,3.7,11.9,1.1c-0.6-0.4-1.4-0.5-2.1-0.2
				C9,1.4,8.4,2.3,8.3,3.2c-0.6,2.4-0.1,12.6,0.6,18l0,0.2l-0.1,0.1c-1.6,2.1-3.3,5.2-2.6,7.3L6.3,29l-0.2,0.2
				c-2.8,2.1-4.5,6.8-5.1,8.7c-0.2,0.6-0.4,2.3,0.2,3c0.4,0.4,0.9,0.5,1.5,0.3l1.6-0.3l-1.3,1c-1.9,1.5-2.1,2.8-1.8,4.3
				c0.2,1,1,1.4,2.9,1.4l1,0l-0.8,0.6c-1,0.7-1.4,2-0.7,3.1c0,0,0.1,0.1,0.1,0.1c1.1,1.6,2.4,3.1,3.9,4.3L7.7,56
				c0.7,0.6,1.3,1.3,1.8,2.1c1.7,2.8,4.4,8.4,3.1,14.8l-0.1,0.6c-1.1,5.6-2,10.4,1.3,16.1l0.2,0.3c0.3,0.6,0.6,0.9,0.8,1.4l0,0.1
				c1.5,6.5,3.7,10.9,6.5,13.4l0.1,0.1l0,0.2c-0.2,4.4,0.5,11.8,1,16.3l0.2,1.8c0.3,3.5,0.5,7,0.4,10.5c-0.1,2.5-1.5,3.8-3.7,5.6
				c-1.3,1.3-1.9,3.1-1.6,5c0.2,1.7,1.3,3.1,2.9,3.7c4.1,1.6,9.1,0.5,12-1.1c3.4-2,5.3-5.9,4.7-9.8c-0.5-4.4-1.1-9.2-0.7-11.9
				c0.5-4,2.4-7.7,4-10.8c0.2-0.5,0.4-0.7,0.6-1l0.4-0.7l0.3,0.7c0.2,0.5,0.4,0.9,0.5,1.4c0.3,0.9,0.7,1.8,1.1,2.7
				c1.4,2.8,3,12.5,3.3,16.8c0.2,4.4-0.4,6.3-2.9,8.5c-2.5,2.2-4.5,4.7-2.7,8.6c1.3,2.9,7.3,3.4,11,2.7c3.1-0.6,6.9-2.7,7.8-5.4
				c0.6-2.4,0.8-4.9,0.8-7.4c0.1-1.7,0.2-3.5,0.3-5c0.5-4.5,1.4-11.5,2.1-15.6c0.1-0.9,0.2-1.6,0.3-2.3c0.3-2.6,0.5-4.1,3.5-4.9
				c1.8-0.5,5.7-1.7,10.1-3.2l0.3-0.1l0.3,0.7c1.4,3.4,3.4,8.6,7,12.4l1.1,1.1c2.8,3,3.8,4,4.5,6.3c0.7,2.1,0.1,4.4-1.6,5.9
				c-1.1,1.3-1.4,3-0.9,4.6c0.4,1.3,1.6,2.2,2.9,2.2c3.1,0.4,8.7,0,11.1-1.7c2.3-1.7,2.8-5.2,1.5-11.3c-0.5-2.1-0.7-4.3-0.8-6.5
				l0-0.7l0.8,0l0,0.7c0.1,2.2,0.3,4.3,0.8,6.4c1.4,6.4,0.8,10.2-1.8,12.1c-2.6,1.9-8.5,2.2-11.6,1.8c-1.6-0.1-3-1.2-3.5-2.7
				c-0.6-1.8-0.2-3.9,1-5.3c1.5-1.2,2-3.3,1.4-5.1c-0.7-2.1-1.5-3-4.3-6l-1.1-1.1c-3.7-3.9-5.8-9.2-7.2-12.7l0-0.1
				c-4.3,1.5-8.1,2.6-9.8,3.1c-2.5,0.7-2.6,1.7-2.9,4.3c-0.1,0.7-0.2,1.5-0.3,2.4c-0.7,4-1.6,11.2-2.1,15.5c-0.2,1.5-0.2,3.3-0.3,5
				c0,2.6-0.3,5.1-0.9,7.6c-1,3-5,5.3-8.3,5.9C51.2,154.7,50.1,154.8,48.9,154.8"/>
		</g>
	</g>
</g>
</svg>
