<svg xmlns="http://www.w3.org/2000/svg" width="826.156" height="155.047" viewBox="0 0 826.156 155.047">
  <g id="グループ_1673" transform="translate(-5278.421 -4336.328)">
    <g id="グループ_1687" data-name="グループ 1687">
      <g id="グループ_287" transform="translate(5773 4368.481)">
        <path id="パス_201" d="M51.8,45.6c-2.4,1.7-9.6,2.6-17.5,1.4-3.5-.5-12.4-1.9-18.7,2.4S2.5,61.4,1.1,66.7.6,82.2,2.5,85.9s.9,6.3.5,8.7c-.6,3.3.2,7.1,2.7,8.1a8.372,8.372,0,0,0,4.7.2,7.192,7.192,0,0,0,4.8-.1,5.158,5.158,0,0,0,5.1-.4c3.5,2.1,13.4,4.3,14.8,3.8,2.4,2.7,8.7,3.6,10.3,3.2a6.1,6.1,0,0,0,3.3,4.5c1.8.7,7.5,3.6,11.8,4.4s12.7.8,16,.8a47.948,47.948,0,0,1,9.3.6c1.9.5,7,1.9,9.3,1.1,2.9.7,5.2.7,6.8,0a6.163,6.163,0,0,0,4.2-.6c.9-.5,1.5-2.2,1.5-3.3,1.6,1.2,5.7,1.3,7,.8a9.377,9.377,0,0,0,6.4-.1c2.4.2,3.6-.2,4.3-1.5s.4-3.5-.7-5.2-5.2-3.6-8.2-4.9a28.926,28.926,0,0,1-8.1-5.7c-2.5-2.5-2.7-5.3-3.6-7.3a12.707,12.707,0,0,0,4.1-7.7,18.834,18.834,0,0,0,.2-5.8,17.855,17.855,0,0,0,4.7-3.6,4.984,4.984,0,0,1-3.4-.6c1.5-.3,3.1-1.3,4.4-1.1-1.5-4-1.8-4.4-2.7-5.8a3.867,3.867,0,0,1,3.4,1.6,8.839,8.839,0,0,0-.7-5.3,11.9,11.9,0,0,0,4.2-3,8.331,8.331,0,0,0-2.2-2c1.6-.6,1.4-1.4.8-3.4a14.441,14.441,0,0,1,1.1,2,24.87,24.87,0,0,0-1-9.8c-.7-1.9-2.4-3.7-3.1-6.2a4.145,4.145,0,0,0,3.9,1.3,12.317,12.317,0,0,1-4.2-5.1,1.413,1.413,0,0,0,2.1-.7c.6-1,0-4.4-1.2-7.6a59.744,59.744,0,0,1,4.3,4.4c.2-3.1-.7-6.1-3.2-7.5,1.2.1,1.6.3,3.2,1.5,0-1-1.5-2.9-2.9-4.3,2.4.2,3.6-.6,4.9-3a15.457,15.457,0,0,1-2.3.7,13.752,13.752,0,0,0,3.7-5.8A44.813,44.813,0,0,0,124,2.6c-.2-1.7-.9-2.3-2.8-1.9-3.5.7-12.4,4.3-15,5.7s-3.7,2.7-4.4,4.2c-.6,1.2-1.9,1.2-3.1,1.1-1.6-.2-3.2-1.1-6.1-2.2A21.484,21.484,0,0,0,81.1,8.4c-5.1.7-8.2,2.4-9.9,3.8-1.8,1.5-4.4,4-6,4.5a5.453,5.453,0,0,1-5.1-.9c-2.2-1.5-7.6-3.2-10.6-3.7a44.6,44.6,0,0,0-7.3-.3c-1.5.1-2.8.7-2.5,2.4a52.532,52.532,0,0,0,3.8,11.6,20.036,20.036,0,0,0,4.4,6.3c1,.7,3.3,2.2,5.7,1.5-.9,1.5-2.1,3.1-1.2,4.7-1,1.5-1.3,4.3-.3,5.7a4.369,4.369,0,0,1,2.5-2.8,8.9,8.9,0,0,0-1.1,3.6,3.849,3.849,0,0,0-1.7.8" fill="#f2e9cb"/>
        <path id="パス_202" d="M77.3,101.8a22.531,22.531,0,0,1,4.2,1.3c2,.9,5.8,2.6,8.3,3.8,2.1-1.6,2.6-3.5,2.8-7.2,1.1-.5,1.6-1.1,4-3.6,1.3-.1,6.7-1.8,8.2-3.2a12.707,12.707,0,0,0,4.1-7.7,18.834,18.834,0,0,0,.2-5.8,17.855,17.855,0,0,0,4.7-3.6,4.984,4.984,0,0,1-3.4-.6c1.5-.3,3.1-1.3,4.4-1.1-1.5-4-1.8-4.4-2.7-5.8a3.867,3.867,0,0,1,3.4,1.6,8.839,8.839,0,0,0-.7-5.3,11.9,11.9,0,0,0,4.2-3,8.331,8.331,0,0,0-2.2-2c1.6-.6,1.4-1.4.8-3.4a6.205,6.205,0,0,0-4.7-3.4c-.4,1.1-2.2,1.1-4.9-.3-.6,1.1-1.9,1.6-4.2,1.5s-5.4-2.4-7.4-3c.1-1.4,2-3.6,2.9-4.3a20.876,20.876,0,0,0,4.1-4.8,2.764,2.764,0,0,0-1.5-4c-1.4-.7-4.7-1.2-6.2-1.6a6.111,6.111,0,0,1-4.4-5.2c-.2-2,.5-7.6.4-9.7a15.6,15.6,0,0,0-2.2-7.6c-1.6-2.2-4.1-3.2-8-2.7-2.9.4-5,1.4-6.2,3.1A9.21,9.21,0,0,0,73.8,21c.3,3.1,2.8,9.1,2.7,11.4s-1.8,4.3-4.5,5.5c-1.8.8-5.2,1.5-4.9,3.4A11.257,11.257,0,0,0,71.7,48a15.245,15.245,0,0,1,3.8,3.8c-2.3.2-5.1,2.9-7.3,1.3a4.117,4.117,0,0,0-5.6.1c-1.5,1.3-2.5,4.2-3.5,5.8A53.821,53.821,0,0,1,53,69.7a9.467,9.467,0,0,0,2.9.2c-.5,1-2.4,2.9-5.5,4.6,1.1.4,4.2.1,6.4-.2a14.934,14.934,0,0,1-7.4,4c1.5.5,3,.5,6.3.2-.7,1.3,1.2,5.5,3.6,6.7a4.454,4.454,0,0,1-2.9,1.2,7.539,7.539,0,0,0,6.2,3.2A7.809,7.809,0,0,1,59.9,92c1.9.8,5.7.8,7.5,1.1,2.9.4,8.1,2.3,9.2,3.6a6.511,6.511,0,0,1,.7,5.1" fill="#f2e9cb"/>
        <path id="パス_203" d="M84.5,104.5c2.8,1.3,6.1,2.8,7,3.4a22.788,22.788,0,0,0,5.6,2.3c-.9-3.7,2.4-7,4.9-8.2,1-1.5,4-1.3,5.3-1.1a5.025,5.025,0,0,1,2.4.6,27.743,27.743,0,0,0,6.7,4.4c3,1.2,7.2,3.2,8.2,4.9s1.4,3.9.7,5.2-1.9,1.8-4.3,1.5a9.387,9.387,0,0,1-6.4.1c-1.4.5-5.5.4-7-.8,0,1.1-.5,2.8-1.5,3.3a7.594,7.594,0,0,1-4.2.6c-1.6.7-3.8.8-6.8,0-2.3.8-7.4-.6-9.3-1.1a48.462,48.462,0,0,0-9.3-.6,5.8,5.8,0,0,1-4.1-5.4c-.1-1.5,1.3-4,3.7-6.1.4-1.6,5.6-3.8,8.4-3" fill="#f2e9cb"/>
        <path id="パス_204" d="M3,94.5c-.6,3.3.2,7.1,2.7,8.1a8.372,8.372,0,0,0,4.7.2,7.192,7.192,0,0,0,4.8-.1,5.158,5.158,0,0,0,5.1-.4c1.1-1.1,1-2.6.8-3.9s-1.2-4.4-2.5-5.3-4.8-.4-6.7-.6a8.921,8.921,0,0,1-5.2-2.8c-1-1.2-2.9,1.7-3.7,4.8" fill="#f2e9cb"/>
        <path id="パス_205" d="M109.1,22.1a7.425,7.425,0,0,0,6.8-.3c2.8-1.8,4.5-5.3,5.2-8.8s1.2-7.7.4-8.8c-.8-1-2.5-.6-5.5.3-3.2,1-9.6,4.2-11,6.1a6.7,6.7,0,0,0-1.2,6.1c.4,1.8,2.5,3.9,5.3,5.4" fill="#f2e9cb"/>
        <path id="パス_206" d="M58.3,22.4c-.1-2.2-1.5-3.3-3.4-4.6a33.1,33.1,0,0,0-12.2-4c-1.2-.1-1.8.6-1.4,2a45.112,45.112,0,0,0,3.9,10c1.3,2.3,3.1,4.4,4.9,5,2.2.8,3.7.8,5.2-.7,1.2-1.4,3.1-5.8,3-7.7" fill="#f2e9cb"/>
        <path id="パス_207" d="M70.1,30.2c-2,.1-2.4,2.1-2.3,3.2s.9,2.9,2.4,2.8a2.757,2.757,0,0,0,2.6-2.8v-.2a3.038,3.038,0,0,0-2.7-3" fill="#f2e9cb"/>
        <path id="パス_208" d="M96.2,26.9c-2,.1-2.4,2.1-2.3,3.2s.9,2.9,2.4,2.8a2.757,2.757,0,0,0,2.6-2.8v-.2c-.2-1.6-1.3-3.1-2.7-3" fill="#f2e9cb"/>
        <path id="パス_209" d="M83.8,30.7c-2.3.3-5,1.6-4.8,3.3a5.46,5.46,0,0,0,5.2,4c2.8,0,5.3-2.3,5.2-4.5s-3.1-3.2-5.6-2.8" fill="#f2e9cb"/>
        <path id="パス_210" d="M77.2,101.9h-.1a.365.365,0,0,1-.2-.5,5.542,5.542,0,0,0-.8-4.5c-1-1.2-6.1-3.1-9-3.5-.5-.1-1.3-.1-2-.2a21.141,21.141,0,0,1-5.6-.9.365.365,0,0,1-.2-.5c0-.1.1-.1.2-.2a5.954,5.954,0,0,0,2.1-1.8,7.9,7.9,0,0,1-5.8-3.3.188.188,0,0,1,0-.3c.1-.1.2-.2.3-.2a4.006,4.006,0,0,0,2.3-.8,8.43,8.43,0,0,1-3.2-4.6,3.722,3.722,0,0,1-.2-1.8c-3,.2-4.5.3-5.9-.3-.2-.1-.3-.3-.2-.4,0-.1.1-.2.3-.2a18.285,18.285,0,0,0,2.5-.8c.2-.1.4,0,.4.2.1.2,0,.4-.2.4-.4.2-.8.3-1.3.5a26.927,26.927,0,0,0,4.9-.1c.1,0,.3,0,.3.2.1.1.1.2,0,.4a2.749,2.749,0,0,0,.1,1.8,7.669,7.669,0,0,0,3.3,4.4c.2.1.2.3.2.5a.1.1,0,0,1-.1.1,4.2,4.2,0,0,1-2.5,1.2,6.734,6.734,0,0,0,5.6,2.5c.1,0,.3.1.3.2a.3.3,0,0,1,0,.4,8.379,8.379,0,0,1-2.1,2.1,18.352,18.352,0,0,0,4.7.6c.8.1,1.5.1,2.1.2,2.8.4,8.2,2.3,9.4,3.8a6.008,6.008,0,0,1,.9,5.2c-.2.1-.3.2-.5.2" fill="#f2e9cb"/>
        <path id="パス_211" d="M53.3,77a.43.43,0,0,1-.4-.4c0-.1.1-.2.2-.3a18.824,18.824,0,0,0,2.3-1.6,20.632,20.632,0,0,1-5.5.1c-.2-.1-.3-.3-.2-.4a.215.215,0,0,1,.2-.2,16.071,16.071,0,0,0,5-4,19.419,19.419,0,0,1-2.4-.2c-.2-.1-.3-.2-.2-.4a.1.1,0,0,1,.1-.1,21.871,21.871,0,0,0,1.4-2c.1-.2.3-.2.5-.1s.2.3.1.5h0c-.4.6-.8,1.1-1.1,1.6a17.7,17.7,0,0,0,2.3.1.446.446,0,0,1,.4.3v.2a14.19,14.19,0,0,1-4.8,4.3,32.723,32.723,0,0,0,5.4-.4.4.4,0,0,1,.4.2c.1.1,0,.3-.1.4a15.942,15.942,0,0,1-3.3,2.5c-.2-.1-.2-.1-.3-.1" fill="#f2e9cb"/>
        <path id="パス_212" d="M55.2,66.2a.446.446,0,0,1-.4-.3c0-.1,0-.1.1-.2.7-1.1,1.6-2.8,2.6-4.8a8.712,8.712,0,0,1-4.4,1.6c-.2,0-.4-.1-.4-.3,0-.1,0-.2.1-.2A17.048,17.048,0,0,0,55,55.8a6.136,6.136,0,0,1-1.7,1.9c-.2.1-.4.1-.5-.1a.367.367,0,0,1-.1-.3,25.422,25.422,0,0,0,.1-8.7,14.787,14.787,0,0,1-.1-4.2c0-.2.2-.3.4-.3h0c.2,0,.3.2.3.4a13.5,13.5,0,0,0,.1,4,30.558,30.558,0,0,1,.1,8,6.9,6.9,0,0,0,1.5-2.8.52.52,0,0,1,.4-.2.265.265,0,0,1,.3.3c.3,1.5-.7,5.7-2,8a6.254,6.254,0,0,0,4.7-3c.1-.2.3-.2.5-.1.1.1.2.3.1.4A45.237,45.237,0,0,1,55.5,66c-.1.1-.2.2-.3.2" fill="#f2e9cb"/>
        <path id="パス_213" d="M107.5,117.1a.265.265,0,0,1-.3-.3,6.571,6.571,0,0,0-4.2-5.4,28.957,28.957,0,0,0-4.1-.6c-.7-.1-1.3-.1-1.8-.2a20.337,20.337,0,0,1-5.7-2.4c-1.2-.8-6.6-3.2-9.5-4.5l-.6-.3a17.523,17.523,0,0,0-5.1-1.4c-.8-.2-1.6-.3-2.4-.5-.2,0-.3-.2-.3-.4s.2-.3.4-.3h0c.8.2,1.5.3,2.3.5a22.281,22.281,0,0,1,5.2,1.5l.6.3c2.9,1.3,8.3,3.8,9.6,4.6a26.634,26.634,0,0,0,5.5,2.3c.4.1,1,.1,1.7.2a20.476,20.476,0,0,1,4.2.7c2.3.6,4.4,3.2,4.7,6,.2,0,.1.2-.2.2h0" fill="#f2e9cb"/>
        <path id="パス_214" d="M90.7,106.3c-.1,0-.2,0-.2-.1a.454.454,0,0,1,0-.5h0c1.2-1.3,1.5-2.5,1.6-6.1,0-.1.1-.3.2-.3.9-.4,1.4-.9,3.1-2.7l.8-.9c.1-.1.1-.1.2-.1a22.8,22.8,0,0,0,5.9-2,.381.381,0,1,1,.3.7,25.661,25.661,0,0,1-6.1,2l-.7.8a13.114,13.114,0,0,1-3.1,2.8c-.1,3.3-.3,4.8-1.8,6.3,0,.1-.1.1-.2.1" fill="#f2e9cb"/>
        <path id="パス_215" d="M17.2,90.1c-.1,0-.2,0-.2-.1a.454.454,0,0,1,0-.5h0c1.2-1.2,3.3-8.2,4.3-12.3a23.987,23.987,0,0,0-.2-11.9c-.1-.2,0-.4.2-.4.2-.1.4,0,.4.2A25.612,25.612,0,0,1,22,77.4c-.9,3.7-3,11.2-4.5,12.7h-.3" fill="#f2e9cb"/>
        <path id="パス_216" d="M50.4,89.5h0c-.3-.1-.4-.2-.3-.4a23.758,23.758,0,0,0,.6-3.7c0-.2.2-.3.4-.3a.319.319,0,0,1,.3.3,26.291,26.291,0,0,1-.6,3.9.52.52,0,0,1-.4.2" fill="#f2e9cb"/>
        <path id="パス_217" d="M45.4,108.6a.265.265,0,0,1-.3-.3c-.5-2.7.3-6.4,2.2-10.5.8-1.9,1.4-3.8,2-5.7.1-.2.3-.3.4-.2.2.1.3.3.2.4a39.738,39.738,0,0,1-2,5.8c-1.9,4-2.6,7.4-2.2,10,.1.3,0,.5-.3.5h0" fill="#f2e9cb"/>
        <path id="パス_218" d="M109.9,22.7a14.873,14.873,0,0,1-3.6-.5c-.1,0-.2-.2-.2-.3s.2-.2.3-.2c1.9.6,5,.7,6.6-.1a.192.192,0,0,1,.3.1c.1.1,0,.2-.1.3a7.536,7.536,0,0,1-3.3.7" fill="#f2e9cb"/>
        <path id="パス_219" d="M104.8,21.5h-.1a.367.367,0,0,1-.1-.3h0l.6-.9a31.167,31.167,0,0,1,3.2-4,.212.212,0,1,1,.3.3h0a23.8,23.8,0,0,0-3.1,4l-.6.9c0-.1-.1,0-.2,0" fill="#f2e9cb"/>
        <path id="パス_220" d="M104,19.2h0c-.2,0-.3-.2-.2-.3a20.024,20.024,0,0,0,.4-2.4,20.022,20.022,0,0,1,.4-2.4c0-.1.2-.2.3-.2s.2.2.2.3h0a20.024,20.024,0,0,0-.4,2.4,20.022,20.022,0,0,1-.4,2.4c0,.1-.1.2-.3.2" fill="#f2e9cb"/>
        <path id="パス_221" d="M59.1,25c-.1,0-.2,0-.2-.1a10.3,10.3,0,0,0-4-2.9c-.1-.1-.2-.2-.1-.3s.2-.2.3-.1,3.1,1.4,4.2,3.1a.192.192,0,0,1-.1.3h-.1" fill="#f2e9cb"/>
        <path id="パス_222" d="M55,27.5a7.569,7.569,0,0,1-1.5-.1c-.1,0-.2-.2-.2-.3a.215.215,0,0,1,.2-.2,19.325,19.325,0,0,0,4.8-.2c.1,0,.3,0,.3.2,0,.1,0,.3-.2.3h0a9.61,9.61,0,0,1-3.4.3" fill="#f2e9cb"/>
        <path id="パス_223" d="M53,29.7h-.4a.215.215,0,0,1-.2-.2h0a.215.215,0,0,1,.2-.2h0a9.255,9.255,0,0,0,4.6-.9.192.192,0,0,1,.3.1c0,.1,0,.3-.1.3h0a11.174,11.174,0,0,1-4.4.9" fill="#f2e9cb"/>
        <path id="パス_224" d="M97.7,43.4c-3.3,1.1-8,.1-10.4-.9a4.06,4.06,0,0,1-2.6-2.2,6.248,6.248,0,0,1-2.1,2.9,15.976,15.976,0,0,1-4.5,2.3,12.345,12.345,0,0,1-4.7.4v.2c.2,1.5,2.1,3.4,4.5,5.3,1.9,1.5,4.9,2.3,8.9,1.7,4.2-.6,6.1-2,7.8-3.7a14.809,14.809,0,0,0,2.9-5.2,2.354,2.354,0,0,0,.2-.8" fill="#f2e9cb"/>
        <path id="パス_225" d="M78.7,45.2a12.78,12.78,0,0,0,3.8-2.1,5.63,5.63,0,0,0,2.1-2.9,3.837,3.837,0,0,0,2.6,2.2,16.9,16.9,0,0,0,4.4,1.2c.1.1.1.3.2.5,1.2,2.4,2.3,6.7,1.1,10-1,2.8-4.1,4.2-7.3,4.3-2.9.1-5.3-2-6.6-4.1-1.1-2-.8-6.6-.5-8.3a1.345,1.345,0,0,0,.2-.8" fill="#f2e9cb"/>
        <path id="パス_226" d="M74.7,46.3a9.862,9.862,0,0,1-2.4-.3,5.773,5.773,0,0,1-3.5-2.6.381.381,0,1,1,.7-.3h0a4.8,4.8,0,0,0,3,2.2,9.891,9.891,0,0,0,5.4-.2,13.984,13.984,0,0,0,4.4-2.2,6,6,0,0,0,2-2.7c0-.1.2-.2.3-.2.2,0,.3.1.3.2a3.781,3.781,0,0,0,2.4,2c2.4,1,7.1,2.1,10.3.9a4.688,4.688,0,0,0,3.1-3.2c0-.2.2-.3.4-.3s.3.2.3.4a5.148,5.148,0,0,1-3.5,3.7c-3.4,1.3-8.3.2-10.8-.9a4.63,4.63,0,0,1-2.4-1.7,7.1,7.1,0,0,1-1.9,2.3,16.529,16.529,0,0,1-4.6,2.3,10.734,10.734,0,0,1-3.5.6" fill="#f2e9cb"/>
        <path id="パス_227" d="M78.4,52h-.1c-.2-.1-.3-.2-.5-.3-2.9-2.2-4.4-4-4.6-5.5,0-.1.1-.2.2-.3h0c.1,0,.2.1.3.2.2,1.3,1.7,3.1,4.5,5.2.1.1.3.2.4.3a.367.367,0,0,1,.1.3c-.2,0-.2.1-.3.1" fill="#f2e9cb"/>
        <path id="パス_228" d="M93.5,50.7c-.1,0-.1,0-.2-.1a.188.188,0,0,1,0-.3h0a11.408,11.408,0,0,0,1.1-1.1,17.253,17.253,0,0,0,2.9-5.1c0-.1.2-.2.3-.2s.2.2.2.3a18.58,18.58,0,0,1-3,5.3,11.408,11.408,0,0,1-1.1,1.1.31.31,0,0,1-.2.1" fill="#f2e9cb"/>
        <path id="パス_229" d="M85.5,58.8c-3.1,0-5.5-2.2-6.7-4.3s-.8-6.9-.6-8.5c0-.2.2-.3.4-.3s.3.2.3.4c-.3,1.9-.6,6.3.5,8.1,1.1,1.9,3.3,4,6.2,3.9,3.5-.1,6.1-1.7,7-4.1,1.2-3.3,0-7.6-1.1-9.7a.365.365,0,0,1,.2-.5.44.44,0,0,1,.5.1c1.2,2.2,2.4,6.8,1.2,10.3-1,2.7-3.9,4.4-7.7,4.6h-.2" fill="#f2e9cb"/>
        <path id="パス_230" d="M98.9,121.5a16.518,16.518,0,0,1-3.8-.5c-2.2.7-6.5-.4-8.8-1l-.6-.2a26.956,26.956,0,0,0-2.8-.4c-.2,0-.3-.2-.3-.4s.2-.3.4-.3h0a25.349,25.349,0,0,1,2.9.4l.6.2c2.1.5,6.5,1.7,8.5.9h.2c2.8.7,5,.7,6.5,0h.2a5.861,5.861,0,0,0,3.9-.5,4.019,4.019,0,0,0,1.3-3c0-.2.2-.3.4-.3a.319.319,0,0,1,.3.3c0,1.1-.5,3-1.6,3.6a6.362,6.362,0,0,1-4.3.6,5.087,5.087,0,0,1-3,.6" fill="#f2e9cb"/>
        <path id="パス_231" d="M81.2,119.4h0c-1.4-.1-3-.1-4.7-.1-1.1,0-11.2,0-16.1-.9-3.4-.6-7.6-2.5-10.1-3.6a15.615,15.615,0,0,0-1.7-.7,6.592,6.592,0,0,1-3.4-4.4c-2,.3-7.7-.7-10.2-3.2-1.7.3-8.1-1.1-12.3-2.7-.2-.1-.3-.3-.2-.4.1-.2.3-.3.4-.2h0c4.4,1.7,11,3,12.1,2.7a.6.6,0,0,1,.4.1c2.4,2.6,8.6,3.5,9.9,3.1h.3l.2.2a5.6,5.6,0,0,0,3.1,4.2c.4.2,1,.4,1.7.8,2.5,1.1,6.7,3,10,3.6,4.8.8,14.8.8,15.9.8,1.7,0,3.3,0,4.7.1.2,0,.3.2.3.4,0,.1-.1.2-.3.2" fill="#f2e9cb"/>
        <path id="パス_232" d="M17.5,103.6a5.932,5.932,0,0,1-2.3-.5,7.179,7.179,0,0,1-4.8.1,9.732,9.732,0,0,1-4.8-.3c-2.7-1-3.5-5.1-2.9-8.5.1-.3.1-.6.2-1a9.292,9.292,0,0,0-.7-7.5C.3,82.3-.8,72,.7,66.5S9.4,53.4,15.4,49.2c6.3-4.4,15-3.1,18.7-2.5h.2c7.6,1.1,13.9.3,16.6-1a.365.365,0,0,1,.5.2c.1.2,0,.4-.2.4-2.7,1.3-9.2,2.2-17,1.1H34c-3.6-.5-12.1-1.8-18.2,2.4C9.9,53.9,2.9,61.4,1.4,66.8S1,82.2,2.8,85.7a10.513,10.513,0,0,1,.7,8c-.1.3-.1.6-.2.9-.6,3.1.2,6.8,2.4,7.7a9.8,9.8,0,0,0,4.5.2h.3a6.942,6.942,0,0,0,4.5-.1.188.188,0,0,1,.3,0,4.611,4.611,0,0,0,4.8-.4c.2-.1.4-.1.5.1s.1.4-.1.5h0a5.389,5.389,0,0,1-3,1" fill="#f2e9cb"/>
        <path id="パス_233" d="M109.1,82.1h0a.43.43,0,0,1-.4-.4,8.2,8.2,0,0,0-.2-2.2c0-.2,0-.3.2-.4a17.48,17.48,0,0,0,3.9-2.8,4.282,4.282,0,0,1-2.2-.6c-.1-.1-.3-.1-.4-.2a.365.365,0,0,1-.2-.5c0-.1.1-.2.3-.2a9.83,9.83,0,0,0,1.6-.5,8.648,8.648,0,0,1,2.3-.6,16.944,16.944,0,0,0-2.3-4.9l-.2-.3c-.1-.2-.1-.4.1-.5.1,0,.1-.1.2-.1a3.98,3.98,0,0,1,3.1,1.1,9.082,9.082,0,0,0-.7-4.3v-.3a.215.215,0,0,1,.2-.2,9.017,9.017,0,0,0,3.6-2.5l.2-.2a7.725,7.725,0,0,0-1.9-1.7c-.2-.1-.2-.3-.1-.5,0-.1.1-.1.2-.2,1.3-.5,1.2-.9.6-3,0-.2,0-.4.2-.4.2-.1.3,0,.4.1a9.013,9.013,0,0,1,.5.9,21.633,21.633,0,0,0-1.1-8.4c-.3-.8-.8-1.6-1.2-2.4a14.649,14.649,0,0,1-1.8-3.8.3.3,0,0,1,.2-.4.6.6,0,0,1,.4.1,3.424,3.424,0,0,0,2.7,1.2,15.118,15.118,0,0,1-3.6-4.7.365.365,0,0,1,.2-.5h.3c.7.3,1.1.3,1.6-.6.4-.8.1-3.7-1.2-7.3a.365.365,0,0,1,.2-.5h.3a38.533,38.533,0,0,1,3.5,3.5l.3.3c0-2.9-1.1-5.2-3.1-6.3a.758.758,0,0,1-.2-.4c.1-.2.2-.3.4-.2a5.238,5.238,0,0,1,2.6,1,11.023,11.023,0,0,0-2.6-3.1c-.1-.1-.2-.4,0-.5a.367.367,0,0,1,.3-.1,3.824,3.824,0,0,0,4.1-2c-.5.1-1,.3-1.4.4-.2,0-.3,0-.4-.2-.1-.1,0-.3.1-.4a12.892,12.892,0,0,0,3.6-5.6,40.965,40.965,0,0,0,1.1-13.5,2.035,2.035,0,0,0-.6-1.5A2.263,2.263,0,0,0,121,.7c-3.5.7-12.4,4.3-14.9,5.6-2.8,1.5-3.7,2.9-4.2,4-.8,1.6-2.7,1.4-3.4,1.3a14.657,14.657,0,0,1-4-1.4,22.02,22.02,0,0,0-2.1-.9A20.764,20.764,0,0,0,81.1,8.2c-5.6.8-8.5,2.7-9.8,3.7A12.667,12.667,0,0,0,70,13c-1.6,1.4-3.5,3-4.8,3.4a5.817,5.817,0,0,1-5.4-.9,33.656,33.656,0,0,0-10.4-3.6,44.141,44.141,0,0,0-7.3-.3,2.64,2.64,0,0,0-1.9.7,1.314,1.314,0,0,0-.3,1.2A57.16,57.16,0,0,0,43.6,25c1.3,2.7,3.1,5.3,4.3,6.1,2,1.5,3.8,1.9,5.4,1.4.2-.1.4,0,.4.2V33l-.3.4c-.8,1.3-1.6,2.7-.9,3.9a.3.3,0,0,1,0,.4,5.557,5.557,0,0,0-.6,4.7,4.173,4.173,0,0,1,2.4-2.3.6.6,0,0,1,.4.1.3.3,0,0,1,0,.4A10.425,10.425,0,0,0,53.6,44c0,.2-.2.3-.4.3s-.3-.2-.3-.4a8.981,8.981,0,0,1,.7-2.7,5.957,5.957,0,0,0-1.4,2.1.365.365,0,0,1-.5.2c-.1,0-.1-.1-.2-.1-1.1-1.6-.8-4.4.2-5.9-.7-1.5.1-2.9.9-4.2a7.184,7.184,0,0,1-5.1-1.7c-1.3-.9-3.1-3.6-4.5-6.4a55.134,55.134,0,0,1-3.8-11.7,2.319,2.319,0,0,1,.4-1.8,3.492,3.492,0,0,1,2.4-1,45.821,45.821,0,0,1,7.4.3,33.911,33.911,0,0,1,10.7,3.7,4.937,4.937,0,0,0,4.8.8c1.2-.3,3-1.9,4.5-3.3.5-.4.9-.8,1.3-1.1C72.3,9.8,75.4,8,80.8,7.2a22.773,22.773,0,0,1,13.8,2,17.062,17.062,0,0,0,3.8,1.3c1.5.2,2.3-.1,2.7-.9a10.074,10.074,0,0,1,4.5-4.4c2.5-1.4,11.4-5,15.1-5.7a2.57,2.57,0,0,1,2.4.3,2.518,2.518,0,0,1,.9,2,40.209,40.209,0,0,1-1.2,13.8,14.148,14.148,0,0,1-2.8,5.1,6.9,6.9,0,0,0,1-.4.365.365,0,0,1,.5.2v.3c-1.3,2.3-2.4,3.2-4.3,3.2,1.3,1.3,2.4,2.9,2.4,3.9,0,.1-.1.3-.2.3-.1.1-.3,0-.4,0a10.986,10.986,0,0,0-1.4-.9,8.667,8.667,0,0,1,2,6.7c0,.1-.1.3-.2.3a.6.6,0,0,1-.4-.1l-.8-.9c-.8-.9-1.7-1.9-2.4-2.6.8,2.7,1.4,5.6.7,6.7-.5.8-1,1.2-1.7,1.1a12.49,12.49,0,0,0,3.7,4.2c.2.1.2.3.1.5,0,.1-.1.1-.2.2a4.035,4.035,0,0,1-3.2-.5,18.343,18.343,0,0,0,1.3,2.4,19.649,19.649,0,0,1,1.3,2.5,25.919,25.919,0,0,1,1.1,10,.265.265,0,0,1-.3.3c-.2,0-.3,0-.4-.2v-.1a1.291,1.291,0,0,1-.9,1.3,14.481,14.481,0,0,1,1.8,1.7.454.454,0,0,1,0,.5,2.181,2.181,0,0,1-.5.4,10.718,10.718,0,0,1-3.5,2.5,11.054,11.054,0,0,1,.6,5.1c0,.2-.2.3-.4.3a.349.349,0,0,1-.2-.1,3.27,3.27,0,0,0-2.4-1.5,23.042,23.042,0,0,1,2.4,5.3.354.354,0,0,1-.4.4,5.834,5.834,0,0,0-2.6.6c-.2.1-.5.2-.7.3a3.6,3.6,0,0,0,2.3.2c.2,0,.4.1.4.3a.367.367,0,0,1-.1.3,18.822,18.822,0,0,1-4.5,3.5,14.769,14.769,0,0,1,.1,2.1c-.2.9-.3,1.1-.5,1.1" fill="#f2e9cb"/>
        <path id="パス_234" d="M117.6,118.4a9.928,9.928,0,0,1-3-.5,13.249,13.249,0,0,1-5.6-.1c-.2,0-.3-.2-.3-.4s.2-.3.4-.3h0a11.832,11.832,0,0,0,5.3.1h.2a9.418,9.418,0,0,0,6.2-.1h.2c2.6.3,3.5-.4,4-1.4.6-1.2.3-3.3-.7-4.9-.8-1.3-3.8-3-8.1-4.7a27.777,27.777,0,0,1-8.2-5.8,12.548,12.548,0,0,1-3-5.4,15.873,15.873,0,0,0-.7-2c-.1-.1,0-.3.1-.4a12.348,12.348,0,0,0,4-7.5c.1-.3.1-.7.2-1.1,0-.2.2-.3.4-.3s.3.2.3.4a3.6,3.6,0,0,1-.2,1.1,14.366,14.366,0,0,1-4,7.7,13.354,13.354,0,0,1,.7,1.8,11.153,11.153,0,0,0,2.8,5.1,28.127,28.127,0,0,0,8,5.6c2.6,1,7.2,3.1,8.4,5a5.792,5.792,0,0,1,.7,5.6c-.8,1.4-2.1,2-4.6,1.7a6.229,6.229,0,0,1-3.5.8" fill="#f2e9cb"/>
        <path id="パス_235" d="M97.4,29a.569.569,0,0,1-.4.7c-.3,0-.5-.2-.5-.6a.569.569,0,0,1,.4-.7,1.024,1.024,0,0,1,.5.6" fill="#f2e9cb"/>
        <path id="パス_236" d="M71.5,32.1a.569.569,0,0,1-.4.7c-.3,0-.5-.2-.5-.6a.569.569,0,0,1,.4-.7,1.024,1.024,0,0,1,.5.6" fill="#f2e9cb"/>
        <path id="パス_237" d="M55.2,49.5h0c-.2,0-.3-.1-.2-.3h0a17.552,17.552,0,0,1,2.3-6.8.212.212,0,1,1,.3.3c-1,1.3-1.9,4.4-2.2,6.6a.215.215,0,0,1-.2.2" fill="#f2e9cb"/>
        <path id="パス_238" d="M39.5,106.1a.349.349,0,0,1-.2-.1c-.7-1.6-1.5-5.1-.9-6.9,0-.1.2-.2.3-.2h0c.1,0,.2.2.2.3-.5,1.6.2,5,.9,6.6,0,.1,0,.2-.3.3h0" fill="#f2e9cb"/>
        <path id="パス_239" d="M34.9,98.6h0a.215.215,0,0,1-.2-.2c.1-2.1,1.4-5.8,2.8-7a.212.212,0,0,1,.3.3c-1.2,1.1-2.5,4.7-2.6,6.7-.1.1-.2.2-.3.2" fill="#f2e9cb"/>
        <path id="パス_240" d="M29.4,104.1a.215.215,0,0,1-.2-.2,8.471,8.471,0,0,1-.4-5.2c0-.1.2-.2.3-.2h0c.1,0,.2.2.2.3a8.206,8.206,0,0,0,.4,4.9c0,.2-.1.3-.3.4h0" fill="#f2e9cb"/>
        <path id="パス_241" d="M58,52.3h0c-.2,0-.2-.1-.2-.3a12.82,12.82,0,0,1,3.3-6.3.212.212,0,1,1,.3.3h0a11.217,11.217,0,0,0-3.1,6q-.15.3-.3.3" fill="#f2e9cb"/>
        <path id="パス_242" d="M112.3,39.7a.349.349,0,0,1-.2-.1,10.008,10.008,0,0,0-2.8-3.9.224.224,0,1,1,.2-.4,11.183,11.183,0,0,1,3,4.1.355.355,0,0,1-.2.3h0" fill="#f2e9cb"/>
        <path id="パス_243" d="M113.7,46.6c-.1,0-.1,0-.2-.1A19.4,19.4,0,0,1,110,42a.192.192,0,0,1,.1-.3.367.367,0,0,1,.3.1,17.906,17.906,0,0,0,3.4,4.4.188.188,0,0,1,0,.3c.1.1,0,.1-.1.1" fill="#f2e9cb"/>
        <path id="パス_244" d="M43.3,108.6c-.1,0-.1,0-.2-.1a16.251,16.251,0,0,1-2.1-4.4c0-.1,0-.3.2-.3.1,0,.3,0,.3.2a13.523,13.523,0,0,0,2,4.2.188.188,0,0,1,0,.3c-.1.1-.1.1-.2.1" fill="#f2e9cb"/>
        <path id="パス_245" d="M20.3,102.6c-.2,0-.3-.2-.3-.4,0-.1,0-.2.1-.2,1-.9.8-2.4.7-3.6s-1.2-4.2-2.3-5c-.8-.6-2.8-.5-4.4-.5H12c-.2,0-.3-.2-.3-.4s.2-.3.4-.3h2c1.8,0,3.8-.1,4.8.6,1.4,1,2.5,4.2,2.6,5.5s.3,3-.9,4.2a.367.367,0,0,1-.3.1" fill="#f2e9cb"/>
        <path id="パス_246" d="M14.9,92.8a.43.43,0,0,1-.4-.4.367.367,0,0,1,.1-.3,6.885,6.885,0,0,0,1.1-1.3c.1-.2.3-.2.5-.1s.2.3.1.5h0A8.636,8.636,0,0,1,15,92.6c.1.2,0,.2-.1.2" fill="#f2e9cb"/>
        <path id="パス_247" d="M76.2,63.4h-.1c-3.2-1.6-5.4-5.6-6.2-7l-.1-.1a.224.224,0,0,1,.4-.2h0l.1.1c.8,1.4,2.9,5.3,6,6.8.1.1.2.2.1.3a.349.349,0,0,1-.2.1" fill="#f2e9cb"/>
        <path id="パス_248" d="M80.7,65.9a.215.215,0,0,1-.2-.2,21.616,21.616,0,0,0-1.4-4.3c0-.1,0-.3.1-.3a.367.367,0,0,1,.3.1,22.535,22.535,0,0,1,1.4,4.4c.1.1,0,.3-.2.3h0" fill="#f2e9cb"/>
        <path id="パス_249" d="M87.9,65.9h-.1a8.331,8.331,0,0,1-2.6-3,.192.192,0,0,1,.1-.3c.1-.1.2,0,.3.1A6.84,6.84,0,0,0,88,65.6a.367.367,0,0,1,.1.3.139.139,0,0,0-.2,0" fill="#f2e9cb"/>
        <path id="パス_250" d="M93.8,64.6h-.1a.367.367,0,0,1-.1-.3,15.379,15.379,0,0,0,2.9-7.4c0-.1.1-.2.3-.2.1,0,.2.1.2.3a15.834,15.834,0,0,1-3,7.6.139.139,0,0,0-.2,0" fill="#f2e9cb"/>
        <path id="パス_251" d="M99.5,59.2a.215.215,0,0,1-.2-.2c0-.1,0-.1.1-.2a9.5,9.5,0,0,0,2.1-3.8c0-.1.2-.2.3-.2s.2.2.2.3h0a10.489,10.489,0,0,1-2.2,4c-.2.1-.2.1-.3.1" fill="#f2e9cb"/>
      </g>
    </g>
    <g id="グループ_1688" data-name="グループ 1688">
      <g id="グループ_283" transform="translate(5605.159 4362.104)">
        <path id="パス_96" d="M10.9,22.6c-2.4,1.5-5.2,6.9-6.3,9.1,1.5-.5,1.5-.7,3-.3a41.344,41.344,0,0,0-5.1,9.5c1.2-.3,1.5-.7,2.5-.5C2.8,43.4.6,51.6.3,53.4c1.5-.5,2-1.2,3-1.2A55.524,55.524,0,0,0,.9,63.5c0,1.5-.5,4.7.7,5.4,0,4.1-1,10,1,11,.5,4.1,7.1,11.2,7.6,14.7.3,2.3,1.7,8.7,2.9,10.8a21.3,21.3,0,0,1,2.3,5.6,5.294,5.294,0,0,0,2.6,3.6,29.738,29.738,0,0,1,5,4.2,8.524,8.524,0,0,1,.3,2.3,6.56,6.56,0,0,0,1.2,4.3,4.478,4.478,0,0,0,4.2,1.3,3.593,3.593,0,0,0,3.6.2,4.472,4.472,0,0,0,3.4-.2c.1.2.3.3.4.5a3.484,3.484,0,0,0,2.9,1c1.3.9,4.8.6,5.6.1a7.094,7.094,0,0,0,6.3-2.3,7.482,7.482,0,0,0,1.8-3.4c5-2.5,10.6-.1,12.2-3.1,2.3-.1,3.8-1.7,5.3-3.4,3.6-1,6.1-4.3,8.3-8,1.4-2.4,3.6-12.7,4.3-16.7,1-5.5-.3-15.2-1-20.1,1.5-1.5.7-9.3-.3-13.9,1.5-1.5-3-8.6-6.3-12.5a7.973,7.973,0,0,1,3.4.7,25.032,25.032,0,0,0-2.5-6.4c-2-2.5-4.6-5.1-6.9-5.8a12.6,12.6,0,0,1,3.3-1c-1.4-1.4-4.5-4-6.7-4.2a4.819,4.819,0,0,1,3.9-.7,33.549,33.549,0,0,0-7.4-8.1,8.388,8.388,0,0,0,1.1-4.1,60.312,60.312,0,0,0-1.3-9.5C61.7,4,60.8,3,59,3.3A24.381,24.381,0,0,0,48.7,9.1C46,7.9,37.3,6.7,34.9,7.8A26.983,26.983,0,0,0,26.7.6c-1.4-.7-2.6.1-3.3,1.5A65.985,65.985,0,0,0,20,13.6c-2.5.7-4.6,1-5.9.5.2,1.2,0,1.4.8,2.2-3.2.2-7.1,2.5-7.6,3.9a7.2,7.2,0,0,1,3.6,2.4" fill="#f3efe0"/>
        <path id="パス_97" d="M53.4,100.6c2.1-1.8,6.5-4.8,7-7.9,1.8.5,6.1-1.8,8.1-2.9-1-1-1.2-2.6-.9-4.5,2.1.5,3.3-1.5,5-1.9-1.2-.6-2.1-2.3-2.9-4.7,1.9.7,4.6.6,6.5,1.2-.7-.6-1.2-2.4-2.4-4.7s-.7-7.1-2-11.2a9.663,9.663,0,0,1,2.6,1.9c0-1.1-1.4-3.8-2.8-5.9a7.757,7.757,0,0,1,3.7.5A31.96,31.96,0,0,0,69,52.2a4.615,4.615,0,0,1,3.6-.6A16.467,16.467,0,0,0,65,44a37.522,37.522,0,0,0-9.8-3.2A15.893,15.893,0,0,1,50,39.1a15.707,15.707,0,0,0-7.6-2.9,16.678,16.678,0,0,0-7.6,1.5A23.5,23.5,0,0,1,28.4,39,38.9,38.9,0,0,0,20,40.5a26.9,26.9,0,0,0-8.1,4.1c-1.6,1.2-3.4,3.1-3.9,4.9a8,8,0,0,1,3.1-.3,10.629,10.629,0,0,0-3.6,3.7c1.2-.1,2.3.6,3.6.5a17.378,17.378,0,0,0-3,4.9,5.789,5.789,0,0,1,3.2-.3c-1.7,2.3-3.6,6.5-4.5,7.8a21.717,21.717,0,0,1,2.4-.7A87.075,87.075,0,0,0,6,73.6a19.808,19.808,0,0,1,3.3-.8C9,75.3,8.6,78,7.7,79.1a4.762,4.762,0,0,0,3.4-1.4c-.5,2-.1,5.3-.7,6.7,1.7-.3,2.4,0,3-.8-.9,2.7.2,7.1.9,9,.8,2,2.5,3.5,3.4,2.6a17.94,17.94,0,0,0,5.2,6.4,8.447,8.447,0,0,1-1.6-3.3,60.359,60.359,0,0,0,7.2,7.1,16.582,16.582,0,0,1-.8-3.7,10.767,10.767,0,0,0,5.6,4.9c-.2-1.2,2.6-3.6,3.2-5a8.892,8.892,0,0,1,.8,5.3c1.8-.8,5.2-4,5.8-5.4a4.872,4.872,0,0,1-.7,3.3c3.6-.9,11.2-6.3,11.9-7.5a9.538,9.538,0,0,1-.9,3.3" fill="#f3efe0"/>
        <path id="パス_98" d="M47.1,47.9a16.2,16.2,0,0,1-2.2-.1,5.362,5.362,0,0,1-2.7-1.1,7.11,7.11,0,0,1-3.8.6,12.1,12.1,0,0,1-1.9-.1v.2A6.681,6.681,0,0,0,40,51.1a5.8,5.8,0,0,0,4.1-.1A5.342,5.342,0,0,0,47,48l.1-.1" fill="#f3efe0"/>
        <path id="パス_99" d="M37.8,27.9a4.562,4.562,0,0,0-3-3.9c-2.3-.6-6.8.9-8.8,3.3-1.2,1.4-.3,3.3,1.6,2.5,1.7-.7,4.4-2.5,6.4-1s3.9,1.3,3.8-.9" fill="#f3efe0"/>
        <path id="パス_100" d="M46.8,27.9a3.986,3.986,0,0,1,3.1-2.5c2.3-.2,5.8,1.6,6.9,2.5s1.9,1.6,1.9,2.9-1.4,1.4-2.9.8A16.822,16.822,0,0,0,51.9,30a7.393,7.393,0,0,0-3.3.2,1.606,1.606,0,0,1-2-1,2.549,2.549,0,0,1,.2-1.3" fill="#f3efe0"/>
        <path id="パス_101" d="M23.1,119.1c-.2,0-.3-.1-.4-.3a15.326,15.326,0,0,0-1.1-2.7c-1.1-2.4-2.2-4.8-3.1-7.3a53.132,53.132,0,0,1-2.3-8.7c0-.2.1-.4.3-.4h0c.2,0,.4.1.4.3h0a52.008,52.008,0,0,0,2.3,8.6q1.35,3.6,3,7.2a14.763,14.763,0,0,1,1.2,2.9c.1.2-.1.4-.3.5h0c.1-.1.1-.1,0-.1" fill="#f3efe0"/>
        <path id="パス_102" d="M52.8,122.9h0a.51.51,0,0,1-.4-.5,7.487,7.487,0,0,0,.2-2.1,38.371,38.371,0,0,1,.9-8.3,48.338,48.338,0,0,1,2.2-6.4c.4-1,.8-2,1.1-2.8a50.3,50.3,0,0,0,1.9-6.3c0-.2.2-.3.4-.3h0c.2,0,.3.2.3.4h0a47.066,47.066,0,0,1-1.9,6.4c-.3.8-.7,1.8-1.1,2.8a45.689,45.689,0,0,0-2.2,6.2,37.238,37.238,0,0,0-.9,8.1,9.737,9.737,0,0,1-.2,2.4c.1.3-.1.4-.3.4" fill="#f3efe0"/>
        <path id="パス_103" d="M35.7,127c-.1,0-.2-.1-.3-.2a5.918,5.918,0,0,1-.7-2.9,34.69,34.69,0,0,1,.6-4.5l.2-1c.2-1.2-.3-5.6-.6-8.4-.1-1.3-.3-2.3-.3-2.9,0-.2.1-.4.3-.4s.4.1.4.3h0c0,.6.2,1.6.3,2.9a53.4,53.4,0,0,1,.6,8.7l-.2,1a31.089,31.089,0,0,0-.6,4.4,4.025,4.025,0,0,0,.5,2.4c.1.2.1.4-.1.5h0c.1.1,0,.1-.1.1" fill="#f3efe0"/>
        <path id="パス_104" d="M32,32.5a1.948,1.948,0,0,0-2,1.6c-.2.8,0,2.5,1.1,2.7a2.277,2.277,0,0,0,2.6-2,1.951,1.951,0,0,0-1.6-2.3H32" fill="#f3efe0"/>
        <path id="パス_105" d="M51.3,34.4A1.859,1.859,0,0,0,50,36.5c.1.9.8,2.3,2,2.2A2.421,2.421,0,0,0,53.8,36a1.951,1.951,0,0,0-2.3-1.6h-.2" fill="#f3efe0"/>
        <path id="パス_106" d="M43.7,39c-1.5-.2-3.2,0-4.1,1.1a2.889,2.889,0,0,0,.4,3.7,4.762,4.762,0,0,0,3.4,1.4,3.593,3.593,0,0,0,3.3-1.6c.7-1.2.9-2.1.4-3s-1.9-1.4-3.4-1.6" fill="#f3efe0"/>
        <path id="パス_107" d="M46.4,48.2a8.6,8.6,0,0,1-1.6-.1,6.3,6.3,0,0,1-2.7-1,8.016,8.016,0,0,1-3.7.6,13.326,13.326,0,0,1-4.9-.9,6.919,6.919,0,0,1-4.3-3.9.381.381,0,0,1,.7-.3,7.056,7.056,0,0,0,3.9,3.5,12.667,12.667,0,0,0,4.7.9,7.61,7.61,0,0,0,3.6-.6.3.3,0,0,1,.4,0,5.894,5.894,0,0,0,2.6,1,10.341,10.341,0,0,0,4.3-.3,2.917,2.917,0,0,0,1.9-2.8.43.43,0,0,1,.4-.4h0a.43.43,0,0,1,.4.4,3.456,3.456,0,0,1-2.4,3.5,9.628,9.628,0,0,1-3.3.4" fill="#f3efe0"/>
        <path id="パス_108" d="M42,51.8a5.222,5.222,0,0,1-2.1-.4,7.415,7.415,0,0,1-3.7-3.9.381.381,0,1,1,.7-.3,6.844,6.844,0,0,0,3.2,3.5,5.522,5.522,0,0,0,3.8-.1,4.959,4.959,0,0,0,2.7-2.8.381.381,0,0,1,.7.3,6.061,6.061,0,0,1-3.1,3.2,5.091,5.091,0,0,1-2.2.5" fill="#f3efe0"/>
        <path id="パス_109" d="M34.3,25.9c-.1,0-.2,0-.2-.1-1.2-1.6-6-4.1-8-4.5-.1,0-.2-.2-.2-.3s.2-.2.3-.2c2.1.5,7,3,8.3,4.7a.3.3,0,0,1,0,.4h-.2" fill="#f3efe0"/>
        <path id="パス_110" d="M30.2,27.3h0a20.52,20.52,0,0,0-6-.7c-.1,0-.2-.1-.3-.2h0c0-.1.1-.3.2-.3a18.2,18.2,0,0,1,6.1.7c.1,0,.2.2.2.3a.215.215,0,0,1-.2.2" fill="#f3efe0"/>
        <path id="パス_111" d="M48.5,27.6c-.1,0-.1,0-.2-.1a.3.3,0,0,1,0-.4c1.4-1.4,6.1-3.1,8.1-3,.1,0,.2.1.2.3s-.1.2-.3.2c-1.9-.1-6.4,1.6-7.7,2.9.1.1,0,.1-.1.1" fill="#f3efe0"/>
        <path id="パス_112" d="M60,29.6h0a20.172,20.172,0,0,0-6.8-1.1c-.1,0-.3-.1-.3-.2h0c0-.1.1-.3.2-.3h0a20.53,20.53,0,0,1,7,1.1c.1.1.2.2.1.3,0,.2-.1.2-.2.2" fill="#f3efe0"/>
        <path id="パス_113" d="M40.4,55.5a13.056,13.056,0,0,1-7.8-2.6.3.3,0,0,1,0-.4.188.188,0,0,1,.3,0,12.309,12.309,0,0,0,8.3,2.4,9.75,9.75,0,0,0,6.1-3.3c.1-.1.2-.1.4,0s.1.2,0,.4h0a11.005,11.005,0,0,1-6.5,3.5h-.8" fill="#f3efe0"/>
        <path id="パス_114" d="M63.8,76.6h-.1a26.611,26.611,0,0,1-7-5.5.283.283,0,0,1,.4-.4h0A27.581,27.581,0,0,0,64,76c.1.1.2.2.1.3-.1.3-.2.3-.3.3" fill="#f3efe0"/>
        <path id="パス_115" d="M54.5,87.1a.349.349,0,0,1-.2-.1,42.3,42.3,0,0,1-2.4-6.8c0-.1.1-.3.2-.3s.3.1.3.2h0a52.956,52.956,0,0,0,2.3,6.7.192.192,0,0,1-.1.3h-.1" fill="#f3efe0"/>
        <path id="パス_116" d="M51.5,104.4a.215.215,0,0,1-.2-.2c0-2.1-2.2-9-3.2-10.5a.192.192,0,0,1,.1-.3c.1,0,.3,0,.3.1,1.1,1.6,3.3,8.5,3.3,10.8-.1-.1-.2.1-.3.1" fill="#f3efe0"/>
        <path id="パス_117" d="M45.9,99.8c-.1,0-.2,0-.2-.1A21.91,21.91,0,0,1,43,90.8a.2.2,0,0,1,.4,0,22.628,22.628,0,0,0,2.7,8.7.192.192,0,0,1-.1.3h-.1" fill="#f3efe0"/>
        <path id="パス_118" d="M13.4,69.5c-.1,0-.2-.1-.2-.3a.349.349,0,0,1,.1-.2c1.1-.5,2.3-2,3.8-3.8l.3-.4a.3.3,0,0,1,.4,0,.188.188,0,0,1,0,.3l-.3.4c-1.6,2-2.8,3.5-4.1,4h0" fill="#f3efe0"/>
        <path id="パス_119" d="M14.6,80h0c-.2-.1-.3-.2-.2-.3a19.211,19.211,0,0,1,2.9-5,.283.283,0,1,1,.4.4h0a19.422,19.422,0,0,0-2.8,4.8c-.1,0-.2.1-.3.1" fill="#f3efe0"/>
        <path id="パス_120" d="M15.1,88.1h0c-.2,0-.3-.1-.2-.3.2-1.7,1.5-6.7,2.4-7.8a.3.3,0,0,1,.4,0,.188.188,0,0,1,0,.3c-.8.9-2.1,5.8-2.3,7.5q-.15.3-.3.3" fill="#f3efe0"/>
        <path id="パス_121" d="M28.6,99.1c-.1,0-.1,0-.2-.1-1.6-1.9-2.4-7.3-2.4-8.8a.2.2,0,0,1,.4,0c0,1.4.8,6.7,2.3,8.5a.3.3,0,0,1,0,.4h-.1" fill="#f3efe0"/>
        <path id="パス_122" d="M66,62.7c-.1,0-.1,0-.2-.1-1.3-1.6-6-4-8.2-4.5-.1,0-.2-.2-.2-.3s.2-.2.3-.2c2.2.5,7,2.9,8.4,4.7a.3.3,0,0,1,0,.4H66" fill="#f3efe0"/>
        <path id="パス_123" d="M36.4,11c-.2,0-.3-.1-.4-.3A8.67,8.67,0,0,0,34.6,8c-.1-.2-.1-.4.1-.5s.4-.1.5.1h0a11.431,11.431,0,0,1,1.5,2.9.365.365,0,0,1-.2.5h-.1" fill="#f3efe0"/>
        <path id="パス_124" d="M46.9,11.8a.43.43,0,0,1-.4-.4c0-.1,0-.1.1-.2a13.015,13.015,0,0,1,1.8-2.3.283.283,0,0,1,.5,0,.283.283,0,0,1,0,.5h0a18.4,18.4,0,0,0-1.7,2.2c0,.1-.2.2-.3.2" fill="#f3efe0"/>
        <path id="パス_125" d="M32.8,9.8c-.5-1.3-4.4-5-5.6-6s-2-.3-2.4.9a52.183,52.183,0,0,0-1.9,7.8,1.235,1.235,0,0,0,.9,1.4,1.02,1.02,0,0,0,.9-.2,20.631,20.631,0,0,1,3.5-1.2c1.2-.3,2.3-.5,3.5-.7a1.548,1.548,0,0,0,1.1-1.9c.1,0,.1,0,0-.1" fill="#f3efe0"/>
        <path id="パス_126" d="M51.3,11.9c.7-1.2,5-4.4,6.4-5.1s2,0,2.3,1.2a52.89,52.89,0,0,1,.8,8,1.135,1.135,0,0,1-1.1,1.2,1.613,1.613,0,0,1-.9-.3,20.585,20.585,0,0,0-3.3-1.7c-1.1-.4-2.2-.8-3.4-1.2a1.507,1.507,0,0,1-.8-2c-.1,0,0,0,0-.1" fill="#f3efe0"/>
        <path id="パス_127" d="M41.9,129.1a5.829,5.829,0,0,1-2.9-.6,3.767,3.767,0,0,1-3-1.1c-.2-.2-.4-.3-.5-.5s-.1-.4.1-.5.4-.1.5.1h0c.1.1.2.3.4.4a3.114,3.114,0,0,0,2.6.9.367.367,0,0,1,.3.1c1.2.8,4.5.6,5.2.1a.367.367,0,0,1,.3-.1,6.822,6.822,0,0,0,6-2.2,7.625,7.625,0,0,0,1.7-3.2c0-.2.3-.3.5-.3s.3.3.3.5h0a8.011,8.011,0,0,1-1.9,3.5,8.113,8.113,0,0,1-6.6,2.5,11.282,11.282,0,0,1-3,.4" fill="#f3efe0"/>
        <path id="パス_128" d="M30.9,127.6a3.936,3.936,0,0,1-2.1-.6,5.13,5.13,0,0,1-4.5-1.5,6.821,6.821,0,0,1-1.2-4.6,7.613,7.613,0,0,0-.3-2.1.55.55,0,0,1,.3-.5c.2,0,.4.1.4.2a4.986,4.986,0,0,1,.3,2.4,6.694,6.694,0,0,0,1.1,4.1,4.317,4.317,0,0,0,3.7,1.2.188.188,0,0,1,.3,0c1.7.8,2.5.6,3.2.2a.188.188,0,0,1,.3,0,4.421,4.421,0,0,0,2,.2c.2,0,.4.1.4.3s-.1.4-.3.4h0a4.533,4.533,0,0,1-2.3-.2,1.536,1.536,0,0,1-1.3.5" fill="#f3efe0"/>
        <path id="パス_129" d="M21.5,117.6a.367.367,0,0,1-.3-.1,16.436,16.436,0,0,0-3.3-2.6,5.425,5.425,0,0,1-2.8-3.8,22.1,22.1,0,0,0-2.3-5.5c-1.2-2.3-2.6-8.7-2.9-10.9a12.263,12.263,0,0,0-1.9-4c-.1-.2-.1-.4.1-.5s.4-.1.5.1h0a13.035,13.035,0,0,1,2,4.3c.3,2.1,1.7,8.5,2.8,10.7a24.5,24.5,0,0,1,2.3,5.6,5.084,5.084,0,0,0,2.4,3.3,22.413,22.413,0,0,1,3.4,2.7.283.283,0,0,1,0,.5c.2.1.1.2,0,.2" fill="#f3efe0"/>
        <path id="パス_130" d="M6.8,88.2c-.1,0-.2-.1-.3-.2-1.8-2.8-3.7-5.7-4.1-7.9-1.6-1-1.4-4.4-1.2-8,.1-1.1.1-2.1.1-3-.9-.8-.8-2.8-.7-4.5V63.5a59.758,59.758,0,0,1,1.7-9.4.365.365,0,0,1,.5-.2c.2.1.3.3.2.4a48.088,48.088,0,0,0-1.7,9.2v1.2c-.1,1.4-.2,3.5.5,3.9.1.1.2.2.2.3,0,1-.1,2.2-.1,3.3-.2,3.2-.4,6.7.9,7.4.1.1.2.2.2.3C3.3,82,5.2,85,7,87.7c.2.1.2.3,0,.5H6.8" fill="#f3efe0"/>
        <path id="パス_131" d="M.4,53.7a.43.43,0,0,1-.4-.4v-.1C.3,51.3,2.3,44,4.4,40.6a2.92,2.92,0,0,0-.9.2,2.01,2.01,0,0,1-.8.4c-.2.1-.4-.1-.5-.3v-.2A39.625,39.625,0,0,1,7,31.6a2.851,2.851,0,0,0-1.6.2,1.445,1.445,0,0,1-.7.2.6.6,0,0,1-.4-.1.6.6,0,0,1-.1-.4A41.413,41.413,0,0,1,8.7,24a.348.348,0,0,1,.5-.1c.1.1.2.4.1.5h0a39.09,39.09,0,0,0-4,6.5,3.91,3.91,0,0,1,2.4.1c.2,0,.3.2.3.4,0,.1,0,.1-.1.2a48.375,48.375,0,0,0-4.8,8.6h.1A2.491,2.491,0,0,1,5.1,40c.2,0,.3.2.3.4,0,.1,0,.1-.1.2C3.4,43.3,1.4,50.2.8,52.8a5.937,5.937,0,0,0,.8-.4,3.371,3.371,0,0,1,1.7-.5.4.4,0,0,1,0,.8,2.106,2.106,0,0,0-1.3.5,7.741,7.741,0,0,1-1.6.7c.1-.2,0-.2,0-.2" fill="#f3efe0"/>
        <path id="パス_132" d="M10.9,22.9a.367.367,0,0,1-.3-.1,6.522,6.522,0,0,0-3.4-2.2c-.2,0-.3-.3-.3-.5h0c.6-1.5,4.1-3.6,7.2-4.1a2.01,2.01,0,0,1-.4-1.3,1.268,1.268,0,0,0-.1-.6c0-.2.1-.4.3-.4h.2c1.3.5,3.5.1,5.5-.5A64.938,64.938,0,0,1,23,1.8C23.9.1,25.3-.5,26.8.2a29.527,29.527,0,0,1,8.4,7.3c.1.2.1.4-.1.5s-.4.1-.5-.1h0A26.3,26.3,0,0,0,26.5.8a2.133,2.133,0,0,0-2.8,1.3,57.128,57.128,0,0,0-3.3,11.4.265.265,0,0,1-.3.3,15.149,15.149,0,0,1-5.6.7h0a1.622,1.622,0,0,0,.7,1.4.6.6,0,0,1,.1.4c-.1.1-.2.2-.3.2a11.228,11.228,0,0,0-7.1,3.3,7.838,7.838,0,0,1,3.3,2.4.446.446,0,0,1,0,.5c-.2.2-.2.2-.3.2" fill="#f3efe0"/>
        <path id="パス_133" d="M47.1,9h0A34.164,34.164,0,0,0,36.6,7.9c-.2,0-.4-.1-.4-.3h0c0-.2.1-.4.3-.4h0A32.33,32.33,0,0,1,47.2,8.4a.55.55,0,0,1,.3.5c-.1-.1-.3.1-.4.1" fill="#f3efe0"/>
        <path id="パス_134" d="M69.2,33.8a.43.43,0,0,1-.4-.4c0-.1.1-.3.2-.3a12.238,12.238,0,0,1,2.7-.9c-1.5-1.4-4.1-3.4-5.9-3.5a.265.265,0,0,1-.3-.3c0-.2,0-.3.1-.4a5.155,5.155,0,0,1,3.4-.9,31.862,31.862,0,0,0-6.9-7.3c-.2-.1-.2-.3-.1-.5a6.9,6.9,0,0,0,1-3.9,61.956,61.956,0,0,0-1.3-9.5c-.4-1.8-1.2-2.5-2.7-2.2-1.6.3-7.2,2.6-10.1,5.7a.454.454,0,0,1-.5,0,.454.454,0,0,1,0-.5A24.738,24.738,0,0,1,58.9,3c1.3-.3,3,0,3.6,2.8a63.229,63.229,0,0,1,1.3,9.6,7.924,7.924,0,0,1-1,4,36.527,36.527,0,0,1,7.2,8,.3.3,0,0,1,0,.4.52.52,0,0,1-.4.2,5.36,5.36,0,0,0-2.8.2,16.987,16.987,0,0,1,5.9,4.1.454.454,0,0,1,0,.5c-.1.1-.1.1-.2.1a9.014,9.014,0,0,0-3.2.9c0-.1,0,0-.1,0" fill="#f3efe0"/>
        <path id="パス_135" d="M78.7,45.9h-.1a11.433,11.433,0,0,0-3.2-.7c-.2.1-.4,0-.4-.2-.1-.2.1-.4.3-.5h0a5.759,5.759,0,0,1,2.9.5,22.788,22.788,0,0,0-2.3-5.6,25.859,25.859,0,0,0-4-4.1.361.361,0,0,1,.4-.6A20.913,20.913,0,0,1,76.4,39c1.1,1.4,2.3,5.4,2.6,6.6.1.1,0,.3-.3.3h0" fill="#f3efe0"/>
        <path id="パス_136" d="M81.9,71.7a.43.43,0,0,1-.4-.4.367.367,0,0,1,.1-.3c1.2-1.2.8-8.1-.4-13.5,0-.1,0-.3.1-.3.8-.8-1-4.8-4.2-9.4-.1-.2-.1-.4.1-.5s.4-.1.5.1h0c1.8,2.5,5.6,8.3,4.3,10.2.9,3.9,2,12.3.2,14-.1,0-.2.1-.3.1" fill="#f3efe0"/>
        <path id="パス_137" d="M55,122.1a.43.43,0,0,1-.4-.4c0-.2.1-.3.3-.4a19.891,19.891,0,0,1,4.9-.5c2.3-.1,4.2-.2,4.9-1.5.1-.1.2-.2.3-.2,2.1-.1,3.6-1.5,5.1-3.3,0-.1.1-.1.2-.1,3.5-1,6-4.3,8.1-7.8,1.3-2.1,3.3-11.3,4.3-16.5.5-3.4.3-8.9-.7-16.7,0-.2.1-.4.3-.4h0c.2,0,.4.1.4.3h0c1,7.9,1.2,13.4.6,16.9-.7,3.8-2.9,14.3-4.4,16.8-2.2,3.6-4.7,7-8.4,8.1-1.5,1.7-3,3.3-5.3,3.4-1,1.6-3,1.7-5.4,1.8a26.073,26.073,0,0,0-4.8.5h0" fill="#f3efe0"/>
        <path id="パス_138" d="M52.9,36.3a.453.453,0,0,1-.9-.1.43.43,0,0,1,.4-.4c.3.1.5.3.5.5h0" fill="#f3efe0"/>
        <path id="パス_139" d="M32.8,34.2a.453.453,0,1,1-.9-.1.43.43,0,0,1,.4-.4c.3.1.5.3.5.5h0" fill="#f3efe0"/>
      </g>
    </g>
    <g id="グループ_1689" data-name="グループ 1689">
      <g id="グループ_285" transform="translate(5472.55 4375.028)">
        <path id="パス_140" d="M41.3,3.2a10.745,10.745,0,0,1,8.9-1.3A7.58,7.58,0,0,1,55.1,7a11.527,11.527,0,0,1,.5,2,8.419,8.419,0,0,1,5,3c1.1,1.6,2.1,4.3,1.9,6a11.364,11.364,0,0,1-.6,2.5,11.507,11.507,0,0,0,2.5,1.2c3.2,1.1,4.6,2.6,5.2,5a15.458,15.458,0,0,1,.4,3.1,25.722,25.722,0,0,1,3.4,5.4c1.4,3,2.8,7.2,2,9.5a5.91,5.91,0,0,1-.6,1.4,21.523,21.523,0,0,1,1,2.7,8.655,8.655,0,0,1-.3,6.7c-.9,1.7-3.2,3.6-5.5,2.8a9.51,9.51,0,0,1-2-1.5,6.081,6.081,0,0,1-3.5,1.9c-.2,0-.5.1-.7.1.1.2.4.7.7,1.2a17.046,17.046,0,0,1,1.6,5.3c.4.3.6.6,1.1,1C70,69.2,73,76.7,73,80.2v1.9c1.8,3.4,3.8,8.5,2.3,10.6a4.741,4.741,0,0,1-1,1,6.291,6.291,0,0,1-1.7,5,7.8,7.8,0,0,1-4.8,2.1,3.869,3.869,0,0,1-.9.1,7.412,7.412,0,0,1-.1,2.1,9.016,9.016,0,0,1,1,.9c1.8,2.3,1.1,5.9-.3,6.8.1,2-2.4,3.5-4.6,4.2a11.627,11.627,0,0,1-1.8.4c-2,.6-7.1.7-9.8-.6a7.719,7.719,0,0,1-1.5-.2c-2.6-.7-4.1-4-4.3-7a5.241,5.241,0,0,1-1.1-1c-1.8-2-2.5-6.5-2.8-9.3A22.606,22.606,0,0,1,40,94.6a9.663,9.663,0,0,1-.1,2.4,11.275,11.275,0,0,1-.8,2.4,7.172,7.172,0,0,1-.2,5.2,7.1,7.1,0,0,1-1,1.4v.3a6.639,6.639,0,0,1-2.5,5.1,12.071,12.071,0,0,1-9.1,3.7,11.455,11.455,0,0,1-8.9-.3,5.433,5.433,0,0,1-4.2-4.6,5.2,5.2,0,0,1,1.3-3.8,3.179,3.179,0,0,1-1.1-1.2c-.7-1-.4-3.4,1.3-5.6-.3-1.5.5-3.5,1.6-5.2a16.455,16.455,0,0,1-.4-3.1,8.778,8.778,0,0,1,1.5-5.2,5.67,5.67,0,0,1-1.3-.8A5.818,5.818,0,0,1,14,81.7,14.857,14.857,0,0,1,16.1,74c-.1-.4-.2-1-.4-1.8a13.6,13.6,0,0,1-.1-4.5,6.726,6.726,0,0,1-.7-1.1c-1.9-3.8,1.2-7,2.6-8.6a11.985,11.985,0,0,1,1.1-1.2,4.438,4.438,0,0,1-2.3-.2A10.736,10.736,0,0,1,12.4,58a5.328,5.328,0,0,1-5.9-3.3,8.909,8.909,0,0,1-.9-3.9c-.5-.1-1-.2-1.4-.3C2.5,50,.9,47.6.5,44.7.1,41.6,1.8,39.5,3.6,36s3.5-8,6.3-9.5a8.865,8.865,0,0,1,1.7-.8l-.3-.6c-1-3.3,2.1-6.3,5.9-8.4a18.5,18.5,0,0,0,2-1,3.722,3.722,0,0,1-2-.7c3.1,0,6.3-3.5,6.6-5.8a4.938,4.938,0,0,0-3.2,1.6,4.252,4.252,0,0,1,.3-2.5c1.4-2.8,5.9-3.2,8.8-2.8a5.559,5.559,0,0,1,.9-1.7C33.3-.8,40.2.6,40.9,2.3c.2.1.3.5.4.9" fill="#f2e9cb"/>
        <path id="パス_141" d="M35.1,39.1c2.1-1.5,4.3-1.9,5.5-.4a5.67,5.67,0,0,1,.8,1.3,5.088,5.088,0,0,1,2.6.9,10.41,10.41,0,0,0-1.6.6c4.7-.9,7.8.6,9.1,1.7A4.385,4.385,0,0,1,53.3,47a6.22,6.22,0,0,1-.9,2.6,7.8,7.8,0,0,0-2.2-.3,4.955,4.955,0,0,1,4.3,4.1c.3,1.9-.1,4.8-2.2,5.5a9.678,9.678,0,0,1-2.9.2,1.721,1.721,0,0,0,.2-1.2c-.1.2-.2.2-.4.5-1.5,1.7-8,2.5-11.2,1.5a3.592,3.592,0,0,0,1,.7,5.344,5.344,0,0,1-2.2.3c-2.6.1-7.7-.4-10.8-3.4a7.551,7.551,0,0,0,1.1,1.4,5.274,5.274,0,0,1-1.2.3c-1.2.2-3-.1-5-1.8a5.036,5.036,0,0,1-1.7-5.6,3.84,3.84,0,0,0-.9,2.5,2.234,2.234,0,0,1-1.8-1,2.885,2.885,0,0,1-.3-1.8,8.486,8.486,0,0,1-1.1-2.6c-.3-1.8.9-4.4,2.7-6.1s4.9-2.2,8.2-1.7a4.059,4.059,0,0,1,3.7-.7c1.3-1.8,3.6-3,4.5-2.2a7.637,7.637,0,0,1,.9.9" fill="#f2e9cb"/>
        <path id="パス_142" d="M30.6,3.8a.43.43,0,0,1-.4-.4c0-.1,0-.1.1-.2A7.347,7.347,0,0,1,37.2-.1c2,.2,3.7.9,4,1.9a.381.381,0,0,1-.7.3C40.3,1.5,38.9.9,37.1.7c-1.3-.1-4.5,0-6.2,2.9-.1.2-.2.2-.3.2" fill="#f2e9cb"/>
        <path id="パス_143" d="M20.9,8.3h-.2a.365.365,0,0,1-.2-.5h0c1.8-3.5,8-3.5,10.7-2.6a.365.365,0,0,1,.2.5c0,.2-.2.3-.4.2-2.2-.8-8.1-.9-9.7,2.2-.1.2-.2.2-.4.2" fill="#f2e9cb"/>
        <path id="パス_144" d="M17.7,15.2h-.6c-.2,0-.3-.2-.3-.4s.2-.3.4-.3a4.064,4.064,0,0,0,3-1,7.952,7.952,0,0,0,3.2-4.6c0-.2.2-.3.4-.3s.3.2.3.4a9.463,9.463,0,0,1-3.5,5.1,5.365,5.365,0,0,1-2.9,1.1" fill="#f2e9cb"/>
        <path id="パス_145" d="M11.3,25.2c-.2,0-.3-.1-.4-.3-.9-3,1.3-6.2,6.1-8.8a.381.381,0,1,1,.3.7h0c-2.1,1.1-6.9,4.2-5.8,7.9a.365.365,0,0,1-.2.5h0c.1,0,0,0,0,0" fill="#f2e9cb"/>
        <path id="パス_146" d="M14.3,40.8a.367.367,0,0,1-.3-.1c-2.2-2.4-2.5-9.5.2-13.3a.361.361,0,1,1,.6.4c-2.5,3.5-2.2,10.2-.3,12.4a.446.446,0,0,1,0,.5.349.349,0,0,1-.2.1" fill="#f2e9cb"/>
        <path id="パス_147" d="M4.1,50.7h0c-2-.6-3.7-3.1-4.1-6.2-.3-2.6.7-4.5,2-6.9.4-.7.7-1.3,1.1-2.1.3-.6.6-1.3.9-1.9,1.5-3.2,3.1-6.4,5.5-7.8a.44.44,0,0,1,.5.1c.1.1,0,.4-.1.5h0C7.8,27.8,6.3,31,4.9,34c-.3.7-.6,1.3-.9,1.9-.4.8-.8,1.5-1.1,2.1C1.6,40.4.6,42.1.9,44.4c.4,2.7,1.8,5.1,3.4,5.5a.55.55,0,0,1,.3.5c-.2.2-.3.3-.5.3" fill="#f2e9cb"/>
        <path id="パス_148" d="M11.5,58.3a5.98,5.98,0,0,1-5.4-3.6c-1.5-3-.9-6.5-.4-8.9a.55.55,0,0,1,.5-.3c.2.1.3.2.3.4-.5,2.3-1.1,5.6.3,8.4a5.113,5.113,0,0,0,5.6,3.1c.2,0,.4.1.4.3h0c0,.2-.1.4-.3.4h0a1.8,1.8,0,0,1-1,.2" fill="#f2e9cb"/>
        <path id="パス_149" d="M18,57.1c-1.8,0-3.8-1.1-5.7-3.1a.446.446,0,0,1,0-.5.454.454,0,0,1,.5,0c2.4,2.6,5.1,3.5,6.9,2.4a.361.361,0,1,1,.4.6,3.936,3.936,0,0,1-2.1.6" fill="#f2e9cb"/>
        <path id="パス_150" d="M55.1,7.4c-.2,0-.3-.1-.4-.3A7.073,7.073,0,0,0,50,2.3c-3.2-1-7.5-.1-9.2,1.9a.361.361,0,1,1-.6-.4c2.1-2.6,6.9-3.2,10-2.2A8.038,8.038,0,0,1,55.4,7c.1.2-.1.4-.3.5h0c.1-.1,0-.1,0-.1" fill="#f2e9cb"/>
        <path id="パス_151" d="M62.5,18.3h0a.366.366,0,0,1-.4-.4h0c.2-1.6-.8-4.2-1.8-5.7a8.676,8.676,0,0,0-8-2.9.55.55,0,0,1-.5-.3c-.1-.2.1-.4.3-.5h0a9.273,9.273,0,0,1,8.8,3.2,10.4,10.4,0,0,1,2,6.2.366.366,0,0,1-.4.4" fill="#f2e9cb"/>
        <path id="パス_152" d="M69.7,27.1c-.2,0-.3-.1-.4-.3-.7-2.5-2.1-3.8-5-4.8-3-1-5.2-3.2-5.4-5.5,0-.2.1-.4.3-.4s.4.1.4.3c.2,2,2.1,3.9,4.9,4.9,3.2,1.1,4.8,2.6,5.5,5.3.1.2-.1.4-.3.5,0-.1,0,0,0,0" fill="#f2e9cb"/>
        <path id="パス_153" d="M75.5,45h-.1a.365.365,0,0,1-.2-.5h0c.7-2.1-.6-6.1-2-9.2a24.765,24.765,0,0,0-6-8,.354.354,0,0,1,.5-.5h0a23.86,23.86,0,0,1,6.1,8.3c.7,1.5,3,6.8,2,9.8a.438.438,0,0,1-.3.1" fill="#f2e9cb"/>
        <path id="パス_154" d="M71.2,58.8a5.853,5.853,0,0,1-1.3-.2.412.412,0,1,1,.2-.8h.1c2.1.8,4.2-1.1,5-2.6a8.355,8.355,0,0,0,.3-6.4,27.805,27.805,0,0,0-1.6-4c-.6-1.3-1.2-2.7-1.7-4a.381.381,0,1,1,.7-.3c.5,1.3,1,2.7,1.6,3.9a29.038,29.038,0,0,1,1.6,4.1,8.969,8.969,0,0,1-.4,7,5.3,5.3,0,0,1-4.5,3.3" fill="#f2e9cb"/>
        <path id="パス_155" d="M62.6,59.2a7.674,7.674,0,0,1-3.4-.7A.365.365,0,0,1,59,58h0a.365.365,0,0,1,.5-.2,9.837,9.837,0,0,0,5.1.5c2.3-.4,4.5-2.5,5.6-5.7a.365.365,0,0,1,.5-.2.4.4,0,0,1,.2.4c-1.3,3.5-3.6,5.8-6.2,6.2a18.321,18.321,0,0,1-2.1.2" fill="#f2e9cb"/>
        <path id="パス_156" d="M56.4,56.6a.749.749,0,0,1-.5-.1c-.1,0-.2-.2-.2-.3s.2-.2.3-.2a2.318,2.318,0,0,0,1.6-.3c1.6-1,3.3-4.1,3.9-7.4,0-.1.1-.2.3-.2h0c.1,0,.2.2.2.3-.6,3.4-2.3,6.6-4.1,7.7a2.976,2.976,0,0,1-1.5.5" fill="#f2e9cb"/>
        <path id="パス_157" d="M15.1,49a.215.215,0,0,1-.2-.2c-.3-1.8.8-4.5,2.8-6.3,1.7-1.7,4.8-2.3,8.4-1.8.1,0,.2.1.2.3,0,.1-.1.2-.3.2-3.4-.5-6.3.1-8,1.6-1.8,1.7-2.9,4.2-2.6,5.8,0,.3-.1.4-.3.4h0" fill="#f2e9cb"/>
        <path id="パス_158" d="M16.6,53.4c-.1,0-.2,0-.2-.1-.8-1.4-.2-4.1,1.6-7.1.1-.1.2-.2.3-.1s.2.2.1.3h0c-1.7,2.8-2.3,5.3-1.6,6.5a.192.192,0,0,1-.1.3c0,.2-.1.2-.1.2" fill="#f2e9cb"/>
        <path id="パス_159" d="M25.3,59.4a7.337,7.337,0,0,1-4.5-1.9c-2.3-1.9-2.7-4.6-1.1-7.5.1-.1.2-.2.3-.1s.2.2.1.3h0c-1.5,2.7-1.2,5.1,1,6.9a6.463,6.463,0,0,0,4.8,1.8c.1,0,.3.1.3.2s-.1.3-.2.3h-.7" fill="#f2e9cb"/>
        <path id="パス_160" d="M36.1,61.2c-3.3,0-7.6-.9-10.3-3.5a.354.354,0,0,1,.5-.5c2.7,2.7,7.3,3.4,10.5,3.3a.4.4,0,0,1,0,.8,1.483,1.483,0,0,0-.7-.1" fill="#f2e9cb"/>
        <path id="パス_161" d="M41.5,60.6a11.88,11.88,0,0,1-4.2-.6.381.381,0,1,1,.3-.7h0c2.8,1.2,9.9.4,11.3-1.2a.283.283,0,0,1,.5,0c.1.1.2.4,0,.5-1.1,1.2-4.7,2-7.9,2" fill="#f2e9cb"/>
        <path id="パス_162" d="M52.3,59c-.1,0-.2-.1-.2-.3a.215.215,0,0,1,.2-.2c2.2-.7,2.3-3.6,2.1-5.2-.2-1.5-1.3-3.9-5.7-4-.1,0-.2-.1-.2-.3,0-.1.1-.2.3-.2,5,.1,6,3.2,6.2,4.5.2,2.3-.5,5-2.7,5.7h0" fill="#f2e9cb"/>
        <path id="パス_163" d="M53.3,47.2h0c-.2,0-.3-.1-.2-.3a3.794,3.794,0,0,0-1.7-3.5c-.8-.6-3.7-2.6-8.9-1.6-.1,0-.3-.1-.3-.2h0c0-.1.1-.3.2-.3,5.4-1,8.5,1.1,9.3,1.7a4.47,4.47,0,0,1,1.9,4c-.1.1-.2.2-.3.2" fill="#f2e9cb"/>
        <path id="パス_164" d="M29.7,40.5h-.1a.367.367,0,0,1-.1-.3h0a6.507,6.507,0,0,1,3.7-2.6,1.431,1.431,0,0,1,1.1.3.3.3,0,0,1,0,.4.188.188,0,0,1-.3,0,.952.952,0,0,0-.7-.2,5.542,5.542,0,0,0-3.4,2.4h-.2" fill="#f2e9cb"/>
        <path id="パス_165" d="M34.7,39.7c-.1,0-.2-.1-.2-.3,0-.1,0-.2.1-.2,2.6-2,5-2.2,6.3-.7a.283.283,0,0,1-.4.4c-1.1-1.3-3.2-1-5.6.8h-.2" fill="#f2e9cb"/>
        <path id="パス_166" d="M56.1,44.5h-.2a6.842,6.842,0,0,1-3.4-4.7c-.4-2.5.5-4.4,1.5-6.5l.6-1.2c1.1-2.4,1.1-3.2.8-7.2,0-.2.1-.4.3-.4s.4.1.4.3h0c.3,4,.4,4.9-.8,7.6l-.6,1.2c-1,2.1-1.8,3.9-1.4,6.1a5.554,5.554,0,0,0,3,4.1.365.365,0,0,1,.2.5.52.52,0,0,1-.4.2" fill="#f2e9cb"/>
        <path id="パス_167" d="M55.9,50.8c-.2,0-.3-.1-.4-.3-.8-3.5,1.3-6.5,2.3-7.7a.354.354,0,0,1,.5.5h0c-.9,1.1-2.9,3.9-2.1,7,.1.2,0,.4-.3.5h0" fill="#f2e9cb"/>
        <path id="パス_168" d="M15.5,44h-.1a.365.365,0,0,1-.2-.5h0c.7-1.6.2-3.1-.3-5.1l-.2-.7c-.1-.2.1-.4.3-.5s.4.1.5.3h0l.2.7c.6,2.1,1.1,3.7.3,5.6-.2.1-.3.2-.5.2" fill="#f2e9cb"/>
        <path id="パス_169" d="M27,35.3c-1.1,0-2.4,1-2.2,2.1s1,2.3,1.9,2.3,2.2-.5,2.2-1.6-1-2.8-1.9-2.8" fill="#f2e9cb"/>
        <path id="パス_170" d="M46.8,35.7c-.8-.3-2.4,1.2-2.1,2.4a2.046,2.046,0,0,0,2,1.8,1.714,1.714,0,0,0,1.9-1.6,3.285,3.285,0,0,0-1.8-2.6" fill="#f2e9cb"/>
        <path id="パス_171" d="M34.3,45.9c2.1-.1,4,1.1,4,2.7s-1.8,3.8-3.6,3.8-3.9-1.2-3.9-3,.6-3.4,3.5-3.5" fill="#f2e9cb"/>
        <path id="パス_172" d="M27,21.8a.215.215,0,0,1-.2-.2c0-1.9,2.3-4.1,4.6-5.2a.224.224,0,0,1,.2.4h0c-2.1,1-4.3,3-4.3,4.7a.319.319,0,0,1-.3.3" fill="#f2e9cb"/>
        <path id="パス_173" d="M39.2,27.5h0c-2.1-.7-4-3.9-4.2-6.7,0-.1.1-.3.2-.3h0c.1,0,.3.1.3.2.2,2.8,2.1,5.6,3.8,6.2a.192.192,0,0,1,.1.3c0,.3-.1.3-.2.3" fill="#f2e9cb"/>
        <path id="パス_174" d="M15,66.9c-.1,0-.3-.1-.3-.2-2-3.9,1-7.1,2.5-8.9l.2-.2a.454.454,0,0,1,.5,0,.446.446,0,0,1,0,.5l-.2.2c-1.6,1.7-4.2,4.6-2.4,8a.365.365,0,0,1-.2.5l-.1.1" fill="#f2e9cb"/>
        <path id="パス_175" d="M15.8,72.5c-.2,0-.3-.1-.4-.3a11.9,11.9,0,0,1,.9-7.9.381.381,0,0,1,.7.3h0a11.4,11.4,0,0,0-.8,7.5.366.366,0,0,1-.4.4h0" fill="#f2e9cb"/>
        <path id="パス_176" d="M16.2,85.6c-.1,0-.2,0-.2-.1a5.73,5.73,0,0,1-2.2-3.8C13.5,78,15.7,73.5,18,71a.354.354,0,0,1,.5.5h0c-2.1,2.4-4.3,6.6-4,10.1a5.3,5.3,0,0,0,1.9,3.3.348.348,0,0,1,.1.5c-.1.1-.2.2-.3.2" fill="#f2e9cb"/>
        <path id="パス_177" d="M16,91.5a.43.43,0,0,1-.4-.4c-.2-3.4,1.8-6.1,3.5-7.8a.354.354,0,0,1,.5.5h0c-1.6,1.6-3.5,4.2-3.3,7.3.1.2-.1.4-.3.4h0" fill="#f2e9cb"/>
        <path id="パス_178" d="M13.5,105.4c-.1,0-.2-.1-.3-.2-.7-1.1-.5-3.6,1.2-5.9-.5-2.7,2.4-6.3,3.3-7.4a.354.354,0,0,1,.5.5c-1.8,2.1-3.5,5.1-3.1,6.9a.367.367,0,0,1-.1.3c-1.7,2.2-1.8,4.4-1.3,5.2.1.2.1.4-.1.5h0a.1.1,0,0,1-.1.1" fill="#f2e9cb"/>
        <path id="パス_179" d="M22.4,116.1a11.163,11.163,0,0,1-5.1-1.1,5.531,5.531,0,0,1-4.4-5,5.47,5.47,0,0,1,2.7-5.1c.2-.1.4-.1.5.1s.1.4-.1.5a4.769,4.769,0,0,0-2.4,4.5,5.009,5.009,0,0,0,3.8,4.3h.1a10.726,10.726,0,0,0,8.6.3h.2a11.7,11.7,0,0,0,8.8-3.6,6.112,6.112,0,0,0,2.4-4.8.4.4,0,0,1,.8,0,6.829,6.829,0,0,1-2.6,5.3,12.447,12.447,0,0,1-9.3,3.8,7.988,7.988,0,0,1-4,.8" fill="#f2e9cb"/>
        <path id="パス_180" d="M38.9,105a.43.43,0,0,1-.4-.4c0-.1,0-.1.1-.2a6.751,6.751,0,0,0,0-5.4.381.381,0,0,1,.7-.3,7.228,7.228,0,0,1,0,6.1.758.758,0,0,1-.4.2" fill="#f2e9cb"/>
        <path id="パス_181" d="M39.9,97.4a.43.43,0,0,1-.4-.4v-.1a11.274,11.274,0,0,0-.8-6c-.1-.2-.1-.4.1-.5s.4-.1.5.1c.9,1.4,1.2,4.8.9,6.5,0,.2-.1.4-.3.4" fill="#f2e9cb"/>
        <path id="パス_182" d="M37.8,85.9c-.1,0-.1,0-.2-.1a.188.188,0,0,1,0-.3h0a8.6,8.6,0,0,0,1.3-7.6c0-.1,0-.3.2-.3s.3,0,.3.2h0A9.315,9.315,0,0,1,38,85.9h-.2" fill="#f2e9cb"/>
        <path id="パス_183" d="M36.4,92.1c-.1,0-.2,0-.2-.1-1.3-1-1.6-3.4-1-7.1,0-.2.2-.3.4-.3s.3.2.3.4c-.8,4.2,0,5.8.7,6.4a.348.348,0,0,1,.1.5c-.1.1-.2.2-.3.2" fill="#f2e9cb"/>
        <path id="パス_184" d="M47.5,89.1h0a10.218,10.218,0,0,1-5.4-5.6c0-.1,0-.3.1-.3s.3,0,.3.1a9.313,9.313,0,0,0,5,5.3c.1.1.2.2.1.3.1.2,0,.2-.1.2" fill="#f2e9cb"/>
        <path id="パス_185" d="M44.3,106.8a.367.367,0,0,1-.3-.1c-1.8-2-2.5-6.4-2.9-9.5,0-.2.1-.4.3-.4s.4.1.4.3c.4,3,1,7.2,2.7,9.1a.446.446,0,0,1,0,.5h0c0,.1-.1.1-.2.1" fill="#f2e9cb"/>
        <path id="パス_186" d="M49.8,114.9h0c-3.5-.9-5-5.9-4.7-9,0-.2.2-.4.4-.3.2,0,.4.2.3.4h0c-.3,3.3,1.3,7.5,4.1,8.2a.55.55,0,0,1,.3.5c-.1,0-.2.2-.4.2" fill="#f2e9cb"/>
        <path id="パス_187" d="M57.3,116.2c-2.7,0-5.9-.5-7.3-2a.446.446,0,0,1,0-.5.454.454,0,0,1,.5,0c1.8,1.9,8,2.1,10.5,1.3a.381.381,0,1,1,.3.7h0a19.028,19.028,0,0,1-4,.5" fill="#f2e9cb"/>
        <path id="パス_188" d="M62.9,115.3a.43.43,0,0,1-.4-.4c0-.2.1-.3.3-.4,2-.6,4.4-2,4.3-3.8,0-.1.1-.3.2-.3a3.577,3.577,0,0,0,1.1-2.2,5.466,5.466,0,0,0-.9-4.1c-.1-.2-.1-.4.1-.5s.4-.1.5.1h0a5.977,5.977,0,0,1,1.1,4.7,4.325,4.325,0,0,1-1.3,2.6c-.1,2.1-2.5,3.6-4.8,4.3h-.2" fill="#f2e9cb"/>
        <path id="パス_189" d="M66.7,103.4h0a.51.51,0,0,1-.4-.5h0c.5-1.9-.4-7.2-1.9-9.9a.361.361,0,0,1,.6-.4h0c1.6,2.9,2.5,8.4,2,10.5.1.1-.1.3-.3.3" fill="#f2e9cb"/>
        <path id="パス_190" d="M66.3,93.7a.43.43,0,0,1-.4-.4v-.1c.6-2.7-.3-10.2-2.8-14.4-.1-.2-.1-.4.1-.5s.4-.1.5.1h0c2.6,4.5,3.6,12.1,2.9,15a.319.319,0,0,1-.3.3" fill="#f2e9cb"/>
        <path id="パス_191" d="M65.6,79.9h-.1a.365.365,0,0,1-.2-.5c.6-1.6.3-6.1-2.3-10.5a.365.365,0,0,1,.2-.5.44.44,0,0,1,.5.1c2.5,4.2,3.1,9,2.4,11.1-.2.2-.3.3-.5.3" fill="#f2e9cb"/>
        <path id="パス_192" d="M65.8,72.5h0a.51.51,0,0,1-.4-.5h0c.8-2.9.4-8.9-1.3-11.9a.361.361,0,0,1,.6-.4c1.9,3.2,2.3,9.4,1.4,12.5a.265.265,0,0,1-.3.3" fill="#f2e9cb"/>
        <path id="パス_193" d="M73,80.5a.43.43,0,0,1-.4-.4c0-3.5-3.1-10.9-5.7-13.6a.354.354,0,0,1,.5-.5c2.7,2.8,5.9,10.5,5.9,14.1,0,.2-.1.4-.3.4Z" fill="#f2e9cb"/>
        <path id="パス_194" d="M75.3,93a.43.43,0,0,1-.4-.4c0-.1,0-.1.1-.2,1.7-2.6-1.9-10.1-3.9-12.7-.1-.2-.1-.4.1-.5s.4-.1.5.1c1.7,2.2,6.1,10.4,4,13.6a.756.756,0,0,1-.4.1" fill="#f2e9cb"/>
        <path id="パス_195" d="M67.8,101.2a.43.43,0,0,1-.4-.4c0-.2.1-.3.3-.4a8.7,8.7,0,0,0,4.6-2,6.536,6.536,0,0,0,1.2-6.7.381.381,0,0,1,.7-.3,7.361,7.361,0,0,1-1.3,7.5,8.861,8.861,0,0,1-5.1,2.3h0" fill="#f2e9cb"/>
        <path id="パス_196" d="M52.8,71.5h0c-.2,0-.3-.1-.2-.3h0c.4-2.5-2.2-5.2-3.4-6.2a.283.283,0,0,1,.4-.4c1.2,1.1,4,4,3.5,6.7-.1.1-.2.2-.3.2" fill="#f2e9cb"/>
        <path id="パス_197" d="M24,72.5a.215.215,0,0,1-.2-.2,8.179,8.179,0,0,1,3.8-6,.224.224,0,1,1,.2.4,7.857,7.857,0,0,0-3.5,5.6c0,.1-.1.2-.3.2" fill="#f2e9cb"/>
        <path id="パス_198" d="M38,54.6a4.1,4.1,0,0,1-1.1-.1,3.158,3.158,0,0,1-2.2-1.3,3.6,3.6,0,0,1-2.3,1.3,4.335,4.335,0,0,1-3.9-1.2c-.1-.2-.1-.4.1-.5s.4-.1.5.1h0a3.444,3.444,0,0,0,3.2.9,2.742,2.742,0,0,0,2.1-1.5.52.52,0,0,1,.4-.2h0a.52.52,0,0,1,.4.2,2.436,2.436,0,0,0,2,1.5,4.961,4.961,0,0,0,4.2-1.1.354.354,0,0,1,.5.5A6.212,6.212,0,0,1,38,54.6" fill="#f2e9cb"/>
        <path id="パス_199" d="M47.6,37.7a.552.552,0,1,1-1.1-.1.472.472,0,0,1,.5-.5.576.576,0,0,1,.6.6" fill="#f2e9cb"/>
        <path id="パス_200" d="M27.8,37.1a.552.552,0,0,1-1.1-.1.472.472,0,0,1,.5-.5q.6.15.6.6" fill="#f2e9cb"/>
      </g>
    </g>
    <g id="グループ_1690" data-name="グループ 1690">
      <g id="グループ_281" transform="translate(5278.535 4368.481)">
        <path id="パス_52" d="M.7,114.7c.9,3.6,2.4,4.8,5.6,5.7a28,28,0,0,0,7.1.5c6.4,0,14.3.6,18.3.8,4.2.2,10.6.8,10.6-2.1A47.9,47.9,0,0,0,53.6,121h1.7a5.467,5.467,0,0,0,2.8.9c2.4.3,11.4.6,14.5,0,2.3-.5,3.3-3.2,2.7-5.4a4.7,4.7,0,0,0,1.2.9c.1.3.2.7.3,1,.9,1.8,2,2.5,5.1,2.8a67.775,67.775,0,0,0,9,.4c3.5-.1,5.9-.1,6.9-2s-.1-4.5-3-5.7c-2.6-1-2.5-2.6-2.2-4,.1-.6.3-1.3.4-1.8.2-.9.3-1.8.4-2.4.4-.6.8-1.3,1.2-2a25.114,25.114,0,0,0,2.6-6.9c.7-.5,1.4-1,2.1-1.6a11.3,11.3,0,0,0,2.9-4.3,9.437,9.437,0,0,1,.3-.9,14.022,14.022,0,0,0,.7-4,2.354,2.354,0,0,0,.8-.2c1.5-.6,2.4-2.2,2.8-4.3.6-3.5-.6-8.7-1.6-12.8a93.809,93.809,0,0,1-1.8-10.6,7.084,7.084,0,0,1-.1-1.4h0c1.5.7,2.7,1.1,3.6-.1,1-1.5-1.5-5.8-2.9-7.8.9.6,1.8,1.2,2.8,1.8,1.6.8,3.1,0,2.8-1.5a30.561,30.561,0,0,0-3.5-7,8.561,8.561,0,0,0,2.3-.5c1.3-.6.6-2.6-2.3-4.2a17.635,17.635,0,0,1-3.7-3.5c.3-.4.8-1,1.2-1.6a35.741,35.741,0,0,0,4.1-10.1A38.35,38.35,0,0,0,107,4.7c-1.4-4.8-3.9-5.2-7.6-3.6C95.1,3.1,83,11.9,78.8,16.8c-.3.3-.4.5-.6.7-6.4-1.5-15.8-.6-20.6,2.7-.7-.3-1.6-.6-3-1.1a91.776,91.776,0,0,0-16.4-4.2c-3.9-.5-9.2-.5-10.4,1.6s-.8,4.9,0,8.1,6.3,14.1,13,16.9c.4.2.7.3.9.4a16.235,16.235,0,0,0-1.1,2.8c-.5,2.1.8,2.9,2.3,2.1.7-.4,1.6-.8,2.1-1.1-1.8,2.8-3.4,7.5-3.2,9.2.2,1.8,1.6,2.4,3.2,1.3.9-.6,1.9-1.3,2.5-1.6a25.629,25.629,0,0,0-2.9,8c-5.2,3.5-6.4,4.1-9.2,5.3-2.8,1.3-11,2.3-16,4.4C12.7,75.1,8.3,78.2,4.8,83.6c-4,6-3.4,16.7-3.7,21.5-.3,3.8-.9,6.2-.7,8.2.1.4.2,1,.3,1.4" fill="#f3efe0"/>
        <path id="パス_53" d="M102.5,90.1a14.022,14.022,0,0,0,.7-4,2.354,2.354,0,0,0,.8-.2c1.5-.6,2.4-2.2,2.8-4.4.6-3.5-.6-8.7-1.6-12.8a93.809,93.809,0,0,1-1.8-10.6,7.084,7.084,0,0,1-.1-1.4h0c1.5.7,2.7,1.1,3.6-.1,1-1.5-1.5-5.8-2.9-7.8.9.6,1.8,1.2,2.8,1.8,1.6.8,3.1,0,2.8-1.5a30.561,30.561,0,0,0-3.5-7,8.561,8.561,0,0,0,2.3-.5c1.3-.6.6-2.6-2.3-4.2a17.635,17.635,0,0,1-3.7-3.5c.3-.4.8-1,1.2-1.6a35.741,35.741,0,0,0,4.1-10.1A38.35,38.35,0,0,0,107,4.7c-1.4-4.8-3.9-5.2-7.6-3.6C95.1,3.1,83,11.9,78.8,16.8c-.3.3-.4.5-.6.7-6.4-1.5-15.8-.6-20.6,2.7-.7-.3-1.6-.6-3-1.1a91.776,91.776,0,0,0-16.4-4.2c-3.9-.5-9.2-.5-10.4,1.6s-.8,4.9,0,8.1,6.3,14.1,13,16.9c.4.2.7.3.9.4a16.235,16.235,0,0,0-1.1,2.8c-.5,2.1.8,2.9,2.3,2.1.7-.4,1.6-.8,2.1-1.1-1.8,2.8-3.4,7.5-3.2,9.2.2,1.8,1.6,2.4,3.2,1.3.9-.6,1.9-1.3,2.5-1.6a28.64,28.64,0,0,0-3,8c-5.2,3.5-6.4,4.1-9.1,5.3-2.8,1.3-11,2.3-16,4.4C12.7,75.1,8.3,78.2,4.8,83.6c-3.9,6-3.7,16.7-4,21.5a75.034,75.034,0,0,0-.4,8.2c3.5-5.6,21.8-4.5,22.9-3.7-.7-.9.3-1.6,1.5-2.4,4.6,1.5,15.7.6,17.9-5.4,1.8-4.9,9.8-8.1,17.1-6.8,2.4.5,5,0,2.7-5.7a60.025,60.025,0,0,1-4.7-22.5c0-2.1-.8-3.7-.3-5.4a7.909,7.909,0,0,0,.3-4.3c-.3-1.6-.4-2.8,1.4-5.1,1.6-2,4.4-3.9,5.8-5.5a8.515,8.515,0,0,0,2.3-5.8A35.326,35.326,0,0,0,66,32.9a85.051,85.051,0,0,0-3.4-8.3,1.912,1.912,0,0,1,.7-2,7.637,7.637,0,0,1,6.1-1.9c2.1.2,5.4,1.1,4.8,2.9a41.66,41.66,0,0,0-1.9,11.1c0,3.1,2.3,9.4,3.9,10.4s6.1,2.8,8.1,4.7a5.637,5.637,0,0,1,1.9,4c.2,1.9,2,3.7,4.6,4.9,2.6,1.3,3.2,1.2,4.5,3.6,1.9,3.4-.7,7.2,1,12.3,1,3,2.2,4.3,3.3,6.4,1,2.2,1.9,6.7,2.9,9.1" fill="#f3efe0"/>
        <path id="パス_54" d="M40.4,38.5c-2.2-.7-5.1-4.2-6.6-6.3a31.617,31.617,0,0,1-4.2-8.9c-.6-2.5-.3-3.5.3-3.9,1-.6,5.1,1,7.9,2.4a25.672,25.672,0,0,1,8.3,7.1c.6,1,.9,2.4-.1,2.7a3.615,3.615,0,0,0-2.5,1.8,10.039,10.039,0,0,0-.4,2.4,5.393,5.393,0,0,1-.9,2.2,1.525,1.525,0,0,1-1.8.5" fill="#f3efe0"/>
        <path id="パス_55" d="M93.5,21.5a18.619,18.619,0,0,1,4.4-8.6,29.879,29.879,0,0,1,5.3-5c1.4-.8,2.7-.5,3,1.9a45.255,45.255,0,0,1-.5,12.2,29.091,29.091,0,0,1-2.7,6.9,1.977,1.977,0,0,1-2.4,1,4.009,4.009,0,0,1-1.5-1.4,4.765,4.765,0,0,1-.2-2.9,1.584,1.584,0,0,0-1-1.9,7.418,7.418,0,0,0-2.5-.5c-1.7,0-2.1-.6-1.9-1.7" fill="#f3efe0"/>
        <path id="パス_56" d="M77.7,51.9c-2.7,6-10.6,5.3-12.7,1,2.3.3,4.8,0,5.8-1.3,1.8,1.5,4.7,1.3,6.9.3" fill="#f3efe0"/>
        <path id="パス_57" d="M57.6,20.6a.43.43,0,0,1-.4-.4c0-.1.1-.2.2-.3,5.1-3.6,14.7-4.2,20.9-2.8.2,0,.3.2.3.4s-.2.3-.4.3h0c-5.9-1.4-15.4-.8-20.3,2.7-.1,0-.2.1-.3.1" fill="#f3efe0"/>
        <path id="パス_58" d="M40,41.4h-.2C33.3,38,28.2,27.6,27.5,24.7s-1.2-6,0-8.4c1.5-2.8,8.6-2.1,10.7-1.8a95.071,95.071,0,0,1,16.5,4.2.365.365,0,0,1,.2.5c-.1.2-.3.3-.4.2a90.726,90.726,0,0,0-16.3-4.2c-4.3-.5-9.1-.3-10,1.4-1.2,2.1-.7,5,0,7.8s5.6,12.9,11.9,16.2a.365.365,0,0,1,.2.5.319.319,0,0,1-.3.3" fill="#f3efe0"/>
        <path id="パス_59" d="M41.9,47.5a1.689,1.689,0,0,1-1-.3,2.519,2.519,0,0,1-.6-2.6,14.456,14.456,0,0,1,1.1-2.9,42.672,42.672,0,0,1,3-5.1.361.361,0,1,1,.6.4,31.015,31.015,0,0,0-2.9,5A23.289,23.289,0,0,0,41,44.8a1.736,1.736,0,0,0,.3,1.8,1.392,1.392,0,0,0,1.4-.1c.2-.1.4-.1.5.1s.1.4-.1.5h0a3.374,3.374,0,0,1-1.2.4" fill="#f3efe0"/>
        <path id="パス_60" d="M43.5,57.1a1.884,1.884,0,0,1-.8-.2,2.4,2.4,0,0,1-1.2-2c-.2-1.8,1.5-6.6,3.3-9.4.1-.2.3-.2.5-.1s.2.3.1.5h0c-1.8,2.8-3.3,7.4-3.2,9a1.6,1.6,0,0,0,.8,1.4,1.958,1.958,0,0,0,1.9-.4c.2-.1.4-.1.5.1s.1.4-.1.5h0a2.792,2.792,0,0,1-1.8.6" fill="#f3efe0"/>
        <path id="パス_61" d="M44.2,65h0a.366.366,0,0,1-.4-.4L44,64a26.719,26.719,0,0,1,3.3-9.6,7.572,7.572,0,0,0,.9-1.8.381.381,0,1,1,.7.3h0a11.4,11.4,0,0,1-1,1.9,28.305,28.305,0,0,0-3.2,9.4l-.1.6c0,.1-.2.2-.4.2" fill="#f3efe0"/>
        <path id="パス_62" d="M105.4,57.8a3.6,3.6,0,0,1-1.1-.2.412.412,0,1,1,.2-.8c1,.3,1.6.2,2-.5.7-1.1-1.2-5.1-2.9-7.3-.1-.2-.1-.4.1-.5s.4-.1.5.1h0c.9,1.2,4.2,6.3,2.9,8.2a1.673,1.673,0,0,1-1.7,1" fill="#f3efe0"/>
        <path id="パス_63" d="M107.9,51.4a2.3,2.3,0,0,1-1.4-.4.381.381,0,0,1,.3-.7,1.654,1.654,0,0,0,1.9,0,1.128,1.128,0,0,0,.3-1.1,33.824,33.824,0,0,0-3.4-6.8c-.1-.2-.1-.4.1-.5s.4-.1.5.1c2,3.4,3.2,5.7,3.5,7.1a1.565,1.565,0,0,1-.6,1.8,1.656,1.656,0,0,1-1.2.5" fill="#f3efe0"/>
        <path id="パス_64" d="M108.3,42.1a.43.43,0,0,1-.4-.4c0-.1.1-.3.2-.3a.622.622,0,0,0,.4-.6c0-.6-.7-1.8-2.7-2.9a16.258,16.258,0,0,1-3.8-3.6l-.7-.9A31.121,31.121,0,0,0,99,30.6a.361.361,0,0,1,.4-.6l.1.1a16.826,16.826,0,0,1,2.4,2.9l.7.9a14.56,14.56,0,0,0,3.6,3.4c2,1.1,3.1,2.4,3.1,3.6a1.34,1.34,0,0,1-.8,1.3c-.1-.1-.1-.1-.2-.1" fill="#f3efe0"/>
        <path id="パス_65" d="M103.6,32.7c-.1,0-.1,0-.2-.1-.2-.1-.2-.3-.1-.5h0a35.487,35.487,0,0,0,4-9.9,38.876,38.876,0,0,0-.6-17.3c-.6-2.1-1.4-3.3-2.5-3.9s-2.5-.4-4.5.5c-4,1.7-14.9,9.6-19.7,14.6-.1.1-.4.2-.5,0-.1-.1-.2-.4,0-.5h0C84.4,10.5,95.4,2.6,99.4.8c2.2-1,3.8-1.1,5.2-.5s2.3,2,2.9,4.3a39.218,39.218,0,0,1,.7,17.7,34.655,34.655,0,0,1-4.1,10.2c-.3.2-.4.2-.5.2" fill="#f3efe0"/>
        <path id="パス_66" d="M41,38.8a.2.2,0,1,1,0-.4c1,0,1.5-.7,2-2.5,0-.2.1-.4.1-.7.2-1.2.6-2.8,1.9-3.2a1.933,1.933,0,0,0,1.4-1.1,2.319,2.319,0,0,0-.4-1.8,20.261,20.261,0,0,0-6.2-5.8,24.988,24.988,0,0,0-8-3.5c-1-.2-1.7-.1-2,.2-.4.4-.4,1.2-.1,2.5a39,39,0,0,0,4.2,9.3,23.235,23.235,0,0,0,5.8,5.9c.1.1.2.2.1.3s-.2.2-.3.1a26.28,26.28,0,0,1-6-6,42.676,42.676,0,0,1-4.3-9.5c-.3-1.5-.3-2.5.3-3a2.745,2.745,0,0,1,2.5-.4,23.658,23.658,0,0,1,8.1,3.6,21.19,21.19,0,0,1,6.3,6,2.539,2.539,0,0,1,.5,2.2,2.428,2.428,0,0,1-1.7,1.4c-1.1.4-1.4,1.6-1.6,2.9,0,.2-.1.5-.1.7-.5,1.7-1,2.8-2.5,2.8" fill="#f3efe0"/>
        <path id="パス_67" d="M101.2,30.2a4.191,4.191,0,0,1-1.5-.4A3.326,3.326,0,0,1,98.5,27v-.8c0-1.1,0-1.9-.8-2.1a6.929,6.929,0,0,0-2-.3H95c-1-.1-1.7-.6-1.7-1.4,0-.1.1-.3.2-.3h0c.1,0,.2.1.3.2,0,.5.5.8,1.3.9h.7a8.329,8.329,0,0,1,2.2.3c1.2.4,1.2,1.6,1.2,2.6v.8c.1,1.2.3,1.9,1,2.4a2.223,2.223,0,0,0,1.6.3,1.785,1.785,0,0,0,1.2-.9,36.9,36.9,0,0,0,3.3-10.2,48.3,48.3,0,0,0-.2-8.5V9.6a1.965,1.965,0,0,0-.9-1.7,2.247,2.247,0,0,0-1.8.2c-1.7,1-4.5,4.3-5.9,6.1a17.389,17.389,0,0,0-3,6.1c0,.1-.2.2-.3.2s-.2-.2-.2-.3h0a18.541,18.541,0,0,1,3.1-6.3c1.5-1.9,4.3-5.2,6-6.2a2.376,2.376,0,0,1,2.3-.3,2.438,2.438,0,0,1,1.2,2.1v.4a49.44,49.44,0,0,1,.2,8.6,38.21,38.21,0,0,1-3.3,10.4,3.433,3.433,0,0,1-2.3,1.3" fill="#f3efe0"/>
        <path id="パス_68" d="M46.7,33h-.1a2.186,2.186,0,0,0-.5-.3,4.908,4.908,0,0,0-3.1-.9c-.1,0-.3-.1-.3-.2s.1-.3.2-.3a5.887,5.887,0,0,1,3.4,1c.2.1.3.2.5.3.1.1.2.2.1.3,0,.1-.1.1-.2.1" fill="#f3efe0"/>
        <path id="パス_69" d="M95.8,26.7c-.1,0-.2-.1-.2-.3,0-.1,0-.1.1-.2a11.245,11.245,0,0,1,5.6-1.8c.1,0,.2.1.3.2h0c0,.1-.1.3-.2.3a9.982,9.982,0,0,0-5.3,1.6c-.1.2-.2.2-.3.2" fill="#f3efe0"/>
        <path id="パス_70" d="M84.1,72.4c-.1,0-.2-.1-.2-.3a.215.215,0,0,1,.2-.2,14.177,14.177,0,0,0,7.8-7.6c.1-.1.2-.2.3-.1s.2.2.1.3a14.185,14.185,0,0,1-8.2,7.9h0" fill="#f3efe0"/>
        <path id="パス_71" d="M75.7,77.5c-.1,0-.2-.1-.2-.3,0-.1,0-.2.1-.2a16.135,16.135,0,0,0,4.8-5.6c.1-.1.2-.2.3-.1s.2.2.1.3a16.46,16.46,0,0,1-5,5.8c0,.1,0,.1-.1.1" fill="#f3efe0"/>
        <path id="パス_72" d="M66.8,77.1c-.1,0-.1,0-.2-.1a13.422,13.422,0,0,1-3.7-5.1.224.224,0,1,1,.4-.2h0a12.511,12.511,0,0,0,3.6,4.9c.1.1.1.2,0,.4.1.1,0,.1-.1.1" fill="#f3efe0"/>
        <path id="パス_73" d="M60.2,72.5h0a13.156,13.156,0,0,1-7.6-7.2.224.224,0,1,1,.4-.2h0a13.335,13.335,0,0,0,7.2,7,.192.192,0,0,1,.1.3c.1.1,0,.1-.1.1" fill="#f3efe0"/>
        <path id="パス_74" d="M61.3,41.5c-1.2-.2-2,1.2-1.8,2.3s1,2.4,2.1,2.4,1.4-.9,1.6-2.3a2.274,2.274,0,0,0-1.9-2.4" fill="#f3efe0"/>
        <path id="パス_75" d="M82.1,39.6A1.594,1.594,0,0,0,80.3,41v.5c.1,1.1.5,2.8,1.6,2.8A2.291,2.291,0,0,0,84,42a2.212,2.212,0,0,0-1.9-2.4" fill="#f3efe0"/>
        <path id="パス_76" d="M70.4,45.2c-1.9.4-3.6,1.5-3.1,2.8a3.825,3.825,0,0,0,4.1,1.9c1.8-.3,3.7-1,3.4-2.6s-2.4-2.6-4.4-2.1" fill="#f3efe0"/>
        <path id="パス_77" d="M66.6,53.4a11.669,11.669,0,0,1-5.2-1.2c-.2-.1-.2-.3-.1-.5s.3-.2.5-.1c2.4,1.4,7.3,1.6,8.7-.1a.348.348,0,0,1,.5-.1c2.3,1.8,6.6.8,8.5-1.1a.354.354,0,0,1,.5.5c-2,2.2-6.5,3.2-9.2,1.4a6.288,6.288,0,0,1-4.2,1.2" fill="#f3efe0"/>
        <path id="パス_78" d="M71,56.5A6.6,6.6,0,0,1,64.8,53a.192.192,0,0,1,.1-.3h0a.192.192,0,0,1,.3.1A6.275,6.275,0,0,0,71.1,56a7.029,7.029,0,0,0,6.4-4.2c.1-.1.2-.2.3-.1h0c.1.1.2.2.1.3a7.546,7.546,0,0,1-6.8,4.5H71" fill="#f3efe0"/>
        <path id="パス_79" d="M36.4,122.2c-1.3,0-2.6-.1-3.8-.1h-1c-1.1-.1-2.4-.1-3.9-.2-4.1-.2-9.7-.6-14.4-.6a29.12,29.12,0,0,1-7.2-.5c-3.6-1-5-2.5-5.9-6-.5-1.9-.3-3.8-.1-6.8a26.607,26.607,0,0,0,.2-3c0-.7.1-1.6.1-2.6l.1-1.2a.43.43,0,0,1,.4-.4.43.43,0,0,1,.4.4h0v1.2c0,1-.1,1.9-.1,2.6-.1,1.1-.2,2.1-.2,3-.2,2.9-.4,4.8,0,6.6.8,3.2,2,4.5,5.4,5.5a32.547,32.547,0,0,0,7,.5c4.7,0,10.3.3,14.4.6,1.5.1,2.8.2,3.9.2h1c3.2.2,7.5.4,8.8-.9a1.489,1.489,0,0,0,.4-.9.43.43,0,0,1,.4-.4h.1a44.828,44.828,0,0,0,11.2,1.4.43.43,0,0,1,.4.4h0a.43.43,0,0,1-.4.4,50.878,50.878,0,0,1-11-1.3,3.128,3.128,0,0,1-.5,1c-1.1.9-3.3,1.1-5.7,1.1" fill="#f3efe0"/>
        <path id="パス_80" d="M1.2,98.4h0A.43.43,0,0,1,.8,98c.4-5.2,1.1-9.1,2.4-12.1a.365.365,0,0,1,.5-.2c.2,0,.3.3.2.5h0A36.622,36.622,0,0,0,1.6,98c-.1.2-.2.4-.4.4" fill="#f3efe0"/>
        <path id="パス_81" d="M4.8,84a.43.43,0,0,1-.4-.4c0-.1,0-.1.1-.2,3.4-5.2,7.7-8.5,14.7-11.4A57.043,57.043,0,0,1,29,69.3a33.5,33.5,0,0,0,6.2-1.7,36.151,36.151,0,0,0,7.4-4.2c.2-.1.4-.1.5.1s.1.4-.1.5h0a34.393,34.393,0,0,1-7.5,4.2,49.053,49.053,0,0,1-6.3,1.7,55.984,55.984,0,0,0-9.7,2.7C12.6,75.5,8.4,78.7,5.1,83.7a.265.265,0,0,1-.3.3" fill="#f3efe0"/>
        <path id="パス_82" d="M66.3,122.7a79,79,0,0,1-8.4-.4c-1.8-.2-3.7-.7-4.6-3.4v-.1c-.8-2.2-1.4-4.1-2.9-5.6a35.211,35.211,0,0,1-3.6-4.1c-.1-.2-.1-.4.1-.5s.4-.1.5.1a34.229,34.229,0,0,0,3.6,4c1.7,1.6,2.4,3.6,3.1,5.9v.1c.8,2.3,2.3,2.7,4,2.9,2.4.3,11.4.6,14.3,0a3.229,3.229,0,0,0,2.4-2.5,4.453,4.453,0,0,0-1.2-4.4,15.929,15.929,0,0,0-5.4-3l-.7-.3c-2.8-1.1-4.2-2.2-3.9-5.2,0-.4.1-.7.1-1.2.4-4.1,1.1-10.8-1.6-15.6a.348.348,0,0,1,.1-.5c.2-.1.4-.1.5.1h0c2.9,4.9,2.2,11.9,1.7,16,0,.4-.1.8-.1,1.2-.2,2.5.9,3.4,3.4,4.4l.7.3A14.673,14.673,0,0,1,74,114a5.229,5.229,0,0,1,1.4,5.2,3.854,3.854,0,0,1-3,3,30.153,30.153,0,0,1-6.1.5" fill="#f3efe0"/>
        <path id="パス_83" d="M45.8,107.7c-.1,0-.2-.1-.3-.2-.5-.8-1-1.5-1.6-2.3l-.2-.3c-1.8-2.7-4.1-8.6-3.1-13.9,0-.2.2-.3.4-.3s.3.2.3.4c-.9,5,1.3,10.7,3,13.3l.2.3c.5.8,1,1.5,1.5,2.3.1.2.1.4-.1.5.1.2,0,.2-.1.2" fill="#f3efe0"/>
        <path id="パス_84" d="M75.6,113.8a.43.43,0,0,1-.4-.4c0-.2.1-.4.3-.4h.2c4-.4,9.5-1,12.7-3a14.7,14.7,0,0,0,5.7-6.4,26.351,26.351,0,0,0,2.8-7.7c0-.2.2-.3.4-.3s.3.2.3.4a27.572,27.572,0,0,1-2.8,7.9,15.574,15.574,0,0,1-6,6.7c-3.3,2.1-9,2.7-13.1,3.1l-.1.1h0" fill="#f3efe0"/>
        <path id="パス_85" d="M99.2,95.7a.43.43,0,0,1-.4-.4c0-.1.1-.2.1-.3a10.374,10.374,0,0,0,2.8-4.1,15.812,15.812,0,0,0,1-4.8c0-.2.2-.3.3-.4.3,0,.5-.1.7-.1,1.3-.5,2.1-1.8,2.5-4.1.6-3.3-.5-8.3-1.6-12.6a93.809,93.809,0,0,1-1.8-10.6,7.084,7.084,0,0,1-.1-1.4c0-.2.1-.4.3-.4s.4.1.4.3c0,.4.1.9.1,1.4a62.307,62.307,0,0,0,1.8,10.5c1.1,4.4,2.2,9.5,1.6,13-.4,2.5-1.4,4.1-3,4.6a1.268,1.268,0,0,1-.6.1,15.191,15.191,0,0,1-1,4.7,12.539,12.539,0,0,1-3.1,4.5c.2,0,.1,0,0,.1" fill="#f3efe0"/>
        <path id="パス_86" d="M89.1,122.1c-2.4,0-4.8-.2-7.2-.4-3.2-.3-4.5-1-5.4-3.1a.381.381,0,0,1,.7-.3h0c.7,1.6,1.6,2.3,4.8,2.6a67.028,67.028,0,0,0,8.9.4h.4c3.2-.1,5.3-.2,6.1-1.8a3.114,3.114,0,0,0,.1-2.5,5.145,5.145,0,0,0-2.9-2.7c-2.8-1.1-2.8-2.9-2.4-4.4l.1-.4c.1-.5.2-1,.3-1.4,0-.2.2-.3.4-.3s.3.2.3.4c-.1.4-.2.9-.3,1.4l-.1.4c-.3,1.2-.4,2.6,2,3.6a5.332,5.332,0,0,1,3.3,3.1,3.733,3.733,0,0,1-.1,3.1c-1,2-3.4,2.1-6.7,2.2H91a12.749,12.749,0,0,1-1.9.1" fill="#f3efe0"/>
        <path id="パス_87" d="M42.3,118.8c-.2,0-.3-.1-.4-.3a8.672,8.672,0,0,0-6.4-7.2,27.755,27.755,0,0,0-7-1.2c-1.9-.1-2.9-.1-3.9-.1h-.7c-.9,0-1.2-.5-1.2-.7a1.828,1.828,0,0,1,1-1.8c2.4-1.5,6.4-7.6,5.4-12,0-.2.1-.4.3-.4s.4.1.4.3c1.1,4.8-3,11.2-5.7,12.8-.5.3-.7.7-.6.9s.4.2.5.2h.7c1,0,2,0,3.9.1a30.116,30.116,0,0,1,7.2,1.2,9.565,9.565,0,0,1,6.9,7.8.43.43,0,0,1-.4.4h0" fill="#f3efe0"/>
        <path id="パス_88" d="M61.4,43.3a.4.4,0,1,0,.4-.4.43.43,0,0,0-.4.4" fill="#f3efe0"/>
        <path id="パス_89" d="M82.1,41.4a.4.4,0,1,0,.4-.4.43.43,0,0,0-.4.4" fill="#f3efe0"/>
        <path id="パス_90" d="M44.9,35.3h-.1a12.24,12.24,0,0,0-6.5-1.8c-.1,0-.3-.1-.3-.2s.1-.3.2-.3A11.686,11.686,0,0,1,45,34.9c.1.1.2.2.1.3a.349.349,0,0,1-.2.1" fill="#f3efe0"/>
        <path id="パス_91" d="M44.6,43c-.1,0-.3-.1-.3-.2s0-.1.1-.2c1.4-1.2,3.5-2.8,5.1-3.1.1,0,.3.1.3.2s-.1.3-.2.3c-1.6.3-3.8,2-4.9,3,0-.1-.1,0-.1,0" fill="#f3efe0"/>
        <path id="パス_92" d="M45,52.7h-.1c-.1-.1-.2-.2-.1-.3h0a10.137,10.137,0,0,1,3.4-4,.3.3,0,0,1,.4,0,.247.247,0,0,1-.1.4,10.446,10.446,0,0,0-3.3,3.9c0-.1-.1,0-.2,0" fill="#f3efe0"/>
        <path id="パス_93" d="M103,54c-.1,0-.2,0-.2-.1A21.017,21.017,0,0,0,97,49c-.1-.1-.2-.2-.1-.3h0c.1-.1.2-.2.3-.1a22.593,22.593,0,0,1,6,5.1.192.192,0,0,1-.1.3H103" fill="#f3efe0"/>
        <path id="パス_94" d="M105.4,46.6h-.1a5.547,5.547,0,0,1-.8-.6,16.491,16.491,0,0,0-3.7-2c-.1,0-.2-.2-.2-.3s.2-.2.3-.2h0a15.838,15.838,0,0,1,3.8,2.1,9.222,9.222,0,0,0,.8.5c.1.1.2.2.1.3,0,.2-.1.2-.2.2" fill="#f3efe0"/>
        <path id="パス_95" d="M95.1,33.2H95c-2.2-1.3-6.2-1.4-8.2-1-.1,0-.3-.1-.3-.2s.1-.3.2-.3h0c1.7-.3,5.9-.4,8.5,1.1.1.1.2.2.1.3,0,.1-.1.2-.2.1" fill="#f3efe0"/>
      </g>
    </g>
    <g id="グループ_1691" data-name="グループ 1691">
      <g id="グループ_279" transform="translate(5954.938 4336.375)">
        <path id="パス_32" d="M77,55.1a24.236,24.236,0,0,1-14.2-3.2,12.749,12.749,0,0,1-1.2-.7,2.994,2.994,0,0,0-.4-.8c2.3.2,3.3-.6,3.5-2.1a13.834,13.834,0,0,0-1.2-8c1.5-2.2-.6-7.4-1.7-10.7,2.4-4.9,6-14.5,6.2-17s-1.1-3.8-3.2-3.5a58.992,58.992,0,0,0-14.1,5.5c-2-1.9-8.2-5-12.9-5.7a32.568,32.568,0,0,0-14.2,1.4A53.986,53.986,0,0,0,11.9.7C10-.2,8.4.5,7.8,3.1s0,12.8.8,18.2c-1.7,2.2-3.4,5.4-2.7,7.6C3.3,30.8,1.5,35,.6,37.8c-.3,1.1-.7,4.3,2.1,3.8-2,1.6-2.3,3-2,4.7C1,47.6,2.3,47.9,4,48a2.605,2.605,0,0,0-.8,3.6.1.1,0,0,0,.1.1,23.771,23.771,0,0,0,4,4.4,10.038,10.038,0,0,1,1.9,2.2c2.5,4.1,4.1,9.4,3.1,14.6-1.1,5.8-2.3,11,1.2,17a15.768,15.768,0,0,0,1,1.6c1.4,5.8,3.4,10.8,6.6,13.6-.2,5.1.8,14,1.2,18.1a92.15,92.15,0,0,1,.4,10.5c-.1,2.4-1.4,3.6-3.6,5.3-2.5,2-2.9,7.6,1.3,9.3s9.2.6,12.3-1.2a10.048,10.048,0,0,0,4.9-10.2c-.5-3.7-1.1-9-.7-11.8a33.632,33.632,0,0,1,4-10.7,10.909,10.909,0,0,1,.6-1.1c.6,1.4,1,2.7,1.7,4.1,1.4,2.8,3,12.5,3.2,16.7s-.3,6-2.7,8.2c-2.7,2.4-4.7,5.1-2.8,9,1.5,3.1,7.7,3.6,11.4,2.9,3.3-.6,7.1-2.9,8.1-5.7s.7-8.4,1.2-12.5,1.4-11.4,2.1-15.5c.7-4.2,0-6,3.5-7,1.9-.5,5.9-1.7,10.1-3.2l.1.2c1.4,3.5,3.5,8.8,7.2,12.8s4.7,4.8,5.5,7.3a5,5,0,0,1-1.5,5.5c-1.7,1.7-2,6.9,2.2,7.4,3.1.4,8.8.1,11.4-1.8s2.9-5.6,1.6-11.7a41.163,41.163,0,0,1-.9-8.6,5.638,5.638,0,0,0-.1-.7c2.2,2.7,4.4,5.3,5.7,6.8,2.8,3.2,4.6,7.5,4.6,10.5,0,1.3-1.6,2.6-2.7,4.1a5.23,5.23,0,0,0-1,5.1c.7,3,5.5,4.1,9.4,3.8,4.3-.3,7.7-2.9,8.1-5.6.3-2.3,0-5.8.5-9.1.6-4-.9-8.3-3.2-11.8s-1.4-6.5-.5-10.2,1.2-16.7.7-22.5c-.3-4-2.5-12.2-4.6-18.2.2.1.4.3.6.4,3.9,3,8.9,3.1,14.5,2.9A18.694,18.694,0,0,0,148.8,69c1.4-2.2.9-4-.4-5a4.2,4.2,0,0,0-5,0A21.807,21.807,0,0,1,132,67.2c-4.4,0-13.2-4.9-16.2-7.4a5.816,5.816,0,0,0-2.5-1.2c-2.7-2.8-7-4-11.4-4.3s-19.5.3-24.9.8" fill="#f2e9cb"/>
        <path id="パス_33" d="M41.8,40c-1.8-2.2-3.8-5.5-8.3-6.4-3.1-.6-6.5,1.6-8.9,2.5s-4.3,1.4-7.6,2.3a11.792,11.792,0,0,0-8.1,7.1c-1.3,3.6-.3,10.2,2.2,16.9h0a19.805,19.805,0,0,1,1.1,10.5c-1.1,5.8-2.3,11,1.2,17a15.768,15.768,0,0,0,1,1.6c1.4,5.8,3.4,10.8,6.6,13.6,8.5,7.6,15.8,8.3,20.3,8.2a76.077,76.077,0,0,1-3.1-7.9,42.883,42.883,0,0,1-.7-22.2c1.5-6.7,2.8-12.4,6-16.9a91.237,91.237,0,0,0,6.7-10.7,8.623,8.623,0,0,0-1.1-9.8C47,43,43.6,42.3,41.8,40" fill="#f2e9cb"/>
        <path id="パス_34" d="M86.9,106.9c-2.3,1-6.3,2.3-9.7,3.4-4.3,1.5-8.3,2.7-10.1,3.2a3.7,3.7,0,0,0-2.5,1.7c1.3-5.7,7.7-10.3,12.9-11.9,4.8-1.5,8.6-2.3,10.6-1.7,1.6.4,1.9,1.2,1.9,2.2-.1,1.9-2.1,2.7-3.1,3.1" fill="#f2e9cb"/>
        <path id="パス_35" d="M64.5,115.5h0a.51.51,0,0,1-.4-.5,13.843,13.843,0,0,1,2.5-5,.348.348,0,0,1,.5-.1c.1.1.2.4.1.5h0a13.965,13.965,0,0,0-2.4,4.7c.1.3-.1.4-.3.4" fill="#f2e9cb"/>
        <path id="パス_36" d="M119.5,73.9a.52.52,0,0,1-.4-.2l-.3-.9a34.86,34.86,0,0,0-2.2-5.3.361.361,0,0,1,.6-.4,32.468,32.468,0,0,1,2.3,5.4l.3.9a.365.365,0,0,1-.2.5h0c0-.1-.1,0-.1,0" fill="#f2e9cb"/>
        <path id="パス_37" d="M102.7,121a.367.367,0,0,1-.3-.1,61.836,61.836,0,0,1-6.6-7.8L95,112c-2.3-3-4.2-6.5-4.6-8.8,0-.2.1-.4.3-.4s.4.1.4.3h0c.4,2.1,2.2,5.6,4.4,8.4l.8,1.1a68.805,68.805,0,0,0,6.6,7.7.454.454,0,0,1,0,.5.215.215,0,0,1-.2.2" fill="#f2e9cb"/>
        <path id="パス_38" d="M77.2,110.6a.43.43,0,0,1-.4-.4c0-.2.1-.3.3-.4,3.6-1.1,7.5-2.5,9.7-3.4a.381.381,0,1,1,.3.7h0c-2.2.9-6,2.2-9.7,3.4a.31.31,0,0,1-.2.1" fill="#f2e9cb"/>
        <path id="パス_39" d="M41.5,113.6c-.2,0-.3-.1-.4-.3l-.1-.2a14.3,14.3,0,0,0-1.7-3.8c-.1-.2-.1-.4.1-.5s.4-.1.5.1a12.021,12.021,0,0,1,1.8,4l.1.2a.365.365,0,0,1-.2.5h-.1" fill="#f2e9cb"/>
        <path id="パス_40" d="M36.9,113.8h0a43.912,43.912,0,0,1-16-8.4c-3-2.6-5.2-7.2-6.8-13.8a.55.55,0,0,1,.3-.5.55.55,0,0,1,.5.3h0c1.5,6.5,3.7,10.9,6.5,13.4A42.562,42.562,0,0,0,37,113c.2,0,.3.2.3.5-.1.2-.2.3-.4.3" fill="#f2e9cb"/>
        <path id="パス_41" d="M54.6,19a2.75,2.75,0,0,1,.2-4,2.092,2.092,0,0,1,.6-.4,35.537,35.537,0,0,1,8.4-3.2c2-.3,2.7.9,2.2,3-.4,1.7-2.9,8.3-4.4,10.3-.9,1.2-2.4,1.7-3.2.6A42.193,42.193,0,0,0,54.6,19" fill="#f2e9cb"/>
        <path id="パス_42" d="M18.4,13.9a2.844,2.844,0,0,0,1.3-3.8c-.1-.2-.3-.4-.4-.6a31.983,31.983,0,0,0-6.7-6c-1.7-1-2.9-.1-3.2,2-.3,1.7-.4,8.7.4,11.1.4,1.5,1.6,2.5,2.7,1.7a56.572,56.572,0,0,1,5.9-4.4" fill="#f2e9cb"/>
        <path id="パス_43" d="M45.3,32.2c1.2.2,1.6,2.2,1.2,3.3s-1.2,1.7-2.1,1.3a2.183,2.183,0,0,1-1.5-2.4c.2-1.3.7-2.5,2.4-2.2" fill="#f2e9cb"/>
        <path id="パス_44" d="M23.6,29.8c1.2.2,1.6,2.2,1.2,3.3s-1.2,1.7-2.1,1.3A2.183,2.183,0,0,1,21.2,32c.2-1.3.8-2.5,2.4-2.2" fill="#f2e9cb"/>
        <path id="パス_45" d="M33.1,34.9c2,.3,3.9,1.5,3.7,3s-1.7,2.6-3.9,2.2-3.6-1.2-3.6-2.6,1.7-2.9,3.8-2.6" fill="#f2e9cb"/>
        <path id="パス_46" d="M37.9,46.8c-2.4,0-5-.8-6.3-3.1a5.813,5.813,0,0,1-4.4,1.8h-.1A6.685,6.685,0,0,1,21.9,43a.354.354,0,0,1,.5-.5h0A5.98,5.98,0,0,0,27,44.7a5.362,5.362,0,0,0,4.3-2,.367.367,0,0,1,.3-.1c.1,0,.2.1.3.2,1.4,3.2,6,3.6,8.9,2.6a.381.381,0,1,1,.3.7,7.111,7.111,0,0,1-3.2.7" fill="#f2e9cb"/>
        <path id="パス_47" d="M43.8,25a2.906,2.906,0,0,1,2.8,1.6,2.336,2.336,0,0,1-1.9,2.6c-1.3.2-3.3-.6-3.6-1.7-.4-1.6.3-2.6,2.7-2.5" fill="#f2e9cb"/>
        <path id="パス_48" d="M26.9,22a3.043,3.043,0,0,1,2.8,1.6c.3.8-.9,2.2-2.3,2.4s-3.4-.6-3.6-1.7c-.3-1.5.5-2.4,3.1-2.3" fill="#f2e9cb"/>
        <path id="パス_49" d="M45.8,34.2c0,.4-.2.7-.5.7s-.5-.3-.5-.7.2-.7.5-.7.5.3.5.7" fill="#f2e9cb"/>
        <path id="パス_50" d="M24.2,31.8c0,.4-.2.7-.5.7s-.5-.3-.5-.7.2-.7.5-.7.5.3.5.7" fill="#f2e9cb"/>
        <path id="パス_51" d="M48.9,154.8c-3.5,0-7.3-.9-8.4-3.4-2-4.3.3-7.2,2.9-9.4,2.3-2,2.8-3.7,2.6-7.9-.2-4.3-1.9-13.9-3.2-16.6-.4-.9-.8-1.8-1.2-2.8a1.421,1.421,0,0,1-.2-.6c-.1.1-.1.2-.2.4-1.6,3.1-3.4,6.7-4,10.6-.4,3,.4,9.1.7,11.7a10.616,10.616,0,0,1-5.1,10.6,15.423,15.423,0,0,1-12.6,1.2,5.131,5.131,0,0,1-3.3-4.2,6.414,6.414,0,0,1,1.9-5.7c2.1-1.7,3.4-2.8,3.5-5,0-3.5-.1-7-.4-10.4l-.2-1.8a146.746,146.746,0,0,1-1-16.2c-2.9-2.6-5.1-7.1-6.6-13.7a14.8,14.8,0,0,1-.8-1.3l-.1-.3c-3.4-5.9-2.4-11.1-1.4-16.6l.1-.6c1.2-6.2-1.4-11.6-3-14.3a10.04,10.04,0,0,0-1.6-2L7,56.4a25.24,25.24,0,0,1-4.1-4.5A3,3,0,0,1,3,48.3c-1.3-.1-2.5-.6-2.8-2A4.929,4.929,0,0,1,1.7,42a2.384,2.384,0,0,1-1.1-.6c-.9-1.1-.6-3.1-.4-3.7.6-2,2.3-6.7,5.2-8.9-.5-2.3,1-5.4,2.7-7.6C7.4,15.6,6.9,5.6,7.6,3A4.008,4.008,0,0,1,9.5.2a2.87,2.87,0,0,1,2.7.2A52.992,52.992,0,0,1,23.8,9.9,33.779,33.779,0,0,1,37.9,8.6a31.951,31.951,0,0,1,12.8,5.6,58.269,58.269,0,0,1,14-5.5,3.033,3.033,0,0,1,2.6.6,3.992,3.992,0,0,1,1,3.3c-.2,2.6-3.7,12.1-6.2,17l.3.9c1.2,3.4,2.7,7.6,1.4,9.8a13.784,13.784,0,0,1,1.1,8c-.2,1.6-1.3,2.4-3.2,2.5v.1a2.092,2.092,0,0,1,.6.4c.2.1.3.2.5.3a22.827,22.827,0,0,0,14,3.1c5.5-.5,20.4-1.1,24.7-.9,3.5.2,8.4,1.1,11.6,4.3a5.816,5.816,0,0,1,2.5,1.2c3,2.5,11.8,7.3,16,7.3a21.117,21.117,0,0,0,11.2-3.2,4.659,4.659,0,0,1,5.4.1c1.3,1,2.1,3,.4,5.5-2.8,4.4-8.9,7.8-14.2,8.1-5.2.2-10.3.2-14.3-2.7,1.9,5.7,4,13.2,4.3,17.1.4,5.5.3,18.8-.7,22.6l-.1.5c-.9,3.5-1.6,6.2.6,9.4,2.6,3.9,3.8,8.3,3.3,12a47.08,47.08,0,0,0-.3,5.3c0,1.3-.1,2.5-.2,3.8-.4,3-4.1,5.6-8.4,5.9-4.2.3-9-.9-9.8-4.1a6.126,6.126,0,0,1,1.1-5.4,5.242,5.242,0,0,1,1-1.1c.9-1,1.7-1.9,1.7-2.7,0-3-1.8-7.2-4.5-10.2-1.2-1.4-3.3-3.9-5.7-6.8l.6-.5c2.3,2.8,4.5,5.4,5.7,6.8,2.7,3.2,4.7,7.6,4.7,10.7,0,1.1-.9,2.1-1.9,3.2-.3.4-.6.7-.9,1.1a5.171,5.171,0,0,0-1,4.8c.6,2.7,5,3.8,9,3.5,4.4-.3,7.4-2.9,7.7-5.2.1-1.2.2-2.5.2-3.7a48.861,48.861,0,0,1,.3-5.4,16.552,16.552,0,0,0-3.2-11.5c-2.3-3.4-1.5-6.5-.7-10l.1-.5c.9-3.6,1.2-16.4.7-22.4-.3-4.1-2.6-12.4-4.6-18.1l-.4-1,.9.6c.1.1.2.1.3.2s.2.1.3.2c3.9,3,9,3.1,14.3,2.8,5.1-.2,11-3.5,13.6-7.7,1.1-1.8,1-3.5-.3-4.5a3.749,3.749,0,0,0-4.5,0,21.69,21.69,0,0,1-11.6,3.3c-4.5,0-13.4-4.9-16.5-7.5a6.963,6.963,0,0,0-2.3-1.1h-.1l-.1-.1c-3-3.1-7.7-4-11.1-4.1-4.3-.2-19.1.4-24.6.9a25.375,25.375,0,0,1-14.5-3.2c-.1-.1-.3-.2-.4-.3a5.582,5.582,0,0,1-.8-.5l-.1-.1v-.1a2.506,2.506,0,0,0-.4-.7l-.4-.6.8.1c2.5.2,3-.9,3.1-1.8a13.3,13.3,0,0,0-1.2-7.8l-.1-.2.1-.2c1.2-1.8-.3-6.1-1.4-9.3l-.4-1.2.1-.1c2.4-4.8,6-14.4,6.2-16.9a3.3,3.3,0,0,0-.7-2.7,2.449,2.449,0,0,0-2-.5A52.372,52.372,0,0,0,51,14.9l-.2.2-.2-.2c-1.9-1.8-8-4.9-12.7-5.6a32.044,32.044,0,0,0-14,1.4l-.3.1-.2-.2A54.885,54.885,0,0,0,11.9,1.1,2.232,2.232,0,0,0,9.8.9,3.273,3.273,0,0,0,8.3,3.2c-.6,2.4-.1,12.6.6,18v.2l-.1.1c-1.6,2.1-3.3,5.2-2.6,7.3l.1.2-.2.2C3.3,31.3,1.6,36,1,37.9c-.2.6-.4,2.3.2,3a1.359,1.359,0,0,0,1.5.3l1.6-.3L3,41.9C1.1,43.4.9,44.7,1.2,46.2c.2,1,1,1.4,2.9,1.4h1l-.8.6a2.255,2.255,0,0,0-.7,3.1l.1.1a19.987,19.987,0,0,0,3.9,4.3l.1.3a9.1,9.1,0,0,1,1.8,2.1c1.7,2.8,4.4,8.4,3.1,14.8l-.1.6c-1.1,5.6-2,10.4,1.3,16.1l.2.3c.3.6.6.9.8,1.4v.1c1.5,6.5,3.7,10.9,6.5,13.4l.1.1v.2a128.483,128.483,0,0,0,1,16.3l.2,1.8a92.15,92.15,0,0,1,.4,10.5c-.1,2.5-1.5,3.8-3.7,5.6a5.7,5.7,0,0,0-1.6,5,4.471,4.471,0,0,0,2.9,3.7c4.1,1.6,9.1.5,12-1.1a9.722,9.722,0,0,0,4.7-9.8c-.5-4.4-1.1-9.2-.7-11.9.5-4,2.4-7.7,4-10.8a4.372,4.372,0,0,1,.6-1l.4-.7.3.7a7.838,7.838,0,0,1,.5,1.4c.3.9.7,1.8,1.1,2.7,1.4,2.8,3,12.5,3.3,16.8.2,4.4-.4,6.3-2.9,8.5s-4.5,4.7-2.7,8.6c1.3,2.9,7.3,3.4,11,2.7,3.1-.6,6.9-2.7,7.8-5.4a30.523,30.523,0,0,0,.8-7.4c.1-1.7.2-3.5.3-5,.5-4.5,1.4-11.5,2.1-15.6.1-.9.2-1.6.3-2.3.3-2.6.5-4.1,3.5-4.9,1.8-.5,5.7-1.7,10.1-3.2l.3-.1.3.7c1.4,3.4,3.4,8.6,7,12.4l1.1,1.1c2.8,3,3.8,4,4.5,6.3a5.5,5.5,0,0,1-1.6,5.9,4.8,4.8,0,0,0-.9,4.6,3.092,3.092,0,0,0,2.9,2.2c3.1.4,8.7,0,11.1-1.7,2.3-1.7,2.8-5.2,1.5-11.3a35.013,35.013,0,0,1-.8-6.5v-.7h.8v.7a33.953,33.953,0,0,0,.8,6.4c1.4,6.4.8,10.2-1.8,12.1s-8.5,2.2-11.6,1.8a3.992,3.992,0,0,1-3.5-2.7,5.607,5.607,0,0,1,1-5.3,4.679,4.679,0,0,0,1.4-5.1c-.7-2.1-1.5-3-4.3-6L84.2,124c-3.7-3.9-5.8-9.2-7.2-12.7v-.1c-4.3,1.5-8.1,2.6-9.8,3.1-2.5.7-2.6,1.7-2.9,4.3q-.15,1.05-.3,2.4c-.7,4-1.6,11.2-2.1,15.5-.2,1.5-.2,3.3-.3,5a32.246,32.246,0,0,1-.9,7.6c-1,3-5,5.3-8.3,5.9a13.734,13.734,0,0,0-3.5-.2" fill="#f2e9cb"/>
      </g>
    </g>
  </g>
</svg>
