<svg xmlns="http://www.w3.org/2000/svg" width="46.767" height="46.767" viewBox="0 0 46.767 46.767">
  <path id="Icon_awesome-facebook-square" data-name="Icon awesome-facebook-square" d="M41.756,2.25H5.011A5.011,5.011,0,0,0,0,7.261V44.006a5.011,5.011,0,0,0,5.011,5.011H19.338v-15.9H12.762V25.633h6.577v-5.7c0-6.488,3.862-10.072,9.778-10.072a39.842,39.842,0,0,1,5.8.505v6.368H31.648c-3.216,0-4.219,2-4.219,4.043v4.859h7.18L33.46,33.117H27.429v15.9H41.756a5.011,5.011,0,0,0,5.011-5.011V7.261A5.011,5.011,0,0,0,41.756,2.25Z" transform="translate(0 -2.25)" fill="#fff"/>
</svg>
