<svg xmlns="http://www.w3.org/2000/svg" width="46.767" height="46.756" viewBox="0 0 46.767 46.756">
  <path id="Icon_awesome-instagram" data-name="Icon awesome-instagram" d="M23.383,13.628A11.988,11.988,0,1,0,35.371,25.616,11.969,11.969,0,0,0,23.383,13.628Zm0,19.781a7.794,7.794,0,1,1,7.794-7.794,7.808,7.808,0,0,1-7.794,7.794ZM38.658,13.138a2.8,2.8,0,1,1-2.8-2.8A2.79,2.79,0,0,1,38.658,13.138Zm7.94,2.838c-.177-3.746-1.033-7.063-3.777-9.8S36.769,2.59,33.024,2.4c-3.86-.219-15.431-.219-19.291,0C10,2.579,6.68,3.435,3.936,6.168S.347,12.22.159,15.965C-.06,19.825-.06,31.4.159,35.256.336,39,1.192,42.32,3.936,45.053s6.051,3.589,9.8,3.777c3.86.219,15.431.219,19.291,0,3.746-.177,7.063-1.033,9.8-3.777S46.41,39,46.6,35.256c.219-3.86.219-15.42,0-19.281ZM41.61,39.4a7.89,7.89,0,0,1-4.445,4.445c-3.078,1.221-10.381.939-13.782.939s-10.715.271-13.782-.939A7.89,7.89,0,0,1,5.157,39.4c-1.221-3.078-.939-10.381-.939-13.782S3.946,14.9,5.157,11.834A7.89,7.89,0,0,1,9.6,7.389c3.078-1.221,10.381-.939,13.782-.939s10.715-.271,13.782.939a7.89,7.89,0,0,1,4.445,4.445c1.221,3.078.939,10.381.939,13.782S42.831,36.331,41.61,39.4Z" transform="translate(0.005 -2.238)" fill="#fff"/>
</svg>
