<svg xmlns="http://www.w3.org/2000/svg" width="134" height="134" viewBox="0 0 134 134">
  <g id="グループ_1" data-name="グループ 1" transform="translate(-0.045)">
    <g id="楕円形_1" data-name="楕円形 1" transform="translate(0.045)" fill="none" stroke="#fff" stroke-width="1">
      <circle cx="67" cy="67" r="67" stroke="none"/>
      <circle cx="67" cy="67" r="66.5" fill="none"/>
    </g>
    <path id="パス_257" data-name="パス 257" d="M3.276.2a3.2,3.2,0,0,0,1.232-.21L4.214-1.848a1.16,1.16,0,0,1-.28.028c-.2,0-.434-.154-.434-.686v-8.68H1.008v8.6C1.008-.924,1.568.2,3.276.2ZM6.9-9.072A1.262,1.262,0,0,0,8.288-10.36,1.26,1.26,0,0,0,6.9-11.634,1.252,1.252,0,0,0,5.516-10.36,1.255,1.255,0,0,0,6.9-9.072ZM5.656,0H8.148V-7.966H5.656Zm7.63.2A5.859,5.859,0,0,0,15.092-.1L14.7-1.9a2.316,2.316,0,0,1-.728.154c-.588,0-1.008-.35-1.008-1.232V-6.02H14.84V-7.966H12.964V-10.08H10.906l-.28,2.114-1.232.1V-6.02h1.078v3.066C10.472-1.078,11.284.2,13.286.2Zm6.23,0A5.859,5.859,0,0,0,21.322-.1L20.93-1.9a2.316,2.316,0,0,1-.728.154c-.588,0-1.008-.35-1.008-1.232V-6.02H21.07V-7.966H19.194V-10.08H17.136l-.28,2.114-1.232.1V-6.02H16.7v3.066C16.7-1.078,17.514.2,19.516.2Zm5.362,0a3.2,3.2,0,0,0,1.232-.21l-.294-1.834a1.16,1.16,0,0,1-.28.028c-.2,0-.434-.154-.434-.686v-8.68H22.61v8.6C22.61-.924,23.17.2,24.878.2ZM30.87.2a5.14,5.14,0,0,0,2.842-.91l-.826-1.5a3.242,3.242,0,0,1-1.68.5,1.821,1.821,0,0,1-1.988-1.54h4.676a4.669,4.669,0,0,0,.112-1.078c0-2.17-1.12-3.836-3.416-3.836A3.928,3.928,0,0,0,26.81-3.99,3.9,3.9,0,0,0,30.87.2ZM29.176-4.886a1.471,1.471,0,0,1,1.456-1.372c.91,0,1.26.588,1.26,1.372Zm13.258.392h4.06v-1.68h-4.06v-4.06h-1.68v4.06h-4.06v1.68h4.06v4.06h1.68ZM53.116.2a4.03,4.03,0,0,0,2.632-.938L54.782-2.38a2.284,2.284,0,0,1-1.386.56c-.966,0-1.694-.84-1.694-2.17s.686-2.156,1.792-2.156a1.561,1.561,0,0,1,1.008.42l1.162-1.582a3.447,3.447,0,0,0-2.324-.854A4.03,4.03,0,0,0,49.154-3.99,3.854,3.854,0,0,0,53.116.2Zm7.462,0A3.924,3.924,0,0,0,64.47-3.99a3.92,3.92,0,0,0-3.892-4.172A3.923,3.923,0,0,0,56.672-3.99,3.927,3.927,0,0,0,60.578.2Zm0-2.016c-.938,0-1.358-.84-1.358-2.17s.42-2.156,1.358-2.156,1.344.84,1.344,2.156S61.5-1.82,60.578-1.82ZM68.418.2c2.17,0,3.318-1.134,3.318-2.6,0-1.442-1.106-2.016-2.1-2.394-.826-.294-1.512-.476-1.512-.952,0-.378.266-.574.84-.574a3.032,3.032,0,0,1,1.652.672L71.722-7.14A4.554,4.554,0,0,0,68.88-8.162c-1.862,0-3.08,1.022-3.08,2.52,0,1.33,1.078,1.974,2.03,2.352.812.322,1.582.546,1.582,1.022,0,.392-.28.63-.938.63a3.463,3.463,0,0,1-2.016-.84L65.352-.924A5.149,5.149,0,0,0,68.418.2Zm7.9,0A5.859,5.859,0,0,0,78.12-.1L77.728-1.9A2.316,2.316,0,0,1,77-1.75c-.588,0-1.008-.35-1.008-1.232V-6.02h1.876V-7.966H75.992V-10.08H73.934l-.28,2.114-1.232.1V-6.02H73.5v3.066C73.5-1.078,74.312.2,76.314.2Zm5.5,0a3.09,3.09,0,0,0,2.478-1.288h.056L84.532,0h2.03V-7.966H84.07v5.222a1.506,1.506,0,0,1-1.33.812c-.63,0-.924-.322-.924-1.414v-4.62H79.324v4.928C79.324-1.05,80.066.2,81.816.2ZM88.564,0h2.492V-5.32a1.871,1.871,0,0,1,1.26-.714c.63,0,.924.308.924,1.414V0h2.492V-5.32a1.924,1.924,0,0,1,1.274-.714c.63,0,.91.308.91,1.414V0h2.492V-4.928c0-1.988-.756-3.234-2.492-3.234a3.477,3.477,0,0,0-2.492,1.316A2.185,2.185,0,0,0,93.24-8.162a3.286,3.286,0,0,0-2.422,1.2h-.042l-.182-1.008h-2.03Zm17.4.2a5.14,5.14,0,0,0,2.842-.91l-.826-1.5a3.242,3.242,0,0,1-1.68.5,1.821,1.821,0,0,1-1.988-1.54h4.676a4.669,4.669,0,0,0,.112-1.078c0-2.17-1.12-3.836-3.416-3.836a3.928,3.928,0,0,0-3.78,4.172A3.9,3.9,0,0,0,105.966.2Zm-1.694-5.082a1.471,1.471,0,0,1,1.456-1.372c.91,0,1.26.588,1.26,1.372Z" transform="translate(12.045 73)" fill="#fff"/>
  </g>
</svg>
