<svg xmlns="http://www.w3.org/2000/svg" width="222.082" height="20.88" viewBox="0 0 222.082 20.88">
  <g id="グループ_1681" data-name="グループ 1681" transform="translate(51.347 -3106.41)">
    <path id="パス_257" data-name="パス 257" d="M1.653-20.3V0H6.061c3.306,0,5.1-1.8,5.1-5.133V-15.167c0-3.335-1.8-5.133-5.1-5.133Zm3.074,2.842H5.945c1.479,0,2.146.783,2.146,2.494v9.628c0,1.711-.667,2.494-2.146,2.494H4.727ZM18.792-20.59c-3.074,0-4.959,1.943-4.959,5.133V-4.843c0,3.19,1.885,5.133,4.959,5.133s4.959-1.943,4.959-5.133V-15.457C23.751-18.647,21.866-20.59,18.792-20.59Zm0,2.842c1.218,0,1.885.812,1.885,2.32V-4.872c0,1.508-.667,2.32-1.885,2.32s-1.885-.812-1.885-2.32V-15.428C16.907-16.936,17.574-17.748,18.792-17.748ZM36.743,0V-20.3h-2.9V-8.207h-.058L30.16-20.3H26.738V0h2.9V-13.456H29.7L33.727,0Zm6.38-17.342V-20.3H39.875v3.248h1.044L39.875-13.8h1.6ZM54.9-17.4v-2.9H45.269v2.9h3.277V0H51.62V-17.4ZM73.486,0l3.132-20.3H73.544L71.775-6.844h-.058L69.977-20.3H67.251L65.511-6.844h-.058L63.684-20.3H60.523L63.655,0h3.132l1.769-12.093h.058L70.354,0Zm9.831-20.59c-3.074,0-4.959,1.943-4.959,5.133V-4.843c0,3.19,1.885,5.133,4.959,5.133s4.959-1.943,4.959-5.133V-15.457C88.276-18.647,86.391-20.59,83.317-20.59Zm0,2.842c1.218,0,1.885.812,1.885,2.32V-4.872c0,1.508-.667,2.32-1.885,2.32s-1.885-.812-1.885-2.32V-15.428C81.432-16.936,82.1-17.748,83.317-17.748ZM97.9,0h3.248L98.339-9.251c1.421-.812,2.175-2.32,2.175-4.466v-1.45c0-3.335-1.8-5.133-5.1-5.133H90.973V0h3.074V-8.584h1.421ZM94.047-17.458h1.247c1.479,0,2.146.783,2.146,2.494v1.044c0,1.711-.667,2.494-2.146,2.494H94.047ZM110.026,0h3.248l-2.813-9.251c1.421-.812,2.175-2.32,2.175-4.466v-1.45c0-3.335-1.8-5.133-5.1-5.133H103.1V0h3.074V-8.584h1.421Zm-3.857-17.458h1.247c1.479,0,2.146.783,2.146,2.494v1.044c0,1.711-.667,2.494-2.146,2.494h-1.247Zm14.384,8.294L124.758-20.3h-3.19L119.1-13.108h-.058L116.464-20.3h-3.248l4.263,11.107V0h3.074ZM127.745,0V-3.248H124.5V0Zm8.816-20.3V0h4.524c3.306,0,5.1-1.8,5.1-5.133v-.7c0-2.668-.812-4.176-2.726-4.756v-.058c1.624-.551,2.291-1.885,2.291-4.147v-.377c0-3.335-1.711-5.133-4.9-5.133Zm3.074,2.842h1.1c1.334,0,1.943.754,1.943,2.407v.667c0,1.711-.609,2.465-2.088,2.465h-.957Zm0,8.381h1.189c1.624,0,2.291.812,2.291,2.61v1.131c0,1.711-.667,2.494-2.146,2.494h-1.334ZM157.3-17.458V-20.3h-8.642V0H157.3V-2.842h-5.568V-8.874h4.495v-2.842h-4.495v-5.742ZM175.218,0V-20.3h-3.074v8.555H168.49V-20.3h-3.074V0h3.074V-8.845h3.654V0Zm13.137,0-3.509-20.3h-3.915L177.422,0H180.5l.667-4.611h3.393L185.223,0Zm-5.539-15.95h.087l1.247,8.555h-2.581Zm7.743-4.35V0h3.074V-8.41H195c3.306,0,5.1-1.8,5.1-5.133v-1.624c0-3.335-1.8-5.133-5.1-5.133Zm3.074,2.842h1.247c1.479,0,2.146.783,2.146,2.494v1.218c0,1.711-.667,2.494-2.146,2.494h-1.247Zm8.729-2.842V0h3.074V-8.41H206.8c3.306,0,5.1-1.8,5.1-5.133v-1.624c0-3.335-1.8-5.133-5.1-5.133Zm3.074,2.842h1.247c1.479,0,2.146.783,2.146,2.494v1.218c0,1.711-.667,2.494-2.146,2.494h-1.247ZM219.53-9.164l4.2-11.136h-3.19l-2.465,7.192h-.058L215.441-20.3h-3.248l4.263,11.107V0h3.074Z" transform="translate(-53 3127)" fill="#bebebe"/>
  </g>
</svg>
