<svg xmlns="http://www.w3.org/2000/svg" xmlns:xlink="http://www.w3.org/1999/xlink" width="631.175" height="389.202" viewBox="0 0 631.175 389.202">
  <defs>
    <clipPath id="clip-path">
      <rect id="長方形_156" data-name="長方形 156" width="605.232" height="184.565" fill="none"/>
    </clipPath>
  </defs>
  <g id="グループ_1670" data-name="グループ 1670" transform="translate(-1143.412 -4296.581)">
    <g id="グループ_278" data-name="グループ 278" transform="translate(1209.554 4296.581) rotate(21)">
      <g id="グループ_277" data-name="グループ 277" transform="translate(0 0)" clip-path="url(#clip-path)">
        <path id="パス_21" data-name="パス 21" d="M50.3,71.643c-2.177,1.93-3.257,2.907-5.4,4.885,4.66,5.069,8.16,8.871,11.653,12.67s7,7.6,11.653,12.67c-4.222,3.894-6.307,5.891-10.408,9.988L45.171,99.237,34.21,88.277,23.8,77.869c-3.5-3.5-7.092-7.1-10.964-10.964L.224,54.287c3.651-3.655,6.44-6.329,9.24-8.971s5.626-5.25,9.439-8.639A42.477,42.477,0,0,1,32.563,28.1a19,19,0,0,1,11.885-.652,18.82,18.82,0,0,1,9.472,6.923c1.418,1.842,2.129,2.763,3.555,4.605A20.392,20.392,0,0,1,61.9,49.427a19.305,19.305,0,0,1-2.163,10.651c4.616,2.612,8.422,4.841,11.94,6.952s6.76,4.108,10.22,6.289,7.144,4.546,11.5,7.449c-4.745,3.6-7.088,5.464-11.712,9.3-6.119-3.865-10.791-6.676-15.5-9.439S56.728,75.146,50.3,71.643m-13.123-3.5c1.942-1.787,2.918-2.675,4.882-4.425,5.825-5.184,6.514-9.785,2.1-15.046l-2.693-3.209c-4.41-5.254-9.3-5.331-15.484.177-2.085,1.857-3.124,2.8-5.184,4.7,3.275,3.563,5.736,6.234,8.186,8.9s4.915,5.342,8.19,8.9" transform="translate(0.601 71.885)" fill="#fff"/>
        <path id="パス_22" data-name="パス 22" d="M35.425,40.365c2.52,3.857,4.406,6.749,6.3,9.645s3.776,5.784,6.3,9.641c3.876-2.535,6.812-4.373,9.759-6.182s5.917-3.581,9.9-5.865c2.262,3.957,3.4,5.935,5.659,9.9-3.868,2.218-6.749,3.942-9.612,5.7s-5.714,3.54-9.479,6c2.649,4.053,4.631,7.092,6.617,10.131s3.968,6.079,6.613,10.131c4.366-2.855,7.681-4.911,11.012-6.919s6.687-3.979,11.207-6.48c2.207,3.99,3.312,5.983,5.523,9.973-4.528,2.509-8.26,4.7-11.716,6.8s-6.643,4.112-10.043,6.34-7.015,4.671-11.3,7.729c-3.78-5.305-7.18-10.084-10.352-14.541s-6.123-8.6-9-12.626-5.666-7.961-8.54-11.992-5.817-8.171-8.993-12.629S18.706,45.88,14.926,40.571c5.29-3.776,9.759-6.8,13.959-9.553s8.138-5.235,12.408-7.829,8.886-5.3,14.479-8.4c2.207,3.99,3.312,5.987,5.523,9.977-5.261,2.914-9.166,5.2-13.046,7.545s-7.74,4.73-12.825,8.057" transform="translate(40.064 39.689)" fill="#fff"/>
        <path id="パス_23" data-name="パス 23" d="M78.747,20.755c1.013,2.752,1.522,4.126,2.538,6.878-5.626,2.317-8.418,3.533-13.959,6.068-1.013-2.454-1.518-3.677-2.527-6.13-2.487-6.024-6.62-7.5-12.176-5.062s-7.28,6.484-5.018,11.336c2.5,5.371,4.59,9.848,6.536,14.026s3.754,8.054,5.7,12.231,4.034,8.654,6.536,14.026c2.262,4.852,6.013,6.278,10.754,4.2s6.215-5.8,3.728-11.826c-1.385-3.356-2.078-5.033-3.459-8.389,5.346-1.953,8.031-2.874,13.425-4.613,1.352,3.666,2.03,5.5,3.382,9.166,2.133,5.788,1.916,11.06-.3,15.5s-6.425,8.061-12.541,10.754c-6.06,2.667-11.542,3.316-16.3,1.938s-8.79-4.778-11.616-10.26c-2.73-5.294-5-9.708-7.125-13.827s-4.093-7.943-6.215-12.058-4.4-8.532-7.125-13.827c-2.826-5.482-3-10.909-.523-15.868S40.071,15.575,47.6,12.263c7.6-3.349,14.416-4.115,19.765-2.6s9.247,5.309,11.38,11.093" transform="translate(82.468 23.939)" fill="#fff"/>
        <path id="パス_24" data-name="パス 24" d="M81.074,50.884c-2.653.722-3.979,1.094-6.62,1.864,1.93,6.613,3.382,11.568,4.83,16.527s2.9,9.914,4.834,16.523c-5.2,1.514-7.785,2.325-12.931,4.049C69.112,83.669,67.248,78.11,65.5,72.922s-3.356-10.006-4.933-14.7-3.106-9.262-4.683-13.959-3.19-9.509-4.933-14.7-3.6-10.75-5.677-16.925c4.59-1.536,8.05-2.623,11.52-3.673S63.744,6.9,68.4,5.628A38.781,38.781,0,0,1,83.642,4.2a18.3,18.3,0,0,1,10.515,4.76A19.494,19.494,0,0,1,99.48,19.381c.468,2.28.7,3.419,1.168,5.7a21.087,21.087,0,0,1-.483,11.3,18.606,18.606,0,0,1-6.245,8.507c2.9,4.406,5.261,8.1,7.427,11.565s4.145,6.694,6.234,10.19,4.292,7.254,6.86,11.793c-5.589,1.094-8.378,1.7-13.926,3.025-3.688-6.2-6.554-10.809-9.472-15.4s-5.88-9.148-9.969-15.175m-9.822-9.078c2.391-.7,3.585-1.035,5.983-1.691,7.11-1.953,9.594-5.736,7.954-12.4-.4-1.628-.6-2.439-1-4.067-1.639-6.661-5.825-8.93-13.373-6.86-2.546.7-3.817,1.057-6.351,1.794,1.356,4.646,2.376,8.131,3.393,11.612s2.037,6.967,3.4,11.612" transform="translate(121.536 10.605)" fill="#fff"/>
        <path id="パス_25" data-name="パス 25" d="M116.8,63.533c.309,6.388-1.522,11.329-4.955,14.814s-8.474,5.523-14.884,6.223c-6.285.685-11.59-.232-15.672-2.9s-6.941-7.1-8.017-13.4c-1.061-6.226-1.993-11.675-2.855-16.733s-1.662-9.726-2.457-14.4-1.6-9.339-2.461-14.4S63.7,12.228,62.643,6.005c6.315-1.076,9.479-1.551,15.823-2.387.825,6.226,1.547,11.675,2.214,16.737s1.289,9.726,1.908,14.4,1.234,9.339,1.9,14.4,1.389,10.511,2.214,16.737c.777,5.88,4.053,7.659,8.857,7.133s7.611-2.969,7.092-8.879c-.549-6.256-1.028-11.73-1.474-16.814s-.858-9.778-1.271-14.468-.822-9.387-1.267-14.471S97.716,7.829,97.167,1.573C103.784,1,107.1.774,113.731.453c.306,6.307.575,11.826.825,16.951s.479,9.859.707,14.589.461,9.461.711,14.586.519,10.647.825,16.954" transform="translate(168.143 1.217)" fill="#fff"/>
        <path id="パス_26" data-name="パス 26" d="M81.831,81.752c-.059-6.514-.111-12.375-.158-17.846s-.1-10.551-.14-15.5-.088-9.77-.133-14.722-.088-10.028-.14-15.5S81.161,6.854,81.1.34C87.741.281,91.06.314,97.7.513c-.2,6.51-.372,12.368-.534,17.839S96.844,28.9,96.7,33.844s-.291,9.767-.438,14.714-.3,10.028-.464,15.5-.339,11.329-.534,17.839c-5.371-.158-8.057-.188-13.429-.14" transform="translate(217.69 0.843)" fill="#fff"/>
        <path id="パス_27" data-name="パス 27" d="M121.511,15.238c-.939,6.915-1.761,12.968-2.524,18.587s-1.466,10.806-2.17,15.993-1.407,10.371-2.17,15.989-1.584,11.671-2.524,18.587c-5.335-.718-8.009-1.028-13.362-1.54.671-6.948,1.256-13.023,1.8-18.668s1.046-10.857,1.547-16.067,1.006-10.419,1.547-16.063,1.127-11.723,1.8-18.671c-6.86-.656-10.3-.914-17.172-1.286.254-4.646.379-6.967.634-11.612,6.923.376,12.685.844,18.056,1.363s10.352,1.091,15.7,1.809,11.078,1.577,17.923,2.789c-.814,4.579-1.223,6.871-2.041,11.45-6.8-1.2-10.209-1.739-17.043-2.66" transform="translate(236.957 1.308)" fill="#fff"/>
        <path id="パス_28" data-name="パス 28" d="M106.76,82.934c1.709-6.285,3.249-11.944,4.686-17.223s2.77-10.183,4.071-14.961,2.568-9.428,3.868-14.206,2.634-9.678,4.071-14.958,2.973-10.938,4.686-17.223c6.447,1.746,9.66,2.686,16.052,4.69-1.956,6.215-3.717,11.808-5.357,17.028s-3.168,10.069-4.657,14.792-2.933,9.321-4.417,14.044-3.014,9.568-4.653,14.788l-5.36,17.028c-5.173-1.625-7.77-2.384-12.99-3.8" transform="translate(286.56 11.709)" fill="#fff"/>
        <path id="パス_29" data-name="パス 29" d="M142.706,95.616c.652-5.651,1.149-10.618,1.566-15.241s.752-8.9,1.035-13.193.538-8.588.744-13.259.391-9.711.5-15.492c-.111-.041-.169-.063-.276-.107-2.7,6.672-4.944,12.231-7.044,17.422s-4.045,10.006-6.145,15.2-4.347,10.75-7.048,17.422c-4.771-1.927-7.169-2.844-12-4.587,2.222-6.127,4.215-11.638,6.075-16.785s3.588-9.925,5.276-14.582,3.323-9.188,5.007-13.845,3.419-9.435,5.276-14.578,3.861-10.662,6.075-16.789c3.518,1.271,6.145,2.262,8.761,3.275s5.235,2.045,8.706,3.47c-.011,6.993-.133,12.8-.306,18.2s-.4,10.408-.707,15.783-.7,11.115-1.308,17.975c.1.048.155.07.258.122,2.741-5.858,5.029-10.739,7.169-15.293s4.115-8.787,6.252-13.34,4.421-9.439,7.169-15.293c5.784,2.712,8.661,4.126,14.361,7.066-2.984,5.791-5.674,11-8.179,15.868s-4.834,9.38-7.107,13.782S172.342,67.5,170.072,71.9s-4.59,8.919-7.1,13.782-5.2,10.076-8.179,15.868c-4.8-2.472-7.217-3.662-12.088-5.935" transform="translate(306.101 19.327)" fill="#fff"/>
        <path id="パス_30" data-name="パス 30" d="M177.673,34c-2.443,3.905-4.277,6.834-6.108,9.763s-3.666,5.861-6.108,9.767c3.787,2.373,6.6,4.215,9.4,6.083s5.589,3.769,9.266,6.377l-6.587,9.3c-3.57-2.535-6.278-4.377-9-6.193s-5.453-3.6-9.129-5.906c-3.776,6.038-6.609,10.562-9.439,15.09l-9.442,15.09c-4.708-2.951-7.088-4.377-11.889-7.121,3.231-5.659,6.138-10.75,8.853-15.5s5.235-9.162,7.689-13.462,4.848-8.488,7.3-12.788,4.977-8.713,7.689-13.466,5.622-9.844,8.853-15.5c5.467,3.124,9.973,5.85,14.147,8.459s8.02,5.1,12.125,7.866,8.47,5.791,13.639,9.571l-6.72,9.207c-4.815-3.522-8.474-6.064-12.158-8.562s-7.387-4.94-12.386-8.076" transform="translate(345.292 41.71)" fill="#fff"/>
        <path id="パス_31" data-name="パス 31" d="M212.254,69.476,201.773,79.957l-9.14,9.14c-3.12,3.12-6.466,6.466-10.481,10.478-4.521,4.524-9.789,6.517-15.179,6.245s-10.905-2.8-16.262-7.486-8.525-9.77-9.446-15.031.405-10.71,4.288-15.794C149,63,151.867,59.234,154.546,55.727s5.165-6.771,7.844-10.279,5.548-7.273,8.993-11.782a18.256,18.256,0,0,1,9.343-6.716,19.942,19.942,0,0,1,11.9.438,38.324,38.324,0,0,1,13.2,7.884,39.112,39.112,0,0,1,9.641,12.117,20.517,20.517,0,0,1,2.144,11.87,17.983,17.983,0,0,1-5.353,10.216m-27.893-25.3c-3.607,4.344-6.613,7.961-9.417,11.34l-8.212,9.9c-2.807,3.378-5.81,7-9.417,11.34-3.865,4.653-3.489,9.159.9,13s8.934,3.647,13.031-.807c3.82-4.152,7-7.615,9.977-10.846s5.733-6.234,8.706-9.465,6.156-6.694,9.977-10.85c4.1-4.45,3.555-9.431-1.581-13.93s-10.095-4.333-13.959.321" transform="translate(378.422 70.431)" fill="#fff"/>
      </g>
    </g>
  </g>
</svg>
