<svg xmlns="http://www.w3.org/2000/svg" width="888.93" height="38.823" viewBox="0 0 888.93 38.823">
  <g id="グループ_275" data-name="グループ 275" transform="translate(-158.352 -4054.595)">
    <path id="パス_11" data-name="パス 11" d="M158.723,4077.821s45.8-50.893,99.878,0" fill="none" stroke="#707070" stroke-width="1"/>
    <path id="パス_12" data-name="パス 12" d="M158.723,4055.2s45.8,50.893,99.878,0" transform="translate(86.277 11.31)" fill="none" stroke="#707070" stroke-width="1"/>
    <path id="パス_13" data-name="パス 13" d="M158.723,4077.821s45.8-50.893,99.878,0" transform="translate(172.155)" fill="none" stroke="#707070" stroke-width="1"/>
    <path id="パス_14" data-name="パス 14" d="M158.723,4055.2s45.8,50.893,99.878,0" transform="translate(258.277 11.31)" fill="none" stroke="#707070" stroke-width="1"/>
    <path id="パス_15" data-name="パス 15" d="M158.723,4077.821s45.8-50.893,99.878,0" transform="translate(344.277)" fill="none" stroke="#707070" stroke-width="1"/>
    <path id="パス_16" data-name="パス 16" d="M158.723,4055.2s45.8,50.893,99.878,0" transform="translate(430.277 11)" fill="none" stroke="#707070" stroke-width="1"/>
    <path id="パス_17" data-name="パス 17" d="M158.723,4077.821s45.8-50.893,99.878,0" transform="translate(515.277)" fill="none" stroke="#707070" stroke-width="1"/>
    <path id="パス_18" data-name="パス 18" d="M158.723,4055.2s45.8,50.893,99.878,0" transform="translate(606.277 15)" fill="none" stroke="#707070" stroke-width="1"/>
    <path id="パス_19" data-name="パス 19" d="M158.723,4077.821s45.8-50.893,99.878,0" transform="translate(698.277)" fill="none" stroke="#707070" stroke-width="1"/>
    <path id="パス_20" data-name="パス 20" d="M158.723,4055.2s45.8,50.893,99.878,0" transform="translate(788.338 14)" fill="none" stroke="#707070" stroke-width="1"/>
  </g>
</svg>
