<?xml version="1.0" standalone="no"?>
<!DOCTYPE svg PUBLIC "-//W3C//DTD SVG 20010904//EN"
 "http://www.w3.org/TR/2001/REC-SVG-20010904/DTD/svg10.dtd">
<svg version="1.0" xmlns="http://www.w3.org/2000/svg"
 width="700.000000pt" height="700.000000pt" viewBox="0 0 700.000000 700.000000"
 preserveAspectRatio="xMidYMid meet">
<metadata>
Created by potrace 1.14, written by Peter Selinger 2001-2017
</metadata>
<g transform="translate(0.000000,700.000000) scale(0.100000,-0.100000)"
fill="#000000" stroke="none">
<path d="M2994 5174 c-18 -14 -18 -14 6 -3 31 14 36 19 24 19 -6 0 -19 -7 -30
-16z"/>
<path d="M3965 5150 c3 -5 13 -10 21 -10 8 0 12 5 9 10 -3 6 -13 10 -21 10 -8
0 -12 -4 -9 -10z"/>
<path d="M3978 5113 c7 -3 16 -2 19 1 4 3 -2 6 -13 5 -11 0 -14 -3 -6 -6z"/>
<path d="M2435 5050 c-3 -5 -1 -10 4 -10 6 0 11 5 11 10 0 6 -2 10 -4 10 -3 0
-8 -4 -11 -10z"/>
<path d="M2385 5020 c3 -5 11 -10 16 -10 6 0 7 5 4 10 -3 6 -11 10 -16 10 -6
0 -7 -4 -4 -10z"/>
<path d="M2498 5003 c6 -2 18 -2 25 0 6 3 1 5 -13 5 -14 0 -19 -2 -12 -5z"/>
<path d="M4721 4844 c0 -11 3 -14 6 -6 3 7 2 16 -1 19 -3 4 -6 -2 -5 -13z"/>
<path d="M4858 4672 c-3 -9 -2 -26 2 -37 6 -15 8 -10 8 18 0 40 -3 47 -10 19z"/>
<path d="M3420 4662 c-8 -5 -41 -14 -74 -21 -61 -13 -165 -64 -179 -88 -5 -7
-12 -11 -18 -8 -5 4 -12 0 -15 -9 -3 -8 -24 -33 -46 -57 -31 -32 -42 -39 -48
-28 -5 7 -12 10 -17 6 -4 -5 -2 -12 5 -16 13 -8 8 -23 -39 -114 -16 -32 -22
-37 -34 -27 -12 10 -15 10 -15 -1 0 -9 -3 -10 -10 -3 -7 7 -28 8 -63 2 -29 -5
-63 -10 -77 -12 -36 -4 -61 -17 -54 -27 3 -5 0 -9 -7 -9 -14 0 -99 -85 -99
-100 0 -6 -4 -8 -10 -5 -5 3 -10 -3 -10 -15 0 -12 -4 -19 -9 -16 -5 3 -12 -1
-15 -10 -9 -24 -7 -31 4 -14 9 13 10 13 10 0 -1 -8 -7 -24 -15 -34 -8 -10 -12
-23 -9 -28 3 -4 0 -24 -6 -43 -9 -29 -17 -35 -48 -41 -20 -4 -48 -17 -61 -30
-13 -13 -30 -24 -37 -24 -7 0 -11 -6 -9 -12 3 -7 -6 -25 -19 -39 -28 -30 -35
-51 -46 -128 -11 -83 15 -241 41 -241 5 0 9 -7 9 -15 0 -8 -4 -15 -10 -15 -5
0 -10 5 -10 10 0 6 -5 10 -10 10 -6 0 -5 -8 2 -19 8 -14 17 -17 28 -11 24 13
60 -22 60 -58 0 -16 8 -47 17 -68 9 -22 17 -42 17 -46 1 -3 4 -10 9 -14 4 -4
7 -17 8 -28 0 -21 1 -21 9 -1 9 19 9 19 16 -2 3 -13 10 -20 15 -17 5 3 14 -6
21 -20 6 -14 17 -26 25 -26 7 0 21 -4 31 -9 9 -5 26 -13 37 -17 28 -9 176 -11
182 -1 2 4 10 6 16 5 7 -1 22 3 35 10 12 7 28 10 34 6 8 -5 9 -2 5 10 -6 14
-3 16 14 11 14 -5 20 -3 18 7 -2 7 14 32 35 55 l39 41 49 -35 c88 -64 204
-102 353 -116 85 -8 290 12 330 33 22 11 49 20 61 20 12 0 27 7 34 15 10 12
17 12 34 3 18 -10 19 -9 8 4 -15 19 -2 33 43 44 27 7 29 6 16 -10 -12 -14 -12
-16 4 -9 15 5 17 3 12 -11 -5 -13 -3 -17 7 -13 21 8 98 -66 90 -86 -3 -10 -1
-17 5 -17 6 0 11 7 11 15 0 17 26 21 32 4 5 -14 191 -14 196 0 2 6 8 9 13 5
11 -6 89 36 89 48 0 4 6 8 13 8 11 0 67 70 67 85 0 4 9 20 20 35 14 20 18 37
14 58 -4 21 -1 33 10 43 37 31 56 53 56 66 0 7 7 13 15 13 9 0 15 6 13 13 -3
19 21 84 38 97 16 14 20 35 4 25 -6 -4 -10 12 -10 42 0 26 -4 64 -10 83 -6 22
-6 38 0 44 6 6 10 14 10 20 0 5 -6 1 -14 -10 -14 -18 -15 -18 -24 6 -11 27
-67 90 -81 90 -5 0 -11 9 -14 19 -3 11 -17 22 -36 26 -17 4 -31 11 -31 16 0 6
-9 7 -21 4 -21 -7 -22 -5 -17 39 3 25 2 46 -2 46 -5 0 -14 17 -20 38 -7 20
-23 52 -37 70 -13 17 -19 32 -14 32 6 0 11 4 11 10 0 5 -7 7 -15 4 -9 -4 -15
0 -15 10 0 9 -6 13 -14 10 -7 -3 -23 7 -35 22 -11 15 -21 24 -21 20 0 -3 -24
3 -52 14 -31 12 -77 20 -111 20 -36 0 -56 4 -52 10 3 6 -3 10 -14 10 -14 0
-21 7 -22 20 -2 35 -4 39 -21 60 -24 27 -23 33 5 27 21 -6 21 -5 3 8 -10 8
-23 12 -27 9 -5 -3 -9 2 -9 11 0 8 -7 18 -15 21 -8 4 -13 9 -11 13 7 10 -20
30 -41 31 -5 0 0 5 10 11 9 5 17 15 17 20 0 6 -7 3 -16 -5 -8 -9 -18 -16 -21
-16 -9 0 -42 45 -43 58 0 7 -4 10 -10 7 -11 -7 -70 25 -70 38 0 4 -8 7 -18 5
-11 -2 -25 2 -33 8 -32 25 -268 53 -299 36z m212 -132 c26 -5 57 -19 68 -30
11 -11 28 -20 39 -20 10 0 43 -24 72 -53 65 -64 88 -95 95 -124 4 -13 10 -23
14 -23 4 0 10 -16 12 -35 2 -20 0 -35 -7 -35 -5 0 -4 -4 4 -9 8 -5 14 -23 14
-40 0 -17 5 -31 10 -31 9 0 7 -20 -14 -124 -12 -63 -43 -124 -53 -108 -3 6
-15 8 -26 5 -12 -3 -20 0 -20 7 0 6 -6 10 -12 7 -7 -2 -20 2 -29 10 -9 8 -42
16 -73 18 -31 3 -66 10 -77 16 -29 15 -235 12 -295 -5 -27 -8 -69 -17 -94 -21
-25 -4 -60 -18 -78 -32 -36 -27 -72 -24 -72 7 0 10 -4 22 -10 25 -5 3 -10 15
-10 25 0 10 -5 20 -11 22 -15 5 -14 258 1 258 4 0 10 14 14 30 3 17 17 46 31
64 14 18 22 35 19 38 -3 3 3 5 13 5 11 -1 19 6 21 20 2 12 16 27 35 37 18 8
31 19 30 23 -2 4 2 8 7 8 6 0 14 6 19 13 5 8 25 14 45 15 20 1 31 4 24 8 -19
12 -4 21 59 33 63 13 161 12 235 -4z m-718 -356 c18 -7 22 -34 4 -34 -6 0 -8
-3 -5 -6 4 -4 13 -1 22 6 18 15 18 12 4 -29 -8 -21 -8 -35 -1 -44 6 -6 13 -38
17 -69 5 -36 11 -55 18 -51 6 4 8 -3 3 -21 -4 -15 -2 -26 4 -26 5 0 10 -6 10
-14 0 -8 7 -22 16 -30 8 -9 11 -16 6 -16 -15 0 -23 -28 -10 -36 7 -4 8 -3 4 4
-4 7 -1 12 8 12 19 0 20 -9 2 -33 -7 -9 -20 -16 -27 -14 -8 2 -11 2 -6 0 15
-9 7 -35 -9 -29 -8 3 -13 2 -9 -3 8 -14 -28 -72 -42 -66 -7 2 -13 0 -13 -4 0
-5 5 -11 10 -13 7 -2 7 -15 0 -38 -15 -54 -12 -122 10 -192 24 -75 23 -71 8
-62 -10 5 -10 4 -1 -6 14 -15 -21 -80 -43 -80 -8 0 -14 -6 -14 -14 0 -33 -186
-46 -205 -15 -4 5 -12 6 -18 3 -8 -5 -8 -3 1 7 15 16 16 37 1 22 -9 -9 -19 -5
-40 15 -22 20 -32 43 -40 87 -6 33 -15 68 -20 77 -5 10 -7 23 -5 30 1 7 1 10
-1 6 -8 -14 -23 -8 -23 8 0 8 -4 13 -9 10 -10 -6 -42 26 -45 46 -1 7 -5 19
-10 26 -12 19 -9 93 5 127 7 17 13 34 13 40 1 5 10 14 22 20 11 5 19 16 16 23
-2 6 3 12 11 12 9 0 17 4 19 10 2 5 26 18 53 28 83 29 82 29 88 113 2 41 10
86 17 100 15 29 71 89 83 89 4 0 15 7 23 15 16 15 69 20 98 9z m1268 -24 c12
-11 28 -20 35 -20 7 0 13 -6 13 -14 0 -8 7 -13 15 -12 9 0 23 -12 32 -29 42
-77 43 -91 11 -75 l-23 11 23 -20 c23 -20 30 -61 10 -61 -9 0 -9 -3 0 -12 17
-17 15 -28 -5 -28 -19 0 -12 -11 11 -14 8 -1 23 -9 33 -18 10 -8 35 -18 55
-22 27 -5 36 -11 31 -21 -3 -8 0 -15 6 -15 6 0 11 5 11 11 0 6 7 4 15 -5 8 -8
15 -19 15 -24 0 -5 11 -15 25 -22 14 -8 28 -25 32 -39 3 -14 10 -32 16 -39 13
-17 19 -73 8 -86 -5 -6 -12 -22 -16 -36 -10 -34 -38 -67 -51 -63 -6 2 -14 -6
-17 -18 -3 -11 -10 -18 -16 -14 -7 4 -8 0 -4 -11 4 -12 3 -15 -5 -10 -9 5 -12
-8 -12 -45 0 -34 -7 -63 -20 -84 -24 -39 -66 -69 -75 -55 -9 14 -25 2 -19 -13
8 -22 -38 -38 -91 -34 -42 4 -49 8 -47 23 3 15 1 16 -12 5 -15 -12 -20 -8 -17
12 0 4 -6 7 -14 7 -14 0 -75 53 -75 66 0 3 15 33 33 67 25 46 33 72 31 102 -1
22 -4 70 -5 108 -2 37 -7 67 -11 67 -4 0 -8 7 -8 15 0 8 -4 15 -9 15 -5 0 -12
12 -15 26 -4 15 -9 24 -12 21 -9 -9 -41 27 -36 41 2 6 -3 12 -11 12 -19 0 -29
24 -15 38 6 6 13 23 14 38 2 15 7 30 12 33 9 6 43 113 43 136 0 6 -1 36 -3 68
l-4 57 49 0 c34 0 54 -6 69 -20z m-564 -305 c97 -15 117 -20 180 -45 25 -9 30
-15 20 -21 -9 -6 -6 -9 12 -9 14 0 43 -14 64 -30 22 -17 37 -30 34 -30 -3 0
12 -17 33 -39 38 -38 49 -61 29 -61 -5 0 -10 -5 -10 -11 0 -6 6 -9 13 -6 20 7
21 -97 2 -113 -7 -6 -11 -18 -9 -25 3 -7 -4 -23 -15 -34 -12 -12 -21 -24 -21
-27 0 -9 -41 -44 -52 -44 -4 0 -8 -7 -8 -15 0 -8 -6 -15 -13 -15 -6 0 -32 -11
-57 -24 -46 -24 -105 -42 -127 -37 -7 1 -13 -3 -13 -8 0 -6 -10 -11 -22 -11
-13 -1 -58 -3 -101 -6 -92 -7 -242 11 -274 32 -12 8 -27 14 -34 14 -6 0 -22 9
-36 20 -14 11 -29 18 -33 15 -4 -2 -15 4 -25 15 -10 11 -25 20 -33 20 -11 0
-13 8 -9 38 5 34 5 35 -6 14 l-13 -22 -22 29 c-15 21 -18 32 -10 37 7 5 4 10
-11 16 -13 4 -21 14 -18 20 2 7 0 26 -4 42 -5 18 -5 34 2 42 6 7 8 17 5 23
-11 18 12 56 69 114 34 35 63 56 71 53 8 -3 14 1 14 10 0 10 6 14 15 10 8 -3
15 -2 15 3 0 15 122 54 205 67 44 6 83 12 88 13 4 0 51 -6 105 -14z"/>
<path d="M3625 4480 c3 -5 8 -10 11 -10 2 0 4 5 4 10 0 6 -5 10 -11 10 -5 0
-7 -4 -4 -10z"/>
<path d="M3600 4440 c0 -5 7 -7 15 -4 8 4 15 8 15 10 0 2 -7 4 -15 4 -8 0 -15
-4 -15 -10z"/>
<path d="M3645 4430 c3 -5 8 -10 11 -10 2 0 4 5 4 10 0 6 -5 10 -11 10 -5 0
-7 -4 -4 -10z"/>
<path d="M3206 4395 c4 -8 8 -15 10 -15 2 0 4 7 4 15 0 8 -4 15 -10 15 -5 0
-7 -7 -4 -15z"/>
<path d="M3165 4348 l-20 -21 23 12 c12 6 22 16 22 21 0 13 -2 12 -25 -12z"/>
<path d="M3112 4110 c0 -14 2 -19 5 -12 2 6 2 18 0 25 -3 6 -5 1 -5 -13z"/>
<path d="M3112 4030 c0 -14 2 -19 5 -12 2 6 2 18 0 25 -3 6 -5 1 -5 -13z"/>
<path d="M2838 4093 c7 -3 16 -2 19 1 4 3 -2 6 -13 5 -11 0 -14 -3 -6 -6z"/>
<path d="M2745 4080 c-3 -5 -1 -10 4 -10 6 0 11 5 11 10 0 6 -2 10 -4 10 -3 0
-8 -4 -11 -10z"/>
<path d="M2721 4054 c0 -11 3 -14 6 -6 3 7 2 16 -1 19 -3 4 -6 -2 -5 -13z"/>
<path d="M2775 4050 c3 -5 8 -10 11 -10 2 0 4 5 4 10 0 6 -5 10 -11 10 -5 0
-7 -4 -4 -10z"/>
<path d="M2936 3715 c-9 -26 -7 -32 5 -12 6 10 9 21 6 23 -2 3 -7 -2 -11 -11z"/>
<path d="M2490 3550 c0 -5 5 -10 10 -10 6 0 10 5 10 10 0 6 -4 10 -10 10 -5 0
-10 -4 -10 -10z"/>
<path d="M2630 3360 c0 -5 5 -10 10 -10 6 0 10 5 10 10 0 6 -4 10 -10 10 -5 0
-10 -4 -10 -10z"/>
<path d="M2662 3340 c0 -14 2 -19 5 -12 2 6 2 18 0 25 -3 6 -5 1 -5 -13z"/>
<path d="M2618 3323 c7 -3 16 -2 19 1 4 3 -2 6 -13 5 -11 0 -14 -3 -6 -6z"/>
<path d="M2825 3290 c-16 -7 -17 -9 -3 -9 9 -1 20 4 23 9 7 11 7 11 -20 0z"/>
<path d="M4510 3609 c0 -5 5 -7 10 -4 6 3 10 8 10 11 0 2 -4 4 -10 4 -5 0 -10
-5 -10 -11z"/>
<path d="M4385 3330 c-3 -5 1 -10 9 -10 9 0 16 5 16 10 0 6 -4 10 -9 10 -6 0
-13 -4 -16 -10z"/>
<path d="M4340 3290 c0 -5 5 -10 11 -10 5 0 7 5 4 10 -3 6 -8 10 -11 10 -2 0
-4 -4 -4 -10z"/>
<path d="M3418 3803 c6 -2 18 -2 25 0 6 3 1 5 -13 5 -14 0 -19 -2 -12 -5z"/>
<path d="M3288 3783 c7 -3 16 -2 19 1 4 3 -2 6 -13 5 -11 0 -14 -3 -6 -6z"/>
<path d="M3101 3614 c0 -11 3 -14 6 -6 3 7 2 16 -1 19 -3 4 -6 -2 -5 -13z"/>
<path d="M3050 3610 c0 -5 5 -10 10 -10 6 0 10 5 10 10 0 6 -4 10 -10 10 -5 0
-10 -4 -10 -10z"/>
<path d="M3112 3465 c0 -16 2 -22 5 -12 2 9 2 23 0 30 -3 6 -5 -1 -5 -18z"/>
<path d="M3935 3440 c3 -5 8 -10 11 -10 2 0 4 5 4 10 0 6 -5 10 -11 10 -5 0
-7 -4 -4 -10z"/>
<path d="M3877 3383 c-4 -3 -7 -11 -7 -17 0 -6 5 -5 12 2 6 6 9 14 7 17 -3 3
-9 2 -12 -2z"/>
<path d="M3158 3363 c7 -3 16 -2 19 1 4 3 -2 6 -13 5 -11 0 -14 -3 -6 -6z"/>
<path d="M3215 3330 c3 -5 8 -10 11 -10 2 0 4 5 4 10 0 6 -5 10 -11 10 -5 0
-7 -4 -4 -10z"/>
<path d="M3150 4619 c0 -5 5 -7 10 -4 6 3 10 8 10 11 0 2 -4 4 -10 4 -5 0 -10
-5 -10 -11z"/>
<path d="M3878 4623 c7 -3 16 -2 19 1 4 3 -2 6 -13 5 -11 0 -14 -3 -6 -6z"/>
<path d="M3830 4611 c0 -5 5 -13 10 -16 6 -3 10 -2 10 4 0 5 -4 13 -10 16 -5
3 -10 2 -10 -4z"/>
<path d="M3882 4560 c0 -14 2 -19 5 -12 2 6 2 18 0 25 -3 6 -5 1 -5 -13z"/>
<path d="M4940 4530 c0 -19 3 -21 12 -12 9 9 9 15 0 24 -9 9 -12 7 -12 -12z"/>
<path d="M3040 4520 c0 -5 5 -10 11 -10 5 0 7 5 4 10 -3 6 -8 10 -11 10 -2 0
-4 -4 -4 -10z"/>
<path d="M3080 4520 c0 -5 5 -10 11 -10 5 0 7 5 4 10 -3 6 -8 10 -11 10 -2 0
-4 -4 -4 -10z"/>
<path d="M3945 4510 c3 -5 8 -10 11 -10 2 0 4 5 4 10 0 6 -5 10 -11 10 -5 0
-7 -4 -4 -10z"/>
<path d="M3045 4480 c-3 -5 -1 -10 4 -10 6 0 11 5 11 10 0 6 -2 10 -4 10 -3 0
-8 -4 -11 -10z"/>
<path d="M3986 4467 c3 -10 9 -15 12 -12 3 3 0 11 -7 18 -10 9 -11 8 -5 -6z"/>
<path d="M5105 4340 c3 -5 11 -10 16 -10 6 0 7 5 4 10 -3 6 -11 10 -16 10 -6
0 -7 -4 -4 -10z"/>
<path d="M1920 4320 c0 -5 5 -10 11 -10 5 0 7 5 4 10 -3 6 -8 10 -11 10 -2 0
-4 -4 -4 -10z"/>
<path d="M4320 4300 c-8 -5 -12 -11 -10 -14 3 -2 14 2 24 10 22 15 10 19 -14
4z"/>
<path d="M5185 4280 c-3 -5 -1 -10 4 -10 6 0 11 5 11 10 0 6 -2 10 -4 10 -3 0
-8 -4 -11 -10z"/>
<path d="M4305 4230 c-3 -6 1 -7 9 -4 18 7 21 14 7 14 -6 0 -13 -4 -16 -10z"/>
<path d="M5220 4236 c0 -2 7 -9 15 -16 9 -7 15 -8 15 -2 0 5 -7 12 -15 16 -8
3 -15 4 -15 2z"/>
<path d="M4455 4130 c-3 -5 -1 -10 4 -10 6 0 11 5 11 10 0 6 -2 10 -4 10 -3 0
-8 -4 -11 -10z"/>
<path d="M1751 4114 c0 -11 3 -14 6 -6 3 7 2 16 -1 19 -3 4 -6 -2 -5 -13z"/>
<path d="M5282 4045 c0 -16 2 -22 5 -12 2 9 2 23 0 30 -3 6 -5 -1 -5 -18z"/>
<path d="M2490 3965 c7 -8 20 -14 29 -14 13 1 13 2 -1 6 -10 2 -18 9 -18 14 0
5 -5 9 -11 9 -8 0 -8 -5 1 -15z"/>
<path d="M2381 3874 c0 -11 3 -14 6 -6 3 7 2 16 -1 19 -3 4 -6 -2 -5 -13z"/>
<path d="M4630 3846 c0 -4 7 -14 15 -22 8 -9 15 -11 15 -6 0 5 -7 15 -15 22
-8 7 -15 9 -15 6z"/>
<path d="M5351 3784 c0 -11 3 -14 6 -6 3 7 2 16 -1 19 -3 4 -6 -2 -5 -13z"/>
<path d="M4675 3750 c-3 -5 -1 -10 4 -10 6 0 11 5 11 10 0 6 -2 10 -4 10 -3 0
-8 -4 -11 -10z"/>
<path d="M5281 3624 c0 -11 3 -14 6 -6 3 7 2 16 -1 19 -3 4 -6 -2 -5 -13z"/>
<path d="M4681 3444 c0 -11 3 -14 6 -6 3 7 2 16 -1 19 -3 4 -6 -2 -5 -13z"/>
<path d="M4620 3429 c0 -5 5 -7 10 -4 6 3 10 8 10 11 0 2 -4 4 -10 4 -5 0 -10
-5 -10 -11z"/>
<path d="M3010 3210 c0 -5 5 -10 10 -10 6 0 10 5 10 10 0 6 -4 10 -10 10 -5 0
-10 -4 -10 -10z"/>
<path d="M3075 3210 c3 -5 8 -10 11 -10 2 0 4 5 4 10 0 6 -5 10 -11 10 -5 0
-7 -4 -4 -10z"/>
<path d="M3040 3200 c0 -5 5 -10 11 -10 5 0 7 5 4 10 -3 6 -8 10 -11 10 -2 0
-4 -4 -4 -10z"/>
<path d="M2992 3165 c-11 -12 -10 -15 3 -15 8 0 15 7 15 15 0 18 -2 18 -18 0z"/>
<path d="M3298 3113 c7 -3 16 -2 19 1 4 3 -2 6 -13 5 -11 0 -14 -3 -6 -6z"/>
<path d="M3698 3113 c6 -2 18 -2 25 0 6 3 1 5 -13 5 -14 0 -19 -2 -12 -5z"/>
<path d="M3885 3100 c3 -5 8 -10 11 -10 2 0 4 5 4 10 0 6 -5 10 -11 10 -5 0
-7 -4 -4 -10z"/>
<path d="M2833 3080 c2 -8 -22 -39 -55 -72 -32 -31 -58 -59 -58 -62 0 -7 -39
-54 -62 -75 -10 -8 -18 -21 -18 -27 0 -6 -7 -17 -16 -25 -13 -10 -17 -10 -25
2 -8 11 -9 10 -7 -6 4 -22 4 -22 -43 -77 -17 -21 -37 -38 -45 -38 -8 0 -11 -6
-8 -15 4 -8 1 -15 -7 -15 -7 0 -9 -3 -6 -6 3 -4 -4 -15 -17 -25 -13 -10 -27
-30 -30 -44 -4 -14 -10 -25 -14 -25 -14 0 -7 -107 8 -126 14 -16 13 -17 -2
-11 -10 3 -18 2 -18 -4 0 -6 11 -8 29 -4 17 3 32 2 36 -4 4 -7 -1 -8 -12 -4
-10 3 -15 3 -11 -1 6 -7 28 -12 101 -23 20 -3 37 -10 37 -17 0 -8 2 -8 8 0 4
6 21 13 37 17 25 5 32 1 42 -20 10 -21 10 -24 -3 -19 -7 3 -14 1 -14 -5 0 -7
10 -9 25 -5 14 4 25 3 25 -1 0 -12 38 -34 69 -41 38 -8 81 -4 97 9 11 9 19 6
37 -13 12 -13 28 -23 35 -20 7 2 12 -1 12 -7 0 -6 7 -11 15 -11 8 0 15 -4 15
-8 0 -10 4 -10 77 -15 29 -2 47 1 40 5 -9 6 -9 8 0 8 6 0 19 3 29 7 12 4 15 3
10 -5 -4 -7 -2 -12 3 -12 6 0 11 8 11 18 0 10 11 25 25 32 24 13 27 11 65 -30
22 -23 37 -47 34 -52 -3 -5 3 -4 14 3 17 10 24 10 46 -4 14 -9 45 -17 69 -17
45 0 133 36 156 64 7 9 19 16 26 16 8 0 16 7 18 15 3 11 4 10 3 -2 -2 -20 76
-73 107 -73 9 0 17 -7 17 -15 0 -12 4 -13 19 -6 10 6 21 8 24 4 4 -3 13 0 21
6 8 7 20 10 26 6 5 -3 10 -2 10 3 0 5 11 15 25 22 13 7 22 17 19 21 -3 5 1 6
9 3 8 -3 17 2 20 10 4 11 1 13 -10 9 -12 -5 -11 -1 4 14 17 17 28 19 60 14 22
-4 50 -4 62 1 13 4 26 6 29 5 9 -5 42 30 35 36 -2 3 5 8 16 12 12 4 18 12 14
21 -7 20 3 18 27 -6 11 -11 27 -20 35 -20 8 0 15 -4 15 -9 0 -12 54 -31 104
-37 85 -11 206 85 206 162 0 18 6 35 13 37 8 4 9 8 1 14 -6 4 -13 27 -16 49
-6 41 -37 97 -68 120 -75 58 -74 55 -73 158 0 53 -3 93 -8 90 -5 -3 -9 0 -9 6
0 6 -13 16 -30 21 -16 6 -30 15 -30 19 0 4 -22 10 -50 12 l-50 3 -6 -47 c-5
-37 -10 -45 -23 -41 -10 3 -12 2 -4 -4 16 -11 30 -68 14 -59 -6 4 -11 1 -11
-8 0 -10 6 -13 16 -9 11 4 15 1 12 -13 -2 -11 2 -18 9 -17 8 2 12 -7 11 -22
-1 -14 -6 -25 -10 -25 -15 0 -8 -43 10 -57 16 -13 15 -14 -5 -8 -14 4 -23 2
-23 -4 0 -6 -7 -11 -15 -11 -8 0 -15 -5 -15 -11 0 -5 -5 -7 -10 -4 -6 4 -19
-13 -30 -37 -10 -24 -23 -42 -27 -42 -16 3 -40 -22 -45 -46 -11 -55 -10 -52
-47 -100 -20 -25 -20 -25 -3 32 9 31 19 55 22 53 3 -2 3 34 2 78 -3 56 -9 88
-20 100 -8 9 -12 20 -9 24 4 3 7 3 7 -1 0 -4 7 -1 15 8 19 18 20 32 1 17 -26
-22 -101 24 -89 55 6 17 6 18 -9 3 -16 -15 -78 -16 -76 0 2 20 -4 22 -16 5
-11 -14 -17 -16 -27 -7 -6 6 -18 9 -26 6 -11 -4 -12 -8 -3 -13 9 -5 6 -10 -9
-15 -11 -3 -21 -11 -21 -17 0 -6 -6 -6 -15 2 -13 11 -14 10 -9 -4 4 -11 1 -16
-12 -16 -12 0 -15 -3 -8 -8 13 -8 0 -52 -15 -52 -5 0 -12 -18 -16 -40 -4 -22
-11 -42 -15 -45 -5 -3 -5 9 0 27 8 27 6 37 -16 66 -14 18 -32 36 -40 39 -8 3
-14 11 -14 19 0 14 -17 19 -52 16 -12 -1 -18 5 -18 18 0 21 34 29 43 10 3 -6
4 -5 3 2 -4 22 -44 21 -56 -2 -6 -11 -15 -18 -20 -15 -4 3 -10 1 -12 -4 -1 -6
-20 -12 -40 -14 -24 -2 -45 -12 -58 -27 -22 -25 -22 -25 -39 8 -6 12 -19 22
-27 22 -8 0 -13 4 -9 9 3 5 1 12 -5 16 -5 3 -10 11 -10 16 0 6 5 7 11 3 8 -4
9 0 4 15 -4 13 -2 21 5 21 6 0 13 8 17 18 3 9 13 26 22 36 11 14 12 17 2 11
-11 -6 -13 -3 -9 12 4 17 2 19 -15 15 -13 -3 -18 -1 -13 6 4 7 -8 15 -33 23
-34 10 -42 9 -65 -7 -14 -11 -26 -27 -26 -37 0 -14 -5 -17 -22 -13 -13 3 -17
3 -10 0 16 -7 15 -34 -2 -57 -9 -12 -16 -14 -21 -7 -4 6 -1 18 6 26 11 14 6
22 -32 57 -34 33 -52 42 -79 42 -35 0 -35 0 -36 -47 -1 -27 2 -45 7 -42 5 3 8
0 7 -8 -2 -7 2 -12 9 -11 7 2 25 -2 40 -9 15 -6 38 -10 49 -9 12 1 24 -5 28
-14 3 -10 2 -14 -5 -9 -6 3 -37 6 -70 5 -36 0 -58 3 -54 9 4 6 -1 7 -11 3 -13
-5 -16 -2 -11 9 4 12 1 14 -16 10 -23 -6 -62 -38 -62 -51 0 -16 -35 -42 -47
-35 -10 6 -10 4 0 -8 10 -13 10 -19 -3 -32 -9 -9 -21 -16 -26 -16 -6 0 -7 -5
-4 -11 4 -5 -3 -19 -16 -30 -12 -10 -19 -19 -15 -19 11 0 -13 -21 -69 -59 -28
-19 -63 -47 -79 -63 -17 -15 -38 -28 -47 -28 -10 0 -19 -6 -22 -12 -2 -7 -7
-10 -11 -7 -11 10 45 108 59 103 6 -3 12 1 12 9 0 19 44 77 60 77 7 0 13 10
13 23 0 15 3 18 9 9 6 -10 11 -9 22 4 9 12 10 15 2 10 -27 -16 -11 12 27 47
22 20 40 41 40 47 0 6 4 9 9 6 5 -3 15 2 22 11 12 14 12 16 -1 8 -13 -8 -13
-7 0 11 8 10 21 26 30 35 8 9 30 34 49 57 22 26 39 39 50 35 10 -3 12 -2 5 4
-7 4 -13 17 -15 27 -2 10 -13 24 -24 30 -11 6 -27 19 -36 28 -9 10 -19 14 -23
11 -4 -4 -12 -1 -17 7 -9 13 -10 13 -6 0z m229 -365 c-2 -10 -10 -24 -18 -32
-8 -8 -17 -25 -20 -38 -4 -15 -11 -22 -20 -18 -10 3 -12 0 -8 -10 6 -16 -42
-74 -52 -64 -4 3 1 13 10 22 20 20 20 26 1 19 -8 -4 -15 -10 -15 -15 0 -5 -8
-9 -17 -9 -13 0 -14 -3 -5 -12 16 -16 15 -28 -3 -28 -8 0 -15 -7 -15 -15 0 -9
-9 -26 -20 -37 -19 -20 -22 -21 -36 -6 -15 15 -14 18 9 43 14 15 31 39 39 54
18 34 42 58 56 55 7 -1 8 0 2 3 -5 2 -10 11 -10 19 0 9 5 12 10 9 6 -3 10 1
10 10 0 8 9 23 20 32 11 10 20 23 20 29 0 17 21 23 45 14 12 -5 19 -15 17 -25z
m229 -38 c4 -5 11 -1 17 9 6 10 14 16 17 12 4 -4 -3 -17 -16 -30 -13 -13 -37
-49 -53 -81 -15 -32 -34 -61 -41 -63 -7 -3 -28 -26 -46 -52 -41 -58 -79 -93
-90 -86 -5 3 -9 -2 -9 -10 0 -9 -5 -16 -10 -16 -16 0 -1 68 23 113 18 33 22
36 29 20 6 -12 7 -8 5 15 -2 17 -1 32 3 32 3 0 11 14 17 30 8 23 16 29 30 24
15 -5 16 -4 3 5 -13 10 -13 13 1 24 9 6 14 18 12 25 -3 6 0 12 6 12 6 0 11 6
11 14 0 25 75 28 91 3z m594 -44 c-3 -64 -14 -93 -34 -93 -38 0 -72 -90 -38
-103 9 -4 8 -8 -3 -17 -11 -9 -12 -13 -3 -17 9 -3 8 -11 -5 -31 -26 -39 -61
-72 -67 -62 -10 17 3 148 21 204 10 31 26 65 36 76 10 11 18 23 17 27 -5 32
22 63 55 63 21 0 23 -4 21 -47z m-395 -25 c-12 -10 -17 -18 -10 -18 10 0 10
-3 0 -15 -9 -10 -9 -15 -1 -15 6 0 11 -7 11 -15 0 -8 6 -12 14 -9 7 3 20 -1
27 -8 17 -16 71 -18 81 -4 5 7 8 4 8 -6 0 -10 -7 -18 -16 -18 -18 0 -44 -23
-44 -40 0 -6 -4 -9 -9 -6 -5 3 -8 -5 -8 -18 0 -26 -39 -71 -48 -56 -8 13 -35
13 -35 0 0 -5 7 -7 15 -4 8 4 15 2 15 -2 0 -13 -20 -41 -20 -29 0 6 -5 2 -11
-8 -6 -9 -14 -15 -20 -12 -5 4 -12 -1 -15 -10 -5 -13 -9 -13 -22 -3 -12 10
-14 10 -8 1 5 -9 -1 -13 -22 -13 -38 0 -61 46 -43 86 6 14 11 32 11 41 0 20
49 121 70 144 91 100 94 102 98 76 3 -13 -5 -28 -18 -39z m834 56 c9 -3 16
-13 16 -21 0 -8 4 -12 8 -9 4 2 14 1 21 -3 8 -5 9 -11 3 -15 -5 -3 -21 3 -35
14 -14 11 -30 20 -37 20 -6 0 -8 5 -5 10 7 12 8 12 29 4z m-54 -105 c0 -5 5
-7 10 -4 6 3 10 1 10 -4 0 -6 7 -11 16 -11 20 0 74 -31 74 -43 0 -18 -36 -53
-49 -49 -8 3 -11 0 -7 -6 7 -12 -60 -46 -75 -36 -6 3 -9 15 -6 25 3 11 1 19
-4 19 -5 0 -9 -8 -9 -17 0 -15 -2 -16 -10 -3 -14 21 -12 30 5 30 8 0 15 5 15
10 0 6 8 10 18 11 9 0 12 3 5 5 -7 3 -22 0 -33 -6 -12 -6 -23 -10 -24 -8 -7 8
16 68 24 63 6 -4 10 3 10 14 0 12 7 21 15 21 8 0 15 -5 15 -11z m-1426 -120
c-3 -5 -10 -7 -15 -4 -5 4 -9 -1 -9 -9 0 -9 -7 -16 -15 -16 -14 0 -14 3 0 31
13 25 19 28 31 19 7 -7 11 -16 8 -21z m200 -84 c3 -8 1 -15 -4 -15 -6 0 -10 7
-10 15 0 8 2 15 4 15 2 0 6 -7 10 -15z"/>
<path d="M3241 2661 c-7 -5 -9 -11 -5 -14 5 -3 15 1 22 9 14 16 5 18 -17 5z"/>
<path d="M3180 2571 c0 -5 -8 -12 -17 -14 -14 -4 -12 -5 5 -6 13 -1 22 5 22
14 0 8 -2 15 -5 15 -3 0 -5 -4 -5 -9z"/>
<path d="M3150 2500 c0 -5 5 -10 11 -10 5 0 7 5 4 10 -3 6 -8 10 -11 10 -2 0
-4 -4 -4 -10z"/>
<path d="M3130 2469 c0 -5 5 -7 10 -4 6 3 10 8 10 11 0 2 -4 4 -10 4 -5 0 -10
-5 -10 -11z"/>
<path d="M3840 2654 c0 -8 5 -12 10 -9 6 4 8 11 5 16 -9 14 -15 11 -15 -7z"/>
<path d="M3835 2570 c-3 -5 -1 -10 4 -10 6 0 11 5 11 10 0 6 -2 10 -4 10 -3 0
-8 -4 -11 -10z"/>
<path d="M3751 2394 c0 -11 3 -14 6 -6 3 7 2 16 -1 19 -3 4 -6 -2 -5 -13z"/>
<path d="M3771 2371 c-8 -5 -9 -11 -3 -15 5 -3 12 1 16 9 6 17 6 18 -13 6z"/>
<path d="M3510 2490 c0 -5 5 -10 10 -10 6 0 10 5 10 10 0 6 -4 10 -10 10 -5 0
-10 -4 -10 -10z"/>
<path d="M3502 2420 c-12 -19 -11 -20 8 -8 20 13 27 28 12 28 -4 0 -13 -9 -20
-20z"/>
<path d="M3375 2360 c-3 -5 -2 -10 4 -10 5 0 13 5 16 10 3 6 2 10 -4 10 -5 0
-13 -4 -16 -10z"/>
<path d="M3430 2360 c0 -5 5 -10 11 -10 5 0 7 5 4 10 -3 6 -8 10 -11 10 -2 0
-4 -4 -4 -10z"/>
<path d="M4286 2441 c-4 -7 -5 -15 -2 -18 9 -9 19 4 14 18 -4 11 -6 11 -12 0z"/>
<path d="M3678 3083 c6 -2 18 -2 25 0 6 3 1 5 -13 5 -14 0 -19 -2 -12 -5z"/>
<path d="M4145 3060 c3 -5 8 -10 11 -10 2 0 4 5 4 10 0 6 -5 10 -11 10 -5 0
-7 -4 -4 -10z"/>
<path d="M4320 3006 c0 -2 7 -6 15 -10 8 -3 15 -1 15 4 0 6 -7 10 -15 10 -8 0
-15 -2 -15 -4z"/>
<path d="M3080 2959 c0 -5 5 -7 10 -4 6 3 10 8 10 11 0 2 -4 4 -10 4 -5 0 -10
-5 -10 -11z"/>
<path d="M2575 2920 c-3 -5 -1 -10 4 -10 6 0 11 5 11 10 0 6 -2 10 -4 10 -3 0
-8 -4 -11 -10z"/>
<path d="M2650 2921 c0 -8 -8 -11 -20 -8 -11 3 -18 1 -14 -4 3 -5 11 -9 19 -9
16 0 30 18 21 27 -3 4 -6 1 -6 -6z"/>
<path d="M2840 2856 c0 -9 5 -16 10 -16 6 0 10 4 10 9 0 6 -4 13 -10 16 -5 3
-10 -1 -10 -9z"/>
<path d="M2880 2859 c0 -5 5 -7 10 -4 6 3 10 8 10 11 0 2 -4 4 -10 4 -5 0 -10
-5 -10 -11z"/>
<path d="M1781 2824 c0 -11 3 -14 6 -6 3 7 2 16 -1 19 -3 4 -6 -2 -5 -13z"/>
<path d="M3560 2829 c0 -5 5 -7 10 -4 6 3 10 8 10 11 0 2 -4 4 -10 4 -5 0 -10
-5 -10 -11z"/>
<path d="M3895 2829 c-4 -6 -5 -12 -2 -15 2 -3 7 2 10 11 7 17 1 20 -8 4z"/>
<path d="M1730 2805 c-11 -13 -10 -14 4 -9 9 3 16 10 16 15 0 13 -6 11 -20 -6z"/>
<path d="M4146 2733 c6 -4 14 -15 17 -23 5 -11 6 -9 4 4 -1 11 -9 21 -17 23
-10 3 -11 2 -4 -4z"/>
<path d="M4450 2699 c0 -5 5 -7 10 -4 6 3 10 8 10 11 0 2 -4 4 -10 4 -5 0 -10
-5 -10 -11z"/>
<path d="M2725 2670 c-3 -5 1 -10 10 -10 9 0 13 5 10 10 -3 6 -8 10 -10 10 -2
0 -7 -4 -10 -10z"/>
<path d="M1850 2659 c0 -5 5 -7 10 -4 6 3 10 8 10 11 0 2 -4 4 -10 4 -5 0 -10
-5 -10 -11z"/>
<path d="M2680 2630 c0 -5 5 -10 11 -10 5 0 7 5 4 10 -3 6 -8 10 -11 10 -2 0
-4 -4 -4 -10z"/>
<path d="M4966 2613 c-6 -14 -5 -15 5 -6 7 7 10 15 7 18 -3 3 -9 -2 -12 -12z"/>
<path d="M4526 2575 c-3 -8 -1 -15 4 -15 6 0 10 7 10 15 0 8 -2 15 -4 15 -2 0
-6 -7 -10 -15z"/>
<path d="M5024 2556 c-28 -28 -38 -46 -25 -46 6 0 11 6 11 14 0 7 10 20 23 29
12 8 20 17 17 20 -3 2 -14 -5 -26 -17z"/>
<path d="M4541 2454 c0 -11 3 -14 6 -6 3 7 2 16 -1 19 -3 4 -6 -2 -5 -13z"/>
<path d="M4180 2325 c7 -9 15 -13 17 -11 7 7 -7 26 -19 26 -6 0 -6 -6 2 -15z"/>
<path d="M2620 2299 c0 -5 5 -7 10 -4 6 3 10 8 10 11 0 2 -4 4 -10 4 -5 0 -10
-5 -10 -11z"/>
<path d="M2201 2234 c0 -11 3 -14 6 -6 3 7 2 16 -1 19 -3 4 -6 -2 -5 -13z"/>
<path d="M3596 2236 c10 -8 21 -12 24 -10 5 6 -21 24 -34 24 -6 0 -1 -6 10
-14z"/>
<path d="M3221 2237 c2 -1 13 -9 24 -17 19 -14 19 -14 6 3 -7 9 -18 17 -24 17
-6 0 -8 -1 -6 -3z"/>
<path d="M3640 2210 c-25 -8 -23 -10 17 -14 14 -2 19 2 16 11 -3 7 -6 13 -7
12 0 -1 -12 -5 -26 -9z"/>
<path d="M3528 2203 c7 -3 16 -2 19 1 4 3 -2 6 -13 5 -11 0 -14 -3 -6 -6z"/>
<path d="M3220 2190 c0 -5 5 -10 11 -10 5 0 7 5 4 10 -3 6 -8 10 -11 10 -2 0
-4 -4 -4 -10z"/>
<path d="M2348 2063 c7 -3 16 -2 19 1 4 3 -2 6 -13 5 -11 0 -14 -3 -6 -6z"/>
<path d="M4614 2019 c-3 -6 -2 -15 3 -20 5 -5 9 -1 9 11 0 23 -2 24 -12 9z"/>
<path d="M4300 1939 c0 -5 5 -7 10 -4 6 3 10 8 10 11 0 2 -4 4 -10 4 -5 0 -10
-5 -10 -11z"/>
<path d="M2698 1923 c7 -3 16 -2 19 1 4 3 -2 6 -13 5 -11 0 -14 -3 -6 -6z"/>
<path d="M4243 1923 c9 -2 23 -2 30 0 6 3 -1 5 -18 5 -16 0 -22 -2 -12 -5z"/>
<path d="M2708 1893 c7 -3 16 -2 19 1 4 3 -2 6 -13 5 -11 0 -14 -3 -6 -6z"/>
<path d="M3988 1823 c7 -3 16 -2 19 1 4 3 -2 6 -13 5 -11 0 -14 -3 -6 -6z"/>
<path d="M3388 1713 c6 -2 18 -2 25 0 6 3 1 5 -13 5 -14 0 -19 -2 -12 -5z"/>
<path d="M3708 1713 c7 -3 16 -2 19 1 4 3 -2 6 -13 5 -11 0 -14 -3 -6 -6z"/>
</g>
</svg>
